<?xml version="1.0" encoding="UTF-8" standalone="no"?>
<svg
   xmlns:dc="http://purl.org/dc/elements/1.1/"
   xmlns:cc="http://creativecommons.org/ns#"
   xmlns:rdf="http://www.w3.org/1999/02/22-rdf-syntax-ns#"
   xmlns:svg="http://www.w3.org/2000/svg"
   xmlns="http://www.w3.org/2000/svg"
   xmlns:xlink="http://www.w3.org/1999/xlink"
   xmlns:sodipodi="http://sodipodi.sourceforge.net/DTD/sodipodi-0.dtd"
   xmlns:inkscape="http://www.inkscape.org/namespaces/inkscape"
   viewBox="0 0 576 432"
   id="svg2"
   version="1.1"
   inkscape:version="0.48.4 r9939"
   width="100%"
   height="100%"
   sodipodi:docname="5HR165_8cm_pos3.svg"
   inkscape:export-filename="/home/alice/Documents/Etudes/Projet_M1/mesures/mesure_4Mai2015/mesureTR/mesure_5HR_8cm_pos3/trait_T/5HR165_8cm_pos3.png"
   inkscape:export-xdpi="90"
   inkscape:export-ydpi="90">
  <metadata
     id="metadata287">
    <rdf:RDF>
      <cc:Work
         rdf:about="">
        <dc:format>image/svg+xml</dc:format>
        <dc:type
           rdf:resource="http://purl.org/dc/dcmitype/StillImage" />
        <dc:title>Gnuplot</dc:title>
      </cc:Work>
    </rdf:RDF>
  </metadata>
  <defs
     id="defs285" />
  <sodipodi:namedview
     pagecolor="#ffffff"
     bordercolor="#666666"
     borderopacity="1"
     objecttolerance="10"
     gridtolerance="10"
     guidetolerance="10"
     inkscape:pageopacity="0"
     inkscape:pageshadow="2"
     inkscape:window-width="1366"
     inkscape:window-height="718"
     id="namedview283"
     showgrid="false"
     inkscape:zoom="1.0925926"
     inkscape:cx="270.77261"
     inkscape:cy="218.65354"
     inkscape:window-x="0"
     inkscape:window-y="24"
     inkscape:window-maximized="1"
     inkscape:current-layer="svg2" />
  <title
     id="title4">Gnuplot</title>
  <desc
     id="desc6">Produced by GNUPLOT 4.6 patchlevel 4 </desc>
  <g
     id="gnuplot_canvas"
     style="stroke-width:1.5;stroke-miterlimit:4;stroke-dasharray:none">
    <rect
       x="0"
       y="0"
       width="576"
       height="432"
       fill="none"
       id="rect9"
       style="stroke-width:1.5;stroke-miterlimit:4;stroke-dasharray:none" />
    <defs
       id="defs11">
      <circle
         id="gpDot"
         r="0.5"
         stroke-width="0.5" />
      <path
         id="gpPt0"
         stroke-width="0.333"
         stroke="currentColor"
         d="M-1,0 h2 M0,-1 v2" />
      <path
         id="gpPt1"
         stroke-width="0.333"
         stroke="currentColor"
         d="M-1,-1 L1,1 M1,-1 L-1,1" />
      <path
         id="gpPt2"
         stroke-width="0.333"
         stroke="currentColor"
         d="M-1,0 L1,0 M0,-1 L0,1 M-1,-1 L1,1 M-1,1 L1,-1" />
      <rect
         id="gpPt3"
         stroke-width="0.333"
         stroke="currentColor"
         x="-1"
         y="-1"
         width="2"
         height="2" />
      <rect
         id="gpPt4"
         stroke-width="0.333"
         stroke="currentColor"
         fill="currentColor"
         x="-1"
         y="-1"
         width="2"
         height="2" />
      <circle
         id="gpPt5"
         stroke-width="0.333"
         stroke="currentColor"
         cx="0"
         cy="0"
         r="1" />
      <use
         xlink:href="#gpPt5"
         id="gpPt6"
         fill="currentColor"
         stroke="none" />
      <path
         id="gpPt7"
         stroke-width="0.333"
         stroke="currentColor"
         d="M0,-1.33 L-1.33,0.67 L1.33,0.67 z" />
      <use
         xlink:href="#gpPt7"
         id="gpPt8"
         fill="currentColor"
         stroke="none" />
      <use
         xlink:href="#gpPt7"
         id="gpPt9"
         stroke="currentColor"
         transform="rotate(180)" />
      <use
         xlink:href="#gpPt9"
         id="gpPt10"
         fill="currentColor"
         stroke="none" />
      <use
         xlink:href="#gpPt3"
         id="gpPt11"
         stroke="currentColor"
         transform="rotate(45)" />
      <use
         xlink:href="#gpPt11"
         id="gpPt12"
         fill="currentColor"
         stroke="none" />
    </defs>
    <g
       style="fill:none;color:white;stroke:currentColor;stroke-width:1.5;stroke-linecap:butt;stroke-linejoin:miter;stroke-miterlimit:4;stroke-dasharray:none"
       id="g27" />
    <g
       style="fill:none;color:black;stroke:currentColor;stroke-width:1.5;stroke-linecap:butt;stroke-linejoin:miter;stroke-miterlimit:4;stroke-dasharray:none"
       id="g29">
      <g
         style="stroke:none;shape-rendering:crispEdges;stroke-width:1.5;stroke-miterlimit:4;stroke-dasharray:none"
         id="g31">
        <polygon
           fill="rgb(255, 255, 255)"
           points="42.8,393.6 559.0,393.6 559.0,11.4 42.8,11.4 "
           id="polygon33"
           style="stroke-width:1.5;stroke-miterlimit:4;stroke-dasharray:none" />
      </g>
      <path
         stroke="black"
         d="M42.8,393.6 L42.8,11.4 L559.0,11.4 L559.0,393.6 L42.8,393.6  h0.01"
         id="path35"
         style="stroke-width:1.5;stroke-miterlimit:4;stroke-dasharray:none" />
    </g>
    <g
       style="fill:none;color:black;stroke:black;stroke-width:1.5;stroke-linecap:butt;stroke-linejoin:miter;stroke-miterlimit:4;stroke-dasharray:none"
       id="g37" />
    <g
       style="fill:none;color:gray;stroke:currentColor;stroke-width:1.5;stroke-linecap:butt;stroke-linejoin:miter;stroke-miterlimit:4;stroke-dasharray:none"
       id="g39">
      <path
         stroke="gray"
         stroke-dasharray=" 2,4"
         class="gridline"
         d="M42.8,393.6 L559.1,393.6  h0.01"
         id="path41"
         style="stroke-width:1.5;stroke-miterlimit:4;stroke-dasharray:none" />
    </g>
    <g
       style="fill:none;color:black;stroke:currentColor;stroke-width:1.5;stroke-linecap:butt;stroke-linejoin:miter;stroke-miterlimit:4;stroke-dasharray:none"
       id="g43">
      <path
         stroke="black"
         d="M42.8,393.6 L51.2,393.6 M559.1,393.6 L550.7,393.6  h0.01"
         id="path45"
         style="stroke-width:1.5;stroke-miterlimit:4;stroke-dasharray:none" />
      <g
         transform="translate(37.2,397.3)"
         style="stroke:none;fill:rgb(0, 0, 0);font-size:10pt;text-anchor:end;stroke-width:1.5;stroke-miterlimit:4;stroke-dasharray:none"
         id="g47">
        <text
           id="text49"
           style="stroke-width:1.5;stroke-miterlimit:4;stroke-dasharray:none">
          <tspan
             id="tspan51"
             style="stroke-width:1.5;stroke-miterlimit:4;stroke-dasharray:none">0</tspan>
        </text>
      </g>
    </g>
    <g
       style="fill:none;color:gray;stroke:currentColor;stroke-width:1.5;stroke-linecap:butt;stroke-linejoin:miter;stroke-miterlimit:4;stroke-dasharray:none"
       id="g53">
      <path
         stroke="gray"
         stroke-dasharray=" 2,4"
         class="gridline"
         d="M42.8,317.1 L559.1,317.1  h0.01"
         id="path55"
         style="stroke-width:1.5;stroke-miterlimit:4;stroke-dasharray:none" />
    </g>
    <g
       style="fill:none;color:black;stroke:currentColor;stroke-width:1.5;stroke-linecap:butt;stroke-linejoin:miter;stroke-miterlimit:4;stroke-dasharray:none"
       id="g57">
      <path
         stroke="black"
         d="M42.8,317.1 L51.2,317.1 M559.1,317.1 L550.7,317.1  h0.01"
         id="path59"
         style="stroke-width:1.5;stroke-miterlimit:4;stroke-dasharray:none" />
      <g
         transform="translate(37.2,320.8)"
         style="stroke:none;fill:rgb(0, 0, 0);font-size:10pt;text-anchor:end;stroke-width:1.5;stroke-miterlimit:4;stroke-dasharray:none"
         id="g61">
        <text
           id="text63"
           style="stroke-width:1.5;stroke-miterlimit:4;stroke-dasharray:none">
          <tspan
             id="tspan65"
             style="stroke-width:1.5;stroke-miterlimit:4;stroke-dasharray:none">0.2</tspan>
        </text>
      </g>
    </g>
    <g
       style="fill:none;color:gray;stroke:currentColor;stroke-width:1.5;stroke-linecap:butt;stroke-linejoin:miter;stroke-miterlimit:4;stroke-dasharray:none"
       id="g67">
      <path
         stroke="gray"
         stroke-dasharray=" 2,4"
         class="gridline"
         d="M42.8,240.7 L559.1,240.7  h0.01"
         id="path69"
         style="stroke-width:1.5;stroke-miterlimit:4;stroke-dasharray:none" />
    </g>
    <g
       style="fill:none;color:black;stroke:currentColor;stroke-width:1.5;stroke-linecap:butt;stroke-linejoin:miter;stroke-miterlimit:4;stroke-dasharray:none"
       id="g71">
      <path
         stroke="black"
         d="M42.8,240.7 L51.2,240.7 M559.1,240.7 L550.7,240.7  h0.01"
         id="path73"
         style="stroke-width:1.5;stroke-miterlimit:4;stroke-dasharray:none" />
      <g
         transform="translate(37.2,244.4)"
         style="stroke:none;fill:rgb(0, 0, 0);font-size:10pt;text-anchor:end;stroke-width:1.5;stroke-miterlimit:4;stroke-dasharray:none"
         id="g75">
        <text
           id="text77"
           style="stroke-width:1.5;stroke-miterlimit:4;stroke-dasharray:none">
          <tspan
             id="tspan79"
             style="stroke-width:1.5;stroke-miterlimit:4;stroke-dasharray:none">0.4</tspan>
        </text>
      </g>
    </g>
    <g
       style="fill:none;color:gray;stroke:currentColor;stroke-width:1.5;stroke-linecap:butt;stroke-linejoin:miter;stroke-miterlimit:4;stroke-dasharray:none"
       id="g81">
      <path
         stroke="gray"
         stroke-dasharray=" 2,4"
         class="gridline"
         d="M42.8,164.2 L559.1,164.2  h0.01"
         id="path83"
         style="stroke-width:1.5;stroke-miterlimit:4;stroke-dasharray:none" />
    </g>
    <g
       style="fill:none;color:black;stroke:currentColor;stroke-width:1.5;stroke-linecap:butt;stroke-linejoin:miter;stroke-miterlimit:4;stroke-dasharray:none"
       id="g85">
      <path
         stroke="black"
         d="M42.8,164.2 L51.2,164.2 M559.1,164.2 L550.7,164.2  h0.01"
         id="path87"
         style="stroke-width:1.5;stroke-miterlimit:4;stroke-dasharray:none" />
      <g
         transform="translate(37.2,167.9)"
         style="stroke:none;fill:rgb(0, 0, 0);font-size:10pt;text-anchor:end;stroke-width:1.5;stroke-miterlimit:4;stroke-dasharray:none"
         id="g89">
        <text
           id="text91"
           style="stroke-width:1.5;stroke-miterlimit:4;stroke-dasharray:none">
          <tspan
             id="tspan93"
             style="stroke-width:1.5;stroke-miterlimit:4;stroke-dasharray:none">0.6</tspan>
        </text>
      </g>
    </g>
    <g
       style="fill:none;color:gray;stroke:currentColor;stroke-width:1.5;stroke-linecap:butt;stroke-linejoin:miter;stroke-miterlimit:4;stroke-dasharray:none"
       id="g95">
      <path
         stroke="gray"
         stroke-dasharray=" 2,4"
         class="gridline"
         d="M42.8,87.8 L559.1,87.8  h0.01"
         id="path97"
         style="stroke-width:1.5;stroke-miterlimit:4;stroke-dasharray:none" />
    </g>
    <g
       style="fill:none;color:black;stroke:currentColor;stroke-width:1.5;stroke-linecap:butt;stroke-linejoin:miter;stroke-miterlimit:4;stroke-dasharray:none"
       id="g99">
      <path
         stroke="black"
         d="M42.8,87.8 L51.2,87.8 M559.1,87.8 L550.7,87.8  h0.01"
         id="path101"
         style="stroke-width:1.5;stroke-miterlimit:4;stroke-dasharray:none" />
      <g
         transform="translate(37.2,91.5)"
         style="stroke:none;fill:rgb(0, 0, 0);font-size:10pt;text-anchor:end;stroke-width:1.5;stroke-miterlimit:4;stroke-dasharray:none"
         id="g103">
        <text
           id="text105"
           style="stroke-width:1.5;stroke-miterlimit:4;stroke-dasharray:none">
          <tspan
             id="tspan107"
             style="stroke-width:1.5;stroke-miterlimit:4;stroke-dasharray:none">0.8</tspan>
        </text>
      </g>
    </g>
    <g
       style="fill:none;color:gray;stroke:currentColor;stroke-width:1.5;stroke-linecap:butt;stroke-linejoin:miter;stroke-miterlimit:4;stroke-dasharray:none"
       id="g109">
      <path
         stroke="gray"
         stroke-dasharray=" 2,4"
         class="gridline"
         d="M42.8,11.3 L559.1,11.3  h0.01"
         id="path111"
         style="stroke-width:1.5;stroke-miterlimit:4;stroke-dasharray:none" />
    </g>
    <g
       style="fill:none;color:black;stroke:currentColor;stroke-width:1.5;stroke-linecap:butt;stroke-linejoin:miter;stroke-miterlimit:4;stroke-dasharray:none"
       id="g113">
      <path
         stroke="black"
         d="M42.8,11.3 L51.2,11.3 M559.1,11.3 L550.7,11.3  h0.01"
         id="path115"
         style="stroke-width:1.5;stroke-miterlimit:4;stroke-dasharray:none" />
      <g
         transform="translate(37.2,15.0)"
         style="stroke:none;fill:rgb(0, 0, 0);font-size:10pt;text-anchor:end;stroke-width:1.5;stroke-miterlimit:4;stroke-dasharray:none"
         id="g117">
        <text
           id="text119"
           style="stroke-width:1.5;stroke-miterlimit:4;stroke-dasharray:none">
          <tspan
             id="tspan121"
             style="stroke-width:1.5;stroke-miterlimit:4;stroke-dasharray:none">1</tspan>
        </text>
      </g>
    </g>
    <g
       style="fill:none;color:gray;stroke:currentColor;stroke-width:1.5;stroke-linecap:butt;stroke-linejoin:miter;stroke-miterlimit:4;stroke-dasharray:none"
       id="g123">
      <path
         stroke="gray"
         stroke-dasharray=" 2,4"
         class="gridline"
         d="M77.2,393.6 L77.2,11.3  h0.01"
         id="path125"
         style="stroke-width:1.5;stroke-miterlimit:4;stroke-dasharray:none" />
    </g>
    <g
       style="fill:none;color:black;stroke:currentColor;stroke-width:1.5;stroke-linecap:butt;stroke-linejoin:miter;stroke-miterlimit:4;stroke-dasharray:none"
       id="g127">
      <path
         stroke="black"
         d="M77.2,393.6 L77.2,385.2 M77.2,11.3 L77.2,19.7  h0.01"
         id="path129"
         style="stroke-width:1.5;stroke-miterlimit:4;stroke-dasharray:none" />
      <g
         transform="translate(77.2,409.3)"
         style="stroke:none;fill:rgb(0, 0, 0);font-size:10pt;text-anchor:middle;stroke-width:1.5;stroke-miterlimit:4;stroke-dasharray:none"
         id="g131">
        <text
           id="text133"
           style="stroke-width:1.5;stroke-miterlimit:4;stroke-dasharray:none">
          <tspan
             id="tspan135"
             style="stroke-width:1.5;stroke-miterlimit:4;stroke-dasharray:none">200</tspan>
        </text>
      </g>
    </g>
    <g
       style="fill:none;color:gray;stroke:currentColor;stroke-width:1.5;stroke-linecap:butt;stroke-linejoin:miter;stroke-miterlimit:4;stroke-dasharray:none"
       id="g137">
      <path
         stroke="gray"
         stroke-dasharray=" 2,4"
         class="gridline"
         d="M146.1,393.6 L146.1,11.3  h0.01"
         id="path139"
         style="stroke-width:1.5;stroke-miterlimit:4;stroke-dasharray:none" />
    </g>
    <g
       style="fill:none;color:black;stroke:currentColor;stroke-width:1.5;stroke-linecap:butt;stroke-linejoin:miter;stroke-miterlimit:4;stroke-dasharray:none"
       id="g141">
      <path
         stroke="black"
         d="M146.1,393.6 L146.1,385.2 M146.1,11.3 L146.1,19.7  h0.01"
         id="path143"
         style="stroke-width:1.5;stroke-miterlimit:4;stroke-dasharray:none" />
      <g
         transform="translate(146.1,409.3)"
         style="stroke:none;fill:rgb(0, 0, 0);font-size:10pt;text-anchor:middle;stroke-width:1.5;stroke-miterlimit:4;stroke-dasharray:none"
         id="g145">
        <text
           id="text147"
           style="stroke-width:1.5;stroke-miterlimit:4;stroke-dasharray:none">
          <tspan
             id="tspan149"
             style="stroke-width:1.5;stroke-miterlimit:4;stroke-dasharray:none">300</tspan>
        </text>
      </g>
    </g>
    <g
       style="fill:none;color:gray;stroke:currentColor;stroke-width:1.5;stroke-linecap:butt;stroke-linejoin:miter;stroke-miterlimit:4;stroke-dasharray:none"
       id="g151">
      <path
         stroke="gray"
         stroke-dasharray=" 2,4"
         class="gridline"
         d="M214.9,393.6 L214.9,11.3  h0.01"
         id="path153"
         style="stroke-width:1.5;stroke-miterlimit:4;stroke-dasharray:none" />
    </g>
    <g
       style="fill:none;color:black;stroke:currentColor;stroke-width:1.5;stroke-linecap:butt;stroke-linejoin:miter;stroke-miterlimit:4;stroke-dasharray:none"
       id="g155">
      <path
         stroke="black"
         d="M214.9,393.6 L214.9,385.2 M214.9,11.3 L214.9,19.7  h0.01"
         id="path157"
         style="stroke-width:1.5;stroke-miterlimit:4;stroke-dasharray:none" />
      <g
         transform="translate(214.9,409.3)"
         style="stroke:none;fill:rgb(0, 0, 0);font-size:10pt;text-anchor:middle;stroke-width:1.5;stroke-miterlimit:4;stroke-dasharray:none"
         id="g159">
        <text
           id="text161"
           style="stroke-width:1.5;stroke-miterlimit:4;stroke-dasharray:none">
          <tspan
             id="tspan163"
             style="stroke-width:1.5;stroke-miterlimit:4;stroke-dasharray:none">400</tspan>
        </text>
      </g>
    </g>
    <g
       style="fill:none;color:gray;stroke:currentColor;stroke-width:1.5;stroke-linecap:butt;stroke-linejoin:miter;stroke-miterlimit:4;stroke-dasharray:none"
       id="g165">
      <path
         stroke="gray"
         stroke-dasharray=" 2,4"
         class="gridline"
         d="M283.7,393.6 L283.7,11.3  h0.01"
         id="path167"
         style="stroke-width:1.5;stroke-miterlimit:4;stroke-dasharray:none" />
    </g>
    <g
       style="fill:none;color:black;stroke:currentColor;stroke-width:1.5;stroke-linecap:butt;stroke-linejoin:miter;stroke-miterlimit:4;stroke-dasharray:none"
       id="g169">
      <path
         stroke="black"
         d="M283.7,393.6 L283.7,385.2 M283.7,11.3 L283.7,19.7  h0.01"
         id="path171"
         style="stroke-width:1.5;stroke-miterlimit:4;stroke-dasharray:none" />
      <g
         transform="translate(283.7,409.3)"
         style="stroke:none;fill:rgb(0, 0, 0);font-size:10pt;text-anchor:middle;stroke-width:1.5;stroke-miterlimit:4;stroke-dasharray:none"
         id="g173">
        <text
           id="text175"
           style="stroke-width:1.5;stroke-miterlimit:4;stroke-dasharray:none">
          <tspan
             id="tspan177"
             style="stroke-width:1.5;stroke-miterlimit:4;stroke-dasharray:none">500</tspan>
        </text>
      </g>
    </g>
    <g
       style="fill:none;color:gray;stroke:currentColor;stroke-width:1.5;stroke-linecap:butt;stroke-linejoin:miter;stroke-miterlimit:4;stroke-dasharray:none"
       id="g179">
      <path
         stroke="gray"
         stroke-dasharray=" 2,4"
         class="gridline"
         d="M352.6,393.6 L352.6,11.3  h0.01"
         id="path181"
         style="stroke-width:1.5;stroke-miterlimit:4;stroke-dasharray:none" />
    </g>
    <g
       style="fill:none;color:black;stroke:currentColor;stroke-width:1.5;stroke-linecap:butt;stroke-linejoin:miter;stroke-miterlimit:4;stroke-dasharray:none"
       id="g183">
      <path
         stroke="black"
         d="M352.6,393.6 L352.6,385.2 M352.6,11.3 L352.6,19.7  h0.01"
         id="path185"
         style="stroke-width:1.5;stroke-miterlimit:4;stroke-dasharray:none" />
      <g
         transform="translate(352.6,409.3)"
         style="stroke:none;fill:rgb(0, 0, 0);font-size:10pt;text-anchor:middle;stroke-width:1.5;stroke-miterlimit:4;stroke-dasharray:none"
         id="g187">
        <text
           id="text189"
           style="stroke-width:1.5;stroke-miterlimit:4;stroke-dasharray:none">
          <tspan
             id="tspan191"
             style="stroke-width:1.5;stroke-miterlimit:4;stroke-dasharray:none">600</tspan>
        </text>
      </g>
    </g>
    <g
       style="fill:none;color:gray;stroke:currentColor;stroke-width:1.5;stroke-linecap:butt;stroke-linejoin:miter;stroke-miterlimit:4;stroke-dasharray:none"
       id="g193">
      <path
         stroke="gray"
         stroke-dasharray=" 2,4"
         class="gridline"
         d="M421.4,393.6 L421.4,11.3  h0.01"
         id="path195"
         style="stroke-width:1.5;stroke-miterlimit:4;stroke-dasharray:none" />
    </g>
    <g
       style="fill:none;color:black;stroke:currentColor;stroke-width:1.5;stroke-linecap:butt;stroke-linejoin:miter;stroke-miterlimit:4;stroke-dasharray:none"
       id="g197">
      <path
         stroke="black"
         d="M421.4,393.6 L421.4,385.2 M421.4,11.3 L421.4,19.7  h0.01"
         id="path199"
         style="stroke-width:1.5;stroke-miterlimit:4;stroke-dasharray:none" />
      <g
         transform="translate(421.4,409.3)"
         style="stroke:none;fill:rgb(0, 0, 0);font-size:10pt;text-anchor:middle;stroke-width:1.5;stroke-miterlimit:4;stroke-dasharray:none"
         id="g201">
        <text
           id="text203"
           style="stroke-width:1.5;stroke-miterlimit:4;stroke-dasharray:none">
          <tspan
             id="tspan205"
             style="stroke-width:1.5;stroke-miterlimit:4;stroke-dasharray:none">700</tspan>
        </text>
      </g>
    </g>
    <g
       style="fill:none;color:gray;stroke:currentColor;stroke-width:1.5;stroke-linecap:butt;stroke-linejoin:miter;stroke-miterlimit:4;stroke-dasharray:none"
       id="g207">
      <path
         stroke="gray"
         stroke-dasharray=" 2,4"
         class="gridline"
         d="M490.3,393.6 L490.3,387.6 M490.3,363.6 L490.3,11.3  h0.01"
         id="path209"
         style="stroke-width:1.5;stroke-miterlimit:4;stroke-dasharray:none" />
    </g>
    <g
       style="fill:none;color:black;stroke:currentColor;stroke-width:1.5;stroke-linecap:butt;stroke-linejoin:miter;stroke-miterlimit:4;stroke-dasharray:none"
       id="g211">
      <path
         stroke="black"
         d="M490.3,393.6 L490.3,385.2 M490.3,11.3 L490.3,19.7  h0.01"
         id="path213"
         style="stroke-width:1.5;stroke-miterlimit:4;stroke-dasharray:none" />
      <g
         transform="translate(490.3,409.3)"
         style="stroke:none;fill:rgb(0, 0, 0);font-size:10pt;text-anchor:middle;stroke-width:1.5;stroke-miterlimit:4;stroke-dasharray:none"
         id="g215">
        <text
           id="text217"
           style="stroke-width:1.5;stroke-miterlimit:4;stroke-dasharray:none">
          <tspan
             id="tspan219"
             style="stroke-width:1.5;stroke-miterlimit:4;stroke-dasharray:none">800</tspan>
        </text>
      </g>
    </g>
    <g
       style="fill:none;color:gray;stroke:currentColor;stroke-width:1.5;stroke-linecap:butt;stroke-linejoin:miter;stroke-miterlimit:4;stroke-dasharray:none"
       id="g221">
      <path
         stroke="gray"
         stroke-dasharray=" 2,4"
         class="gridline"
         d="M559.1,393.6 L559.1,11.3  h0.01"
         id="path223"
         style="stroke-width:1.5;stroke-miterlimit:4;stroke-dasharray:none" />
    </g>
    <g
       style="fill:none;color:black;stroke:currentColor;stroke-width:1.5;stroke-linecap:butt;stroke-linejoin:miter;stroke-miterlimit:4;stroke-dasharray:none"
       id="g225">
      <path
         stroke="black"
         d="M559.1,393.6 L559.1,385.2 M559.1,11.3 L559.1,19.7  h0.01"
         id="path227"
         style="stroke-width:1.5;stroke-miterlimit:4;stroke-dasharray:none" />
      <g
         transform="translate(559.1,409.3)"
         style="stroke:none;fill:rgb(0, 0, 0);font-size:10pt;text-anchor:middle;stroke-width:1.5;stroke-miterlimit:4;stroke-dasharray:none"
         id="g229">
        <text
           id="text231"
           style="stroke-width:1.5;stroke-miterlimit:4;stroke-dasharray:none">
          <tspan
             id="tspan233"
             style="stroke-width:1.5;stroke-miterlimit:4;stroke-dasharray:none">900</tspan>
        </text>
      </g>
      <path
         stroke="black"
         d="M42.8,11.3 L42.8,393.6 L559.1,393.6 L559.1,11.3 L42.8,11.3 Z  h0.01"
         id="path235"
         style="stroke-width:1.5;stroke-miterlimit:4;stroke-dasharray:none" />
      <g
         transform="translate(12.5,202.5) rotate(-90)"
         style="stroke:none;fill:rgb(0, 0, 0);font-size:10pt;text-anchor:middle;stroke-width:1.5;stroke-miterlimit:4;stroke-dasharray:none"
         id="g237">
        <text
           id="text239"
           style="stroke-width:1.5;stroke-miterlimit:4;stroke-dasharray:none">
          <tspan
             id="tspan241"
             style="stroke-width:1.5;stroke-miterlimit:4;stroke-dasharray:none">|T|</tspan>
        </text>
      </g>
      <g
         transform="translate(300.9,427.3)"
         style="stroke:none;fill:rgb(0, 0, 0);font-size:10pt;text-anchor:middle;stroke-width:1.5;stroke-miterlimit:4;stroke-dasharray:none"
         id="g243">
        <text
           id="text245"
           style="stroke-width:1.5;stroke-miterlimit:4;stroke-dasharray:none">
          <tspan
             id="tspan247"
             style="stroke-width:1.5;stroke-miterlimit:4;stroke-dasharray:none">Frequences (Hz)</tspan>
        </text>
      </g>
    </g>
    <g
       style="fill:none;color:black;stroke:black;stroke-width:1.5;stroke-linecap:butt;stroke-linejoin:miter;stroke-miterlimit:4;stroke-dasharray:none"
       id="g249">
      <path
         stroke="black"
         d="M457.9,387.6 L457.9,363.6 L553.5,363.6 L553.5,387.6 L457.9,387.6 Z  h0.01"
         id="path251"
         style="stroke-width:1.5;stroke-miterlimit:4;stroke-dasharray:none" />
    </g>
    <g
       id="gnuplot_plot_1a"
       style="stroke-width:1.5;stroke-miterlimit:4;stroke-dasharray:none">
      <title
         id="title254">gnuplot_plot_1a</title>
      <g
         style="fill:none;color:white;stroke:black;stroke-width:1.5;stroke-linecap:butt;stroke-linejoin:miter;stroke-miterlimit:4;stroke-dasharray:none"
         id="g256" />
      <g
         style="fill:none;color:red;stroke:currentColor;stroke-width:1.5;stroke-linecap:butt;stroke-linejoin:miter;stroke-miterlimit:4;stroke-dasharray:none"
         id="g258">
        <g
           transform="translate(553.5,373.3)"
           style="stroke:none;fill:rgb(0, 0, 0);font-size:10pt;text-anchor:end;stroke-width:1.5;stroke-miterlimit:4;stroke-dasharray:none"
           id="g260">
          <text
             id="text262"
             style="stroke-width:1.5;stroke-miterlimit:4;stroke-dasharray:none">
            <tspan
               id="tspan264"
               style="stroke-width:1.5;stroke-miterlimit:4;stroke-dasharray:none">Simulation</tspan>
          </text>
        </g>
        <path
           stroke="rgb(  0,   0, 255)"
           d="M463.5,369.6 L491.9,369.6 M42.8,38.5 L43.5,38.1 L44.2,37.7 L44.9,37.2 L45.6,36.8 L46.2,36.3    L46.9,35.9 L47.6,35.4 L48.3,35.0 L49.0,34.5 L49.7,34.0 L50.4,33.6 L51.1,33.1 L51.7,32.6    L52.4,32.1 L53.1,31.7 L53.8,31.2 L54.5,30.7 L55.2,30.3 L55.9,29.8 L56.6,29.4 L57.3,29.0    L57.9,28.6 L58.6,28.2 L59.3,27.9 L60.0,27.5 L60.7,27.2 L61.4,26.9 L62.1,26.7 L62.8,26.5    L63.5,26.3 L64.1,26.2 L64.8,26.1 L65.5,26.1 L66.2,26.2 L66.9,26.3 L67.6,26.4 L68.3,26.7    L69.0,27.0 L69.6,27.3 L70.3,27.8 L71.0,28.4 L71.7,29.0 L72.4,29.7 L73.1,30.6 L73.8,31.5    L74.5,32.6 L75.2,33.7 L75.8,35.0 L76.5,36.4 L77.2,37.9 L77.9,39.6 L78.6,41.3 L79.3,43.2    L80.0,45.2 L80.7,47.4 L81.4,49.7 L82.0,52.1 L82.7,54.6 L83.4,57.3 L84.1,60.1 L84.8,63.0    L85.5,66.0 L86.2,69.1 L86.9,72.4 L87.5,75.7 L88.2,79.2 L88.9,82.7 L89.6,86.4 L90.3,90.1    L91.0,93.8 L91.7,97.7 L92.4,101.6 L93.1,105.5 L93.7,109.5 L94.4,113.5 L95.1,117.6 L95.8,121.6    L96.5,125.7 L97.2,129.7 L97.9,133.8 L98.6,137.8 L99.2,141.8 L99.9,145.7 L100.6,149.7 L101.3,153.5    L102.0,157.3 L102.7,161.1 L103.4,164.8 L104.1,168.3 L104.8,171.9 L105.4,175.3 L106.1,178.6 L106.8,181.8    L107.5,184.9 L108.2,187.9 L108.9,190.7 L109.6,193.4 L110.3,195.9 L111.0,198.3 L111.6,200.6 L112.3,202.6    L113.0,204.5 L113.7,206.1 L114.4,207.5 L115.1,208.7 L115.8,209.6 L116.5,210.3 L117.1,210.6 L117.8,210.6    L118.5,210.2 L119.2,209.5 L119.9,208.3 L120.6,206.6 L121.3,204.3 L122.0,201.6 L122.7,198.2 L123.3,194.4    L124.0,190.0 L124.7,185.3 L125.4,180.6 L126.1,176.4 L126.8,173.4 L127.5,172.5 L128.2,174.5 L128.9,179.9    L129.5,188.8 L130.2,200.5 L130.9,214.1 L131.6,229.0 L132.3,245.2 L133.0,263.6 L133.7,285.4 L134.4,309.5    L135.0,332.7 L135.7,351.8 L136.4,365.8 L137.1,375.3 L137.8,381.7 L138.5,385.9 L139.2,388.6 L139.9,390.4    L140.6,391.6 L141.2,392.3 L141.9,392.8 L142.6,393.1 L143.3,393.3 L144.0,393.5 L144.7,393.5 L145.4,393.6    L146.1,393.6 L146.7,393.6 L147.4,393.6 L148.1,393.6 L148.8,393.6 L149.5,393.6 L150.2,393.6 L150.9,393.6    L151.6,393.6 L152.3,393.6 L152.9,393.6 L153.6,393.5 L154.3,393.5 L155.0,393.4 L155.7,393.4 L156.4,393.3    L157.1,393.2 L157.8,393.1 L158.5,393.0 L159.1,392.8 L159.8,392.6 L160.5,392.4 L161.2,392.2 L161.9,391.9    L162.6,391.6 L163.3,391.3 L164.0,390.9 L164.6,390.5 L165.3,390.0 L166.0,389.5 L166.7,388.9 L167.4,388.3    L168.1,387.6 L168.8,386.9 L169.5,386.1 L170.2,385.2 L170.8,384.2 L171.5,383.2 L172.2,382.0 L172.9,380.7    L173.6,379.4 L174.3,377.9 L175.0,376.2 L175.7,374.4 L176.3,372.5 L177.0,370.3 L177.7,367.9 L178.4,365.4    L179.1,362.5 L179.8,359.3 L180.5,355.9 L181.2,352.0 L181.9,347.7 L182.5,342.9 L183.2,337.6 L183.9,331.6    L184.6,324.9 L185.3,317.3 L186.0,308.8 L186.7,299.2 L187.4,288.5 L188.1,276.4 L188.7,263.1 L189.4,248.7    L190.1,233.5 L190.8,218.3 L191.5,203.9 L192.2,191.8 L192.9,183.2 L193.6,178.8 L194.2,178.6 L194.9,182.0    L195.6,188.0 L196.3,195.6 L197.0,203.8 L197.7,212.2 L198.4,220.3 L199.1,227.9 L199.8,235.0 L200.4,241.5    L201.1,247.5 L201.8,253.0 L202.5,257.9 L203.2,262.5 L203.9,266.6 L204.6,270.4 L205.3,273.9 L206.0,277.1    L206.6,280.0 L207.3,282.8 L208.0,285.3 L208.7,287.7 L209.4,289.9 L210.1,292.0 L210.8,293.9 L211.5,295.7    L212.1,297.5 L212.8,299.1 L213.5,300.6 L214.2,302.1 L214.9,303.5 L215.6,304.8 L216.3,306.1 L217.0,307.3    L217.7,308.5 L218.3,309.6 L219.0,310.7 L219.7,311.8 L220.4,312.8 L221.1,313.8 L221.8,314.8 L222.5,315.7    L223.2,316.7 L223.8,317.6 L224.5,318.5 L225.2,319.3 L225.9,320.2 L226.6,321.0 L227.3,321.9 L228.0,322.7    L228.7,323.5 L229.4,324.3 L230.0,325.1 L230.7,326.0 L231.4,326.8 L232.1,327.6 L232.8,328.4 L233.5,329.2    L234.2,330.0 L234.9,330.8 L235.6,331.6 L236.2,332.4 L236.9,333.2 L237.6,334.0 L238.3,334.8 L239.0,335.6    L239.7,336.5 L240.4,337.3 L241.1,338.2 L241.7,339.0 L242.4,339.9 L243.1,340.8 L243.8,341.7 L244.5,342.6    L245.2,343.5 L245.9,344.5 L246.6,345.4 L247.3,346.4 L247.9,347.3 L248.6,348.3 L249.3,349.3 L250.0,350.4    L250.7,351.4 L251.4,352.5 L252.1,353.5 L252.8,354.6 L253.5,355.8 L254.1,356.9 L254.8,358.0 L255.5,359.2    L256.2,360.4 L256.9,361.6 L257.6,362.9 L258.3,364.2 L259.0,365.4 L259.6,366.8 L260.3,368.1 L261.0,369.4    L261.7,370.8 L262.4,372.2 L263.1,373.6 L263.8,375.0 L264.5,376.5 L265.2,377.9 L265.8,379.3 L266.5,380.7    L267.2,382.0 L267.9,383.3 L268.6,384.4 L269.3,385.3 L270.0,385.8 L270.7,385.9 L271.3,385.5 L272.0,384.7    L272.7,383.5 L273.4,382.0 L274.1,380.3 L274.8,378.5 L275.5,376.5 L276.2,374.4 L276.9,372.3 L277.5,370.0    L278.2,367.7 L278.9,365.3 L279.6,362.8 L280.3,360.3 L281.0,357.7 L281.7,355.1 L282.4,352.4 L283.1,349.6    L283.7,346.7 L284.4,343.8 L285.1,340.9 L285.8,337.8 L286.5,334.7 L287.2,331.6 L287.9,328.4 L288.6,325.1    L289.2,321.7 L289.9,318.3 L290.6,314.9 L291.3,311.3 L292.0,307.8 L292.7,304.1 L293.4,300.4 L294.1,296.7    L294.8,292.8 L295.4,289.0 L296.1,285.0 L296.8,281.1 L297.5,277.0 L298.2,273.0 L298.9,268.8 L299.6,264.7    L300.3,260.5 L301.0,256.2 L301.6,251.9 L302.3,247.6 L303.0,243.3 L303.7,238.9 L304.4,234.5 L305.1,230.1    L305.8,225.6 L306.5,221.2 L307.1,216.7 L307.8,212.3 L308.5,207.8 L309.2,203.4 L309.9,198.9 L310.6,194.5    L311.3,190.1 L312.0,185.7 L312.7,181.4 L313.3,177.1 L314.0,172.8 L314.7,168.5 L315.4,164.4 L316.1,160.2    L316.8,156.1 L317.5,152.1 L318.2,148.1 L318.8,144.2 L319.5,140.4 L320.2,136.6 L320.9,132.9 L321.6,129.3    L322.3,125.7 L323.0,122.3 L323.7,118.9 L324.4,115.6 L325.0,112.3 L325.7,109.2 L326.4,106.2 L327.1,103.2    L327.8,100.3 L328.5,97.5 L329.2,94.8 L329.9,92.2 L330.6,89.6 L331.2,87.2 L331.9,84.8 L332.6,82.5    L333.3,80.3 L334.0,78.2 L334.7,76.1 L335.4,74.1 L336.1,72.2 L336.7,70.4 L337.4,68.6 L338.1,66.9    L338.8,65.3 L339.5,63.8 L340.2,62.3 L340.9,60.8 L341.6,59.4 L342.3,58.1 L342.9,56.8 L343.6,55.6    L344.3,54.5 L345.0,53.3 L345.7,52.3 L346.4,51.2 L347.1,50.3 L347.8,49.3 L348.4,48.4 L349.1,47.6    L349.8,46.8 L350.5,46.0 L351.2,45.2 L351.9,44.5 L352.6,43.8 L353.3,43.2 L354.0,42.5 L354.6,41.9    L355.3,41.3 L356.0,40.8 L356.7,40.3 L357.4,39.8 L358.1,39.3 L358.8,38.8 L359.5,38.4 L360.2,38.0    L360.8,37.6 L361.5,37.2 L362.2,36.8 L362.9,36.4 L363.6,36.1 L364.3,35.8 L365.0,35.5 L365.7,35.2    L366.3,34.9 L367.0,34.6 L367.7,34.3 L368.4,34.1 L369.1,33.8 L369.8,33.6 L370.5,33.4 L371.2,33.1    L371.9,32.9 L372.5,32.7 L373.2,32.5 L373.9,32.4 L374.6,32.2 L375.3,32.0 L376.0,31.8 L376.7,31.7    L377.4,31.5 L378.1,31.4 L378.7,31.2 L379.4,31.1 L380.1,31.0 L380.8,30.8 L381.5,30.7 L382.2,30.6    L382.9,30.5 L383.6,30.3 L384.2,30.2 L384.9,30.1 L385.6,30.0 L386.3,29.9 L387.0,29.8 L387.7,29.7    L388.4,29.6 L389.1,29.6 L389.8,29.5 L390.4,29.4 L391.1,29.3 L391.8,29.2 L392.5,29.2 L393.2,29.1    L393.9,29.0 L394.6,29.0 L395.3,28.9 L395.9,28.8 L396.6,28.8 L397.3,28.7 L398.0,28.7 L398.7,28.6    L399.4,28.6 L400.1,28.5 L400.8,28.5 L401.5,28.4 L402.1,28.4 L402.8,28.3 L403.5,28.3 L404.2,28.2    L404.9,28.2 L405.6,28.2 L406.3,28.1 L407.0,28.1 L407.7,28.1 L408.3,28.0 L409.0,28.0 L409.7,28.0    L410.4,28.0 L411.1,27.9 L411.8,27.9 L412.5,27.9 L413.2,27.9 L413.8,27.8 L414.5,27.8 L415.2,27.8    L415.9,27.8 L416.6,27.8 L417.3,27.8 L418.0,27.8 L418.7,27.8 L419.4,27.7 L420.0,27.7 L420.7,27.7    L421.4,27.7 L422.1,27.7 L422.8,27.7 L423.5,27.7 L424.2,27.7 L424.9,27.7 L425.6,27.7 L426.2,27.7    L426.9,27.7 L427.6,27.7 L428.3,27.7 L429.0,27.7 L429.7,27.7 L430.4,27.8 L431.1,27.8 L431.7,27.8    L432.4,27.8 L433.1,27.8 L433.8,27.8 L434.5,27.8 L435.2,27.8 L435.9,27.9 L436.6,27.9 L437.3,27.9    L437.9,27.9 L438.6,27.9 L439.3,27.9 L440.0,28.0 L440.7,28.0 L441.4,28.0 L442.1,28.0 L442.8,28.1    L443.4,28.1 L444.1,28.1 L444.8,28.1 L445.5,28.1 L446.2,28.2 L446.9,28.2 L447.6,28.2 L448.3,28.3    L449.0,28.3 L449.6,28.3 L450.3,28.3 L451.0,28.4 L451.7,28.4 L452.4,28.4 L453.1,28.5 L453.8,28.5    L454.5,28.5 L455.2,28.6 L455.8,28.6 L456.5,28.6 L457.2,28.6 L457.9,28.7 L458.6,28.7 L459.3,28.7    L460.0,28.8 L460.7,28.8 L461.3,28.8 L462.0,28.9 L462.7,28.9 L463.4,28.9 L464.1,29.0 L464.8,29.0    L465.5,29.0 L466.2,29.1 L466.9,29.1 L467.5,29.1 L468.2,29.2 L468.9,29.2 L469.6,29.2 L470.3,29.3    L471.0,29.3 L471.7,29.4 L472.4,29.4 L473.1,29.4 L473.7,29.4 L474.4,29.5 L475.1,29.5 L475.8,29.5    L476.5,29.6 L477.2,29.6 L477.9,29.6 L478.6,29.7 L479.2,29.7 L479.9,29.7 L480.6,29.8 L481.3,29.8    L482.0,29.8 L482.7,29.9 L483.4,29.9 L484.1,29.9 L484.8,29.9 L485.4,30.0 L486.1,30.0 L486.8,30.0    L487.5,30.1 L488.2,30.1 L488.9,30.1 L489.6,30.1 L490.3,30.2 L490.9,30.2 L491.6,30.2 L492.3,30.2    L493.0,30.3 L493.7,30.3 L494.4,30.3 L495.1,30.3 L495.8,30.3 L496.5,30.4 L497.1,30.4 L497.8,30.4    L498.5,30.4 L499.2,30.4 L499.9,30.5 L500.6,30.5 L501.3,30.5 L502.0,30.5 L502.7,30.5 L503.3,30.5    L504.0,30.6 L504.7,30.6 L505.4,30.6 L506.1,30.6 L506.8,30.6 L507.5,30.6 L508.2,30.6 L508.8,30.7    L509.5,30.7 L510.2,30.7 L510.9,30.7 L511.6,30.7 L512.3,30.7 L513.0,30.7 L513.7,30.7 L514.4,30.7    L515.0,30.7 L515.7,30.7 L516.4,30.7 L517.1,30.7 L517.8,30.7 L518.5,30.7 L519.2,30.7 L519.9,30.7    L520.5,30.7 L521.2,30.7 L521.9,30.7 L522.6,30.7 L523.3,30.7 L524.0,30.7 L524.7,30.7 L525.4,30.7    L526.1,30.7 L526.7,30.7 L527.4,30.7 L528.1,30.7 L528.8,30.7 L529.5,30.7 L530.2,30.7 L530.9,30.7    L531.6,30.7 L532.3,30.7 L532.9,30.7 L533.6,30.6 L534.3,30.6 L535.0,30.6 L535.7,30.6 L536.4,30.6    L537.1,30.6 L537.8,30.6 L538.4,30.6 L539.1,30.5 L539.8,30.5 L540.5,30.5 L541.2,30.5 L541.9,30.5    L542.6,30.5 L543.3,30.5 L544.0,30.4 L544.6,30.4 L545.3,30.4 L546.0,30.4 L546.7,30.4 L547.4,30.4    L548.1,30.3 L548.8,30.3 L549.5,30.3 L550.2,30.3 L550.8,30.3 L551.5,30.2 L552.2,30.2 L552.9,30.2    L553.6,30.2 L554.3,30.2 L555.0,30.1 L555.7,30.1 L556.3,30.1 L557.0,30.1 L557.7,30.1 L558.4,30.0    L559.1,30.0  h0.01"
           id="path266"
           style="stroke-width:1.5;stroke-miterlimit:4;stroke-dasharray:3,1.5;stroke-dashoffset:0" />
      </g>
    </g>
    <g
       id="gnuplot_plot_2a"
       style="stroke-width:1.5;stroke-miterlimit:4;stroke-dasharray:none">
      <title
         id="title269">gnuplot_plot_2a</title>
      <g
         style="fill:none;color:red;stroke:currentColor;stroke-width:1.5;stroke-linecap:butt;stroke-linejoin:miter;stroke-miterlimit:4;stroke-dasharray:none"
         id="g271">
        <g
           transform="translate(553.5,385.3)"
           style="stroke:none;fill:rgb(0, 0, 0);font-size:10pt;text-anchor:end;stroke-width:1.5;stroke-miterlimit:4;stroke-dasharray:none"
           id="g273">
          <text
             id="text275"
             style="stroke-width:1.5;stroke-miterlimit:4;stroke-dasharray:none">
            <tspan
               id="tspan277"
               style="stroke-width:1.5;stroke-miterlimit:4;stroke-dasharray:none">Mesures</tspan>
          </text>
        </g>
        <path
           stroke="rgb(  0,   0,   0)"
           d="M463.5,381.6 L491.9,381.6 M42.8,65.0 L42.9,53.9 L43.1,61.1 L43.2,74.8 L43.4,64.0 L43.5,57.4    L43.6,63.5 L43.8,70.9 L43.9,71.1 L44.0,59.7 L44.2,58.4 L44.3,62.8 L44.5,73.3 L44.6,70.2    L44.7,57.9 L44.9,57.4 L45.0,68.8 L45.1,73.3 L45.3,60.1 L45.4,65.6 L45.6,70.7 L45.7,78.3    L45.8,68.8 L46.0,59.9 L46.1,64.0 L46.2,78.5 L46.4,73.2 L46.5,61.1 L46.7,67.2 L46.8,74.9    L46.9,73.4 L47.1,66.1 L47.2,66.1 L47.3,71.8 L47.5,73.9 L47.6,69.9 L47.8,63.8 L47.9,68.6    L48.0,72.9 L48.2,65.6 L48.3,66.7 L48.4,68.3 L48.6,75.9 L48.7,67.7 L48.9,67.4 L49.0,65.3    L49.1,74.7 L49.3,73.8 L49.4,64.6 L49.5,65.2 L49.7,73.3 L49.8,72.5 L50.0,61.7 L50.1,64.6    L50.2,69.6 L50.4,70.9 L50.5,67.4 L50.6,66.9 L50.8,70.9 L50.9,73.5 L51.1,66.2 L51.2,59.6    L51.3,66.6 L51.5,73.6 L51.6,61.3 L51.7,61.8 L51.9,66.5 L52.0,68.8 L52.2,66.2 L52.3,59.6    L52.4,63.6 L52.6,64.2 L52.7,63.2 L52.9,59.7 L53.0,60.6 L53.1,68.0 L53.3,62.4 L53.4,53.7    L53.5,62.1 L53.7,63.4 L53.8,54.5 L54.0,53.5 L54.1,59.2 L54.2,64.9 L54.4,55.4 L54.5,49.7    L54.6,61.7 L54.8,55.4 L54.9,52.2 L55.1,49.6 L55.2,59.2 L55.3,56.8 L55.5,48.4 L55.6,52.7    L55.7,59.1 L55.9,58.4 L56.0,46.2 L56.2,46.6 L56.3,57.1 L56.4,53.3 L56.6,45.0 L56.7,47.6    L56.8,53.5 L57.0,50.7 L57.1,43.7 L57.3,45.5 L57.4,53.0 L57.5,49.2 L57.7,47.8 L57.8,46.0    L57.9,49.3 L58.1,43.0 L58.2,44.9 L58.4,48.2 L58.5,47.8 L58.6,42.6 L58.8,46.1 L58.9,50.2    L59.0,48.0 L59.2,39.4 L59.3,44.8 L59.5,52.7 L59.6,42.7 L59.7,37.4 L59.9,46.7 L60.0,48.0    L60.1,38.6 L60.3,41.0 L60.4,49.6 L60.6,47.4 L60.7,41.3 L60.8,41.9 L61.0,49.6 L61.1,41.4    L61.2,37.9 L61.4,46.6 L61.5,50.1 L61.7,40.3 L61.8,39.9 L61.9,50.4 L62.1,45.3 L62.2,37.5    L62.4,42.9 L62.5,52.0 L62.6,45.1 L62.8,38.3 L62.9,46.1 L63.0,47.1 L63.2,37.7 L63.3,46.2    L63.5,51.2 L63.6,43.3 L63.7,42.8 L63.9,46.2 L64.0,48.7 L64.1,41.4 L64.3,44.9 L64.4,48.3    L64.6,43.7 L64.7,41.5 L64.8,49.2 L65.0,53.5 L65.1,47.6 L65.2,42.7 L65.4,51.0 L65.5,49.0    L65.7,45.6 L65.8,49.1 L65.9,53.5 L66.1,47.7 L66.2,46.0 L66.3,53.3 L66.5,47.8 L66.6,47.0    L66.8,53.3 L66.9,56.9 L67.0,48.4 L67.2,46.8 L67.3,55.2 L67.4,53.3 L67.6,46.4 L67.7,53.2    L67.9,52.5 L68.0,49.6 L68.1,52.5 L68.3,55.4 L68.4,52.8 L68.5,55.7 L68.7,56.3 L68.8,55.0    L69.0,52.5 L69.1,55.8 L69.2,58.9 L69.4,53.1 L69.5,51.8 L69.6,58.9 L69.8,60.5 L69.9,53.3    L70.1,57.0 L70.2,62.4 L70.3,55.0 L70.5,54.9 L70.6,64.4 L70.7,58.3 L70.9,57.1 L71.0,63.7    L71.2,62.4 L71.3,56.1 L71.4,62.3 L71.6,64.4 L71.7,58.6 L71.9,56.5 L72.0,66.1 L72.1,57.9    L72.3,55.6 L72.4,67.0 L72.5,65.4 L72.7,55.3 L72.8,58.3 L73.0,66.8 L73.1,60.7 L73.2,59.0    L73.4,66.0 L73.5,59.1 L73.6,57.1 L73.8,67.0 L73.9,65.0 L74.1,61.9 L74.2,66.2 L74.3,68.9    L74.5,57.5 L74.6,61.3 L74.7,70.0 L74.9,61.9 L75.0,62.2 L75.2,68.4 L75.3,66.1 L75.4,61.7    L75.6,68.8 L75.7,67.3 L75.8,60.4 L76.0,65.2 L76.1,68.9 L76.3,61.0 L76.4,66.0 L76.5,72.6    L76.7,65.2 L76.8,64.1 L76.9,73.2 L77.1,68.2 L77.2,65.5 L77.4,72.0 L77.5,70.5 L77.6,66.0    L77.8,72.2 L77.9,74.1 L78.0,68.2 L78.2,74.1 L78.3,73.5 L78.5,68.1 L78.6,71.4 L78.7,75.5    L78.9,71.1 L79.0,69.9 L79.1,77.5 L79.3,72.7 L79.4,72.1 L79.6,78.5 L79.7,74.1 L79.8,70.2    L80.0,76.2 L80.1,76.2 L80.2,74.1 L80.4,75.9 L80.5,77.0 L80.7,74.6 L80.8,81.7 L80.9,82.1    L81.1,74.7 L81.2,81.7 L81.4,83.7 L81.5,74.9 L81.6,81.4 L81.8,86.9 L81.9,79.4 L82.0,81.2    L82.2,89.5 L82.3,81.1 L82.5,79.8 L82.6,86.5 L82.7,84.6 L82.9,84.6 L83.0,92.0 L83.1,85.0    L83.3,82.5 L83.4,91.3 L83.6,88.6 L83.7,85.5 L83.8,92.7 L84.0,90.3 L84.1,86.0 L84.2,93.6    L84.4,93.1 L84.5,89.7 L84.7,96.3 L84.8,95.6 L84.9,89.6 L85.1,98.4 L85.2,95.6 L85.3,92.7    L85.5,96.9 L85.6,98.4 L85.8,95.8 L85.9,100.3 L86.0,101.2 L86.2,95.5 L86.3,101.7 L86.4,99.9    L86.6,97.4 L86.7,105.9 L86.9,103.7 L87.0,98.6 L87.1,105.5 L87.3,105.8 L87.4,101.0 L87.5,106.9    L87.7,106.1 L87.8,104.0 L88.0,109.6 L88.1,109.6 L88.2,104.1 L88.4,108.8 L88.5,110.4 L88.6,108.2    L88.8,114.4 L88.9,112.8 L89.1,109.3 L89.2,116.2 L89.3,112.6 L89.5,111.4 L89.6,117.0 L89.7,116.6    L89.9,112.4 L90.0,119.4 L90.2,116.0 L90.3,114.7 L90.4,120.2 L90.6,116.6 L90.7,117.4 L90.9,123.4    L91.0,118.6 L91.1,118.5 L91.3,124.0 L91.4,120.6 L91.5,120.2 L91.7,125.8 L91.8,120.8 L92.0,124.7    L92.1,129.2 L92.2,124.0 L92.4,126.0 L92.5,129.0 L92.6,125.8 L92.8,128.4 L92.9,131.9 L93.1,126.9    L93.2,132.3 L93.3,131.5 L93.5,130.1 L93.6,133.6 L93.7,137.1 L93.9,132.6 L94.0,138.9 L94.2,136.2    L94.3,133.9 L94.4,139.9 L94.6,138.8 L94.7,135.9 L94.8,142.1 L95.0,140.2 L95.1,139.4 L95.3,142.4    L95.4,141.5 L95.5,143.0 L95.7,146.5 L95.8,140.4 L95.9,142.9 L96.1,147.9 L96.2,143.7 L96.4,147.6    L96.5,149.7 L96.6,146.5 L96.8,150.5 L96.9,153.3 L97.0,150.4 L97.2,155.4 L97.3,152.8 L97.5,151.6    L97.6,157.5 L97.7,154.3 L97.9,154.2 L98.0,156.9 L98.1,154.9 L98.3,159.3 L98.4,160.9 L98.6,155.7    L98.7,163.1 L98.8,162.2 L99.0,158.5 L99.1,164.2 L99.2,163.1 L99.4,163.8 L99.5,167.5 L99.7,164.0    L99.8,164.9 L99.9,170.3 L100.1,167.7 L100.2,169.5 L100.4,169.9 L100.5,165.6 L100.6,173.3 L100.8,173.1    L100.9,170.7 L101.0,176.0 L101.2,173.5 L101.3,173.5 L101.5,176.9 L101.6,173.1 L101.7,175.9 L101.9,177.6    L102.0,177.2 L102.1,180.1 L102.3,180.0 L102.4,179.6 L102.6,184.8 L102.7,181.6 L102.8,180.9 L103.0,183.9    L103.1,183.8 L103.2,186.8 L103.4,187.9 L103.5,183.3 L103.7,187.9 L103.8,188.5 L103.9,187.1 L104.1,191.8    L104.2,189.6 L104.3,190.6 L104.5,191.9 L104.6,190.8 L104.8,192.8 L104.9,195.9 L105.0,192.7 L105.2,196.4    L105.3,196.2 L105.4,195.2 L105.6,197.9 L105.7,194.4 L105.9,197.5 L106.0,199.9 L106.1,196.9 L106.3,200.4    L106.4,201.3 L106.5,199.0 L106.7,202.9 L106.8,201.4 L107.0,202.8 L107.1,205.5 L107.2,203.2 L107.4,205.5    L107.5,205.2 L107.6,205.3 L107.8,208.4 L107.9,206.5 L108.1,207.5 L108.2,209.9 L108.3,207.7 L108.5,210.4    L108.6,211.1 L108.7,209.2 L108.9,213.5 L109.0,212.2 L109.2,212.3 L109.3,214.3 L109.4,212.0 L109.6,214.0    L109.7,215.6 L109.9,213.8 L110.0,215.8 L110.1,215.2 L110.3,217.7 L110.4,218.0 L110.5,216.8 L110.7,220.2    L110.8,219.1 L111.0,217.5 L111.1,220.7 L111.2,218.2 L111.4,221.6 L111.5,222.8 L111.6,220.8 L111.8,222.7    L111.9,221.6 L112.1,221.9 L112.2,224.4 L112.3,222.7 L112.5,225.0 L112.6,225.3 L112.7,223.8 L112.9,225.6    L113.0,225.5 L113.2,226.0 L113.3,226.8 L113.4,225.6 L113.6,229.3 L113.7,227.8 L113.8,227.1 L114.0,229.0    L114.1,229.4 L114.3,229.0 L114.4,229.3 L114.5,229.5 L114.7,231.0 L114.8,229.0 L114.9,230.8 L115.1,231.8    L115.2,229.8 L115.4,232.5 L115.5,232.2 L115.6,231.6 L115.8,232.7 L115.9,231.2 L116.0,232.8 L116.2,233.0    L116.3,232.0 L116.5,233.8 L116.6,231.0 L116.7,233.9 L116.9,233.7 L117.0,233.4 L117.1,234.5 L117.3,233.1    L117.4,234.2 L117.6,234.7 L117.7,233.5 L117.8,235.5 L118.0,234.5 L118.1,234.3 L118.2,235.3 L118.4,233.5    L118.5,235.4 L118.7,232.8 L118.8,234.9 L118.9,234.5 L119.1,233.7 L119.2,234.8 L119.4,233.8 L119.5,232.7    L119.6,234.8 L119.8,233.1 L119.9,233.5 L120.0,233.3 L120.2,232.0 L120.3,234.1 L120.5,232.9 L120.6,232.2    L120.7,231.9 L120.9,232.0 L121.0,232.8 L121.1,230.9 L121.3,232.4 L121.4,231.9 L121.6,230.5 L121.7,232.0    L121.8,230.2 L122.0,230.5 L122.1,230.1 L122.2,229.3 L122.4,231.0 L122.5,228.8 L122.7,229.5 L122.8,228.1    L122.9,227.2 L123.1,229.1 L123.2,228.0 L123.3,228.6 L123.5,227.5 L123.6,226.9 L123.8,227.0 L123.9,226.7    L124.0,227.6 L124.2,226.0 L124.3,225.3 L124.4,226.4 L124.6,225.1 L124.7,226.2 L124.9,225.4 L125.0,226.1    L125.1,226.1 L125.3,225.1 L125.4,226.3 L125.5,225.1 L125.7,226.4 L125.8,226.7 L126.0,226.4 L126.1,227.5    L126.2,227.5 L126.4,229.3 L126.5,229.4 L126.6,230.0 L126.8,231.8 L126.9,231.8 L127.1,233.4 L127.2,233.7    L127.3,235.7 L127.5,237.3 L127.6,237.7 L127.7,240.0 L127.9,240.8 L128.0,243.6 L128.2,245.4 L128.3,246.1    L128.4,249.0 L128.6,250.1 L128.7,252.9 L128.9,254.0 L129.0,257.1 L129.1,259.8 L129.3,260.7 L129.4,264.9    L129.5,267.1 L129.7,270.1 L129.8,272.7 L130.0,274.2 L130.1,277.9 L130.2,278.8 L130.4,284.4 L130.5,284.7    L130.6,288.3 L130.8,291.3 L130.9,292.6 L131.1,297.7 L131.2,298.9 L131.3,304.0 L131.5,306.4 L131.6,309.0    L131.7,313.6 L131.9,315.4 L132.0,319.7 L132.2,320.5 L132.3,325.8 L132.4,328.9 L132.6,332.4 L132.7,336.1    L132.8,337.1 L133.0,342.0 L133.1,343.5 L133.3,347.3 L133.4,349.7 L133.5,351.7 L133.7,356.1 L133.8,356.7    L133.9,360.9 L134.1,361.7 L134.2,364.7 L134.4,366.5 L134.5,367.8 L134.6,370.5 L134.8,371.2 L134.9,374.7    L135.0,374.4 L135.2,376.4 L135.3,378.3 L135.5,378.7 L135.6,381.3 L135.7,380.6 L135.9,382.7 L136.0,382.5    L136.1,383.9 L136.3,385.0 L136.4,384.6 L136.6,387.2 L136.7,385.3 L136.8,387.4 L137.0,387.1 L137.1,387.3    L137.2,389.0 L137.4,388.4 L137.5,389.7 L137.7,390.0 L137.8,390.6 L137.9,390.1 L138.1,389.9 L138.2,391.3    L138.3,390.9 L138.5,391.5 L138.6,391.7 L138.8,391.0 L138.9,392.0 L139.0,391.2 L139.2,393.2 L139.3,391.0    L139.5,393.2 L139.6,391.3 L139.7,391.7 L139.9,392.9 L140.0,391.6 L140.1,393.2 L140.3,391.9 L140.4,393.4    L140.6,392.3 L140.7,392.1 L140.8,393.4 L141.0,391.2 L141.1,393.0 L141.2,392.7 L141.4,392.7 L141.5,392.0    L141.7,391.4 L141.8,393.2 L141.9,391.8 L142.1,392.9 L142.2,393.3 L142.3,393.2 L142.5,393.1 L142.6,392.5    L142.8,393.1 L142.9,392.2 L143.0,393.1 L143.2,392.4 L143.3,393.1 L143.4,393.4 L143.6,392.8 L143.7,392.8    L143.9,392.1 L144.0,392.6 L144.1,392.8 L144.3,393.1 L144.4,392.9 L144.5,392.8 L144.7,392.7 L144.8,392.4    L145.0,392.7 L145.1,393.3 L145.2,393.2 L145.4,393.0 L145.5,392.6 L145.6,392.7 L145.8,392.3 L145.9,392.4    L146.1,393.2 L146.2,393.0 L146.3,392.7 L146.5,393.2 L146.6,392.4 L146.7,392.2 L146.9,392.1 L147.0,392.7    L147.2,393.4 L147.3,392.8 L147.4,393.1 L147.6,392.8 L147.7,393.0 L147.8,392.0 L148.0,392.7 L148.1,393.3    L148.3,392.5 L148.4,393.2 L148.5,392.4 L148.7,392.9 L148.8,392.8 L149.0,393.5 L149.1,393.3 L149.2,392.4    L149.4,393.0 L149.5,392.1 L149.6,393.3 L149.8,392.5 L149.9,393.5 L150.1,392.7 L150.2,392.9 L150.3,393.4    L150.5,392.3 L150.6,392.8 L150.7,392.7 L150.9,393.3 L151.0,392.8 L151.2,392.9 L151.3,392.9 L151.4,392.7    L151.6,392.3 L151.7,392.6 L151.8,393.3 L152.0,392.6 L152.1,393.5 L152.3,392.8 L152.4,393.4 L152.5,392.6    L152.7,392.7 L152.8,393.0 L152.9,393.0 L153.1,393.3 L153.2,393.1 L153.4,393.3 L153.5,392.9 L153.6,392.7    L153.8,392.4 L153.9,393.5 L154.0,393.0 L154.2,393.1 L154.3,392.8 L154.5,392.4 L154.6,393.1 L154.7,392.7    L154.9,393.0 L155.0,392.9 L155.1,393.4 L155.3,393.0 L155.4,392.6 L155.6,393.4 L155.7,393.4 L155.8,393.0    L156.0,392.9 L156.1,393.2 L156.2,393.4 L156.4,392.7 L156.5,393.3 L156.7,392.7 L156.8,393.2 L156.9,392.6    L157.1,393.2 L157.2,393.4 L157.3,392.7 L157.5,392.9 L157.6,392.8 L157.8,393.1 L157.9,393.0 L158.0,392.8    L158.2,392.5 L158.3,392.9 L158.5,392.4 L158.6,393.3 L158.7,392.6 L158.9,392.9 L159.0,392.9 L159.1,392.3    L159.3,392.7 L159.4,392.1 L159.6,392.9 L159.7,392.1 L159.8,392.7 L160.0,391.9 L160.1,392.4 L160.2,392.4    L160.4,392.1 L160.5,391.8 L160.7,392.0 L160.8,392.1 L160.9,391.7 L161.1,392.2 L161.2,391.4 L161.3,392.5    L161.5,391.1 L161.6,391.9 L161.8,391.4 L161.9,391.6 L162.0,391.2 L162.2,391.0 L162.3,391.1 L162.4,391.1    L162.6,391.0 L162.7,390.9 L162.9,390.9 L163.0,390.7 L163.1,390.9 L163.3,390.4 L163.4,390.8 L163.5,390.2    L163.7,390.7 L163.8,390.0 L164.0,389.9 L164.1,390.1 L164.2,390.1 L164.4,390.0 L164.5,389.6 L164.6,389.8    L164.8,389.6 L164.9,389.5 L165.1,389.1 L165.2,389.6 L165.3,389.0 L165.5,389.4 L165.6,388.7 L165.7,389.0    L165.9,388.5 L166.0,388.7 L166.2,388.5 L166.3,388.4 L166.4,388.3 L166.6,388.3 L166.7,388.0 L166.8,387.8    L167.0,388.1 L167.1,387.3 L167.3,387.8 L167.4,387.1 L167.5,387.2 L167.7,387.0 L167.8,386.9 L168.0,386.8    L168.1,386.8 L168.2,386.4 L168.4,386.3 L168.5,386.2 L168.6,386.0 L168.8,385.9 L168.9,385.7 L169.1,385.6    L169.2,385.2 L169.3,385.4 L169.5,384.9 L169.6,385.0 L169.7,384.6 L169.9,384.5 L170.0,384.4 L170.2,384.3    L170.3,383.8 L170.4,384.0 L170.6,383.6 L170.7,383.5 L170.8,383.3 L171.0,383.2 L171.1,383.0 L171.3,382.7    L171.4,382.5 L171.5,382.3 L171.7,382.1 L171.8,382.0 L171.9,381.8 L172.1,381.5 L172.2,381.4 L172.4,381.0    L172.5,381.0 L172.6,380.7 L172.8,380.5 L172.9,380.3 L173.0,380.1 L173.2,379.7 L173.3,379.7 L173.5,379.2    L173.6,379.1 L173.7,378.8 L173.9,378.6 L174.0,378.2 L174.1,378.0 L174.3,377.6 L174.4,377.3 L174.6,376.9    L174.7,376.5 L174.8,376.1 L175.0,375.6 L175.1,375.0 L175.2,374.5 L175.4,373.9 L175.5,373.3 L175.7,372.6    L175.8,371.9 L175.9,371.2 L176.1,370.3 L176.2,369.7 L176.3,368.7 L176.5,367.9 L176.6,367.2 L176.8,366.3    L176.9,365.5 L177.0,364.9 L177.2,364.0 L177.3,363.4 L177.5,362.6 L177.6,361.9 L177.7,361.2 L177.9,360.6    L178.0,359.9 L178.1,359.5 L178.3,358.7 L178.4,358.2 L178.6,357.5 L178.7,357.0 L178.8,356.2 L179.0,355.8    L179.1,355.0 L179.2,354.8 L179.4,353.9 L179.5,353.4 L179.7,352.8 L179.8,352.1 L179.9,351.5 L180.1,350.9    L180.2,350.2 L180.3,349.8 L180.5,349.0 L180.6,348.1 L180.8,347.5 L180.9,346.9 L181.0,346.0 L181.2,345.5    L181.3,344.6 L181.4,343.9 L181.6,343.2 L181.7,342.4 L181.9,341.8 L182.0,341.0 L182.1,340.1 L182.3,339.2    L182.4,338.3 L182.5,337.4 L182.7,336.7 L182.8,335.9 L183.0,335.2 L183.1,333.9 L183.2,333.1 L183.4,332.2    L183.5,331.3 L183.6,330.0 L183.8,329.4 L183.9,328.6 L184.1,327.4 L184.2,326.1 L184.3,325.1 L184.5,324.2    L184.6,323.5 L184.7,322.1 L184.9,320.9 L185.0,319.6 L185.2,318.8 L185.3,317.1 L185.4,316.4 L185.6,315.2    L185.7,314.2 L185.8,312.8 L186.0,311.3 L186.1,309.7 L186.3,308.8 L186.4,307.6 L186.5,306.6 L186.7,305.2    L186.8,303.8 L187.0,301.8 L187.1,300.7 L187.2,299.1 L187.4,298.0 L187.5,296.5 L187.6,295.3 L187.8,293.4    L187.9,291.7 L188.1,290.0 L188.2,288.9 L188.3,287.0 L188.5,285.9 L188.6,283.8 L188.7,282.2 L188.9,280.2    L189.0,278.7 L189.2,276.6 L189.3,275.5 L189.4,273.4 L189.6,271.7 L189.7,269.6 L189.8,268.2 L190.0,265.5    L190.1,264.4 L190.3,262.7 L190.4,261.0 L190.5,258.7 L190.7,257.2 L190.8,254.8 L190.9,253.5 L191.1,250.7    L191.2,249.6 L191.4,247.8 L191.5,246.1 L191.6,243.5 L191.8,242.3 L191.9,240.1 L192.0,238.9 L192.2,235.9    L192.3,234.7 L192.5,233.3 L192.6,231.4 L192.7,229.6 L192.9,228.7 L193.0,226.3 L193.1,225.2 L193.3,223.9    L193.4,222.4 L193.6,220.7 L193.7,220.2 L193.8,218.2 L194.0,217.2 L194.1,216.1 L194.2,214.8 L194.4,213.9    L194.5,213.8 L194.7,212.6 L194.8,212.0 L194.9,211.3 L195.1,210.3 L195.2,210.0 L195.3,209.5 L195.5,209.3    L195.6,209.0 L195.8,208.6 L195.9,208.4 L196.0,208.1 L196.2,208.0 L196.3,208.4 L196.5,208.1 L196.6,208.4    L196.7,208.7 L196.9,208.8 L197.0,209.0 L197.1,209.8 L197.3,209.5 L197.4,210.2 L197.6,210.3 L197.7,211.1    L197.8,211.6 L198.0,212.2 L198.1,212.3 L198.2,213.5 L198.4,213.9 L198.5,214.2 L198.7,214.7 L198.8,215.7    L198.9,215.9 L199.1,216.9 L199.2,217.1 L199.3,218.1 L199.5,218.6 L199.6,219.3 L199.8,219.9 L199.9,220.6    L200.0,220.9 L200.2,221.9 L200.3,222.4 L200.4,223.2 L200.6,223.4 L200.7,224.3 L200.9,224.9 L201.0,225.3    L201.1,225.8 L201.3,226.4 L201.4,227.1 L201.5,227.7 L201.7,228.0 L201.8,228.5 L202.0,229.2 L202.1,229.6    L202.2,230.3 L202.4,230.8 L202.5,231.4 L202.6,231.8 L202.8,232.7 L202.9,232.8 L203.1,233.6 L203.2,233.8    L203.3,234.7 L203.5,235.1 L203.6,235.8 L203.7,236.2 L203.9,236.9 L204.0,237.4 L204.2,238.2 L204.3,238.5    L204.4,239.2 L204.6,240.0 L204.7,240.7 L204.8,241.1 L205.0,241.6 L205.1,242.4 L205.3,243.2 L205.4,243.7    L205.5,244.4 L205.7,245.1 L205.8,245.4 L206.0,246.6 L206.1,247.0 L206.2,247.9 L206.4,247.9 L206.5,249.0    L206.6,249.3 L206.8,250.4 L206.9,250.8 L207.1,251.7 L207.2,252.3 L207.3,253.1 L207.5,253.8 L207.6,254.4    L207.7,255.1 L207.9,255.7 L208.0,256.5 L208.2,257.0 L208.3,257.7 L208.4,258.6 L208.6,259.4 L208.7,259.5    L208.8,260.7 L209.0,261.1 L209.1,261.9 L209.3,262.4 L209.4,263.6 L209.5,263.8 L209.7,264.7 L209.8,265.6    L209.9,266.4 L210.1,266.7 L210.2,267.9 L210.4,268.2 L210.5,269.2 L210.6,269.7 L210.8,270.3 L210.9,271.2    L211.0,271.7 L211.2,272.5 L211.3,273.1 L211.5,273.9 L211.6,274.1 L211.7,275.3 L211.9,275.7 L212.0,276.5    L212.1,277.1 L212.3,278.3 L212.4,278.0 L212.6,279.3 L212.7,279.6 L212.8,280.6 L213.0,280.9 L213.1,281.9    L213.2,282.5 L213.4,283.1 L213.5,283.9 L213.7,284.0 L213.8,285.0 L213.9,285.4 L214.1,286.5 L214.2,286.5    L214.3,287.7 L214.5,287.7 L214.6,289.1 L214.8,289.0 L214.9,290.2 L215.0,290.2 L215.2,291.0 L215.3,291.4    L215.5,292.2 L215.6,292.6 L215.7,293.1 L215.9,293.5 L216.0,294.3 L216.1,294.5 L216.3,294.9 L216.4,296.0    L216.6,295.8 L216.7,297.0 L216.8,297.0 L217.0,297.8 L217.1,297.9 L217.2,299.0 L217.4,299.0 L217.5,299.9    L217.7,299.6 L217.8,300.6 L217.9,301.0 L218.1,301.1 L218.2,301.7 L218.3,301.6 L218.5,302.6 L218.6,302.4    L218.8,303.2 L218.9,302.9 L219.0,304.2 L219.2,303.9 L219.3,305.0 L219.4,304.6 L219.6,305.2 L219.7,305.2    L219.9,306.0 L220.0,305.8 L220.1,306.0 L220.3,306.6 L220.4,306.3 L220.5,307.2 L220.7,307.2 L220.8,308.3    L221.0,307.6 L221.1,307.7 L221.2,307.5 L221.4,308.8 L221.5,308.2 L221.6,308.6 L221.8,308.9 L221.9,309.1    L222.1,309.4 L222.2,309.9 L222.3,309.3 L222.5,309.2 L222.6,309.6 L222.7,309.7 L222.9,310.1 L223.0,309.7    L223.2,310.4 L223.3,310.1 L223.4,310.8 L223.6,309.8 L223.7,310.5 L223.8,310.7 L224.0,310.6 L224.1,310.9    L224.3,310.9 L224.4,310.9 L224.5,310.9 L224.7,311.2 L224.8,311.0 L225.0,311.7 L225.1,310.8 L225.2,312.0    L225.4,311.1 L225.5,311.4 L225.6,311.5 L225.8,311.5 L225.9,311.8 L226.1,311.7 L226.2,312.0 L226.3,311.3    L226.5,312.3 L226.6,311.7 L226.7,312.5 L226.9,311.9 L227.0,311.9 L227.2,311.3 L227.3,312.6 L227.4,312.5    L227.6,312.0 L227.7,312.5 L227.8,312.2 L228.0,312.4 L228.1,312.1 L228.3,312.9 L228.4,312.1 L228.5,312.9    L228.7,312.7 L228.8,312.9 L228.9,313.0 L229.1,312.9 L229.2,312.8 L229.4,312.8 L229.5,313.3 L229.6,313.1    L229.8,313.8 L229.9,312.7 L230.0,313.3 L230.2,313.1 L230.3,313.8 L230.5,314.3 L230.6,313.5 L230.7,314.4    L230.9,313.6 L231.0,314.6 L231.1,313.6 L231.3,314.7 L231.4,314.0 L231.6,315.0 L231.7,314.5 L231.8,315.2    L232.0,314.6 L232.1,314.4 L232.2,315.7 L232.4,314.8 L232.5,316.0 L232.7,314.7 L232.8,316.2 L232.9,315.0    L233.1,316.5 L233.2,316.1 L233.3,315.9 L233.5,316.4 L233.6,316.4 L233.8,317.1 L233.9,316.7 L234.0,317.6    L234.2,316.9 L234.3,317.8 L234.5,317.2 L234.6,318.1 L234.7,317.7 L234.9,318.0 L235.0,318.2 L235.1,317.8    L235.3,319.1 L235.4,318.2 L235.6,319.8 L235.7,318.8 L235.8,319.6 L236.0,319.2 L236.1,319.9 L236.2,320.3    L236.4,320.4 L236.5,320.4 L236.7,319.9 L236.8,321.0 L236.9,320.3 L237.1,321.3 L237.2,321.3 L237.3,321.9    L237.5,321.3 L237.6,322.1 L237.8,322.8 L237.9,321.9 L238.0,322.6 L238.2,322.7 L238.3,323.2 L238.4,322.8    L238.6,323.3 L238.7,323.9 L238.9,323.4 L239.0,324.8 L239.1,324.5 L239.3,325.1 L239.4,324.2 L239.5,325.2    L239.7,325.4 L239.8,325.7 L240.0,325.6 L240.1,325.4 L240.2,325.5 L240.4,325.5 L240.5,327.0 L240.6,326.2    L240.8,327.4 L240.9,327.1 L241.1,327.5 L241.2,327.1 L241.3,327.9 L241.5,328.5 L241.6,327.8 L241.7,329.0    L241.9,327.5 L242.0,328.7 L242.2,327.5 L242.3,328.5 L242.4,329.0 L242.6,329.2 L242.7,329.3 L242.8,329.4    L243.0,330.2 L243.1,329.8 L243.3,330.0 L243.4,330.3 L243.5,330.9 L243.7,330.6 L243.8,331.0 L244.0,332.0    L244.1,331.2 L244.2,331.6 L244.4,330.7 L244.5,331.7 L244.6,332.0 L244.8,332.2 L244.9,332.1 L245.1,332.4    L245.2,332.3 L245.3,332.5 L245.5,333.6 L245.6,332.8 L245.7,333.3 L245.9,333.4 L246.0,333.2 L246.2,333.8    L246.3,333.6 L246.4,334.0 L246.6,333.3 L246.7,335.4 L246.8,334.4 L247.0,334.1 L247.1,334.8 L247.3,335.3    L247.4,335.4 L247.5,334.4 L247.7,335.7 L247.8,335.2 L247.9,336.0 L248.1,334.9 L248.2,336.2 L248.4,336.9    L248.5,336.2 L248.6,337.1 L248.8,336.3 L248.9,336.6 L249.0,336.7 L249.2,337.0 L249.3,337.7 L249.5,337.2    L249.6,338.2 L249.7,337.6 L249.9,337.9 L250.0,338.4 L250.1,338.8 L250.3,338.9 L250.4,338.7 L250.6,339.6    L250.7,338.6 L250.8,338.8 L251.0,339.2 L251.1,340.1 L251.2,339.3 L251.4,340.1 L251.5,340.8 L251.7,340.1    L251.8,341.2 L251.9,340.0 L252.1,341.8 L252.2,342.0 L252.3,341.8 L252.5,342.8 L252.6,342.1 L252.8,343.1    L252.9,342.2 L253.0,343.2 L253.2,342.5 L253.3,343.5 L253.5,343.7 L253.6,343.0 L253.7,344.0 L253.9,343.7    L254.0,345.6 L254.1,343.9 L254.3,345.0 L254.4,345.5 L254.6,344.9 L254.7,346.4 L254.8,345.6 L255.0,346.1    L255.1,345.5 L255.2,346.8 L255.4,346.7 L255.5,346.5 L255.7,347.7 L255.8,346.2 L255.9,349.3 L256.1,347.6    L256.2,348.2 L256.3,349.0 L256.5,349.6 L256.6,349.4 L256.8,349.5 L256.9,350.6 L257.0,350.2 L257.2,350.9    L257.3,351.4 L257.4,350.8 L257.6,352.1 L257.7,350.9 L257.9,351.7 L258.0,352.6 L258.1,352.7 L258.3,354.1    L258.4,353.1 L258.5,354.4 L258.7,353.1 L258.8,354.3 L259.0,353.7 L259.1,355.7 L259.2,355.1 L259.4,354.5    L259.5,356.4 L259.6,356.5 L259.8,356.2 L259.9,356.8 L260.1,356.7 L260.2,357.7 L260.3,356.9 L260.5,359.1    L260.6,358.2 L260.7,359.2 L260.9,358.9 L261.0,359.6 L261.2,359.1 L261.3,359.2 L261.4,360.9 L261.6,359.9    L261.7,361.3 L261.8,361.7 L262.0,360.9 L262.1,362.9 L262.3,361.3 L262.4,363.0 L262.5,362.5 L262.7,363.5    L262.8,363.6 L263.0,363.3 L263.1,365.6 L263.2,363.1 L263.4,365.6 L263.5,364.2 L263.6,366.1 L263.8,365.8    L263.9,365.4 L264.1,367.6 L264.2,366.1 L264.3,367.1 L264.5,366.6 L264.6,367.2 L264.7,368.5 L264.9,367.9    L265.0,369.3 L265.2,368.8 L265.3,368.3 L265.4,369.3 L265.6,369.5 L265.7,370.5 L265.8,369.2 L266.0,371.2    L266.1,370.5 L266.3,370.4 L266.4,372.9 L266.5,371.7 L266.7,373.7 L266.8,371.5 L266.9,373.0 L267.1,372.2    L267.2,372.9 L267.4,373.0 L267.5,372.2 L267.6,374.7 L267.8,374.2 L267.9,373.9 L268.0,375.2 L268.2,374.4    L268.3,375.9 L268.5,374.1 L268.6,376.9 L268.7,376.3 L268.9,375.5 L269.0,377.4 L269.1,375.5 L269.3,377.2    L269.4,376.3 L269.6,378.2 L269.7,377.7 L269.8,377.3 L270.0,379.6 L270.1,378.1 L270.2,379.8 L270.4,378.3    L270.5,378.5 L270.7,379.8 L270.8,378.2 L270.9,379.5 L271.1,378.7 L271.2,380.2 L271.3,379.8 L271.5,379.1    L271.6,381.3 L271.8,379.7 L271.9,381.7 L272.0,379.9 L272.2,380.7 L272.3,381.9 L272.5,379.8 L272.6,382.6    L272.7,380.6 L272.9,381.7 L273.0,381.3 L273.1,380.8 L273.3,382.0 L273.4,380.9 L273.6,382.2 L273.7,381.0    L273.8,381.0 L274.0,381.8 L274.1,379.8 L274.2,382.8 L274.4,379.6 L274.5,381.2 L274.7,381.8 L274.8,380.6    L274.9,382.4 L275.1,379.8 L275.2,380.1 L275.3,380.3 L275.5,379.6 L275.6,381.0 L275.8,379.2 L275.9,382.2    L276.0,378.4 L276.2,378.9 L276.3,379.4 L276.4,378.1 L276.6,379.7 L276.7,377.9 L276.9,377.6 L277.0,378.0    L277.1,377.8 L277.3,377.9 L277.4,375.5 L277.5,377.4 L277.7,376.1 L277.8,375.2 L278.0,376.6 L278.1,374.1    L278.2,374.6 L278.4,374.1 L278.5,374.7 L278.6,374.1 L278.8,371.4 L278.9,374.8 L279.1,371.9 L279.2,371.0    L279.3,372.6 L279.5,371.4 L279.6,372.7 L279.7,369.9 L279.9,370.4 L280.0,369.9 L280.2,368.9 L280.3,369.2    L280.4,366.8 L280.6,369.2 L280.7,368.0 L280.8,366.5 L281.0,367.7 L281.1,366.1 L281.3,366.6 L281.4,366.3    L281.5,365.3 L281.7,366.8 L281.8,362.9 L282.0,365.0 L282.1,363.3 L282.2,362.9 L282.4,363.3 L282.5,361.3    L282.6,360.9 L282.8,361.6 L282.9,361.2 L283.1,360.3 L283.2,358.7 L283.3,360.8 L283.5,358.1 L283.6,357.6    L283.7,358.5 L283.9,355.5 L284.0,358.3 L284.2,356.8 L284.3,355.6 L284.4,356.8 L284.6,353.8 L284.7,356.9    L284.8,352.7 L285.0,353.4 L285.1,355.2 L285.3,351.3 L285.4,352.7 L285.5,352.6 L285.7,352.4 L285.8,351.1    L285.9,349.3 L286.1,352.1 L286.2,347.6 L286.4,348.3 L286.5,349.4 L286.6,346.6 L286.8,348.3 L286.9,346.7    L287.0,346.3 L287.2,345.7 L287.3,344.5 L287.5,345.6 L287.6,343.3 L287.7,344.2 L287.9,345.6 L288.0,341.6    L288.1,342.5 L288.3,341.9 L288.4,343.1 L288.6,341.7 L288.7,339.5 L288.8,342.0 L289.0,339.1 L289.1,338.0    L289.2,339.8 L289.4,335.1 L289.5,338.1 L289.7,336.3 L289.8,335.6 L289.9,336.0 L290.1,334.6 L290.2,335.3    L290.3,333.5 L290.5,332.6 L290.6,334.3 L290.8,330.4 L290.9,333.0 L291.0,331.6 L291.2,329.7 L291.3,330.2    L291.5,328.6 L291.6,329.1 L291.7,328.4 L291.9,327.2 L292.0,330.0 L292.1,326.1 L292.3,326.4 L292.4,327.1    L292.6,323.7 L292.7,324.5 L292.8,322.6 L293.0,324.6 L293.1,323.2 L293.2,321.8 L293.4,322.7 L293.5,320.2    L293.7,318.5 L293.8,321.0 L293.9,317.2 L294.1,319.6 L294.2,317.2 L294.3,318.5 L294.5,317.8 L294.6,313.9    L294.8,315.4 L294.9,315.3 L295.0,312.4 L295.2,315.3 L295.3,312.8 L295.4,313.2 L295.6,311.4 L295.7,309.8    L295.9,309.6 L296.0,306.0 L296.1,309.4 L296.3,310.1 L296.4,306.7 L296.5,308.6 L296.7,307.7 L296.8,306.3    L297.0,304.7 L297.1,301.5 L297.2,304.2 L297.4,301.4 L297.5,300.8 L297.6,304.0 L297.8,300.4 L297.9,300.8    L298.1,299.4 L298.2,296.5 L298.3,298.3 L298.5,295.6 L298.6,296.4 L298.7,295.2 L298.9,293.3 L299.0,296.2    L299.2,292.3 L299.3,291.5 L299.4,291.4 L299.6,290.2 L299.7,291.7 L299.8,289.6 L300.0,289.1 L300.1,289.5    L300.3,286.9 L300.4,288.5 L300.5,285.9 L300.7,283.0 L300.8,285.9 L301.0,283.5 L301.1,282.2 L301.2,282.3    L301.4,280.2 L301.5,282.0 L301.6,277.3 L301.8,277.8 L301.9,279.3 L302.1,276.3 L302.2,277.3 L302.3,276.9    L302.5,273.6 L302.6,275.4 L302.7,272.2 L302.9,272.6 L303.0,271.1 L303.2,268.9 L303.3,271.1 L303.4,269.2    L303.6,268.8 L303.7,268.8 L303.8,266.0 L304.0,265.3 L304.1,263.3 L304.3,263.1 L304.4,266.0 L304.5,261.6    L304.7,262.0 L304.8,263.2 L304.9,259.0 L305.1,259.4 L305.2,257.2 L305.4,256.1 L305.5,257.3 L305.6,254.6    L305.8,255.0 L305.9,254.6 L306.0,252.0 L306.2,254.4 L306.3,250.3 L306.5,250.4 L306.6,250.2 L306.7,247.6    L306.9,248.2 L307.0,246.3 L307.1,245.1 L307.3,246.5 L307.4,242.4 L307.6,243.8 L307.7,243.8 L307.8,240.9    L308.0,241.7 L308.1,239.8 L308.2,238.5 L308.4,239.7 L308.5,236.4 L308.7,236.3 L308.8,235.4 L308.9,232.6    L309.1,234.6 L309.2,232.0 L309.3,231.1 L309.5,231.9 L309.6,229.5 L309.8,229.5 L309.9,227.8 L310.0,225.6    L310.2,227.2 L310.3,224.2 L310.4,224.4 L310.6,224.3 L310.7,221.6 L310.9,221.9 L311.0,220.5 L311.1,218.4    L311.3,219.1 L311.4,217.3 L311.6,216.5 L311.7,216.7 L311.8,214.1 L312.0,215.6 L312.1,213.6 L312.2,212.5    L312.4,212.9 L312.5,209.3 L312.7,210.4 L312.8,209.9 L312.9,206.6 L313.1,207.8 L313.2,207.1 L313.3,204.9    L313.5,206.0 L313.6,202.4 L313.8,202.4 L313.9,202.2 L314.0,199.7 L314.2,200.8 L314.3,198.4 L314.4,197.7    L314.6,198.5 L314.7,195.5 L314.9,196.1 L315.0,195.7 L315.1,193.6 L315.3,194.7 L315.4,192.0 L315.5,190.4    L315.7,191.7 L315.8,189.9 L316.0,188.7 L316.1,188.9 L316.2,186.6 L316.4,187.8 L316.5,186.2 L316.6,184.1    L316.8,185.3 L316.9,183.5 L317.1,183.7 L317.2,183.6 L317.3,180.7 L317.5,180.7 L317.6,180.6 L317.7,178.8    L317.9,179.3 L318.0,177.7 L318.2,177.0 L318.3,177.6 L318.4,175.3 L318.6,175.4 L318.7,174.4 L318.8,173.2    L319.0,173.9 L319.1,172.4 L319.3,170.9 L319.4,171.4 L319.5,169.8 L319.7,170.1 L319.8,170.1 L319.9,167.8    L320.1,168.9 L320.2,167.3 L320.4,165.8 L320.5,166.4 L320.6,164.4 L320.8,164.2 L320.9,164.5 L321.1,161.6    L321.2,162.8 L321.3,162.2 L321.5,160.8 L321.6,161.9 L321.7,160.1 L321.9,159.3 L322.0,160.2 L322.2,158.6    L322.3,158.1 L322.4,157.7 L322.6,155.4 L322.7,156.2 L322.8,154.9 L323.0,154.4 L323.1,155.0 L323.3,152.8    L323.4,152.5 L323.5,152.8 L323.7,151.3 L323.8,151.1 L323.9,150.8 L324.1,149.3 L324.2,150.5 L324.4,148.2    L324.5,147.8 L324.6,148.2 L324.8,146.7 L324.9,146.4 L325.0,147.2 L325.2,144.9 L325.3,145.4 L325.5,144.3    L325.6,143.1 L325.7,143.5 L325.9,142.4 L326.0,142.0 L326.1,142.4 L326.3,140.3 L326.4,140.8 L326.6,140.8    L326.7,138.8 L326.8,139.0 L327.0,138.4 L327.1,137.2 L327.2,137.4 L327.4,136.4 L327.5,135.1 L327.7,135.7    L327.8,133.5 L327.9,134.0 L328.1,134.4 L328.2,132.9 L328.3,132.8 L328.5,132.6 L328.6,131.6 L328.8,131.7    L328.9,130.4 L329.0,129.9 L329.2,130.3 L329.3,128.8 L329.4,129.2 L329.6,128.5 L329.7,126.4 L329.9,127.0    L330.0,126.5 L330.1,125.2 L330.3,125.6 L330.4,125.1 L330.6,124.9 L330.7,124.6 L330.8,122.8 L331.0,123.3    L331.1,122.9 L331.2,121.7 L331.4,121.7 L331.5,120.7 L331.7,119.4 L331.8,120.3 L331.9,119.6 L332.1,118.3    L332.2,118.9 L332.3,117.8 L332.5,117.6 L332.6,117.4 L332.8,115.5 L332.9,115.9 L333.0,115.5 L333.2,114.3    L333.3,113.9 L333.4,114.0 L333.6,112.8 L333.7,113.3 L333.9,112.6 L334.0,111.3 L334.1,111.8 L334.3,110.6    L334.4,110.2 L334.5,110.4 L334.7,108.6 L334.8,108.9 L335.0,109.0 L335.1,107.6 L335.2,107.7 L335.4,107.2    L335.5,106.1 L335.6,105.8 L335.8,105.5 L335.9,105.4 L336.1,106.0 L336.2,104.3 L336.3,103.6 L336.5,104.0    L336.6,102.5 L336.7,102.9 L336.9,102.8 L337.0,101.4 L337.2,101.4 L337.3,100.4 L337.4,100.1 L337.6,100.7    L337.7,99.7 L337.8,99.0 L338.0,99.6 L338.1,97.8 L338.3,97.6 L338.4,97.7 L338.5,96.8 L338.7,97.1    L338.8,96.5 L338.9,95.2 L339.1,95.3 L339.2,95.3 L339.4,94.2 L339.5,94.3 L339.6,93.5 L339.8,92.9    L339.9,93.4 L340.1,92.3 L340.2,91.9 L340.3,92.3 L340.5,91.1 L340.6,90.9 L340.7,91.2 L340.9,90.1    L341.0,90.2 L341.2,89.8 L341.3,88.6 L341.4,88.8 L341.6,88.3 L341.7,87.9 L341.8,88.2 L342.0,87.4    L342.1,86.5 L342.3,87.2 L342.4,85.8 L342.5,85.7 L342.7,85.7 L342.8,85.0 L342.9,84.2 L343.1,84.7    L343.2,83.8 L343.4,83.9 L343.5,83.0 L343.6,82.7 L343.8,82.8 L343.9,83.0 L344.0,81.9 L344.2,81.8    L344.3,81.4 L344.5,81.2 L344.6,81.1 L344.7,80.4 L344.9,80.1 L345.0,80.3 L345.1,80.0 L345.3,79.4    L345.4,79.3 L345.6,79.1 L345.7,78.6 L345.8,78.6 L346.0,77.4 L346.1,77.2 L346.2,77.7 L346.4,76.3    L346.5,76.5 L346.7,76.7 L346.8,75.8 L346.9,75.6 L347.1,75.8 L347.2,75.2 L347.3,75.1 L347.5,74.3    L347.6,74.3 L347.8,74.6 L347.9,73.9 L348.0,72.9 L348.2,73.3 L348.3,73.2 L348.4,73.2 L348.6,72.8    L348.7,72.3 L348.9,72.4 L349.0,72.2 L349.1,71.4 L349.3,71.4 L349.4,71.8 L349.6,70.8 L349.7,70.6    L349.8,70.2 L350.0,69.9 L350.1,69.9 L350.2,69.7 L350.4,68.8 L350.5,69.3 L350.7,68.9 L350.8,68.4    L350.9,68.8 L351.1,68.4 L351.2,68.2 L351.3,67.8 L351.5,67.4 L351.6,67.3 L351.8,67.6 L351.9,66.6    L352.0,66.3 L352.2,66.5 L352.3,65.4 L352.4,65.5 L352.6,65.6 L352.7,65.2 L352.9,64.4 L353.0,64.8    L353.1,64.6 L353.3,64.4 L353.4,64.3 L353.5,63.2 L353.7,63.2 L353.8,63.2 L354.0,62.7 L354.1,62.7    L354.2,62.4 L354.4,61.9 L354.5,62.4 L354.6,62.2 L354.8,61.0 L354.9,61.5 L355.1,61.1 L355.2,60.1    L355.3,60.1 L355.5,60.3 L355.6,59.7 L355.7,59.9 L355.9,59.4 L356.0,58.9 L356.2,59.2 L356.3,58.6    L356.4,58.0 L356.6,58.4 L356.7,57.6 L356.8,57.4 L357.0,57.8 L357.1,57.3 L357.3,57.0 L357.4,56.8    L357.5,56.8 L357.7,56.2 L357.8,56.2 L357.9,55.5 L358.1,55.3 L358.2,56.0 L358.4,54.8 L358.5,54.7    L358.6,54.4 L358.8,53.9 L358.9,53.8 L359.1,53.8 L359.2,53.3 L359.3,53.1 L359.5,52.8 L359.6,53.1    L359.7,52.6 L359.9,52.2 L360.0,51.9 L360.2,51.9 L360.3,51.7 L360.4,51.1 L360.6,50.9 L360.7,50.9    L360.8,50.4 L361.0,50.3 L361.1,50.6 L361.3,49.4 L361.4,49.7 L361.5,49.8 L361.7,48.8 L361.8,48.8    L361.9,48.3 L362.1,48.3 L362.2,48.3 L362.4,48.5 L362.5,47.4 L362.6,47.5 L362.8,47.5 L362.9,46.4    L363.0,46.3 L363.2,46.3 L363.3,46.0 L363.5,46.0 L363.6,45.8 L363.7,44.8 L363.9,45.0 L364.0,45.0    L364.1,44.6 L364.3,45.0 L364.4,44.3 L364.6,43.9 L364.7,44.7 L364.8,44.1 L365.0,43.2 L365.1,43.4    L365.2,43.4 L365.4,42.6 L365.5,43.0 L365.7,42.3 L365.8,42.0 L365.9,42.0 L366.1,41.4 L366.2,41.2    L366.3,41.1 L366.5,40.9 L366.6,40.2 L366.8,40.4 L366.9,40.0 L367.0,39.7 L367.2,40.4 L367.3,39.9    L367.4,38.9 L367.6,39.5 L367.7,39.4 L367.9,39.1 L368.0,39.3 L368.1,38.8 L368.3,38.0 L368.4,38.6    L368.6,38.0 L368.7,37.5 L368.8,37.6 L369.0,37.6 L369.1,36.6 L369.2,36.7 L369.4,36.7 L369.5,36.3    L369.7,36.5 L369.8,36.2 L369.9,35.5 L370.1,35.8 L370.2,35.0 L370.3,34.9 L370.5,35.4 L370.6,34.6    L370.8,34.5 L370.9,34.4 L371.0,34.4 L371.2,33.7 L371.3,33.7 L371.4,33.2 L371.6,33.3 L371.7,32.9    L371.9,32.7 L372.0,32.4 L372.1,33.1 L372.3,32.4 L372.4,32.1 L372.5,32.5 L372.7,32.3 L372.8,31.7    L373.0,31.6 L373.1,31.6 L373.2,30.9 L373.4,30.8 L373.5,31.2 L373.6,30.8 L373.8,30.7 L373.9,30.4    L374.1,29.9 L374.2,30.3 L374.3,29.7 L374.5,29.3 L374.6,29.5 L374.7,29.8 L374.9,29.0 L375.0,29.0    L375.2,29.1 L375.3,28.7 L375.4,28.7 L375.6,28.8 L375.7,28.0 L375.8,27.8 L376.0,28.4 L376.1,28.0    L376.3,27.5 L376.4,27.3 L376.5,27.1 L376.7,27.4 L376.8,27.5 L376.9,27.2 L377.1,27.3 L377.2,27.4    L377.4,26.8 L377.5,26.4 L377.6,27.0 L377.8,26.7 L377.9,26.6 L378.1,26.9 L378.2,26.5 L378.3,26.4    L378.5,27.0 L378.6,26.5 L378.7,26.4 L378.9,26.5 L379.0,26.2 L379.2,25.5 L379.3,26.0 L379.4,26.4    L379.6,25.9 L379.7,25.7 L379.8,26.1 L380.0,26.1 L380.1,26.2 L380.3,25.9 L380.4,26.6 L380.5,26.4    L380.7,26.4 L380.8,26.1 L380.9,26.5 L381.1,26.9 L381.2,26.5 L381.4,26.5 L381.5,26.8 L381.6,26.7    L381.8,26.6 L381.9,27.2 L382.0,27.2 L382.2,26.8 L382.3,28.0 L382.5,27.7 L382.6,27.5 L382.7,27.5    L382.9,27.5 L383.0,28.0 L383.1,28.5 L383.3,28.3 L383.4,28.5 L383.6,28.9 L383.7,29.2 L383.8,28.7    L384.0,29.1 L384.1,29.5 L384.2,28.9 L384.4,30.1 L384.5,30.3 L384.7,30.1 L384.8,30.4 L384.9,30.8    L385.1,31.0 L385.2,30.8 L385.3,31.1 L385.5,31.2 L385.6,31.9 L385.8,32.7 L385.9,31.7 L386.0,32.4    L386.2,32.9 L386.3,33.1 L386.4,33.1 L386.6,34.2 L386.7,34.2 L386.9,34.1 L387.0,34.7 L387.1,34.6    L387.3,34.7 L387.4,35.5 L387.6,35.7 L387.7,35.9 L387.8,36.3 L388.0,36.4 L388.1,36.3 L388.2,37.0    L388.4,37.7 L388.5,37.9 L388.7,38.1 L388.8,38.7 L388.9,37.9 L389.1,38.8 L389.2,39.3 L389.3,39.2    L389.5,39.8 L389.6,40.2 L389.8,40.2 L389.9,40.3 L390.0,40.9 L390.2,41.2 L390.3,41.0 L390.4,41.5    L390.6,42.6 L390.7,42.5 L390.9,42.0 L391.0,42.4 L391.1,42.5 L391.3,43.0 L391.4,43.6 L391.5,43.2    L391.7,43.5 L391.8,44.3 L392.0,44.0 L392.1,44.0 L392.2,44.8 L392.4,44.9 L392.5,44.6 L392.6,46.0    L392.8,45.4 L392.9,44.9 L393.1,46.1 L393.2,46.1 L393.3,46.0 L393.5,45.7 L393.6,46.7 L393.7,46.2    L393.9,46.3 L394.0,47.2 L394.2,46.7 L394.3,46.4 L394.4,47.5 L394.6,47.4 L394.7,46.7 L394.8,47.1    L395.0,47.0 L395.1,47.2 L395.3,47.5 L395.4,47.3 L395.5,47.1 L395.7,47.3 L395.8,47.1 L395.9,46.7    L396.1,47.5 L396.2,48.3 L396.4,47.3 L396.5,47.1 L396.6,47.5 L396.8,47.1 L396.9,47.1 L397.1,47.5    L397.2,47.2 L397.3,46.8 L397.5,47.1 L397.6,47.2 L397.7,46.6 L397.9,46.9 L398.0,46.9 L398.2,46.1    L398.3,46.3 L398.4,46.3 L398.6,46.1 L398.7,45.9 L398.8,46.2 L399.0,45.7 L399.1,45.5 L399.3,45.6    L399.4,45.6 L399.5,45.7 L399.7,45.3 L399.8,45.1 L399.9,44.5 L400.1,45.3 L400.2,45.0 L400.4,43.7    L400.5,44.0 L400.6,44.2 L400.8,43.3 L400.9,43.3 L401.0,43.9 L401.2,44.2 L401.3,42.7 L401.5,43.1    L401.6,43.4 L401.7,42.5 L401.9,42.5 L402.0,42.9 L402.1,42.3 L402.3,41.7 L402.4,42.5 L402.6,42.3    L402.7,41.4 L402.8,42.0 L403.0,41.7 L403.1,41.4 L403.2,42.5 L403.4,41.9 L403.5,41.0 L403.7,41.1    L403.8,41.6 L403.9,41.2 L404.1,40.4 L404.2,40.6 L404.3,40.8 L404.5,40.5 L404.6,40.8 L404.8,40.0    L404.9,39.5 L405.0,41.0 L405.2,40.4 L405.3,39.7 L405.4,39.9 L405.6,40.2 L405.7,39.3 L405.9,40.1    L406.0,40.0 L406.1,39.7 L406.3,39.2 L406.4,40.4 L406.6,40.1 L406.7,38.9 L406.8,40.3 L407.0,40.6    L407.1,39.8 L407.2,39.8 L407.4,40.1 L407.5,40.2 L407.7,39.9 L407.8,39.9 L407.9,39.9 L408.1,39.4    L408.2,39.9 L408.3,40.5 L408.5,39.7 L408.6,39.8 L408.8,40.8 L408.9,40.6 L409.0,40.1 L409.2,40.1    L409.3,39.5 L409.4,40.0 L409.6,40.9 L409.7,40.0 L409.9,39.5 L410.0,40.1 L410.1,41.1 L410.3,40.8    L410.4,40.8 L410.5,41.2 L410.7,40.6 L410.8,41.3 L411.0,42.2 L411.1,41.0 L411.2,40.4 L411.4,41.2    L411.5,42.1 L411.6,41.4 L411.8,41.1 L411.9,41.5 L412.1,41.9 L412.2,42.5 L412.3,42.3 L412.5,41.4    L412.6,41.3 L412.7,42.8 L412.9,43.5 L413.0,42.2 L413.2,41.9 L413.3,42.6 L413.4,42.8 L413.6,42.2    L413.7,42.5 L413.8,42.0 L414.0,41.7 L414.1,43.2 L414.3,43.5 L414.4,42.1 L414.5,42.4 L414.7,43.3    L414.8,43.2 L414.9,42.5 L415.1,42.8 L415.2,42.9 L415.4,42.5 L415.5,43.3 L415.6,42.4 L415.8,41.4    L415.9,42.5 L416.1,43.6 L416.2,43.0 L416.3,42.0 L416.5,42.4 L416.6,43.0 L416.7,42.8 L416.9,42.6    L417.0,42.2 L417.2,41.5 L417.3,42.8 L417.4,43.7 L417.6,42.1 L417.7,41.3 L417.8,42.2 L418.0,42.9    L418.1,41.6 L418.3,41.6 L418.4,41.4 L418.5,41.5 L418.7,42.3 L418.8,42.0 L418.9,40.4 L419.1,40.6    L419.2,41.9 L419.4,41.9 L419.5,41.0 L419.6,40.9 L419.8,41.3 L419.9,40.7 L420.0,40.3 L420.2,40.4    L420.3,39.9 L420.5,39.6 L420.6,40.8 L420.7,40.2 L420.9,39.0 L421.0,39.0 L421.1,40.0 L421.3,39.8    L421.4,39.4 L421.6,39.3 L421.7,38.8 L421.8,39.1 L422.0,39.0 L422.1,38.5 L422.2,37.8 L422.4,38.5    L422.5,38.6 L422.7,38.2 L422.8,37.3 L422.9,37.1 L423.1,37.7 L423.2,37.6 L423.3,37.0 L423.5,36.8    L423.6,36.6 L423.8,36.8 L423.9,36.9 L424.0,36.6 L424.2,36.6 L424.3,36.9 L424.4,36.6 L424.6,35.9    L424.7,36.2 L424.9,36.6 L425.0,36.1 L425.1,35.9 L425.3,36.1 L425.4,35.8 L425.6,35.5 L425.7,36.1    L425.8,36.1 L426.0,35.2 L426.1,35.4 L426.2,36.1 L426.4,35.7 L426.5,35.3 L426.7,36.0 L426.8,35.9    L426.9,35.3 L427.1,35.6 L427.2,35.6 L427.3,35.6 L427.5,34.8 L427.6,35.7 L427.8,36.2 L427.9,35.3    L428.0,35.6 L428.2,36.2 L428.3,36.2 L428.4,35.9 L428.6,36.2 L428.7,36.3 L428.9,35.9 L429.0,36.0    L429.1,36.2 L429.3,36.1 L429.4,36.0 L429.5,36.6 L429.7,36.7 L429.8,36.2 L430.0,36.5 L430.1,37.4    L430.2,36.4 L430.4,36.7 L430.5,37.6 L430.6,37.1 L430.8,37.3 L430.9,37.5 L431.1,37.7 L431.2,37.3    L431.3,37.5 L431.5,38.6 L431.6,38.7 L431.7,38.0 L431.9,38.9 L432.0,39.0 L432.2,38.3 L432.3,37.8    L432.4,38.9 L432.6,39.2 L432.7,38.1 L432.8,39.3 L433.0,39.5 L433.1,38.7 L433.3,39.1 L433.4,40.0    L433.5,39.4 L433.7,39.6 L433.8,40.2 L433.9,40.4 L434.1,39.3 L434.2,39.4 L434.4,40.6 L434.5,39.9    L434.6,39.0 L434.8,40.0 L434.9,40.2 L435.1,39.6 L435.2,40.3 L435.3,40.2 L435.5,40.1 L435.6,40.2    L435.7,40.3 L435.9,40.7 L436.0,39.3 L436.2,39.5 L436.3,39.9 L436.4,39.6 L436.6,39.6 L436.7,40.1    L436.8,40.0 L437.0,39.5 L437.1,39.5 L437.3,40.2 L437.4,39.5 L437.5,39.0 L437.7,39.8 L437.8,39.1    L437.9,38.5 L438.1,39.2 L438.2,39.4 L438.4,38.6 L438.5,38.8 L438.6,38.5 L438.8,38.3 L438.9,38.0    L439.0,37.9 L439.2,37.8 L439.3,37.3 L439.5,36.7 L439.6,37.4 L439.7,36.9 L439.9,36.1 L440.0,36.0    L440.1,36.5 L440.3,36.0 L440.4,35.5 L440.6,35.7 L440.7,35.7 L440.8,34.7 L441.0,34.6 L441.1,34.7    L441.2,34.2 L441.4,33.9 L441.5,33.6 L441.7,33.3 L441.8,32.9 L441.9,32.9 L442.1,33.1 L442.2,32.1    L442.3,31.3 L442.5,32.0 L442.6,31.9 L442.8,30.9 L442.9,30.5 L443.0,30.8 L443.2,30.8 L443.3,29.7    L443.4,30.3 L443.6,29.8 L443.7,28.9 L443.9,29.1 L444.0,29.3 L444.1,28.5 L444.3,28.2 L444.4,28.0    L444.6,28.0 L444.7,26.6 L444.8,26.4 L445.0,27.2 L445.1,27.1 L445.2,26.0 L445.4,25.5 L445.5,26.1    L445.7,25.8 L445.8,25.4 L445.9,25.4 L446.1,25.2 L446.2,24.5 L446.3,25.1 L446.5,24.6 L446.6,24.0    L446.8,23.6 L446.9,23.8 L447.0,24.7 L447.2,23.4 L447.3,23.2 L447.4,23.6 L447.6,23.2 L447.7,23.0    L447.9,23.6 L448.0,22.9 L448.1,21.9 L448.3,21.6 L448.4,23.1 L448.5,23.2 L448.7,21.6 L448.8,22.2    L449.0,23.0 L449.1,21.4 L449.2,22.2 L449.4,22.7 L449.5,22.2 L449.6,21.3 L449.8,22.0 L449.9,22.4    L450.1,21.7 L450.2,21.5 L450.3,22.1 L450.5,22.0 L450.6,21.9 L450.7,21.7 L450.9,22.2 L451.0,22.7    L451.2,22.3 L451.3,22.2 L451.4,22.5 L451.6,22.5 L451.7,21.9 L451.8,22.4 L452.0,23.2 L452.1,22.9    L452.3,23.0 L452.4,23.2 L452.5,23.1 L452.7,23.2 L452.8,24.0 L452.9,25.4 L453.1,24.1 L453.2,23.8    L453.4,24.5 L453.5,24.5 L453.6,24.3 L453.8,24.9 L453.9,25.2 L454.1,25.2 L454.2,25.2 L454.3,25.9    L454.5,26.7 L454.6,26.2 L454.7,26.6 L454.9,26.7 L455.0,26.6 L455.2,27.2 L455.3,27.7 L455.4,28.3    L455.6,27.8 L455.7,27.7 L455.8,29.0 L456.0,29.3 L456.1,29.2 L456.3,29.1 L456.4,30.0 L456.5,29.8    L456.7,30.4 L456.8,30.5 L456.9,31.1 L457.1,30.3 L457.2,30.8 L457.4,31.7 L457.5,32.0 L457.6,31.3    L457.8,32.0 L457.9,33.3 L458.0,32.9 L458.2,32.9 L458.3,33.2 L458.5,34.1 L458.6,34.3 L458.7,33.4    L458.9,34.5 L459.0,36.0 L459.1,35.3 L459.3,34.7 L459.4,35.8 L459.6,35.6 L459.7,35.2 L459.8,36.0    L460.0,37.1 L460.1,36.6 L460.2,36.9 L460.4,37.7 L460.5,38.4 L460.7,37.6 L460.8,38.5 L460.9,39.2    L461.1,38.9 L461.2,39.0 L461.3,39.5 L461.5,40.2 L461.6,40.2 L461.8,40.4 L461.9,40.2 L462.0,39.9    L462.2,40.5 L462.3,41.2 L462.4,41.5 L462.6,41.8 L462.7,41.1 L462.9,42.0 L463.0,42.9 L463.1,42.5    L463.3,41.0 L463.4,42.3 L463.6,43.5 L463.7,43.4 L463.8,42.9 L464.0,43.4 L464.1,43.6 L464.2,43.8    L464.4,43.7 L464.5,43.9 L464.7,44.8 L464.8,43.9 L464.9,44.3 L465.1,45.1 L465.2,44.5 L465.3,44.4    L465.5,45.3 L465.6,45.6 L465.8,45.1 L465.9,45.0 L466.0,45.6 L466.2,47.1 L466.3,46.1 L466.4,45.9    L466.6,45.9 L466.7,45.6 L466.9,46.3 L467.0,46.9 L467.1,46.6 L467.3,46.7 L467.4,46.5 L467.5,46.8    L467.7,47.3 L467.8,47.3 L468.0,46.7 L468.1,47.5 L468.2,48.0 L468.4,46.4 L468.5,47.1 L468.6,48.3    L468.8,47.2 L468.9,47.2 L469.1,47.5 L469.2,47.9 L469.3,47.6 L469.5,47.7 L469.6,47.9 L469.7,47.9    L469.9,48.3 L470.0,48.0 L470.2,48.2 L470.3,48.3 L470.4,48.1 L470.6,48.7 L470.7,49.5 L470.8,48.4    L471.0,47.5 L471.1,48.4 L471.3,49.3 L471.4,47.9 L471.5,47.8 L471.7,48.6 L471.8,48.1 L471.9,48.5    L472.1,47.6 L472.2,48.5 L472.4,48.6 L472.5,47.9 L472.6,47.7 L472.8,48.8 L472.9,48.2 L473.1,48.4    L473.2,48.0 L473.3,48.9 L473.5,48.2 L473.6,47.3 L473.7,48.0 L473.9,48.9 L474.0,47.5 L474.2,47.1    L474.3,47.9 L474.4,47.7 L474.6,47.5 L474.7,47.2 L474.8,46.8 L475.0,48.1 L475.1,47.6 L475.3,47.1    L475.4,47.6 L475.5,47.3 L475.7,46.9 L475.8,47.2 L475.9,47.6 L476.1,46.5 L476.2,47.2 L476.4,47.8    L476.5,47.1 L476.6,45.9 L476.8,46.5 L476.9,46.7 L477.0,47.1 L477.2,46.4 L477.3,46.6 L477.5,46.4    L477.6,46.5 L477.7,46.3 L477.9,46.4 L478.0,47.3 L478.1,46.6 L478.3,45.6 L478.4,46.4 L478.6,46.2    L478.7,46.1 L478.8,45.4 L479.0,46.0 L479.1,45.7 L479.2,45.3 L479.4,45.5 L479.5,45.8 L479.7,46.4    L479.8,44.9 L479.9,44.6 L480.1,46.0 L480.2,45.7 L480.3,45.2 L480.5,44.7 L480.6,46.1 L480.8,45.7    L480.9,45.1 L481.0,44.6 L481.2,45.7 L481.3,45.8 L481.4,45.3 L481.6,44.8 L481.7,45.2 L481.9,45.6    L482.0,45.1 L482.1,45.2 L482.3,45.5 L482.4,45.6 L482.5,45.3 L482.7,45.3 L482.8,46.0 L483.0,46.0    L483.1,44.9 L483.2,45.5 L483.4,45.9 L483.5,45.7 L483.7,45.3 L483.8,46.2 L483.9,46.6 L484.1,45.7    L484.2,45.4 L484.3,45.7 L484.5,46.5 L484.6,46.3 L484.8,46.6 L484.9,45.7 L485.0,45.7 L485.2,46.5    L485.3,46.8 L485.4,46.2 L485.6,46.7 L485.7,46.3 L485.9,46.8 L486.0,47.2 L486.1,47.0 L486.3,47.1    L486.4,47.5 L486.5,47.0 L486.7,47.6 L486.8,47.9 L487.0,47.1 L487.1,47.2 L487.2,47.7 L487.4,47.9    L487.5,47.6 L487.6,48.3 L487.8,48.5 L487.9,48.1 L488.1,48.4 L488.2,48.6 L488.3,49.0 L488.5,48.3    L488.6,47.9 L488.7,48.5 L488.9,48.1 L489.0,48.4 L489.2,48.2 L489.3,48.7 L489.4,48.4 L489.6,48.4    L489.7,48.8 L489.8,49.1 L490.0,48.5 L490.1,49.1 L490.3,49.3 L490.4,48.6 L490.5,47.2 L490.7,48.4    L490.8,48.5 L490.9,49.6 L491.1,48.1 L491.2,48.5 L491.4,48.6 L491.5,48.5 L491.6,48.4 L491.8,48.3    L491.9,48.0 L492.0,48.2 L492.2,48.3 L492.3,47.3 L492.5,47.7 L492.6,48.0 L492.7,47.4 L492.9,47.6    L493.0,47.2 L493.2,46.7 L493.3,46.7 L493.4,47.5 L493.6,46.4 L493.7,46.3 L493.8,46.1 L494.0,46.5    L494.1,46.4 L494.3,45.8 L494.4,45.1 L494.5,45.6 L494.7,45.5 L494.8,44.8 L494.9,44.1 L495.1,44.3    L495.2,45.0 L495.4,44.4 L495.5,43.7 L495.6,43.3 L495.8,43.3 L495.9,43.4 L496.0,42.9 L496.2,42.8    L496.3,42.9 L496.5,41.7 L496.6,42.2 L496.7,41.5 L496.9,41.4 L497.0,40.8 L497.1,40.9 L497.3,40.7    L497.4,40.4 L497.6,39.3 L497.7,39.5 L497.8,39.8 L498.0,39.2 L498.1,38.8 L498.2,38.0 L498.4,38.5    L498.5,38.2 L498.7,37.8 L498.8,37.1 L498.9,36.9 L499.1,37.7 L499.2,37.0 L499.3,36.1 L499.5,36.3    L499.6,35.9 L499.8,35.6 L499.9,35.4 L500.0,35.5 L500.2,34.6 L500.3,35.4 L500.4,34.8 L500.6,33.8    L500.7,34.0 L500.9,33.6 L501.0,33.6 L501.1,34.1 L501.3,33.4 L501.4,33.2 L501.5,33.6 L501.7,33.1    L501.8,32.9 L502.0,32.9 L502.1,32.7 L502.2,32.5 L502.4,32.9 L502.5,32.3 L502.7,31.9 L502.8,32.5    L502.9,32.7 L503.1,32.1 L503.2,32.0 L503.3,31.7 L503.5,33.0 L503.6,32.8 L503.8,31.3 L503.9,31.8    L504.0,32.1 L504.2,33.0 L504.3,32.5 L504.4,32.0 L504.6,32.6 L504.7,32.4 L504.9,33.2 L505.0,32.4    L505.1,32.7 L505.3,33.8 L505.4,33.6 L505.5,34.0 L505.7,33.4 L505.8,33.8 L506.0,34.5 L506.1,35.0    L506.2,35.0 L506.4,35.1 L506.5,34.7 L506.6,35.9 L506.8,36.4 L506.9,36.4 L507.1,36.5 L507.2,36.9    L507.3,36.7 L507.5,38.0 L507.6,38.0 L507.7,38.0 L507.9,38.3 L508.0,39.5 L508.2,40.0 L508.3,40.1    L508.4,40.6 L508.6,40.7 L508.7,41.7 L508.8,41.1 L509.0,41.3 L509.1,42.6 L509.3,43.6 L509.4,43.5    L509.5,43.6 L509.7,44.4 L509.8,44.8 L509.9,45.5 L510.1,45.9 L510.2,45.4 L510.4,46.6 L510.5,47.3    L510.6,47.9 L510.8,48.2 L510.9,48.9 L511.0,49.2 L511.2,49.9 L511.3,50.0 L511.5,50.9 L511.6,50.7    L511.7,51.3 L511.9,52.7 L512.0,52.3 L512.2,52.5 L512.3,53.0 L512.4,53.9 L512.6,54.3 L512.7,54.6    L512.8,55.7 L513.0,56.3 L513.1,57.0 L513.3,56.4 L513.4,55.6 L513.5,56.7 L513.7,57.7 L513.8,58.0    L513.9,58.4 L514.1,58.1 L514.2,59.0 L514.4,60.0 L514.5,59.8 L514.6,59.8 L514.8,60.3 L514.9,61.2    L515.0,60.4 L515.2,61.3 L515.3,61.7 L515.5,62.2 L515.6,62.9 L515.7,62.2 L515.9,62.1 L516.0,62.5    L516.1,63.3 L516.3,63.3 L516.4,63.9 L516.6,63.1 L516.7,63.1 L516.8,63.4 L517.0,63.5 L517.1,64.9    L517.2,63.8 L517.4,64.2 L517.5,64.5 L517.7,64.0 L517.8,64.2 L517.9,63.3 L518.1,64.2 L518.2,64.9    L518.3,64.3 L518.5,63.4 L518.6,63.9 L518.8,64.4 L518.9,63.7 L519.0,63.7 L519.2,63.8 L519.3,63.3    L519.4,64.1 L519.6,62.7 L519.7,62.3 L519.9,62.7 L520.0,62.6 L520.1,62.9 L520.3,62.0 L520.4,61.7    L520.5,61.5 L520.7,61.6 L520.8,60.6 L521.0,60.7 L521.1,60.6 L521.2,60.3 L521.4,59.9 L521.5,59.7    L521.7,58.4 L521.8,58.6 L521.9,58.3 L522.1,57.9 L522.2,57.7 L522.3,57.2 L522.5,56.8 L522.6,56.7    L522.8,56.2 L522.9,55.8 L523.0,55.4 L523.2,54.3 L523.3,54.5 L523.4,54.2 L523.6,53.4 L523.7,53.2    L523.9,53.1 L524.0,52.7 L524.1,52.4 L524.3,51.0 L524.4,51.5 L524.5,51.1 L524.7,51.0 L524.8,49.4    L525.0,49.8 L525.1,49.6 L525.2,49.1 L525.4,48.6 L525.5,47.5 L525.6,47.1 L525.8,48.2 L525.9,47.2    L526.1,46.2 L526.2,46.1 L526.3,45.9 L526.5,45.9 L526.6,45.0 L526.7,44.7 L526.9,44.8 L527.0,44.1    L527.2,43.9 L527.3,43.5 L527.4,43.2 L527.6,42.8 L527.7,43.1 L527.8,42.0 L528.0,41.5 L528.1,41.9    L528.3,41.8 L528.4,41.4 L528.5,40.9 L528.7,40.2 L528.8,40.2 L528.9,40.4 L529.1,39.9 L529.2,39.5    L529.4,39.5 L529.5,38.9 L529.6,39.2 L529.8,39.2 L529.9,38.3 L530.0,38.4 L530.2,38.0 L530.3,38.2    L530.5,38.7 L530.6,37.2 L530.7,37.7 L530.9,38.1 L531.0,37.7 L531.2,37.6 L531.3,37.6 L531.4,37.2    L531.6,37.3 L531.7,37.1 L531.8,36.9 L532.0,36.3 L532.1,37.3 L532.3,37.5 L532.4,36.6 L532.5,36.3    L532.7,36.9 L532.8,37.2 L532.9,36.7 L533.1,36.0 L533.2,36.9 L533.4,36.8 L533.5,36.6 L533.6,36.7    L533.8,36.2 L533.9,37.0 L534.0,37.0 L534.2,37.3 L534.3,36.5 L534.5,36.7 L534.6,38.2 L534.7,37.1    L534.9,36.9 L535.0,36.9 L535.1,37.0 L535.3,37.9 L535.4,37.9 L535.6,36.8 L535.7,37.0 L535.8,37.9    L536.0,37.5 L536.1,37.1 L536.2,37.4 L536.4,37.6 L536.5,38.2 L536.7,37.9 L536.8,37.5 L536.9,37.6    L537.1,38.1 L537.2,38.1 L537.3,37.9 L537.5,38.0 L537.6,38.2 L537.8,38.6 L537.9,37.8 L538.0,38.3    L538.2,38.1 L538.3,38.2 L538.4,38.8 L538.6,37.9 L538.7,37.8 L538.9,38.7 L539.0,38.9 L539.1,39.4    L539.3,38.5 L539.4,38.6 L539.5,39.5 L539.7,38.3 L539.8,39.1 L540.0,39.2 L540.1,38.8 L540.2,38.2    L540.4,39.5 L540.5,38.6 L540.7,39.2 L540.8,38.9 L540.9,38.6 L541.1,39.2 L541.2,38.1 L541.3,38.9    L541.5,39.3 L541.6,39.3 L541.8,38.8 L541.9,39.3 L542.0,38.8 L542.2,38.7 L542.3,39.4 L542.4,39.3    L542.6,38.6 L542.7,38.3 L542.9,38.7 L543.0,39.6 L543.1,39.1 L543.3,39.2 L543.4,38.5 L543.5,38.4    L543.7,38.6 L543.8,38.6 L544.0,38.3 L544.1,39.2 L544.2,39.2 L544.4,39.3 L544.5,38.6 L544.6,38.3    L544.8,39.6 L544.9,39.0 L545.1,39.0 L545.2,38.4 L545.3,38.8 L545.5,39.2 L545.6,39.2 L545.7,38.5    L545.9,39.5 L546.0,39.0 L546.2,39.4 L546.3,39.5 L546.4,39.2 L546.6,39.2 L546.7,40.1 L546.8,39.6    L547.0,39.3 L547.1,39.1 L547.3,39.7 L547.4,41.2 L547.5,40.3 L547.7,39.8 L547.8,40.5 L547.9,40.3    L548.1,40.4 L548.2,40.7 L548.4,40.0 L548.5,40.7 L548.6,41.3 L548.8,40.2 L548.9,41.2 L549.0,41.2    L549.2,41.1 L549.3,42.2 L549.5,41.7 L549.6,41.3 L549.7,42.8 L549.9,42.4 L550.0,42.3 L550.2,42.1    L550.3,42.6 L550.4,43.7 L550.6,43.9 L550.7,43.4 L550.8,42.9 L551.0,44.2 L551.1,44.0 L551.3,44.7    L551.4,44.0 L551.5,44.2 L551.7,44.8 L551.8,45.3 L551.9,45.6 L552.1,44.9 L552.2,44.9 L552.4,46.6    L552.5,46.1 L552.6,46.3 L552.8,45.9 L552.9,46.7 L553.0,47.9 L553.2,47.0 L553.3,47.4 L553.5,47.5    L553.6,47.5 L553.7,48.6 L553.9,47.9 L554.0,48.1 L554.1,48.6 L554.3,49.1 L554.4,48.9 L554.6,49.6    L554.7,48.4 L554.8,50.1 L555.0,50.1 L555.1,50.1 L555.2,50.1 L555.4,49.7 L555.5,50.9 L555.7,50.9    L555.8,50.7 L555.9,50.3 L556.1,50.5 L556.2,51.2 L556.3,51.1 L556.5,51.2 L556.6,50.9 L556.8,51.2    L556.9,51.0 L557.0,51.2 L557.2,51.0 L557.3,51.0 L557.4,52.2 L557.6,51.8 L557.7,51.0 L557.9,51.6    L558.0,51.2 L558.1,51.3 L558.3,50.9 L558.4,50.7 L558.5,51.0 L558.7,50.7 L558.8,51.1 L559.0,50.7    L559.1,49.8  h0.01"
           id="path279"
           style="stroke-width:1.5;stroke-miterlimit:4;stroke-dasharray:none" />
      </g>
    </g>
    <g
       style="fill:none;color:black;stroke:currentColor;stroke-width:1.5;stroke-linecap:butt;stroke-linejoin:miter;stroke-miterlimit:4;stroke-dasharray:none"
       id="g281" />
  </g>
</svg>
