<?xml version="1.0" encoding="UTF-8" standalone="no"?>
<svg
   xmlns:dc="http://purl.org/dc/elements/1.1/"
   xmlns:cc="http://creativecommons.org/ns#"
   xmlns:rdf="http://www.w3.org/1999/02/22-rdf-syntax-ns#"
   xmlns:svg="http://www.w3.org/2000/svg"
   xmlns="http://www.w3.org/2000/svg"
   xmlns:xlink="http://www.w3.org/1999/xlink"
   xmlns:sodipodi="http://sodipodi.sourceforge.net/DTD/sodipodi-0.dtd"
   xmlns:inkscape="http://www.inkscape.org/namespaces/inkscape"
   viewBox="0 0 576 432"
   id="svg2"
   version="1.1"
   inkscape:version="0.48.4 r9939"
   width="100%"
   height="100%"
   sodipodi:docname="50HR16_pos3_8cm.svg"
   inkscape:export-filename="/home/alice/Documents/Etudes/Projet_M1/simulation_reseau_fini_singu/50HR16_pos3_8cm.png"
   inkscape:export-xdpi="90"
   inkscape:export-ydpi="90">
  <metadata
     id="metadata162">
    <rdf:RDF>
      <cc:Work
         rdf:about="">
        <dc:format>image/svg+xml</dc:format>
        <dc:type
           rdf:resource="http://purl.org/dc/dcmitype/StillImage" />
        <dc:title>Gnuplot</dc:title>
      </cc:Work>
    </rdf:RDF>
  </metadata>
  <defs
     id="defs160" />
  <sodipodi:namedview
     pagecolor="#ffffff"
     bordercolor="#666666"
     borderopacity="1"
     objecttolerance="10"
     gridtolerance="10"
     guidetolerance="10"
     inkscape:pageopacity="0"
     inkscape:pageshadow="2"
     inkscape:window-width="762"
     inkscape:window-height="480"
     id="namedview158"
     showgrid="false"
     inkscape:zoom="0.5462963"
     inkscape:cx="288"
     inkscape:cy="216"
     inkscape:window-x="0"
     inkscape:window-y="24"
     inkscape:window-maximized="0"
     inkscape:current-layer="svg2" />
  <title
     id="title4">Gnuplot</title>
  <desc
     id="desc6">Produced by GNUPLOT 4.6 patchlevel 4 </desc>
  <g
     id="gnuplot_canvas"
     style="stroke-width:1.5;stroke-miterlimit:4;stroke-dasharray:none">
    <rect
       x="0"
       y="0"
       width="576"
       height="432"
       fill="none"
       id="rect9"
       style="stroke-width:1.5;stroke-miterlimit:4;stroke-dasharray:none" />
    <defs
       id="defs11">
      <circle
         id="gpDot"
         r="0.5"
         stroke-width="0.5" />
      <path
         id="gpPt0"
         stroke-width="0.333"
         stroke="currentColor"
         d="M-1,0 h2 M0,-1 v2" />
      <path
         id="gpPt1"
         stroke-width="0.333"
         stroke="currentColor"
         d="M-1,-1 L1,1 M1,-1 L-1,1" />
      <path
         id="gpPt2"
         stroke-width="0.333"
         stroke="currentColor"
         d="M-1,0 L1,0 M0,-1 L0,1 M-1,-1 L1,1 M-1,1 L1,-1" />
      <rect
         id="gpPt3"
         stroke-width="0.333"
         stroke="currentColor"
         x="-1"
         y="-1"
         width="2"
         height="2" />
      <rect
         id="gpPt4"
         stroke-width="0.333"
         stroke="currentColor"
         fill="currentColor"
         x="-1"
         y="-1"
         width="2"
         height="2" />
      <circle
         id="gpPt5"
         stroke-width="0.333"
         stroke="currentColor"
         cx="0"
         cy="0"
         r="1" />
      <use
         xlink:href="#gpPt5"
         id="gpPt6"
         fill="currentColor"
         stroke="none" />
      <path
         id="gpPt7"
         stroke-width="0.333"
         stroke="currentColor"
         d="M0,-1.33 L-1.33,0.67 L1.33,0.67 z" />
      <use
         xlink:href="#gpPt7"
         id="gpPt8"
         fill="currentColor"
         stroke="none" />
      <use
         xlink:href="#gpPt7"
         id="gpPt9"
         stroke="currentColor"
         transform="rotate(180)" />
      <use
         xlink:href="#gpPt9"
         id="gpPt10"
         fill="currentColor"
         stroke="none" />
      <use
         xlink:href="#gpPt3"
         id="gpPt11"
         stroke="currentColor"
         transform="rotate(45)" />
      <use
         xlink:href="#gpPt11"
         id="gpPt12"
         fill="currentColor"
         stroke="none" />
    </defs>
    <g
       style="fill:none;color:white;stroke:currentColor;stroke-width:1.5;stroke-linecap:butt;stroke-linejoin:miter;stroke-miterlimit:4;stroke-dasharray:none"
       id="g27" />
    <g
       style="fill:none;color:black;stroke:currentColor;stroke-width:1.5;stroke-linecap:butt;stroke-linejoin:miter;stroke-miterlimit:4;stroke-dasharray:none"
       id="g29">
      <g
         style="stroke:none;shape-rendering:crispEdges;stroke-width:1.5;stroke-miterlimit:4;stroke-dasharray:none"
         id="g31">
        <polygon
           fill="rgb(255, 255, 255)"
           points="42.8,393.6 559.0,393.6 559.0,11.4 42.8,11.4 "
           id="polygon33"
           style="stroke-width:1.5;stroke-miterlimit:4;stroke-dasharray:none" />
      </g>
      <path
         stroke="black"
         d="M42.8,393.6 L42.8,11.4 L559.0,11.4 L559.0,393.6 L42.8,393.6  h0.01"
         id="path35"
         style="stroke-width:1.5;stroke-miterlimit:4;stroke-dasharray:none" />
    </g>
    <g
       style="fill:none;color:black;stroke:black;stroke-width:1.5;stroke-linecap:butt;stroke-linejoin:miter;stroke-miterlimit:4;stroke-dasharray:none"
       id="g37">
      <path
         stroke="black"
         d="M42.8,393.6 L51.2,393.6 M559.1,393.6 L550.7,393.6  h0.01"
         id="path39"
         style="stroke-width:1.5;stroke-miterlimit:4;stroke-dasharray:none" />
      <g
         transform="translate(37.2,397.3)"
         style="stroke:none;fill:rgb(0, 0, 0);font-size:10pt;text-anchor:end;stroke-width:1.5;stroke-miterlimit:4;stroke-dasharray:none"
         id="g41">
        <text
           id="text43"
           style="stroke-width:1.5;stroke-miterlimit:4;stroke-dasharray:none">
          <tspan
             id="tspan45"
             style="stroke-width:1.5;stroke-miterlimit:4;stroke-dasharray:none">0</tspan>
        </text>
      </g>
      <path
         stroke="black"
         d="M42.8,317.1 L51.2,317.1 M559.1,317.1 L550.7,317.1  h0.01"
         id="path47"
         style="stroke-width:1.5;stroke-miterlimit:4;stroke-dasharray:none" />
      <g
         transform="translate(37.2,320.8)"
         style="stroke:none;fill:rgb(0, 0, 0);font-size:10pt;text-anchor:end;stroke-width:1.5;stroke-miterlimit:4;stroke-dasharray:none"
         id="g49">
        <text
           id="text51"
           style="stroke-width:1.5;stroke-miterlimit:4;stroke-dasharray:none">
          <tspan
             id="tspan53"
             style="stroke-width:1.5;stroke-miterlimit:4;stroke-dasharray:none">0.2</tspan>
        </text>
      </g>
      <path
         stroke="black"
         d="M42.8,240.7 L51.2,240.7 M559.1,240.7 L550.7,240.7  h0.01"
         id="path55"
         style="stroke-width:1.5;stroke-miterlimit:4;stroke-dasharray:none" />
      <g
         transform="translate(37.2,244.4)"
         style="stroke:none;fill:rgb(0, 0, 0);font-size:10pt;text-anchor:end;stroke-width:1.5;stroke-miterlimit:4;stroke-dasharray:none"
         id="g57">
        <text
           id="text59"
           style="stroke-width:1.5;stroke-miterlimit:4;stroke-dasharray:none">
          <tspan
             id="tspan61"
             style="stroke-width:1.5;stroke-miterlimit:4;stroke-dasharray:none">0.4</tspan>
        </text>
      </g>
      <path
         stroke="black"
         d="M42.8,164.2 L51.2,164.2 M559.1,164.2 L550.7,164.2  h0.01"
         id="path63"
         style="stroke-width:1.5;stroke-miterlimit:4;stroke-dasharray:none" />
      <g
         transform="translate(37.2,167.9)"
         style="stroke:none;fill:rgb(0, 0, 0);font-size:10pt;text-anchor:end;stroke-width:1.5;stroke-miterlimit:4;stroke-dasharray:none"
         id="g65">
        <text
           id="text67"
           style="stroke-width:1.5;stroke-miterlimit:4;stroke-dasharray:none">
          <tspan
             id="tspan69"
             style="stroke-width:1.5;stroke-miterlimit:4;stroke-dasharray:none">0.6</tspan>
        </text>
      </g>
      <path
         stroke="black"
         d="M42.8,87.8 L51.2,87.8 M559.1,87.8 L550.7,87.8  h0.01"
         id="path71"
         style="stroke-width:1.5;stroke-miterlimit:4;stroke-dasharray:none" />
      <g
         transform="translate(37.2,91.5)"
         style="stroke:none;fill:rgb(0, 0, 0);font-size:10pt;text-anchor:end;stroke-width:1.5;stroke-miterlimit:4;stroke-dasharray:none"
         id="g73">
        <text
           id="text75"
           style="stroke-width:1.5;stroke-miterlimit:4;stroke-dasharray:none">
          <tspan
             id="tspan77"
             style="stroke-width:1.5;stroke-miterlimit:4;stroke-dasharray:none">0.8</tspan>
        </text>
      </g>
      <path
         stroke="black"
         d="M42.8,11.3 L51.2,11.3 M559.1,11.3 L550.7,11.3  h0.01"
         id="path79"
         style="stroke-width:1.5;stroke-miterlimit:4;stroke-dasharray:none" />
      <g
         transform="translate(37.2,15.0)"
         style="stroke:none;fill:rgb(0, 0, 0);font-size:10pt;text-anchor:end;stroke-width:1.5;stroke-miterlimit:4;stroke-dasharray:none"
         id="g81">
        <text
           id="text83"
           style="stroke-width:1.5;stroke-miterlimit:4;stroke-dasharray:none">
          <tspan
             id="tspan85"
             style="stroke-width:1.5;stroke-miterlimit:4;stroke-dasharray:none">1</tspan>
        </text>
      </g>
      <path
         stroke="black"
         d="M42.8,393.6 L42.8,385.2 M42.8,11.3 L42.8,19.7  h0.01"
         id="path87"
         style="stroke-width:1.5;stroke-miterlimit:4;stroke-dasharray:none" />
      <g
         transform="translate(42.8,409.3)"
         style="stroke:none;fill:rgb(0, 0, 0);font-size:10pt;text-anchor:middle;stroke-width:1.5;stroke-miterlimit:4;stroke-dasharray:none"
         id="g89">
        <text
           id="text91"
           style="stroke-width:1.5;stroke-miterlimit:4;stroke-dasharray:none">
          <tspan
             id="tspan93"
             style="stroke-width:1.5;stroke-miterlimit:4;stroke-dasharray:none">100</tspan>
        </text>
      </g>
      <path
         stroke="black"
         d="M146.1,393.6 L146.1,385.2 M146.1,11.3 L146.1,19.7  h0.01"
         id="path95"
         style="stroke-width:1.5;stroke-miterlimit:4;stroke-dasharray:none" />
      <g
         transform="translate(146.1,409.3)"
         style="stroke:none;fill:rgb(0, 0, 0);font-size:10pt;text-anchor:middle;stroke-width:1.5;stroke-miterlimit:4;stroke-dasharray:none"
         id="g97">
        <text
           id="text99"
           style="stroke-width:1.5;stroke-miterlimit:4;stroke-dasharray:none">
          <tspan
             id="tspan101"
             style="stroke-width:1.5;stroke-miterlimit:4;stroke-dasharray:none">200</tspan>
        </text>
      </g>
      <path
         stroke="black"
         d="M249.3,393.6 L249.3,385.2 M249.3,11.3 L249.3,19.7  h0.01"
         id="path103"
         style="stroke-width:1.5;stroke-miterlimit:4;stroke-dasharray:none" />
      <g
         transform="translate(249.3,409.3)"
         style="stroke:none;fill:rgb(0, 0, 0);font-size:10pt;text-anchor:middle;stroke-width:1.5;stroke-miterlimit:4;stroke-dasharray:none"
         id="g105">
        <text
           id="text107"
           style="stroke-width:1.5;stroke-miterlimit:4;stroke-dasharray:none">
          <tspan
             id="tspan109"
             style="stroke-width:1.5;stroke-miterlimit:4;stroke-dasharray:none">300</tspan>
        </text>
      </g>
      <path
         stroke="black"
         d="M352.6,393.6 L352.6,385.2 M352.6,11.3 L352.6,19.7  h0.01"
         id="path111"
         style="stroke-width:1.5;stroke-miterlimit:4;stroke-dasharray:none" />
      <g
         transform="translate(352.6,409.3)"
         style="stroke:none;fill:rgb(0, 0, 0);font-size:10pt;text-anchor:middle;stroke-width:1.5;stroke-miterlimit:4;stroke-dasharray:none"
         id="g113">
        <text
           id="text115"
           style="stroke-width:1.5;stroke-miterlimit:4;stroke-dasharray:none">
          <tspan
             id="tspan117"
             style="stroke-width:1.5;stroke-miterlimit:4;stroke-dasharray:none">400</tspan>
        </text>
      </g>
      <path
         stroke="black"
         d="M455.8,393.6 L455.8,385.2 M455.8,11.3 L455.8,19.7  h0.01"
         id="path119"
         style="stroke-width:1.5;stroke-miterlimit:4;stroke-dasharray:none" />
      <g
         transform="translate(455.8,409.3)"
         style="stroke:none;fill:rgb(0, 0, 0);font-size:10pt;text-anchor:middle;stroke-width:1.5;stroke-miterlimit:4;stroke-dasharray:none"
         id="g121">
        <text
           id="text123"
           style="stroke-width:1.5;stroke-miterlimit:4;stroke-dasharray:none">
          <tspan
             id="tspan125"
             style="stroke-width:1.5;stroke-miterlimit:4;stroke-dasharray:none">500</tspan>
        </text>
      </g>
      <path
         stroke="black"
         d="M559.1,393.6 L559.1,385.2 M559.1,11.3 L559.1,19.7  h0.01"
         id="path127"
         style="stroke-width:1.5;stroke-miterlimit:4;stroke-dasharray:none" />
      <g
         transform="translate(559.1,409.3)"
         style="stroke:none;fill:rgb(0, 0, 0);font-size:10pt;text-anchor:middle;stroke-width:1.5;stroke-miterlimit:4;stroke-dasharray:none"
         id="g129">
        <text
           id="text131"
           style="stroke-width:1.5;stroke-miterlimit:4;stroke-dasharray:none">
          <tspan
             id="tspan133"
             style="stroke-width:1.5;stroke-miterlimit:4;stroke-dasharray:none">600</tspan>
        </text>
      </g>
      <path
         stroke="black"
         d="M42.8,11.3 L42.8,393.6 L559.1,393.6 L559.1,11.3 L42.8,11.3 Z  h0.01"
         id="path135"
         style="stroke-width:1.5;stroke-miterlimit:4;stroke-dasharray:none" />
      <g
         transform="translate(12.5,202.5) rotate(-90)"
         style="stroke:none;fill:rgb(0, 0, 0);font-size:10pt;text-anchor:middle;stroke-width:1.5;stroke-miterlimit:4;stroke-dasharray:none"
         id="g137">
        <text
           id="text139"
           style="stroke-width:1.5;stroke-miterlimit:4;stroke-dasharray:none">
          <tspan
             id="tspan141"
             style="stroke-width:1.5;stroke-miterlimit:4;stroke-dasharray:none">|R|</tspan>
        </text>
      </g>
      <g
         transform="translate(300.9,427.3)"
         style="stroke:none;fill:rgb(0, 0, 0);font-size:10pt;text-anchor:middle;stroke-width:1.5;stroke-miterlimit:4;stroke-dasharray:none"
         id="g143">
        <text
           id="text145"
           style="stroke-width:1.5;stroke-miterlimit:4;stroke-dasharray:none">
          <tspan
             id="tspan147"
             style="stroke-width:1.5;stroke-miterlimit:4;stroke-dasharray:none">Frequences (Hz)</tspan>
        </text>
      </g>
    </g>
    <g
       id="gnuplot_plot_1a"
       style="stroke-width:1.5;stroke-miterlimit:4;stroke-dasharray:none">
      <title
         id="title150">gnuplot_plot_1a</title>
      <g
         style="fill:none;color:red;stroke:currentColor;stroke-width:1.5;stroke-linecap:butt;stroke-linejoin:miter;stroke-miterlimit:4;stroke-dasharray:none"
         id="g152">
        <path
           stroke="rgb(  0,   0, 255)"
           d="M42.8,271.8 L43.8,276.7 L44.9,284.3 L45.9,294.5 L46.9,307.1 L48.0,322.1 L49.0,339.2 L50.0,357.8    L51.1,377.0 L52.1,385.2 L53.1,367.2 L54.2,348.0 L55.2,330.1 L56.2,314.0 L57.3,300.2 L58.3,288.9    L59.3,280.4 L60.4,274.6 L61.4,271.7 L62.4,271.7 L63.5,274.7 L64.5,280.6 L65.5,289.4 L66.5,301.1    L67.6,315.5 L68.6,332.4 L69.6,351.4 L70.7,371.4 L71.7,385.9 L72.7,370.1 L73.8,349.8 L74.8,330.7    L75.8,313.5 L76.9,298.9 L77.9,287.1 L78.9,278.5 L80.0,273.0 L81.0,270.8 L82.0,271.9 L83.1,276.4    L84.1,284.3 L85.1,295.6 L86.2,310.1 L87.2,327.6 L88.2,347.4 L89.3,368.1 L90.3,380.4 L91.3,365.2    L92.4,343.9 L93.4,323.5 L94.4,305.4 L95.5,290.4 L96.5,278.8 L97.5,270.9 L98.6,266.8 L99.6,266.6    L100.6,270.3 L101.7,278.1 L102.7,289.9 L103.7,305.6 L104.8,324.5 L105.8,345.6 L106.8,364.5 L107.9,366.7    L108.9,348.7 L109.9,326.3 L111.0,305.3 L112.0,287.2 L113.0,273.1 L114.0,263.3 L115.1,258.1 L116.1,257.5    L117.1,261.7 L118.2,270.7 L119.2,284.4 L120.2,302.5 L121.3,323.3 L122.3,343.0 L123.3,351.0 L124.4,339.0    L125.4,317.0 L126.4,294.2 L127.5,274.4 L128.5,259.1 L129.5,249.1 L130.6,244.5 L131.6,245.5 L132.6,252.3    L133.7,264.8 L134.7,282.4 L135.7,302.9 L136.8,321.1 L137.8,326.9 L138.8,314.5 L139.9,292.3 L140.9,269.4    L141.9,250.3 L143.0,236.8 L144.0,229.7 L145.0,229.3 L146.1,235.6 L147.1,248.4 L148.1,266.4 L149.2,285.7    L150.2,298.1 L151.2,294.4 L152.3,276.1 L153.3,253.3 L154.3,233.1 L155.4,219.2 L156.4,212.5 L157.4,213.5    L158.5,222.1 L159.5,237.2 L160.5,255.1 L161.5,267.4 L162.6,264.8 L163.6,247.9 L164.6,226.5 L165.7,208.6    L166.7,198.0 L167.7,195.8 L168.8,202.0 L169.8,215.2 L170.8,230.5 L171.9,238.3 L172.9,231.1 L173.9,213.3    L175.0,195.1 L176.0,183.4 L177.0,180.4 L178.1,186.2 L179.1,198.2 L180.1,209.0 L181.2,208.6 L182.2,195.7    L183.2,179.7 L184.3,169.1 L185.3,167.3 L186.3,173.8 L187.4,183.5 L188.4,186.7 L189.4,178.2 L190.5,165.1    L191.5,156.8 L192.5,156.8 L193.6,163.2 L194.6,168.1 L195.6,163.8 L196.7,153.9 L197.7,147.5 L198.7,148.4    L199.8,153.1 L200.8,153.2 L201.8,146.8 L202.9,141.4 L203.9,142.0 L204.9,144.9 L206.0,143.5 L207.0,139.1    L208.0,138.2 L209.0,140.4 L210.1,140.2 L211.1,138.3 L212.1,139.3 L213.2,141.5 L214.2,141.9 L215.2,143.7    L216.3,147.3 L217.3,150.5 L218.3,155.3 L219.4,161.6 L220.4,169.2 L221.4,179.2 L222.5,191.4 L223.5,206.6    L224.5,224.5 L225.6,244.4 L226.6,263.2 L227.6,273.8 L228.7,267.6 L229.7,243.8 L230.7,210.9 L231.8,177.0    L232.8,147.1 L233.8,122.5 L234.9,103.3 L235.9,88.5 L236.9,77.2 L238.0,68.6 L239.0,61.9 L240.0,56.7    L241.1,52.6 L242.1,49.3 L243.1,46.6 L244.2,44.3 L245.2,42.5 L246.2,40.9 L247.3,39.5 L248.3,38.3    L249.3,37.3 L250.4,36.4 L251.4,35.6 L252.4,34.9 L253.5,34.3 L254.5,33.7 L255.5,33.2 L256.5,32.8    L257.6,32.4 L258.6,32.0 L259.6,31.7 L260.7,31.4 L261.7,31.2 L262.7,30.9 L263.8,30.7 L264.8,30.5    L265.8,30.4 L266.9,30.2 L267.9,30.1 L268.9,30.0 L270.0,29.9 L271.0,29.8 L272.0,29.8 L273.1,29.7    L274.1,29.7 L275.1,29.7 L276.2,29.7 L277.2,29.8 L278.2,29.8 L279.3,29.9 L280.3,30.0 L281.3,30.1    L282.4,30.2 L283.4,30.4 L284.4,30.6 L285.5,30.8 L286.5,31.0 L287.5,31.3 L288.6,31.7 L289.6,32.1    L290.6,32.5 L291.7,33.1 L292.7,33.7 L293.7,34.4 L294.8,35.2 L295.8,36.2 L296.8,37.3 L297.9,38.7    L298.9,40.3 L299.9,42.3 L301.0,44.7 L302.0,47.7 L303.0,51.4 L304.0,56.0 L305.1,62.1 L306.1,70.0    L307.1,80.5 L308.2,94.7 L309.2,114.2 L310.2,140.7 L311.3,176.1 L312.3,219.2 L313.3,258.9 L314.4,267.5    L315.4,235.6 L316.4,191.1 L317.5,151.7 L318.5,121.5 L319.5,99.4 L320.6,83.3 L321.6,71.5 L322.6,62.8    L323.7,56.2 L324.7,51.1 L325.7,47.1 L326.8,44.0 L327.8,41.5 L328.8,39.4 L329.9,37.7 L330.9,36.3    L331.9,35.1 L333.0,34.1 L334.0,33.3 L335.0,32.6 L336.1,31.9 L337.1,31.4 L338.1,30.9 L339.2,30.5    L340.2,30.2 L341.2,29.8 L342.3,29.6 L343.3,29.3 L344.3,29.1 L345.4,28.9 L346.4,28.7 L347.4,28.6    L348.4,28.4 L349.5,28.3 L350.5,28.2 L351.5,28.1 L352.6,28.0 L353.6,28.0 L354.6,27.9 L355.7,27.9    L356.7,27.8 L357.7,27.8 L358.8,27.8 L359.8,27.7 L360.8,27.7 L361.9,27.7 L362.9,27.7 L363.9,27.7    L365.0,27.7 L366.0,27.7 L367.0,27.7 L368.1,27.7 L369.1,27.7 L370.1,27.8 L371.2,27.8 L372.2,27.8    L373.2,27.8 L374.3,27.9 L375.3,27.9 L376.3,28.0 L377.4,28.0 L378.4,28.0 L379.4,28.1 L380.5,28.1    L381.5,28.2 L382.5,28.3 L383.6,28.3 L384.6,28.4 L385.6,28.5 L386.7,28.6 L387.7,28.6 L388.7,28.7    L389.8,28.8 L390.8,29.0 L391.8,29.1 L392.9,29.3 L393.9,29.4 L394.9,29.6 L395.9,29.7 L397.0,29.8    L398.0,30.0 L399.0,30.1 L400.1,30.2 L401.1,30.2 L402.1,30.3 L403.2,30.4 L404.2,30.5 L405.2,30.6    L406.3,30.7 L407.3,30.7 L408.3,30.8 L409.4,30.9 L410.4,31.0 L411.4,31.1 L412.5,31.3 L413.5,31.4    L414.5,31.5 L415.6,31.7 L416.6,31.8 L417.6,32.0 L418.7,32.2 L419.7,32.4 L420.7,32.6 L421.8,32.8    L422.8,33.1 L423.8,33.4 L424.9,33.7 L425.9,34.0 L426.9,34.3 L428.0,34.8 L429.0,35.2 L430.0,35.7    L431.1,36.3 L432.1,36.8 L433.1,37.2 L434.2,37.7 L435.2,38.1 L436.2,38.5 L437.3,39.1 L438.3,39.8    L439.3,40.6 L440.4,41.5 L441.4,42.7 L442.4,43.9 L443.4,45.3 L444.5,46.5 L445.5,47.6 L446.5,48.4    L447.6,49.0 L448.6,49.5 L449.6,50.1 L450.7,50.8 L451.7,51.8 L452.7,53.1 L453.8,54.8 L454.8,56.9    L455.8,59.3 L456.9,62.1 L457.9,65.0 L458.9,67.7 L460.0,70.1 L461.0,71.8 L462.0,72.7 L463.1,73.2    L464.1,73.5 L465.1,73.9 L466.2,74.6 L467.2,75.8 L468.2,77.7 L469.3,80.2 L470.3,83.4 L471.3,87.3    L472.4,91.8 L473.4,96.8 L474.4,101.9 L475.5,106.7 L476.5,110.8 L477.5,113.6 L478.6,115.1 L479.6,115.6    L480.6,115.4 L481.7,115.0 L482.7,114.8 L483.7,115.2 L484.8,116.4 L485.8,118.5 L486.8,121.7 L487.9,125.9    L488.9,131.0 L489.9,137.1 L490.9,143.9 L492.0,151.1 L493.0,158.2 L494.0,164.6 L495.1,169.7 L496.1,173.1    L497.1,174.7 L498.2,174.8 L499.2,173.8 L500.2,172.3 L501.3,170.9 L502.3,170.0 L503.3,169.9 L504.4,170.8    L505.4,173.0 L506.4,176.3 L507.5,180.8 L508.5,186.6 L509.5,193.3 L510.6,200.9 L511.6,208.9 L512.6,217.0    L513.7,224.5 L514.7,231.0 L515.7,235.8 L516.8,238.6 L517.8,239.5 L518.8,238.7 L519.9,236.7 L520.9,234.1    L521.9,231.5 L523.0,229.3 L524.0,227.9 L525.0,227.5 L526.1,228.2 L527.1,230.1 L528.1,233.2 L529.2,237.5    L530.2,242.9 L531.2,249.2 L532.3,256.3 L533.3,264.0 L534.3,271.7 L535.4,279.1 L536.4,285.6 L537.4,290.8    L538.4,294.3 L539.5,295.8 L540.5,295.4 L541.5,293.6 L542.6,290.7 L543.6,287.3 L544.6,284.0 L545.7,281.0    L546.7,278.7 L547.7,277.2 L548.8,276.8 L549.8,277.3 L550.8,278.9 L551.9,281.5 L552.9,285.1 L553.9,289.6    L555.0,295.0 L556.0,300.9 L557.0,307.3 L558.1,313.9 L559.1,320.4  h0.01"
           id="path154"
           style="stroke-width:1.5;stroke-miterlimit:4;stroke-dasharray:none" />
      </g>
    </g>
    <g
       style="fill:none;color:black;stroke:currentColor;stroke-width:1.5;stroke-linecap:butt;stroke-linejoin:miter;stroke-miterlimit:4;stroke-dasharray:none"
       id="g156" />
  </g>
</svg>
