<?xml version="1.0" encoding="UTF-8" standalone="no"?>
<svg
   xmlns:dc="http://purl.org/dc/elements/1.1/"
   xmlns:cc="http://creativecommons.org/ns#"
   xmlns:rdf="http://www.w3.org/1999/02/22-rdf-syntax-ns#"
   xmlns:svg="http://www.w3.org/2000/svg"
   xmlns="http://www.w3.org/2000/svg"
   xmlns:sodipodi="http://sodipodi.sourceforge.net/DTD/sodipodi-0.dtd"
   xmlns:inkscape="http://www.inkscape.org/namespaces/inkscape"
   width="576px"
   height="432px"
   viewBox="0 0 576 432"
   id="svg2"
   version="1.1"
   inkscape:version="0.48.4 r9939"
   sodipodi:docname="anecho.svg"
   inkscape:export-filename="/home/alice/Documents/Etudes/Projet_M1/mesures/mesure_4Mai2015/mesureTR/mesure anechoique log/anecho.png"
   inkscape:export-xdpi="90"
   inkscape:export-ydpi="90">
  <metadata
     id="metadata134">
    <rdf:RDF>
      <cc:Work
         rdf:about="">
        <dc:format>image/svg+xml</dc:format>
        <dc:type
           rdf:resource="http://purl.org/dc/dcmitype/StillImage" />
        <dc:title>glps_renderer figure</dc:title>
      </cc:Work>
    </rdf:RDF>
  </metadata>
  <sodipodi:namedview
     pagecolor="#ffffff"
     bordercolor="#666666"
     borderopacity="1"
     objecttolerance="10"
     gridtolerance="10"
     guidetolerance="10"
     inkscape:pageopacity="0"
     inkscape:pageshadow="2"
     inkscape:window-width="1366"
     inkscape:window-height="718"
     id="namedview132"
     showgrid="false"
     inkscape:zoom="1.5451593"
     inkscape:cx="294.85374"
     inkscape:cy="220.84018"
     inkscape:window-x="0"
     inkscape:window-y="24"
     inkscape:window-maximized="1"
     inkscape:current-layer="svg2" />
  <title
     id="title4">glps_renderer figure</title>
  <desc
     id="desc6">
Creator: GL2PS 1.3.8, (C) 1999-2012 C. Geuzaine
For: Octave
CreationDate: Wed May  6 17:12:30 2015
</desc>
  <defs
     id="defs8" />
  <polygon
     style="fill:#ffffff;stroke-width:1.5;stroke-miterlimit:4;stroke-dasharray:none"
     id="polygon12"
     points="521.28,384.48 521.28,384.48 521.28,32.4 " />
  <polygon
     style="fill:#ffffff;stroke-width:1.5;stroke-miterlimit:4;stroke-dasharray:none"
     id="polygon14"
     points="521.28,384.48 521.28,32.4 521.28,32.4 " />
  <polygon
     style="fill:#ffffff;stroke-width:1.5;stroke-miterlimit:4;stroke-dasharray:none"
     id="polygon16"
     points="74.88,32.4 74.88,32.4 521.28,32.4 " />
  <polygon
     style="fill:#ffffff;stroke-width:1.5;stroke-miterlimit:4;stroke-dasharray:none"
     id="polygon18"
     points="74.88,32.4 521.28,32.4 521.28,32.4 " />
  <polygon
     style="fill:#ffffff;stroke-width:1.5;stroke-miterlimit:4;stroke-dasharray:none"
     id="polygon20"
     points="74.88,32.4 74.88,384.48 521.28,384.48 " />
  <polygon
     style="fill:#ffffff;stroke-width:1.5;stroke-miterlimit:4;stroke-dasharray:none"
     id="polygon22"
     points="74.88,32.4 521.28,384.48 521.28,32.4 " />
  <polyline
     style="fill:none;stroke:#000000;stroke-width:1.5;stroke-miterlimit:4;stroke-dasharray:none"
     id="polyline24"
     points="74.88,384.48 521.28,384.48" />
  <polyline
     style="fill:none;stroke:#000000;stroke-width:1.5;stroke-miterlimit:4;stroke-dasharray:none"
     id="polyline26"
     points="74.88,32.4 521.28,32.4" />
  <polyline
     style="fill:none;stroke:#000000;stroke-width:1.5;stroke-miterlimit:4;stroke-dasharray:none"
     id="polyline28"
     points="74.88,32.4 521.28,32.4" />
  <polyline
     style="fill:none;stroke:#000000;stroke-width:1.5;stroke-miterlimit:4;stroke-dasharray:none"
     id="polyline30"
     points="74.88,384.48 521.28,384.48" />
  <polyline
     style="fill:none;stroke:#000000;stroke-width:1.5;stroke-miterlimit:4;stroke-dasharray:none"
     id="polyline32"
     points="74.88,384.48 74.88,32.4" />
  <polyline
     style="fill:none;stroke:#000000;stroke-width:1.5;stroke-miterlimit:4;stroke-dasharray:none"
     id="polyline34"
     points="521.28,384.48 521.28,32.4" />
  <polyline
     style="fill:none;stroke:#000000;stroke-width:1.5;stroke-miterlimit:4;stroke-dasharray:none"
     id="polyline36"
     points="521.28,384.48 521.28,32.4" />
  <polyline
     style="fill:none;stroke:#000000;stroke-width:1.5;stroke-miterlimit:4;stroke-dasharray:none"
     id="polyline38"
     points="74.88,384.48 74.88,32.4 74.88,32.4" />
  <polyline
     style="fill:none;stroke:#000000;stroke-width:1.5;stroke-miterlimit:4;stroke-dasharray:none"
     id="polyline40"
     points="521.28,32.4 521.28,32.4" />
  <polyline
     style="fill:none;stroke:#000000;stroke-width:1.5;stroke-miterlimit:4;stroke-dasharray:none"
     id="polyline42"
     points="521.28,384.48 521.28,384.48" />
  <polyline
     style="fill:none;stroke:#000000;stroke-width:1.5;stroke-miterlimit:4;stroke-dasharray:none"
     id="polyline44"
     points="74.88,384.48 74.88,384.48" />
  <polyline
     style="fill:none;stroke:#000000;stroke-width:1.5;stroke-miterlimit:4;stroke-dasharray:3,1.5;stroke-dashoffset:0"
     id="polyline46"
     points="104.64,384.48 104.64,32.4" />
  <polyline
     style="fill:none;stroke:#000000;stroke-width:1.5;stroke-miterlimit:4;stroke-dasharray:3,1.5;stroke-dashoffset:0"
     id="polyline48"
     points="223.68,384.48 223.68,32.4" />
  <polyline
     style="fill:none;stroke:#000000;stroke-width:1.5;stroke-miterlimit:4;stroke-dasharray:3,1.5;stroke-dashoffset:0"
     id="polyline50"
     points="342.72,384.48 342.72,32.4" />
  <polyline
     style="fill:none;stroke:#000000;stroke-width:1.5;stroke-miterlimit:4;stroke-dasharray:3,1.5;stroke-dashoffset:0"
     id="polyline52"
     points="461.76,384.48 461.76,32.4" />
  <polyline
     style="fill:none;stroke:#000000;stroke-width:1.5;stroke-miterlimit:4;stroke-dasharray:none"
     id="polyline54"
     points="104.64,384.48 104.64,380.015" />
  <polyline
     style="fill:none;stroke:#000000;stroke-width:1.5;stroke-miterlimit:4;stroke-dasharray:none"
     id="polyline56"
     points="104.64,32.4 104.64,36.865" />
  <polyline
     style="fill:none;stroke:#000000;stroke-width:1.5;stroke-miterlimit:4;stroke-dasharray:none"
     id="polyline58"
     points="223.68,384.48 223.68,380.015" />
  <polyline
     style="fill:none;stroke:#000000;stroke-width:1.5;stroke-miterlimit:4;stroke-dasharray:none"
     id="polyline60"
     points="223.68,32.4 223.68,36.865" />
  <polyline
     style="fill:none;stroke:#000000;stroke-width:1.5;stroke-miterlimit:4;stroke-dasharray:none"
     id="polyline62"
     points="342.72,384.48 342.72,380.015" />
  <polyline
     style="fill:none;stroke:#000000;stroke-width:1.5;stroke-miterlimit:4;stroke-dasharray:none"
     id="polyline64"
     points="342.72,32.4 342.72,36.865" />
  <polyline
     style="fill:none;stroke:#000000;stroke-width:1.5;stroke-miterlimit:4;stroke-dasharray:none"
     id="polyline66"
     points="461.76,384.48 461.76,380.015" />
  <polyline
     style="fill:none;stroke:#000000;stroke-width:1.5;stroke-miterlimit:4;stroke-dasharray:none"
     id="polyline68"
     points="461.76,32.4 461.76,36.865" />
  <text
     style="font-size:10px;text-anchor:middle;baseline-shift:-10px;fill:#000000;stroke-width:1.5;stroke-miterlimit:4;stroke-dasharray:none;font-family:Helvetica"
     id="text70"
     baseline-shift="-10"
     font-size="10"
     y="389.48099"
     x="104.64">200</text>
  <text
     style="font-size:10px;text-anchor:middle;baseline-shift:-10px;fill:#000000;stroke-width:1.5;stroke-miterlimit:4;stroke-dasharray:none;font-family:Helvetica"
     id="text72"
     baseline-shift="-10"
     font-size="10"
     y="389.48099"
     x="223.67999">400</text>
  <text
     style="font-size:10px;text-anchor:middle;baseline-shift:-10px;fill:#000000;stroke-width:1.5;stroke-miterlimit:4;stroke-dasharray:none;font-family:Helvetica"
     id="text74"
     baseline-shift="-10"
     font-size="10"
     y="389.48099"
     x="342.72">600</text>
  <text
     style="font-size:10px;text-anchor:middle;baseline-shift:-10px;fill:#000000;stroke-width:1.5;stroke-miterlimit:4;stroke-dasharray:none;font-family:Helvetica"
     id="text76"
     baseline-shift="-10"
     font-size="10"
     y="389.48099"
     x="461.76001">800</text>
  <polyline
     style="fill:none;stroke:#000000;stroke-width:1.5;stroke-miterlimit:4;stroke-dasharray:none"
     id="polyline78"
     points="74.88,384.48 521.28,384.48" />
  <polyline
     style="fill:none;stroke:#000000;stroke-width:1.5;stroke-miterlimit:4;stroke-dasharray:3,1.5;stroke-dashoffset:0"
     id="polyline80"
     points="74.88,314.064 521.28,314.064" />
  <polyline
     style="fill:none;stroke:#000000;stroke-width:1.5;stroke-miterlimit:4;stroke-dasharray:3,1.5;stroke-dashoffset:0"
     id="polyline82"
     points="74.88,243.648 521.28,243.648" />
  <polyline
     style="fill:none;stroke:#000000;stroke-width:1.5;stroke-miterlimit:4;stroke-dasharray:3,1.5;stroke-dashoffset:0"
     id="polyline84"
     points="74.88,173.232 521.28,173.232" />
  <polyline
     style="fill:none;stroke:#000000;stroke-width:1.5;stroke-miterlimit:4;stroke-dasharray:3,1.5;stroke-dashoffset:0"
     id="polyline86"
     points="74.88,102.816 521.28,102.816" />
  <polyline
     style="fill:none;stroke:#000000;stroke-width:1.5;stroke-miterlimit:4;stroke-dasharray:none"
     id="polyline88"
     points="74.88,32.4 521.28,32.4" />
  <polyline
     style="fill:none;stroke:#000000;stroke-width:1.5;stroke-miterlimit:4;stroke-dasharray:none"
     id="polyline90"
     points="74.88,384.48 79.348,384.48" />
  <polyline
     style="fill:none;stroke:#000000;stroke-width:1.5;stroke-miterlimit:4;stroke-dasharray:none"
     id="polyline92"
     points="521.28,384.48 516.812,384.48" />
  <polyline
     style="fill:none;stroke:#000000;stroke-width:1.5;stroke-miterlimit:4;stroke-dasharray:none"
     id="polyline94"
     points="74.88,314.064 79.348,314.064" />
  <polyline
     style="fill:none;stroke:#000000;stroke-width:1.5;stroke-miterlimit:4;stroke-dasharray:none"
     id="polyline96"
     points="521.28,314.064 516.812,314.064" />
  <polyline
     style="fill:none;stroke:#000000;stroke-width:1.5;stroke-miterlimit:4;stroke-dasharray:none"
     id="polyline98"
     points="74.88,243.648 79.348,243.648" />
  <polyline
     style="fill:none;stroke:#000000;stroke-width:1.5;stroke-miterlimit:4;stroke-dasharray:none"
     id="polyline100"
     points="521.28,243.648 516.812,243.648" />
  <polyline
     style="fill:none;stroke:#000000;stroke-width:1.5;stroke-miterlimit:4;stroke-dasharray:none"
     id="polyline102"
     points="74.88,173.232 79.348,173.232" />
  <polyline
     style="fill:none;stroke:#000000;stroke-width:1.5;stroke-miterlimit:4;stroke-dasharray:none"
     id="polyline104"
     points="521.28,173.232 516.812,173.232" />
  <polyline
     style="fill:none;stroke:#000000;stroke-width:1.5;stroke-miterlimit:4;stroke-dasharray:none"
     id="polyline106"
     points="74.88,102.816 79.348,102.816" />
  <polyline
     style="fill:none;stroke:#000000;stroke-width:1.5;stroke-miterlimit:4;stroke-dasharray:none"
     id="polyline108"
     points="521.28,102.816 516.812,102.816" />
  <polyline
     style="fill:none;stroke:#000000;stroke-width:1.5;stroke-miterlimit:4;stroke-dasharray:none"
     id="polyline110"
     points="74.88,32.4 79.348,32.4" />
  <polyline
     style="fill:none;stroke:#000000;stroke-width:1.5;stroke-miterlimit:4;stroke-dasharray:none"
     id="polyline112"
     points="521.28,32.4 516.812,32.4" />
  <text
     style="font-size:10px;text-anchor:end;baseline-shift:-5px;fill:#000000;stroke-width:1.5;stroke-miterlimit:4;stroke-dasharray:none;font-family:Helvetica"
     id="text114"
     baseline-shift="-5"
     font-size="10"
     y="384.48001"
     x="69.875504">0</text>
  <text
     style="font-size:10px;text-anchor:end;baseline-shift:-5px;fill:#000000;stroke-width:1.5;stroke-miterlimit:4;stroke-dasharray:none;font-family:Helvetica"
     id="text116"
     baseline-shift="-5"
     font-size="10"
     y="314.064"
     x="69.875504">0.2</text>
  <text
     style="font-size:10px;text-anchor:end;baseline-shift:-5px;fill:#000000;stroke-width:1.5;stroke-miterlimit:4;stroke-dasharray:none;font-family:Helvetica"
     id="text118"
     baseline-shift="-5"
     font-size="10"
     y="243.64799"
     x="69.875504">0.4</text>
  <text
     style="font-size:10px;text-anchor:end;baseline-shift:-5px;fill:#000000;stroke-width:1.5;stroke-miterlimit:4;stroke-dasharray:none;font-family:Helvetica"
     id="text120"
     baseline-shift="-5"
     font-size="10"
     y="173.23199"
     x="69.875504">0.6</text>
  <text
     style="font-size:10px;text-anchor:end;baseline-shift:-5px;fill:#000000;stroke-width:1.5;stroke-miterlimit:4;stroke-dasharray:none;font-family:Helvetica"
     id="text122"
     baseline-shift="-5"
     font-size="10"
     y="102.816"
     x="69.875504">0.8</text>
  <text
     style="font-size:10px;text-anchor:end;baseline-shift:-5px;fill:#000000;stroke-width:1.5;stroke-miterlimit:4;stroke-dasharray:none;font-family:Helvetica"
     id="text124"
     baseline-shift="-5"
     font-size="10"
     y="32.400002"
     x="69.875504">1</text>
  <text
     style="font-size:10px;text-anchor:middle;baseline-shift:-10px;fill:#000000;stroke-width:1.5;stroke-miterlimit:4;stroke-dasharray:none;font-family:Helvetica"
     id="text126"
     baseline-shift="-10"
     font-size="10"
     y="402.48099"
     x="298.07999">Frequence (Hz)</text>
  <text
     style="font-size:10px;text-anchor:middle;baseline-shift:0px;fill:#000000;stroke-width:1.5;stroke-miterlimit:4;stroke-dasharray:none;font-family:Helvetica"
     id="text128"
     baseline-shift="0"
     transform="matrix(0,-1,1,0,0,0)"
     font-size="10"
     y="50.875504"
     x="-208.44">|R|</text>
  <polyline
     style="fill:none;stroke:#0000ff;stroke-width:1.5;stroke-miterlimit:4;stroke-dasharray:none"
     id="polyline130"
     points="74.88,360.724 74.999,357.943 75.1181,360.164 75.2371,358.288 75.3562,357.75 75.4752,357.687 75.5942,358.201 75.7133,358.585 75.8323,360.713 75.9514,358.748 76.0704,353.833 76.1895,357.379 76.3085,362.594 76.4275,357.248 76.5466,361.49 76.6656,359.239 76.7847,356.706 76.9037,354.239 77.0227,354.748 77.1418,362.988 77.2608,358.234 77.3798,355.308 77.4989,360.843 77.6179,360.062 77.737,356.503 77.856,357.386 77.9751,353.582 78.0941,359.715 78.2131,360.777 78.3322,356.473 78.4512,354.759 78.5702,357.931 78.6893,357.531 78.8083,358.944 78.9274,357.432 79.0464,356.676 79.1655,359.222 79.2845,356.399 79.4035,358.183 79.5226,362.656 79.6416,358.213 79.7606,355.747 79.8797,360.676 79.9987,361.802 80.1178,360.666 80.2368,362.842 80.3558,358.445 80.4749,360.85 80.5939,362.391 80.713,361.384 80.832,360.882 80.951,359.176 81.0701,361.092 81.1891,360.514 81.3082,363.709 81.4272,367.882 81.5462,360.484 81.6653,354.796 81.7843,364.703 81.9034,362.154 82.0224,361.321 82.1414,363.276 82.2605,361.678 82.3795,367.803 82.4986,365.793 82.6176,362.369 82.7366,366.699 82.8557,363.963 82.9747,365.797 83.0938,367.518 83.2128,369.09 83.3318,368.928 83.4509,367.969 83.5699,368.101 83.689,367.429 83.808,368.215 83.927,368.328 84.0461,370.597 84.1651,364.7 84.2841,369.635 84.4032,373.494 84.5222,375.85 84.6413,371.41 84.7603,369.717 84.8794,369.157 84.9984,373.065 85.1174,373.786 85.2365,374.801 85.3555,372.576 85.4746,371.646 85.5936,373.261 85.7126,374.791 85.8317,378.819 85.9507,373.326 86.0698,374.137 86.1888,375.654 86.3078,377.085 86.4269,378.624 86.5459,375.853 86.665,377.329 86.784,376.515 86.903,380.523 87.0221,380.628 87.1411,381.425 87.2602,379.353 87.3792,380.027 87.4982,379.377 87.6173,379.755 87.7363,378.036 87.8554,380.177 87.9744,382.941 88.0934,382.753 88.2125,383.671 88.3315,382.729 88.4506,382.526 88.5696,381.138 88.6886,382.077 88.8077,380.162 88.9267,379.288 89.0458,380.316 89.1648,379.534 89.2838,381.385 89.4029,382.519 89.5219,379.733 89.641,381.53 89.76,381.161 89.879,378.984 89.9981,379.374 90.1171,377.419 90.2362,380.034 90.3552,377.254 90.4742,377.08 90.5933,379.035 90.7123,379.095 90.8314,379.535 90.9504,375.859 91.0695,375.9 91.1885,374.12 91.3075,375.951 91.4266,376.135 91.5456,376.928 91.6646,374.106 91.7837,375.974 91.9027,372.917 92.0218,372.367 92.1408,373.741 92.2599,375.76 92.3789,374.156 92.4979,374.196 92.617,373.666 92.736,373.738 92.855,372.665 92.9741,371.141 93.0931,375.605 93.2122,374.235 93.3312,369.066 93.4502,371.96 93.5693,371.778 93.6883,371.47 93.8074,369.32 93.9264,370.679 94.0454,370.267 94.1645,370.887 94.2835,369.987 94.4026,369.729 94.5216,370.367 94.6406,371.179 94.7597,368.327 94.8787,368.593 94.9978,370.588 95.1168,369.222 95.2358,370.875 95.3549,371.661 95.4739,370.262 95.593,368.428 95.712,368.841 95.831,368.998 95.9501,366.86 96.0691,369.026 96.1882,372.056 96.3072,369.13 96.4262,368.283 96.5453,367.145 96.6643,367.569 96.7834,370.639 96.9024,372.09 97.0214,369.464 97.1405,368.26 97.2595,367.843 97.3786,367.421 97.4976,368.786 97.6167,367.837 97.7357,369.595 97.8547,367.585 97.9738,366.451 98.0928,370.308 98.2118,371.902 98.3309,371.031 98.4499,368.7 98.569,369.593 98.688,369.258 98.8071,368.399 98.9261,369.734 99.0451,369.384 99.1642,370.113 99.2832,372.048 99.4022,370.288 99.5213,369.243 99.6403,371.816 99.7594,371.407 99.8784,370.938 99.9974,370.759 100.116,370.59 100.236,371.498 100.355,372.328 100.474,370.18 100.593,372.394 100.712,371.637 100.831,370.626 100.95,371.357 101.069,369.819 101.188,370.432 101.307,371.174 101.426,373.484 101.545,372.844 101.664,371.329 101.783,370.927 101.902,373.359 102.021,374.859 102.14,376.199 102.259,373.831 102.378,372.645 102.497,375.174 102.616,372.444 102.735,372.536 102.854,373.687 102.973,374.267 103.092,372.581 103.212,374.349 103.331,374.062 103.45,373.511 103.569,374.391 103.688,373.861 103.807,374.168 103.926,374.717 104.045,373.285 104.164,375.77 104.283,375.409 104.402,372.647 104.521,373.336 104.64,374.819 104.759,375.176 104.878,373.089 104.997,374.807 105.116,373.761 105.235,372.444 105.354,372.444 105.473,372.022 105.592,375.723 105.711,375.046 105.83,373.121 105.949,374.019 106.068,373.639 106.188,373.236 106.307,376.411 106.426,373.648 106.545,372.618 106.664,373.981 106.783,373.693 106.902,373.309 107.021,374.316 107.14,373.247 107.259,374.432 107.378,373.46 107.497,373.045 107.616,374.836 107.735,375.101 107.854,373.473 107.973,373.836 108.092,371.949 108.211,372.83 108.33,373.349 108.449,372.492 108.568,372.525 108.687,373.749 108.806,373.364 108.925,372.314 109.044,373.085 109.164,373.668 109.283,373.217 109.402,372.443 109.521,372.188 109.64,372.147 109.759,371.297 109.878,373.427 109.997,373.894 110.116,372.119 110.235,371.204 110.354,372.809 110.473,373.549 110.592,373.719 110.711,373.18 110.83,372.724 110.949,373.764 111.068,371.579 111.187,372.276 111.306,372.96 111.425,371.775 111.544,371.652 111.663,373.054 111.782,374.106 111.901,371.298 112.02,371.214 112.14,371.558 112.259,372.538 112.378,373.896 112.497,373.246 112.616,371.604 112.735,372.773 112.854,373.279 112.973,372.989 113.092,373.111 113.211,374.846 113.33,374.584 113.449,373.515 113.568,374.029 113.687,374.782 113.806,374.91 113.925,374.529 114.044,373.731 114.163,373.517 114.282,371.931 114.401,371.899 114.52,373 114.639,374.079 114.758,374.262 114.877,373.852 114.996,374.899 115.116,374.901 115.235,374.014 115.354,374.134 115.473,373.735 115.592,375.142 115.711,375.991 115.83,373.723 115.949,374.665 116.068,375.357 116.187,374.2 116.306,375.52 116.425,376.297 116.544,374.363 116.663,375.333 116.782,375.965 116.901,376.075 117.02,376.276 117.139,375.924 117.258,375.198 117.377,376.759 117.496,376.697 117.615,375.812 117.734,376.955 117.853,377.361 117.972,375.982 118.092,375.462 118.211,376.596 118.33,376.032 118.449,375.978 118.568,376.163 118.687,375.226 118.806,375.539 118.925,376.423 119.044,375.81 119.163,374.859 119.282,376.026 119.401,376.508 119.52,376.899 119.639,378.192 119.758,377.248 119.877,376.772 119.996,377.646 120.115,377.392 120.234,376.913 120.353,376.531 120.472,375.772 120.591,376.677 120.71,377.211 120.829,376.165 120.948,376.327 121.068,375.942 121.187,376.111 121.306,376.196 121.425,375.746 121.544,374.94 121.663,376.682 121.782,376.803 121.901,376.318 122.02,376.809 122.139,375.338 122.258,375.39 122.377,376.407 122.496,374.937 122.615,374.776 122.734,374.667 122.853,375.54 122.972,376.912 123.091,376.212 123.21,374.845 123.329,375.679 123.448,375.964 123.567,375.729 123.686,374.82 123.805,374.687 123.924,376.23 124.044,377.079 124.163,375.979 124.282,375.553 124.401,376.584 124.52,375.908 124.639,375.722 124.758,375.562 124.877,374.536 124.996,375.719 125.115,376.532 125.234,375.579 125.353,375.378 125.472,375.577 125.591,374.871 125.71,374.737 125.829,374.685 125.948,375.304 126.067,375.397 126.186,375.812 126.305,376.967 126.424,376.214 126.543,375.62 126.662,374.797 126.781,375.172 126.9,375.319 127.02,376.479 127.139,376.334 127.258,376.457 127.377,376.409 127.496,374.822 127.615,375.32 127.734,375.344 127.853,375.328 127.972,375.763 128.091,375.2 128.21,375.246 128.329,376.407 128.448,376.419 128.567,374.876 128.686,374.885 128.805,376.826 128.924,376.919 129.043,375.871 129.162,375.816 129.281,376.549 129.4,375.991 129.519,376.18 129.638,376.972 129.757,377.606 129.876,377.763 129.996,377.305 130.115,376.309 130.234,375.897 130.353,376.453 130.472,377.188 130.591,376.735 130.71,378.27 130.829,379.006 130.948,377.534 131.067,378.006 131.186,378.534 131.305,378.015 131.424,377.311 131.543,377.257 131.662,378.905 131.781,379.456 131.9,377.989 132.019,378.388 132.138,379.136 132.257,379.436 132.376,379.439 132.495,378.98 132.614,379.5 132.733,379.975 132.852,380.055 132.972,379.957 133.091,380.746 133.21,380.326 133.329,379.342 133.448,379.998 133.567,381.843 133.686,381.808 133.805,380.411 133.924,380.071 134.043,380.872 134.162,381.469 134.281,381.614 134.4,381.741 134.519,382.146 134.638,381.487 134.757,381.34 134.876,382.059 134.995,382.167 135.114,382.945 135.233,382.748 135.352,383.023 135.471,382.958 135.59,383.229 135.709,384.003 135.828,383.347 135.948,383.473 136.067,383.566 136.186,382.758 136.305,382.097 136.424,382.774 136.543,382.378 136.662,383.011 136.781,383.08 136.9,382.953 137.019,383.05 137.138,383.009 137.257,383.465 137.376,383.635 137.495,383.547 137.614,383.467 137.733,383.613 137.852,383.842 137.971,384.277 138.09,384.098 138.209,384.244 138.328,383.885 138.447,383.635 138.566,382.785 138.685,382.229 138.804,382.347 138.924,383.258 139.043,384.322 139.162,384.403 139.281,383.424 139.4,383.295 139.519,383.909 139.638,383.758 139.757,382.904 139.876,383.627 139.995,383.211 140.114,382.323 140.233,382.516 140.352,383.04 140.471,383.83 140.59,383.802 140.709,382.794 140.828,382.648 140.947,382.734 141.066,382.064 141.185,382.368 141.304,383.216 141.423,382.999 141.542,382.347 141.661,382.649 141.78,383.059 141.9,383.058 142.019,382.676 142.138,382.722 142.257,382.288 142.376,382.542 142.495,382.864 142.614,382.59 142.733,383.172 142.852,382.67 142.971,381.772 143.09,381.636 143.209,382.11 143.328,381.564 143.447,380.723 143.566,381.095 143.685,381.27 143.804,380.973 143.923,381.445 144.042,381.534 144.161,380.603 144.28,380.206 144.399,379.491 144.518,378.714 144.637,379.288 144.756,379.599 144.876,378.621 144.995,378.889 145.114,379.604 145.233,379.165 145.352,378.673 145.471,379.491 145.59,379.003 145.709,378.291 145.828,378.098 145.947,377.739 146.066,377.522 146.185,378.065 146.304,378.447 146.423,378.271 146.542,377.477 146.661,376.651 146.78,377.223 146.899,377.442 147.018,377.358 147.137,377.042 147.256,377.068 147.375,376.845 147.494,375.844 147.613,375.356 147.732,375.433 147.852,375.269 147.971,375.164 148.09,375.079 148.209,374.072 148.328,373.94 148.447,375.018 148.566,374.709 148.685,372.769 148.804,372.267 148.923,372.734 149.042,372.603 149.161,372.322 149.28,371.956 149.399,372.852 149.518,372.577 149.637,371.953 149.756,371.37 149.875,371.496 149.994,371.911 150.113,371.614 150.232,371.064 150.351,370.524 150.47,370.705 150.589,371.376 150.708,370.917 150.828,370.722 150.947,370.933 151.066,370.574 151.185,369.963 151.304,369.315 151.423,368.745 151.542,368.522 151.661,369.134 151.78,368.853 151.899,367.81 152.018,368.071 152.137,367.728 152.256,367.393 152.375,368.086 152.494,368.196 152.613,367.579 152.732,367.238 152.851,367.449 152.97,367.533 153.089,367.051 153.208,365.809 153.327,365.485 153.446,365.92 153.565,365.977 153.684,365.485 153.804,365.943 153.923,366.196 154.042,365.41 154.161,364.794 154.28,365.061 154.399,364.702 154.518,364.594 154.637,365.356 154.756,364.983 154.875,364.68 154.994,364.949 155.113,365.123 155.232,364.133 155.351,363.563 155.47,364.274 155.589,364.766 155.708,364.949 155.827,364.893 155.946,364.908 156.065,365.067 156.184,364.645 156.303,363.879 156.422,363.066 156.541,363.186 156.66,363.823 156.78,364.335 156.899,364.241 157.018,363.358 157.137,362.848 157.256,363.401 157.375,363.453 157.494,363.508 157.613,363.867 157.732,363.928 157.851,364.069 157.97,363.82 158.089,363.243 158.208,363.78 158.327,364.137 158.446,363.694 158.565,363.81 158.684,363.835 158.803,363.692 158.922,363.865 159.041,364.261 159.16,364.53 159.279,364.646 159.398,364.93 159.517,364.852 159.636,364.497 159.756,364.475 159.875,364.562 159.994,364.86 160.113,364.859 160.232,365.28 160.351,365.355 160.47,364.689 160.589,364.712 160.708,365.748 160.827,366.031 160.946,365.363 161.065,365.317 161.184,365.502 161.303,365.524 161.422,366.296 161.541,366.756 161.66,365.928 161.779,364.924 161.898,366.011 162.017,367.931 162.136,367.826 162.255,367.109 162.374,367.679 162.493,367.928 162.612,367.599 162.732,368.03 162.851,368.276 162.97,367.959 163.089,367.672 163.208,367.589 163.327,368.36 163.446,368.319 163.565,368.317 163.684,369.62 163.803,369.977 163.922,369.912 164.041,369.885 164.16,369.251 164.279,368.787 164.398,369.32 164.517,370.298 164.636,371.159 164.755,371.412 164.874,371.06 164.993,371.013 165.112,371.572 165.231,371.923 165.35,372.27 165.469,372.899 165.588,372.83 165.708,372.598 165.827,372.765 165.946,373.163 166.065,373.454 166.184,373.526 166.303,373.48 166.422,373.662 166.541,373.833 166.66,373.7 166.779,374.537 166.898,375.294 167.017,374.774 167.136,374.523 167.255,375.069 167.374,375.864 167.493,376.196 167.612,375.65 167.731,375.144 167.85,375.427 167.969,375.838 168.088,375.693 168.207,375.863 168.326,376.131 168.445,376.31 168.564,376.597 168.684,377.064 168.803,377.329 168.922,377.509 169.041,378.024 169.16,378.159 169.279,377.46 169.398,377.256 169.517,378.044 169.636,378.287 169.755,378.213 169.874,377.893 169.993,377.366 170.112,377.619 170.231,378.324 170.35,378.976 170.469,378.49 170.588,377.843 170.707,377.915 170.826,377.969 170.945,377.692 171.064,377.451 171.183,378.093 171.302,378.529 171.421,377.654 171.54,376.76 171.66,376.868 171.779,377.292 171.898,377.441 172.017,377.277 172.136,377.475 172.255,377.942 172.374,378.002 172.493,378.251 172.612,378.05 172.731,377.039 172.85,376.463 172.969,376.692 173.088,376.886 173.207,376.972 173.326,377 173.445,377.223 173.564,377.094 173.683,376.568 173.802,376.432 173.921,376.203 174.04,376.54 174.159,376.705 174.278,375.834 174.397,375.576 174.516,376.037 174.636,376.112 174.755,375.954 174.874,375.359 174.993,375.294 175.112,375.474 175.231,375.519 175.35,375.945 175.469,375.987 175.588,375.583 175.707,375.269 175.826,375.826 175.945,376.528 176.064,376.113 176.183,375.249 176.302,374.871 176.421,374.662 176.54,374.773 176.659,375.497 176.778,375.583 176.897,375.764 177.016,375.872 177.135,375.537 177.254,375.402 177.373,375.232 177.492,375.155 177.612,374.762 177.731,374.202 177.85,374.471 177.969,375.027 178.088,374.941 178.207,374.938 178.326,375.429 178.445,375.867 178.564,375.895 178.683,375.789 178.802,375.44 178.921,375.3 179.04,375.763 179.159,375.902 179.278,375.538 179.397,375.375 179.516,375.513 179.635,376.319 179.754,376.53 179.873,375.995 179.992,375.878 180.111,375.841 180.23,375.674 180.349,375.514 180.468,375.799 180.588,376.251 180.707,376.695 180.826,377.19 180.945,377.073 181.064,377.114 181.183,377.383 181.302,377.218 181.421,377.084 181.54,377.17 181.659,377.43 181.778,377.408 181.897,377.336 182.016,377.517 182.135,377.624 182.254,377.685 182.373,377.488 182.492,377.73 182.611,378.167 182.73,378.326 182.849,378.795 182.968,379.36 183.087,379.382 183.206,379.304 183.325,378.931 183.444,378.364 183.564,378.114 183.683,378.234 183.802,378.453 183.921,378.675 184.04,379.188 184.159,379.885 184.278,380.219 184.397,379.857 184.516,379.639 184.635,379.944 184.754,380.452 184.873,380.282 184.992,380.169 185.111,380.704 185.23,380.888 185.349,380.665 185.468,380.422 185.587,380.406 185.706,380.904 185.825,381.163 185.944,381.222 186.063,381.358 186.182,381.512 186.301,381.612 186.42,381.656 186.54,381.507 186.659,381.407 186.778,382 186.897,381.942 187.016,381.63 187.135,381.877 187.254,381.827 187.373,381.876 187.492,381.953 187.611,382.064 187.73,382.306 187.849,382.308 187.968,382.8 188.087,382.994 188.206,382.616 188.325,382.518 188.444,382.407 188.563,382.622 188.682,382.749 188.801,382.583 188.92,382.481 189.039,382.489 189.158,382.572 189.277,382.715 189.396,382.899 189.516,383.102 189.635,382.828 189.754,382.543 189.873,382.703 189.992,382.585 190.111,382.406 190.23,382.719 190.349,382.921 190.468,382.737 190.587,382.429 190.706,382.139 190.825,381.861 190.944,381.647 191.063,381.628 191.182,381.591 191.301,382.169 191.42,382.578 191.539,382.043 191.658,381.57 191.777,381.657 191.896,381.823 192.015,382.141 192.134,382.355 192.253,382.201 192.372,381.728 192.492,381.041 192.611,380.648 192.73,380.959 192.849,381.198 192.968,380.76 193.087,380.204 193.206,380.243 193.325,380.343 193.444,380.143 193.563,380.021 193.682,380.019 193.801,380.011 193.92,379.994 194.039,379.863 194.158,379.562 194.277,379.083 194.396,379.051 194.515,379.221 194.634,379.255 194.753,379.128 194.872,378.675 194.991,378.517 195.11,378.515 195.229,378.168 195.348,378.224 195.468,378.552 195.587,378.27 195.706,377.978 195.825,377.833 195.944,377.674 196.063,377.7 196.182,377.684 196.301,377.413 196.42,376.997 196.539,376.708 196.658,376.329 196.777,375.776 196.896,375.746 197.015,375.886 197.134,375.775 197.253,375.971 197.372,376.128 197.491,375.949 197.61,375.734 197.729,375.639 197.848,375.224 197.967,374.486 198.086,374.11 198.205,373.976 198.324,374.122 198.444,374.487 198.563,374.203 198.682,373.673 198.801,373.658 198.92,373.932 199.039,374.077 199.158,373.633 199.277,373.059 199.396,372.904 199.515,373.202 199.634,373.56 199.753,373.402 199.872,373.11 199.991,373.375 200.11,373.591 200.229,373.161 200.348,372.729 200.467,372.735 200.586,372.731 200.705,372.454 200.824,371.954 200.943,371.459 201.062,371.382 201.181,371.764 201.3,372.216 201.42,372.374 201.539,372.193 201.658,371.807 201.777,371.474 201.896,371.344 202.015,371.24 202.134,371.604 202.253,371.886 202.372,371.43 202.491,371.405 202.61,371.728 202.729,371.491 202.848,371.222 202.967,371.464 203.086,371.564 203.205,371.223 203.324,371.209 203.443,371.664 203.562,371.817 203.681,371.464 203.8,371.158 203.919,371.165 204.038,371.124 204.157,370.954 204.276,371.1 204.396,371.398 204.515,371.06 204.634,370.898 204.753,371.549 204.872,371.829 204.991,371.93 205.11,371.985 205.229,371.729 205.348,371.905 205.467,372.11 205.586,371.831 205.705,371.551 205.824,371.583 205.943,372.203 206.062,372.669 206.181,372.549 206.3,372.433 206.419,372.464 206.538,372.479 206.657,372.353 206.776,372.555 206.895,372.938 207.014,373.136 207.133,373.362 207.252,373.41 207.372,373.533 207.491,373.883 207.61,374.048 207.729,374.383 207.848,374.787 207.967,374.493 208.086,374.128 208.205,374.551 208.324,375.203 208.443,375.267 208.562,374.93 208.681,375.014 208.8,375.258 208.919,375.193 209.038,375.607 209.157,376.431 209.276,376.416 209.395,375.891 209.514,375.972 209.633,376.453 209.752,376.596 209.871,376.65 209.99,376.945 210.109,377.062 210.228,377.671 210.348,378.779 210.467,379.014 210.586,378.791 210.705,378.927 210.824,379.34 210.943,379.705 211.062,379.535 211.181,379.658 211.3,380.102 211.419,380.352 211.538,380.512 211.657,380.58 211.776,380.926 211.895,381.349 212.014,381.376 212.133,381.249 212.252,381.796 212.371,382.642 212.49,383.029 212.609,383.019 212.728,383.214 212.847,383.599 212.966,383.574 213.085,383.401 213.204,383.235 213.324,382.958 213.443,382.395 213.562,382.15 213.681,382.309 213.8,382.227 213.919,382.103 214.038,381.677 214.157,380.908 214.276,380.449 214.395,380.282 214.514,380.308 214.633,379.977 214.752,379.168 214.871,378.683 214.99,378.496 215.109,378.643 215.228,378.56 215.347,378.337 215.466,378.377 215.585,378.181 215.704,377.616 215.823,376.79 215.942,376.415 216.061,376.73 216.18,376.622 216.3,375.952 216.419,375.689 216.538,375.664 216.657,375.365 216.776,375.009 216.895,374.824 217.014,374.391 217.133,373.8 217.252,373.623 217.371,373.287 217.49,373.026 217.609,373.131 217.728,372.91 217.847,372.44 217.966,372.037 218.085,371.962 218.204,371.751 218.323,371.327 218.442,371.169 218.561,371.196 218.68,371.23 218.799,371.134 218.918,370.727 219.037,369.984 219.156,369.201 219.276,369.067 219.395,369.318 219.514,368.947 219.633,368.615 219.752,368.74 219.871,368.414 219.99,368.01 220.109,367.952 220.228,367.715 220.347,367.55 220.466,367.82 220.585,367.367 220.704,366.616 220.823,366.664 220.942,366.973 221.061,366.933 221.18,366.668 221.299,366.678 221.418,366.709 221.537,366.204 221.656,365.675 221.775,365.74 221.894,365.793 222.013,365.654 222.132,365.708 222.252,365.611 222.371,365.092 222.49,364.736 222.609,364.703 222.728,364.538 222.847,364.467 222.966,364.533 223.085,364.499 223.204,364.454 223.323,364.398 223.442,364.333 223.561,364.394 223.68,364.206 223.799,363.905 223.918,364.087 224.037,364.177 224.156,363.789 224.275,363.591 224.394,364.041 224.513,364.333 224.632,364.284 224.751,364.126 224.87,363.599 224.989,363.536 225.108,363.773 225.228,363.645 225.347,363.624 225.466,363.76 225.585,363.928 225.704,364.081 225.823,363.895 225.942,363.873 226.061,363.962 226.18,363.808 226.299,363.936 226.418,364.156 226.537,364.312 226.656,364.484 226.775,364.637 226.894,364.802 227.013,364.835 227.132,364.716 227.251,364.746 227.37,364.562 227.489,364.238 227.608,364.611 227.727,365.18 227.846,365.351 227.965,365.495 228.084,365.675 228.204,365.944 228.323,366.127 228.442,365.988 228.561,365.897 228.68,366.032 228.799,366.65 228.918,367.061 229.037,366.857 229.156,366.938 229.275,367.436 229.394,367.515 229.513,366.963 229.632,366.99 229.751,367.534 229.87,367.722 229.989,367.58 230.108,367.614 230.227,368.079 230.346,368.476 230.465,368.482 230.584,368.534 230.703,368.876 230.822,368.884 230.941,368.459 231.06,368.451 231.18,369.01 231.299,369.533 231.418,369.745 231.537,370.03 231.656,370.451 231.775,370.788 231.894,370.483 232.013,370.09 232.132,370.441 232.251,370.909 232.37,371.311 232.489,371.25 232.608,371.071 232.727,371.273 232.846,371.719 232.965,372.432 233.084,372.828 233.203,372.46 233.322,372.243 233.441,372.332 233.56,372.557 233.679,373.133 233.798,373.515 233.917,373.522 234.036,373.859 234.156,373.988 234.275,373.728 234.394,373.013 234.513,372.478 234.632,373.197 234.751,373.84 234.87,374.029 234.989,374.281 235.108,374.468 235.227,374.451 235.346,374.385 235.465,374.631 235.584,374.814 235.703,374.748 235.822,375.157 235.941,375.191 236.06,374.75 236.179,374.951 236.298,374.666 236.417,374.752 236.536,375.45 236.655,375.426 236.774,375.203 236.893,374.935 237.012,375.203 237.132,375.392 237.251,375.3 237.37,375.867 237.489,376.211 237.608,376.055 237.727,375.989 237.846,375.888 237.965,375.705 238.084,375.624 238.203,375.767 238.322,375.926 238.441,376.026 238.56,376.241 238.679,376.337 238.798,376.219 238.917,376.571 239.036,376.624 239.155,376.404 239.274,376.181 239.393,375.889 239.512,375.882 239.631,376.006 239.75,375.928 239.869,375.757 239.988,375.63 240.108,375.697 240.227,376.142 240.346,376.22 240.465,376.11 240.584,376.608 240.703,376.803 240.822,376.119 240.941,376.046 241.06,376.41 241.179,376.406 241.298,375.995 241.417,376.096 241.536,376.522 241.655,376.609 241.774,376.331 241.893,376.195 242.012,376.357 242.131,376.529 242.25,376.573 242.369,376.471 242.488,376.488 242.607,376.384 242.726,376.374 242.845,376.585 242.964,376.651 243.084,376.661 243.203,376.625 243.322,376.323 243.441,376.212 243.56,376.242 243.679,376.285 243.798,376.448 243.917,376.51 244.036,377.072 244.155,377.352 244.274,376.641 244.393,376.541 244.512,376.954 244.631,376.667 244.75,376.379 244.869,376.751 244.988,377.103 245.107,377.155 245.226,377.189 245.345,377.245 245.464,377.353 245.583,377.224 245.702,377.123 245.821,377.274 245.94,377.212 246.06,377.108 246.179,377.007 246.298,377.079 246.417,376.943 246.536,376.652 246.655,376.874 246.774,377.157 246.893,377.038 247.012,376.81 247.131,376.703 247.25,376.818 247.369,376.977 247.488,376.99 247.607,377.009 247.726,376.782 247.845,376.447 247.964,376.287 248.083,376.016 248.202,375.826 248.321,376.032 248.44,376.044 248.559,376.054 248.678,375.974 248.797,375.507 248.916,375.823 249.036,375.991 249.155,375.628 249.274,375.612 249.393,375.553 249.512,375.049 249.631,374.616 249.75,374.448 249.869,374.362 249.988,374.396 250.107,374.538 250.226,374.327 250.345,373.879 250.464,373.776 250.583,373.802 250.702,373.314 250.821,372.38 250.94,372.379 251.059,372.727 251.178,372.815 251.297,372.57 251.416,372.293 251.535,372.226 251.654,371.907 251.773,371.385 251.892,371.01 252.012,370.71 252.131,371.137 252.25,371.787 252.369,371.349 252.488,370.697 252.607,370.529 252.726,370.381 252.845,370.091 252.964,369.91 253.083,369.647 253.202,369.537 253.321,369.382 253.44,369.206 253.559,368.897 253.678,368.786 253.797,368.766 253.916,368.729 254.035,368.509 254.154,368.122 254.273,368.014 254.392,367.987 254.511,367.587 254.63,367.345 254.749,367.474 254.868,367.285 254.988,366.95 255.107,366.721 255.226,366.46 255.345,366.51 255.464,366.55 255.583,365.979 255.702,365.606 255.821,366.19 255.94,366.4 256.059,365.731 256.178,365.364 256.297,365.309 256.416,365.208 256.535,365.281 256.654,365.389 256.773,365.185 256.892,365.01 257.011,365.104 257.13,364.665 257.249,364.427 257.368,364.288 257.487,364.089 257.606,364.71 257.725,364.711 257.844,364.406 257.964,363.899 258.083,363.646 258.202,363.779 258.321,363.828 258.44,364.138 258.559,364.318 258.678,364.038 258.797,363.91 258.916,363.656 259.035,362.986 259.154,362.884 259.273,363.38 259.392,363.704 259.511,363.758 259.63,363.596 259.749,363.429 259.868,363.459 259.987,363.665 260.106,363.771 260.225,363.789 260.344,363.54 260.463,363.359 260.582,363.749 260.701,364.145 260.82,363.977 260.94,363.749 261.059,363.611 261.178,363.363 261.297,363.728 261.416,364.075 261.535,364.019 261.654,363.965 261.773,363.763 261.892,363.818 262.011,364.106 262.13,364.472 262.249,364.582 262.368,364.644 262.487,364.764 262.606,365.016 262.725,365.116 262.844,365.075 262.963,365.24 263.082,365.529 263.201,365.64 263.32,365.498 263.439,365.576 263.558,365.731 263.677,365.874 263.796,366.115 263.916,366.035 264.035,366.33 264.154,366.811 264.273,366.883 264.392,367.12 264.511,367.369 264.63,367.437 264.749,367.192 264.868,367.101 264.987,367.593 265.106,368.086 265.225,368.158 265.344,368.367 265.463,368.614 265.582,368.776 265.701,368.983 265.82,369.16 265.939,369.359 266.058,369.584 266.177,370.08 266.296,370.102 266.415,369.688 266.534,370.068 266.653,370.861 266.772,371.543 266.892,371.456 267.011,370.975 267.13,371.22 267.249,371.799 267.368,372.366 267.487,372.502 267.606,372.32 267.725,372.434 267.844,373.021 267.963,373.61 268.082,373.678 268.201,373.834 268.32,373.929 268.439,374.198 268.558,374.461 268.677,374.754 268.796,374.519 268.915,374.598 269.034,375.172 269.153,375.559 269.272,376.032 269.391,376.128 269.51,376.271 269.629,376.095 269.748,375.547 269.868,376.235 269.987,377.118 270.106,377.179 270.225,377.192 270.344,377.355 270.463,377.422 270.582,377.891 270.701,378.164 270.82,378.201 270.939,378.407 271.058,378.514 271.177,378.526 271.296,378.351 271.415,378.127 271.534,378.232 271.653,378.573 271.772,379.027 271.891,379.027 272.01,378.682 272.129,378.806 272.248,379.143 272.367,378.976 272.486,379.016 272.605,378.955 272.724,378.646 272.844,378.489 272.963,378.377 273.082,378.387 273.201,378.471 273.32,378.343 273.439,378.431 273.558,378.12 273.677,377.814 273.796,377.579 273.915,377.556 274.034,377.688 274.153,377.399 274.272,377.066 274.391,376.834 274.51,376.423 274.629,376.212 274.748,376.45 274.867,376.595 274.986,376.501 275.105,376.129 275.224,375.872 275.343,375.473 275.462,375.557 275.581,375.49 275.7,374.989 275.82,374.643 275.939,374.569 276.058,374.608 276.177,374.769 276.296,374.698 276.415,374.008 276.534,373.338 276.653,373.407 276.772,373.684 276.891,373.462 277.01,373.101 277.129,372.987 277.248,372.969 277.367,373.045 277.486,372.847 277.605,372.674 277.724,372.827 277.843,372.659 277.962,372.277 278.081,372.362 278.2,372.425 278.319,372.273 278.438,371.727 278.557,371.47 278.676,371.659 278.796,371.725 278.915,371.708 279.034,371.52 279.153,370.986 279.272,371.241 279.391,371.615 279.51,371.137 279.629,370.951 279.748,370.712 279.867,370.376 279.986,370.442 280.105,370.485 280.224,370.08 280.343,369.787 280.462,370.069 280.581,370.634 280.7,370.65 280.819,370.534 280.938,370.609 281.057,370.548 281.176,370.53 281.295,370.311 281.414,370.23 281.533,370.37 281.652,370.256 281.772,370.151 281.891,370.05 282.01,370.209 282.129,370.224 282.248,370.169 282.367,369.93 282.486,370.376 282.605,370.558 282.724,370.144 282.843,370.18 282.962,370.715 283.081,370.523 283.2,370.255 283.319,370.663 283.438,370.716 283.557,370.743 283.676,370.792 283.795,370.719 283.914,370.709 284.033,370.889 284.152,371.07 284.271,371.325 284.39,371.296 284.509,370.969 284.628,370.744 284.747,370.94 284.867,371.207 284.986,370.921 285.105,371.131 285.224,371.587 285.343,371.409 285.462,371.783 285.581,371.815 285.7,371.526 285.819,371.71 285.938,371.8 286.057,372.128 286.176,372.008 286.295,372.089 286.414,372.508 286.533,372.655 286.652,372.613 286.771,372.515 286.89,372.575 287.009,372.607 287.128,373.024 287.247,373.448 287.366,373.278 287.485,373.265 287.604,373.822 287.724,374.007 287.843,374.08 287.962,374.076 288.081,374.008 288.2,374.169 288.319,374.292 288.438,374.536 288.557,374.707 288.676,374.96 288.795,374.685 288.914,374.658 289.033,374.902 289.152,375.274 289.271,375.204 289.39,375.027 289.509,375.213 289.628,375.723 289.747,376.015 289.866,375.863 289.985,375.904 290.104,376.324 290.223,376.323 290.342,375.911 290.461,375.96 290.58,376.532 290.699,376.682 290.819,377.009 290.938,377.172 291.057,376.974 291.176,377.201 291.295,377.542 291.414,377.726 291.533,377.377 291.652,377.792 291.771,378.236 291.89,378.089 292.009,378.206 292.128,378.162 292.247,378.181 292.366,379.042 292.485,379.26 292.604,379.181 292.723,379.047 292.842,378.916 292.961,379.195 293.08,379.312 293.199,379 293.318,379.114 293.437,379.292 293.556,379.586 293.676,380.112 293.795,380.338 293.914,380.452 294.033,380.734 294.152,380.595 294.271,381.009 294.39,381.411 294.509,380.802 294.628,381.103 294.747,381.197 294.866,381.089 294.985,381.353 295.104,381.626 295.223,381.805 295.342,381.542 295.461,381.609 295.58,381.714 295.699,381.627 295.818,381.677 295.937,381.426 296.056,381.02 296.175,381.763 296.294,381.992 296.413,381.381 296.533,381.483 296.651,382.053 296.771,382.152 296.89,382.063 297.009,382.125 297.128,382.016 297.247,382.357 297.366,382.375 297.485,381.809 297.604,382.041 297.723,382.327 297.842,382.012 297.961,382.014 298.08,382.175 298.199,382.008 298.318,381.878 298.437,381.408 298.556,381.081 298.675,381.528 298.794,381.282 298.913,380.851 299.032,381.068 299.151,381.05 299.27,381.121 299.389,381.438 299.508,381.028 299.627,381.144 299.747,381.164 299.866,380.746 299.985,380.639 300.104,380.807 300.223,380.341 300.342,379.992 300.461,380.169 300.58,380.232 300.699,380.107 300.818,380.122 300.937,380.237 301.056,380.095 301.175,379.526 301.294,379.314 301.413,379.214 301.532,379.296 301.651,379.732 301.77,379.708 301.889,379.613 302.008,379.368 302.127,379.274 302.246,379.415 302.365,379.157 302.484,378.92 302.604,378.522 302.723,378.626 302.842,378.556 302.961,378.141 303.08,378.105 303.199,378.255 303.318,378.269 303.437,377.572 303.556,377.558 303.675,377.483 303.794,377.374 303.913,377.32 304.032,377.368 304.151,377.623 304.27,377.654 304.389,377.094 304.508,376.921 304.627,376.958 304.746,376.863 304.865,376.949 304.984,376.682 305.103,376.7 305.222,376.789 305.341,376.761 305.46,376.286 305.579,376.102 305.699,376.16 305.818,376.465 305.937,376.529 306.056,376.346 306.175,375.895 306.294,375.517 306.413,375.569 306.532,375.65 306.651,375.52 306.77,375.567 306.889,375.55 307.008,375.238 307.127,375.407 307.246,375.776 307.365,375.642 307.484,375.606 307.603,375.386 307.722,375.053 307.841,375.169 307.96,375.095 308.079,375.104 308.198,374.962 308.317,374.928 308.436,375.047 308.555,374.989 308.675,374.978 308.794,374.811 308.913,374.501 309.032,374.849 309.151,375.147 309.27,374.769 309.389,374.655 309.508,374.835 309.627,374.992 309.746,374.876 309.865,374.458 309.984,374.516 310.103,374.826 310.222,375.121 310.341,375.067 310.46,374.927 310.579,374.776 310.698,374.521 310.817,374.744 310.936,374.898 311.055,374.516 311.174,374.656 311.293,374.921 311.412,374.905 311.531,374.918 311.651,375.195 311.77,375.137 311.889,374.968 312.008,374.747 312.127,375.014 312.246,375.108 312.365,374.732 312.484,374.9 312.603,375.311 312.722,375.003 312.841,374.814 312.96,374.964 313.079,374.914 313.198,375.227 313.317,375.449 313.436,375.553 313.555,375.46 313.674,375.137 313.793,375.33 313.912,375.668 314.031,375.532 314.15,375.207 314.269,374.909 314.388,375.481 314.508,375.661 314.627,375.473 314.746,375.725 314.865,375.779 314.984,375.697 315.103,375.85 315.222,375.917 315.341,376.423 315.46,376.196 315.579,375.846 315.698,376.093 315.817,376.001 315.936,376.005 316.055,376.359 316.174,376 316.293,375.991 316.412,376.008 316.531,375.873 316.65,375.776 316.769,375.584 316.888,376.261 317.007,376.847 317.126,376.552 317.245,376.368 317.364,375.829 317.483,376.361 317.603,376.705 317.722,375.913 317.841,376.007 317.96,376.312 318.079,376.57 318.198,376.509 318.317,376.671 318.436,376.787 318.555,376.61 318.674,376.526 318.793,376.611 318.912,376.411 319.031,376.025 319.15,375.963 319.269,376.032 319.388,376.25 319.507,376.232 319.626,376.268 319.745,376.186 319.864,376.319 319.983,376.102 320.102,375.957 320.221,375.679 320.34,375.864 320.459,376.555 320.579,375.799 320.698,375.826 320.817,376.136 320.936,376.261 321.055,376.461 321.174,376.479 321.293,376.408 321.412,376.45 321.531,376.242 321.65,375.803 321.769,375.809 321.888,375.937 322.007,375.638 322.126,375.978 322.245,376.03 322.364,375.431 322.483,375.36 322.602,375.593 322.721,375.829 322.84,375.961 322.959,375.861 323.078,376.042 323.197,375.868 323.316,376.033 323.435,375.368 323.555,375.052 323.674,375.451 323.793,375.329 323.912,374.992 324.031,375.126 324.15,375.477 324.269,375.519 324.388,375.285 324.507,374.911 324.626,375.277 324.745,375.339 324.864,375.125 324.983,374.85 325.102,374.995 325.221,374.942 325.34,374.903 325.459,374.835 325.578,375.055 325.697,375.485 325.816,375.943 325.935,375.109 326.054,374.757 326.173,375.361 326.292,375.527 326.411,375.194 326.531,375.113 326.65,375.036 326.769,374.943 326.888,375.017 327.007,375.178 327.126,375.199 327.245,375.317 327.364,375.077 327.483,374.753 327.602,374.895 327.721,374.909 327.84,375.255 327.959,375.235 328.078,375.256 328.197,375.23 328.316,374.743 328.435,374.987 328.554,375.218 328.673,375.012 328.792,375.074 328.911,375.215 329.03,374.822 329.149,374.818 329.268,374.912 329.387,374.983 329.507,375.225 329.626,375.366 329.745,374.95 329.864,374.882 329.983,375.218 330.102,375.245 330.221,375.351 330.34,375.293 330.459,375.251 330.578,375.697 330.697,375.782 330.816,375.3 330.935,375.282 331.054,375.363 331.173,375.777 331.292,375.669 331.411,375.362 331.53,375.129 331.649,375.305 331.768,375.645 331.887,375.653 332.006,375.694 332.125,375.811 332.244,375.854 332.363,375.795 332.483,375.934 332.602,376.128 332.721,376.227 332.84,376.139 332.959,375.478 333.078,375.704 333.197,376.283 333.316,375.93 333.435,375.858 333.554,376.233 333.673,376.125 333.792,376.291 333.911,376.041 334.03,376.081 334.149,375.943 334.268,376.057 334.387,376.162 334.506,376.395 334.625,376.724 334.744,376.403 334.863,376.734 334.982,376.757 335.101,376.211 335.22,376.349 335.34,376.275 335.459,375.924 335.578,376.226 335.697,376.665 335.816,376.612 335.935,376.841 336.054,377.167 336.173,376.913 336.292,376.521 336.411,376.562 336.53,376.925 336.649,376.809 336.768,376.952 336.887,376.893 337.006,376.782 337.125,376.932 337.244,376.949 337.363,376.783 337.482,376.985 337.601,377.304 337.72,376.957 337.839,376.947 337.958,377.503 338.077,377.643 338.196,377.17 338.315,376.767 338.435,376.875 338.554,377.14 338.673,377.288 338.792,377.572 338.911,377.64 339.03,377.652 339.149,377.189 339.268,377.265 339.387,377.345 339.506,377.591 339.625,377.575 339.744,377.87 339.863,378.026 339.982,377.851 340.101,377.879 340.22,378.013 340.339,378.052 340.458,378.382 340.577,377.7 340.696,377.892 340.815,378.181 340.934,378.174 341.053,378.225 341.172,378.044 341.291,378.466 341.411,379.02 341.53,378.52 341.649,378.343 341.768,378.432 341.887,378.655 342.006,378.87 342.125,378.675 342.244,378.598 342.363,378.697 342.482,378.651 342.601,378.609 342.72,378.496 342.839,378.654 342.958,378.984 343.077,379.203 343.196,379.198 343.315,379.047 343.434,378.97 343.553,379.409 343.672,379.548 343.791,379.664 343.91,379.759 344.029,379.345 344.148,380.206 344.267,380.246 344.387,380.037 344.506,380.204 344.625,379.786 344.744,380.521 344.863,380.375 344.982,380.357 345.101,380.549 345.22,380.835 345.339,380.922 345.458,380.321 345.577,380.696 345.696,381.048 345.815,381.325 345.934,381.253 346.053,381.178 346.172,381.049 346.291,381.302 346.41,381.416 346.529,381.729 346.648,381.77 346.767,382.228 346.886,382.65 347.005,382.357 347.124,382.356 347.243,382.365 347.363,382.24 347.482,382.376 347.601,382.215 347.72,382.084 347.839,382.635 347.958,382.2 348.077,382.409 348.196,382.397 348.315,382.497 348.434,382.933 348.553,382.842 348.672,382.673 348.791,382.563 348.91,382.52 349.029,382.748 349.148,382.78 349.267,382.376 349.386,382.69 349.505,382.905 349.624,382.719 349.743,382.066 349.862,382.032 349.981,382.279 350.1,381.954 350.219,381.644 350.339,381.543 350.458,381.922 350.577,381.384 350.696,380.849 350.815,381.384 350.934,381.634 351.053,381.248 351.172,381.378 351.291,380.805 351.41,380.65 351.529,381.009 351.648,380.819 351.767,380.739 351.886,380.664 352.005,380.44 352.124,380.636 352.243,380.304 352.362,380.158 352.481,379.951 352.6,379.857 352.719,380.102 352.838,379.651 352.957,379.198 353.076,379.461 353.195,379.232 353.315,378.873 353.434,378.777 353.553,378.762 353.672,378.668 353.791,378.742 353.91,378.297 354.029,378.055 354.148,378.196 354.267,377.906 354.386,377.41 354.505,377.701 354.624,377.761 354.743,377.443 354.862,377.544 354.981,376.986 355.1,376.601 355.219,376.438 355.338,376.707 355.457,376.812 355.576,376.072 355.695,375.903 355.814,376.225 355.933,376.165 356.052,375.996 356.172,375.786 356.291,375.374 356.41,375.762 356.529,375.455 356.648,375.291 356.767,374.987 356.886,374.877 357.005,374.607 357.124,374.387 357.243,374.265 357.362,374.394 357.481,374.132 357.6,374.015 357.719,373.839 357.838,373.191 357.957,373.119 358.076,373.663 358.195,372.919 358.314,372.588 358.433,372.782 358.552,372.768 358.671,372.821 358.79,372.538 358.909,372.403 359.028,372.435 359.147,371.97 359.267,371.61 359.386,372.086 359.505,371.324 359.624,371.292 359.743,371.116 359.862,370.788 359.981,370.521 360.1,370.033 360.219,369.951 360.338,370.149 360.457,369.932 360.576,369.912 360.695,369.594 360.814,369.595 360.933,369.546 361.052,368.615 361.171,368.943 361.29,369.035 361.409,368.653 361.528,368.335 361.647,367.969 361.766,368.219 361.885,368.421 362.004,367.789 362.123,367.123 362.243,367.333 362.362,367.078 362.481,366.871 362.6,366.916 362.719,366.727 362.838,366.031 362.957,366.308 363.076,366.425 363.195,366.1 363.314,365.676 363.433,365.895 363.552,365.402 363.671,364.952 363.79,364.606 363.909,364.597 364.028,364.632 364.147,364.665 364.266,364.549 364.385,364.334 364.504,363.979 364.623,364.193 364.742,363.946 364.861,363.687 364.98,363.386 365.099,363.339 365.219,363.186 365.338,362.783 365.457,362.189 365.576,362.708 365.695,362.914 365.814,362.531 365.933,362.151 366.052,361.833 366.171,361.461 366.29,361.474 366.409,361.143 366.528,361.497 366.647,361.395 366.766,360.963 366.885,360.973 367.004,360.617 367.123,360.302 367.242,360.305 367.361,360.561 367.48,360.322 367.599,360.031 367.718,360.416 367.837,360.521 367.956,359.928 368.076,359.662 368.195,359.272 368.314,359.666 368.433,359.771 368.552,359.359 368.671,359.366 368.79,358.999 368.909,358.681 369.028,358.826 369.147,358.794 369.266,358.967 369.385,359.016 369.504,359.574 369.623,358.992 369.742,358.492 369.861,358.598 369.98,358.377 370.099,358.824 370.218,358.183 370.337,358.158 370.456,358.289 370.575,358.44 370.694,358.578 370.813,358.03 370.932,357.827 371.051,357.986 371.171,358.199 371.29,358.038 371.409,357.455 371.528,357.696 371.647,358.255 371.766,358.449 371.885,357.928 372.004,357.764 372.123,358.127 372.242,358.286 372.361,358.213 372.48,358.142 372.599,358.233 372.718,358.494 372.837,358.689 372.956,358.124 373.075,358.198 373.194,358.532 373.313,358.747 373.432,358.924 373.551,358.892 373.67,358.796 373.789,359.06 373.908,359.343 374.027,359.154 374.147,359 374.266,359.273 374.385,359.401 374.504,359.961 374.623,359.864 374.742,359.399 374.861,359.759 374.98,359.825 375.099,359.857 375.218,359.859 375.337,359.965 375.456,360.533 375.575,360.847 375.694,360.672 375.813,360.807 375.932,361.152 376.051,361.434 376.17,361.373 376.289,361.277 376.408,361.621 376.527,362.09 376.646,362.284 376.765,362.376 376.884,362.322 377.003,362.29 377.123,363.024 377.242,363.376 377.361,363.366 377.48,363.267 377.599,363.554 377.718,364.047 377.837,364.208 377.956,364.041 378.075,364.67 378.194,365.156 378.313,365.048 378.432,365.08 378.551,365.166 378.67,365.485 378.789,366.031 378.908,366 379.027,366.3 379.146,366.266 379.265,366.615 379.384,367.43 379.503,367.183 379.622,367.359 379.741,367.697 379.86,368.252 379.979,368.429 380.099,368.055 380.218,368.577 380.337,369.183 380.456,369.366 380.575,369.313 380.694,369.578 380.813,369.914 380.932,370.35 381.051,370.507 381.17,370.481 381.289,370.733 381.408,370.968 381.527,371.006 381.646,371.407 381.765,371.237 381.884,371.698 382.003,372.066 382.122,372.232 382.241,372.259 382.36,372.063 382.479,372.439 382.598,373.096 382.717,373.492 382.836,372.908 382.956,372.941 383.075,373.483 383.194,373.777 383.313,373.129 383.432,373.746 383.551,373.986 383.67,373.959 383.789,374.235 383.908,374.012 384.027,374.209 384.146,374.566 384.265,374.462 384.384,374.5 384.503,374.41 384.622,374.977 384.741,374.717 384.86,374.721 384.979,375.023 385.098,374.381 385.217,374.728 385.336,375.255 385.455,374.883 385.574,374.397 385.693,374.597 385.812,374.49 385.931,374.396 386.051,374.652 386.17,374.302 386.289,374.351 386.408,374.345 386.527,374.441 386.646,374.282 386.765,374.081 386.884,374.242 387.003,374.358 387.122,373.866 387.241,373.379 387.36,373.779 387.479,373.899 387.598,373.694 387.717,374.191 387.836,373.604 387.955,373.415 388.074,373.43 388.193,373.705 388.312,373.317 388.431,373.439 388.55,373.542 388.669,373.175 388.788,373.1 388.908,372.745 389.027,372.935 389.146,373.415 389.265,372.916 389.384,372.637 389.503,372.766 389.622,372.398 389.741,372.916 389.86,373.213 389.979,372.919 390.098,373.05 390.217,373.203 390.336,372.81 390.455,372.699 390.574,372.957 390.693,372.746 390.812,372.982 390.931,372.973 391.05,372.682 391.169,372.849 391.288,372.962 391.407,372.778 391.526,372.169 391.645,372.257 391.764,372.603 391.883,373.045 392.003,372.918 392.122,372.95 392.241,373.149 392.36,373.309 392.479,372.878 392.598,373.089 392.717,372.907 392.836,373.365 392.955,373.406 393.074,373.685 393.193,373.503 393.312,373.119 393.431,373.436 393.55,374.087 393.669,374.127 393.788,373.749 393.907,373.746 394.026,374.379 394.145,374.74 394.264,374.336 394.383,374.418 394.502,374.176 394.621,375.122 394.74,375.035 394.859,374.442 394.979,374.929 395.098,375.007 395.217,375.227 395.336,375.366 395.455,375.443 395.574,375.354 395.693,375.659 395.812,375.936 395.931,376.291 396.05,376 396.169,375.985 396.288,376.557 396.407,376.547 396.526,376.278 396.645,376.999 396.764,377.517 396.883,376.919 397.002,377.042 397.121,377.541 397.24,377.079 397.359,376.955 397.478,377.423 397.597,377.906 397.716,377.67 397.835,377.812 397.955,378.139 398.074,378.092 398.193,378.154 398.312,377.938 398.431,377.987 398.55,378.49 398.669,378.484 398.788,378.13 398.907,378.561 399.026,378.729 399.145,378.534 399.264,378.803 399.383,378 399.502,378.399 399.621,378.919 399.74,378.395 399.859,378.329 399.978,378.326 400.097,378.26 400.216,378.298 400.335,378.184 400.454,378.151 400.573,378.196 400.692,378.305 400.811,378.114 400.931,377.793 401.05,377.695 401.169,377.53 401.288,378.031 401.407,377.772 401.526,376.952 401.645,377.539 401.764,377.052 401.883,377.3 402.002,377.205 402.121,376.892 402.24,376.573 402.359,376.655 402.478,376.55 402.597,375.833 402.716,375.557 402.835,376.239 402.954,376.308 403.073,375.948 403.192,375.777 403.311,375.359 403.43,375.776 403.549,375.515 403.668,374.925 403.787,374.735 403.907,374.687 404.026,375.253 404.145,375.102 404.264,374.917 404.383,374.541 404.502,374.699 404.621,374.493 404.74,373.948 404.859,374.111 404.978,374.479 405.097,373.906 405.216,373.888 405.335,374.307 405.454,374.047 405.573,373.706 405.692,374.019 405.811,373.95 405.93,373.662 406.049,374.202 406.168,373.944 406.287,373.935 406.406,373.537 406.525,373.625 406.644,373.702 406.763,373.64 406.883,373.798 407.002,373.191 407.121,373.555 407.24,374.232 407.359,373.467 407.478,373.464 407.597,373.343 407.716,373.644 407.835,373.791 407.954,373.761 408.073,373.709 408.192,373.982 408.311,374.498 408.43,374.416 408.549,373.845 408.668,374.041 408.787,374.45 408.906,374.554 409.025,375.023 409.144,374.847 409.263,374.595 409.382,374.477 409.501,375.173 409.62,375.011 409.739,375.224 409.859,375.243 409.978,375.492 410.097,375.829 410.216,375.628 410.335,375.699 410.454,376.065 410.573,376.203 410.692,376.13 410.811,376.145 410.93,376.169 411.049,376.167 411.168,376.864 411.287,376.975 411.406,376.889 411.525,376.881 411.644,377.327 411.763,376.974 411.882,377.18 412.001,377.434 412.12,377.537 412.239,377.456 412.358,377.829 412.477,377.684 412.596,377.978 412.715,378.265 412.835,378.069 412.954,377.846 413.073,377.464 413.192,377.692 413.311,378.207 413.43,378.03 413.549,377.97 413.668,377.872 413.787,377.979 413.906,378.436 414.025,377.888 414.144,377.851 414.263,377.489 414.382,377.835 414.501,377.944 414.62,377.099 414.739,377.118 414.858,377.352 414.977,377.072 415.096,376.68 415.215,376.464 415.334,376.447 415.453,376.535 415.572,377.032 415.691,376.42 415.811,375.618 415.93,375.819 416.049,375.566 416.168,375.204 416.287,375.096 416.406,374.924 416.525,374.513 416.644,375.039 416.763,374.355 416.882,374.348 417.001,373.455 417.12,373.691 417.239,373.809 417.358,373.562 417.477,373.002 417.596,372.799 417.715,372.857 417.834,372.897 417.953,372.409 418.072,371.968 418.191,372.039 418.31,372.065 418.429,371.037 418.548,370.982 418.667,371.264 418.787,370.882 418.906,370.743 419.025,370.448 419.144,370.199 419.263,370.062 419.382,370.398 419.501,369.974 419.62,369.466 419.739,369.389 419.858,369.103 419.977,369.177 420.096,368.774 420.215,368.259 420.334,368.071 420.453,368.463 420.572,368.391 420.691,368.193 420.81,367.56 420.929,367.378 421.048,367.376 421.167,367.707 421.286,367.373 421.405,367.311 421.524,367.539 421.643,367.054 421.763,367.13 421.882,366.95 422.001,366.235 422.12,365.862 422.239,365.958 422.358,365.661 422.477,366.025 422.596,366.258 422.715,365.958 422.834,365.956 422.953,365.453 423.072,365.185 423.191,365.457 423.31,366.04 423.429,365.387 423.548,365.246 423.667,365.229 423.786,365.363 423.905,365.357 424.024,364.777 424.143,365.237 424.262,365.362 424.381,365.263 424.5,364.951 424.62,364.98 424.739,364.969 424.858,365.428 424.977,364.95 425.096,364.922 425.215,365.139 425.334,365.288 425.453,365.523 425.572,365.308 425.691,365.085 425.81,365.773 425.929,365.92 426.048,365.765 426.167,365.632 426.286,365.666 426.405,365.942 426.524,366.335 426.643,365.934 426.762,365.844 426.881,366.087 427,366.363 427.119,366.285 427.238,366.104 427.357,365.968 427.477,366.648 427.595,366.997 427.715,366.743 427.834,367.075 427.953,366.843 428.072,367.2 428.191,366.891 428.31,367.481 428.429,367.583 428.548,367.571 428.667,368.533 428.786,367.824 428.905,367.573 429.024,367.861 429.143,368.511 429.262,368.815 429.381,368.626 429.5,368.568 429.619,369.133 429.738,369.227 429.857,369.134 429.976,369.418 430.095,369.632 430.214,370.067 430.333,370.393 430.452,369.985 430.571,370.349 430.691,370.412 430.81,370.772 430.929,370.479 431.048,370.651 431.167,371.165 431.286,371.253 431.405,371.94 431.524,371.482 431.643,372.083 431.762,372.231 431.881,372.548 432,372.402 432.119,372.552 432.238,372.619 432.357,373.21 432.476,373.16 432.595,373.321 432.714,373.457 432.833,373.805 432.952,374.18 433.071,374.362 433.19,373.879 433.309,374.421 433.428,374.597 433.547,374.636 433.667,375.173 433.786,375.123 433.905,375.79 434.024,375.58 434.143,375.626 434.262,376.384 434.381,376.022 434.5,376.408 434.619,376.545 434.738,376.105 434.857,376.384 434.976,376.927 435.095,377.218 435.214,377.144 435.333,377.24 435.452,376.943 435.571,377.697 435.69,377.999 435.809,377.577 435.928,377.847 436.047,378 436.166,378.64 436.285,378.959 436.404,378.755 436.523,378.257 436.643,379.126 436.762,378.755 436.881,378.936 437,379.122 437.119,379.304 437.238,379.63 437.357,379.347 437.476,378.802 437.595,379.879 437.714,379.56 437.833,379.411 437.952,379.765 438.071,379.422 438.19,380.006 438.309,380.21 438.428,379.914 438.547,379.293 438.666,380.119 438.785,380.16 438.904,379.752 439.023,379.641 439.142,379.454 439.261,379.714 439.38,380.071 439.499,379.924 439.619,379.335 439.738,379.582 439.857,379.993 439.976,379.544 440.095,379.717 440.214,379.275 440.333,378.765 440.452,379.447 440.571,379.598 440.69,379.177 440.809,379.336 440.928,379.008 441.047,378.354 441.166,378.856 441.285,378.687 441.404,378.628 441.523,379.05 441.642,378.749 441.761,377.812 441.88,378.392 441.999,378.251 442.118,378.397 442.237,377.749 442.356,378.134 442.475,377.261 442.595,377.811 442.714,378.024 442.833,377.341 442.952,377.566 443.071,377.668 443.19,377.336 443.309,377.088 443.428,376.948 443.547,377.149 443.666,377.278 443.785,376.918 443.904,376.664 444.023,376.564 444.142,376.967 444.261,376.641 444.38,376.307 444.499,375.951 444.618,376.73 444.737,376.415 444.856,376.007 444.975,376.594 445.094,376.082 445.213,375.97 445.332,376.424 445.451,375.672 445.571,375.177 445.69,375.53 445.809,375.857 445.928,375.801 446.047,375.566 446.166,375.346 446.285,375.63 446.404,376.01 446.523,375.074 446.642,374.796 446.761,375.351 446.88,375.625 446.999,374.83 447.118,375.177 447.237,375.256 447.356,374.942 447.475,375.555 447.594,375.096 447.713,375.197 447.832,375.345 447.951,375.139 448.07,375.481 448.189,374.456 448.308,374.76 448.427,374.999 448.547,375.444 448.666,375.19 448.785,374.189 448.904,374.685 449.023,375.619 449.142,374.922 449.261,374.973 449.38,374.701 449.499,375.047 449.618,375.159 449.737,374.553 449.856,374.414 449.975,374.944 450.094,375.241 450.213,375.181 450.332,375.015 450.451,374.641 450.57,374.76 450.689,375.246 450.808,375.172 450.927,374.389 451.046,374.471 451.165,375.164 451.284,375.173 451.403,374.604 451.523,374.989 451.642,375.55 451.761,374.867 451.88,374.954 451.999,375.446 452.118,374.742 452.237,375.687 452.356,375.414 452.475,374.622 452.594,374.85 452.713,374.869 452.832,375.372 452.951,375.236 453.07,374.782 453.189,375.382 453.308,376.004 453.427,375.648 453.546,375.157 453.665,374.636 453.784,375.019 453.903,375.682 454.022,375.749 454.141,375.429 454.26,375.466 454.379,374.922 454.499,375.469 454.618,375.572 454.737,375.016 454.856,374.89 454.975,374.995 455.094,375.537 455.213,375.093 455.332,375.459 455.451,375.717 455.57,375.573 455.689,375.178 455.808,374.482 455.927,375.186 456.046,375.509 456.165,375.227 456.284,375.117 456.403,375.068 456.522,374.659 456.641,375.044 456.76,375.208 456.879,374.865 456.998,374.756 457.117,374.189 457.236,375.037 457.355,374.6 457.475,374.42 457.594,374.51 457.713,374.348 457.832,374.559 457.951,374.175 458.07,374.136 458.189,373.809 458.308,374.026 458.427,374.25 458.546,373.927 458.665,373.731 458.784,373.64 458.903,373.78 459.022,373.753 459.141,373.565 459.26,373.589 459.379,372.841 459.498,373.286 459.617,373.433 459.736,373.169 459.855,373.02 459.974,372.649 460.093,373.125 460.212,372.94 460.331,372.773 460.451,372.532 460.57,373.015 460.689,372.769 460.808,372.47 460.927,372.486 461.046,372.844 461.165,372.754 461.284,371.872 461.403,371.81 461.522,372.203 461.641,372.283 461.76,372.104 461.879,371.734 461.998,371.446 462.117,372.002 462.236,372.504 462.355,371.739 462.474,371.577 462.593,371.878 462.712,371.899 462.831,371.354 462.95,371.487 463.069,372.134 463.188,372.215 463.307,371.975 463.427,371.502 463.546,371.461 463.665,371.554 463.784,371.937 463.903,371.787 464.022,371.621 464.141,371.688 464.26,371.878 464.379,372.141 464.498,372 464.617,371.402 464.736,371.68 464.855,372.093 464.974,372.498 465.093,372.244 465.212,372.069 465.331,372.139 465.45,372.472 465.569,372.484 465.688,372.469 465.807,372.324 465.926,372.594 466.045,372.881 466.164,372.531 466.284,372.55 466.403,373.143 466.522,372.871 466.641,373.359 466.76,373.067 466.879,373.513 466.998,373.968 467.117,373.507 467.236,373.448 467.355,373.771 467.474,374.591 467.593,374.577 467.712,374.546 467.831,374.316 467.95,374.398 468.069,374.517 468.188,375.503 468.307,375.422 468.426,375.298 468.545,375.509 468.664,375.252 468.783,375.99 468.902,376.156 469.021,376.129 469.141,376.821 469.259,376.521 469.379,376.571 469.498,376.978 469.617,377.397 469.736,377.831 469.855,378.178 469.974,377.599 470.093,378.052 470.212,378.68 470.331,378.939 470.45,378.829 470.569,379.14 470.688,379.338 470.807,380.063 470.926,380.103 471.045,380.2 471.164,380.151 471.283,380.915 471.402,380.957 471.521,381.316 471.64,381.274 471.759,381.814 471.878,382.505 471.997,382.594 472.116,382.007 472.235,382.783 472.355,383.036 472.474,383.099 472.593,383.953 472.712,383.299 472.831,383.819 472.95,383.965 473.069,383.302 473.188,383.282 473.307,382.799 473.426,382.51 473.545,382.446 473.664,381.966 473.783,381.444 473.902,381.619 474.021,381.246 474.14,380.502 474.259,380.656 474.378,380.496 474.497,379.695 474.616,379.754 474.735,379.328 474.854,378.966 474.973,378.55 475.092,377.354 475.211,377.4 475.331,377.903 475.45,377.236 475.569,377.482 475.688,376.811 475.807,376.411 475.926,376.062 476.045,375.56 476.164,375.489 476.283,375.21 476.402,374.381 476.521,374.553 476.64,374.908 476.759,373.829 476.878,373.478 476.997,373.564 477.116,373.171 477.235,372.592 477.354,372.714 477.473,372.384 477.592,372.028 477.711,371.86 477.83,371.459 477.949,370.454 478.068,370.854 478.188,370.825 478.307,370.385 478.426,369.556 478.545,369.292 478.664,369.634 478.783,369.051 478.902,368.869 479.021,368.515 479.14,368.463 479.259,368.533 479.378,368.095 479.497,367.251 479.616,367.32 479.735,367.773 479.854,367.187 479.973,366.625 480.092,366.486 480.211,366.828 480.33,366.921 480.449,366.482 480.568,365.583 480.687,365.623 480.806,366.035 480.925,365.282 481.044,365.21 481.163,364.754 481.283,364.87 481.402,365.253 481.521,365.277 481.64,364.643 481.759,364.649 481.878,364.512 481.997,364.305 482.116,364.189 482.235,363.647 482.354,363.573 482.473,363.872 482.592,363.467 482.711,362.912 482.83,363.465 482.949,363.15 483.068,363.824 483.187,363.246 483.306,363.016 483.425,363.329 483.544,363.217 483.663,363.149 483.782,363.086 483.901,362.949 484.02,363.241 484.139,362.929 484.259,363.215 484.378,362.744 484.497,363.039 484.616,363.234 484.735,363.385 484.854,362.944 484.973,362.142 485.092,363.398 485.211,363.532 485.33,363.144 485.449,363.044 485.568,363.08 485.687,363.66 485.806,363.834 485.925,363.517 486.044,363.638 486.163,363.783 486.282,363.971 486.401,363.715 486.52,363.855 486.639,363.922 486.758,364.613 486.877,364.674 486.996,364.385 487.115,364.238 487.235,364.609 487.354,365.347 487.473,365.596 487.592,365.02 487.711,364.994 487.83,365.58 487.949,366.073 488.068,365.904 488.187,365.714 488.306,366.151 488.425,366.74 488.544,366.982 488.663,367.031 488.782,366.619 488.901,366.926 489.02,368.083 489.139,367.246 489.258,367.609 489.377,367.762 489.496,368.239 489.615,368.284 489.734,368.574 489.853,368.571 489.972,369.389 490.091,369.432 490.211,369.558 490.33,369.742 490.449,370.317 490.568,370.343 490.687,370.513 490.806,370.591 490.925,370.845 491.044,371.854 491.163,371.852 491.282,371.648 491.401,371.983 491.52,372.244 491.639,372.621 491.758,372.621 491.877,373.247 491.996,373.489 492.115,373.271 492.234,374.043 492.353,374.356 492.472,374.327 492.591,374.744 492.71,374.601 492.829,375.729 492.948,375.163 493.067,375.42 493.187,375.885 493.306,376.308 493.425,376.228 493.544,376.362 493.663,376.857 493.782,377.389 493.901,378.425 494.02,377.417 494.139,377.798 494.258,378.092 494.377,378.953 494.496,378.411 494.615,378.506 494.734,379.337 494.853,379.918 494.972,379.653 495.091,379.991 495.21,379.829 495.329,379.88 495.448,381.12 495.567,381.201 495.686,380.652 495.805,380.902 495.924,381.024 496.043,381.454 496.163,381.62 496.282,381.226 496.401,381.676 496.52,381.842 496.639,381.831 496.758,381.419 496.877,381.955 496.996,382.115 497.115,381.751 497.234,381.374 497.353,381.637 497.472,382.005 497.591,381.999 497.71,381.072 497.829,381.166 497.948,381.635 498.067,381.904 498.186,381.107 498.305,381.354 498.424,380.924 498.543,380.732 498.662,379.877 498.781,380.243 498.9,380.359 499.019,380.48 499.139,380.476 499.258,379.672 499.377,379.793 499.496,379.271 499.615,379.929 499.734,379.821 499.853,379.189 499.972,379.039 500.091,379.229 500.21,378.802 500.329,378.508 500.448,378.377 500.567,379.045 500.686,378.62 500.805,378.588 500.924,377.442 501.043,377.812 501.162,378.013 501.281,378.365 501.4,377.392 501.519,376.984 501.638,377.686 501.757,378.003 501.876,377.572 501.995,376.919 502.115,377.147 502.234,377.012 502.353,377.454 502.472,376.591 502.591,376.845 502.71,377.124 502.829,376.937 502.948,376.705 503.067,376.671 503.186,376.534 503.305,376.794 503.424,376.385 503.543,376.119 503.662,376.096 503.781,375.931 503.9,377.024 504.019,376.05 504.138,376.067 504.257,375.345 504.376,375.662 504.495,375.952 504.614,375.891 504.733,375.968 504.852,375.763 504.971,375.47 505.091,374.861 505.21,375.136 505.329,375 505.448,375.136 505.567,375.212 505.686,375.046 505.805,374.257 505.924,374.654 506.043,374.809 506.162,375.185 506.281,374.813 506.4,373.942 506.519,374.398 506.638,374.922 506.757,374.464 506.876,374.464 506.995,373.715 507.114,374.237 507.233,374.047 507.352,373.963 507.471,374.011 507.59,373.971 507.709,374.03 507.828,373.567 507.948,373.084 508.067,372.357 508.186,373.704 508.305,373.732 508.424,373.309 508.543,372.122 508.662,372.87 508.781,372.701 508.9,372.514 509.019,372.441 509.138,371.745 509.257,372.538 509.376,372.318 509.495,372.018 509.614,371.454 509.733,371.806 509.852,372.433 509.971,371.626 510.09,370.96 510.209,371.171 510.328,371.524 510.447,371.288 510.566,371.401 510.685,370.958 510.804,370.674 510.923,370.746 511.043,371.576 511.162,370.949 511.281,370.254 511.4,370.122 511.519,370.096 511.638,370.235 511.757,370.402 511.876,370.304 511.995,370.229 512.114,369.774 512.233,370.032 512.352,369.712 512.471,370.015 512.59,369.806 512.709,369.533 512.828,369.954 512.947,368.945 513.066,369.819 513.185,369.939 513.304,369.265 513.423,368.918 513.542,369.17 513.661,369.587 513.78,369.79 513.899,369.141 514.019,368.959 514.138,369.74 514.257,369.509 514.376,369.794 514.495,369.659 514.614,369.178 514.733,369.234 514.852,369.725 514.971,369.811 515.09,368.951 515.209,369.785 515.328,370.248 515.447,369.525 515.566,369.488 515.685,369.322 515.804,369.496 515.923,370.432 516.042,369.968 516.161,370.084 516.28,370.417 516.399,370.57 516.518,370.626 516.637,370.492 516.756,370.994 516.875,370.891 516.995,370.939 517.114,371.285 517.233,371.535 517.352,371.358 517.471,371.518 517.59,372.105 517.709,371.362 517.828,372.156 517.947,372.452 518.066,373.219 518.185,373.172 518.304,372.531 518.423,372.706 518.542,373.67 518.661,374.181 518.78,374.07 518.899,373.891 519.018,373.729 519.137,374.867 519.256,375.274 519.375,375.239 519.494,375.439 519.613,375.471 519.732,376.267 519.852,376.305 519.971,376.085 520.09,376.668 520.209,376.953 520.328,377.826 520.447,377.622 520.566,377.812 520.685,377.591 520.804,378.57 520.923,379.383 521.042,378.404 521.161,378.369 521.28,379.591" />
  <polyline
     transform="translate(-1.6704269,42.862832)"
     style="fill:#ff0000;stroke:#ff0000;stroke-width:1.50000000000000000;stroke-miterlimit:4;stroke-dasharray:3, 1.50000000000000000;stroke-dashoffset:0"
     id="polyline80-2"
     points="74.88,314.064 521.28,314.064" />
  <text
     style="font-size:10px;text-anchor:end;baseline-shift:-5px;fill:#000000;stroke-width:1.5;stroke-miterlimit:4;stroke-dasharray:none;font-family:Helvetica"
     id="text116-6"
     baseline-shift="-5"
     font-size="10"
     y="353.45529"
     x="67.801483">0.08</text>
</svg>
