<?xml version="1.0" encoding="UTF-8" standalone="no"?>
<svg
   xmlns:dc="http://purl.org/dc/elements/1.1/"
   xmlns:cc="http://creativecommons.org/ns#"
   xmlns:rdf="http://www.w3.org/1999/02/22-rdf-syntax-ns#"
   xmlns:svg="http://www.w3.org/2000/svg"
   xmlns="http://www.w3.org/2000/svg"
   xmlns:xlink="http://www.w3.org/1999/xlink"
   xmlns:sodipodi="http://sodipodi.sourceforge.net/DTD/sodipodi-0.dtd"
   xmlns:inkscape="http://www.inkscape.org/namespaces/inkscape"
   viewBox="0 0 576 432"
   id="svg2"
   version="1.1"
   inkscape:version="0.48.4 r9939"
   width="100%"
   height="100%"
   sodipodi:docname="5HR165_nodefect.svg"
   inkscape:export-filename="/home/alice/Documents/Etudes/Projet_M1/mesures/mesure_4Mai2015/mesureTR/mesure no defect/trait_T/5HR165_nodefect.png"
   inkscape:export-xdpi="90"
   inkscape:export-ydpi="90">
  <metadata
     id="metadata287">
    <rdf:RDF>
      <cc:Work
         rdf:about="">
        <dc:format>image/svg+xml</dc:format>
        <dc:type
           rdf:resource="http://purl.org/dc/dcmitype/StillImage" />
        <dc:title>Gnuplot</dc:title>
      </cc:Work>
    </rdf:RDF>
  </metadata>
  <defs
     id="defs285" />
  <sodipodi:namedview
     pagecolor="#ffffff"
     bordercolor="#666666"
     borderopacity="1"
     objecttolerance="10"
     gridtolerance="10"
     guidetolerance="10"
     inkscape:pageopacity="0"
     inkscape:pageshadow="2"
     inkscape:window-width="1366"
     inkscape:window-height="718"
     id="namedview283"
     showgrid="false"
     inkscape:zoom="1.0925926"
     inkscape:cx="268.08503"
     inkscape:cy="267.98472"
     inkscape:window-x="0"
     inkscape:window-y="24"
     inkscape:window-maximized="1"
     inkscape:current-layer="svg2" />
  <title
     id="title4">Gnuplot</title>
  <desc
     id="desc6">Produced by GNUPLOT 4.6 patchlevel 4 </desc>
  <g
     id="gnuplot_canvas"
     style="stroke-width:1.5;stroke-miterlimit:4;stroke-dasharray:none">
    <rect
       x="0"
       y="0"
       width="576"
       height="432"
       fill="none"
       id="rect9"
       style="stroke-width:1.5;stroke-miterlimit:4;stroke-dasharray:none" />
    <defs
       id="defs11">
      <circle
         id="gpDot"
         r="0.5"
         stroke-width="0.5" />
      <path
         id="gpPt0"
         stroke-width="0.333"
         stroke="currentColor"
         d="M-1,0 h2 M0,-1 v2" />
      <path
         id="gpPt1"
         stroke-width="0.333"
         stroke="currentColor"
         d="M-1,-1 L1,1 M1,-1 L-1,1" />
      <path
         id="gpPt2"
         stroke-width="0.333"
         stroke="currentColor"
         d="M-1,0 L1,0 M0,-1 L0,1 M-1,-1 L1,1 M-1,1 L1,-1" />
      <rect
         id="gpPt3"
         stroke-width="0.333"
         stroke="currentColor"
         x="-1"
         y="-1"
         width="2"
         height="2" />
      <rect
         id="gpPt4"
         stroke-width="0.333"
         stroke="currentColor"
         fill="currentColor"
         x="-1"
         y="-1"
         width="2"
         height="2" />
      <circle
         id="gpPt5"
         stroke-width="0.333"
         stroke="currentColor"
         cx="0"
         cy="0"
         r="1" />
      <use
         xlink:href="#gpPt5"
         id="gpPt6"
         fill="currentColor"
         stroke="none" />
      <path
         id="gpPt7"
         stroke-width="0.333"
         stroke="currentColor"
         d="M0,-1.33 L-1.33,0.67 L1.33,0.67 z" />
      <use
         xlink:href="#gpPt7"
         id="gpPt8"
         fill="currentColor"
         stroke="none" />
      <use
         xlink:href="#gpPt7"
         id="gpPt9"
         stroke="currentColor"
         transform="rotate(180)" />
      <use
         xlink:href="#gpPt9"
         id="gpPt10"
         fill="currentColor"
         stroke="none" />
      <use
         xlink:href="#gpPt3"
         id="gpPt11"
         stroke="currentColor"
         transform="rotate(45)" />
      <use
         xlink:href="#gpPt11"
         id="gpPt12"
         fill="currentColor"
         stroke="none" />
    </defs>
    <g
       style="fill:none;color:white;stroke:currentColor;stroke-width:1.5;stroke-linecap:butt;stroke-linejoin:miter;stroke-miterlimit:4;stroke-dasharray:none"
       id="g27" />
    <g
       style="fill:none;color:black;stroke:currentColor;stroke-width:1.5;stroke-linecap:butt;stroke-linejoin:miter;stroke-miterlimit:4;stroke-dasharray:none"
       id="g29">
      <g
         style="stroke:none;shape-rendering:crispEdges;stroke-width:1.5;stroke-miterlimit:4;stroke-dasharray:none"
         id="g31">
        <polygon
           fill="rgb(255, 255, 255)"
           points="42.8,393.6 559.0,393.6 559.0,11.4 42.8,11.4 "
           id="polygon33"
           style="stroke-width:1.5;stroke-miterlimit:4;stroke-dasharray:none" />
      </g>
      <path
         stroke="black"
         d="M42.8,393.6 L42.8,11.4 L559.0,11.4 L559.0,393.6 L42.8,393.6  h0.01"
         id="path35"
         style="stroke-width:1.5;stroke-miterlimit:4;stroke-dasharray:none" />
    </g>
    <g
       style="fill:none;color:black;stroke:black;stroke-width:1.5;stroke-linecap:butt;stroke-linejoin:miter;stroke-miterlimit:4;stroke-dasharray:none"
       id="g37" />
    <g
       style="fill:none;color:gray;stroke:currentColor;stroke-width:1.5;stroke-linecap:butt;stroke-linejoin:miter;stroke-miterlimit:4;stroke-dasharray:none"
       id="g39">
      <path
         stroke="gray"
         stroke-dasharray=" 2,4"
         class="gridline"
         d="M42.8,393.6 L559.1,393.6  h0.01"
         id="path41"
         style="stroke-width:1.5;stroke-miterlimit:4;stroke-dasharray:none" />
    </g>
    <g
       style="fill:none;color:black;stroke:currentColor;stroke-width:1.5;stroke-linecap:butt;stroke-linejoin:miter;stroke-miterlimit:4;stroke-dasharray:none"
       id="g43">
      <path
         stroke="black"
         d="M42.8,393.6 L51.2,393.6 M559.1,393.6 L550.7,393.6  h0.01"
         id="path45"
         style="stroke-width:1.5;stroke-miterlimit:4;stroke-dasharray:none" />
      <g
         transform="translate(37.2,397.3)"
         style="stroke:none;fill:rgb(0, 0, 0);font-size:10pt;text-anchor:end;stroke-width:1.5;stroke-miterlimit:4;stroke-dasharray:none"
         id="g47">
        <text
           id="text49"
           style="stroke-width:1.5;stroke-miterlimit:4;stroke-dasharray:none">
          <tspan
             id="tspan51"
             style="stroke-width:1.5;stroke-miterlimit:4;stroke-dasharray:none">0</tspan>
        </text>
      </g>
    </g>
    <g
       style="fill:none;color:gray;stroke:currentColor;stroke-width:1.5;stroke-linecap:butt;stroke-linejoin:miter;stroke-miterlimit:4;stroke-dasharray:none"
       id="g53">
      <path
         stroke="gray"
         stroke-dasharray=" 2,4"
         class="gridline"
         d="M42.8,317.1 L559.1,317.1  h0.01"
         id="path55"
         style="stroke-width:1.5;stroke-miterlimit:4;stroke-dasharray:none" />
    </g>
    <g
       style="fill:none;color:black;stroke:currentColor;stroke-width:1.5;stroke-linecap:butt;stroke-linejoin:miter;stroke-miterlimit:4;stroke-dasharray:none"
       id="g57">
      <path
         stroke="black"
         d="M42.8,317.1 L51.2,317.1 M559.1,317.1 L550.7,317.1  h0.01"
         id="path59"
         style="stroke-width:1.5;stroke-miterlimit:4;stroke-dasharray:none" />
      <g
         transform="translate(37.2,320.8)"
         style="stroke:none;fill:rgb(0, 0, 0);font-size:10pt;text-anchor:end;stroke-width:1.5;stroke-miterlimit:4;stroke-dasharray:none"
         id="g61">
        <text
           id="text63"
           style="stroke-width:1.5;stroke-miterlimit:4;stroke-dasharray:none">
          <tspan
             id="tspan65"
             style="stroke-width:1.5;stroke-miterlimit:4;stroke-dasharray:none">0.2</tspan>
        </text>
      </g>
    </g>
    <g
       style="fill:none;color:gray;stroke:currentColor;stroke-width:1.5;stroke-linecap:butt;stroke-linejoin:miter;stroke-miterlimit:4;stroke-dasharray:none"
       id="g67">
      <path
         stroke="gray"
         stroke-dasharray=" 2,4"
         class="gridline"
         d="M42.8,240.7 L559.1,240.7  h0.01"
         id="path69"
         style="stroke-width:1.5;stroke-miterlimit:4;stroke-dasharray:none" />
    </g>
    <g
       style="fill:none;color:black;stroke:currentColor;stroke-width:1.5;stroke-linecap:butt;stroke-linejoin:miter;stroke-miterlimit:4;stroke-dasharray:none"
       id="g71">
      <path
         stroke="black"
         d="M42.8,240.7 L51.2,240.7 M559.1,240.7 L550.7,240.7  h0.01"
         id="path73"
         style="stroke-width:1.5;stroke-miterlimit:4;stroke-dasharray:none" />
      <g
         transform="translate(37.2,244.4)"
         style="stroke:none;fill:rgb(0, 0, 0);font-size:10pt;text-anchor:end;stroke-width:1.5;stroke-miterlimit:4;stroke-dasharray:none"
         id="g75">
        <text
           id="text77"
           style="stroke-width:1.5;stroke-miterlimit:4;stroke-dasharray:none">
          <tspan
             id="tspan79"
             style="stroke-width:1.5;stroke-miterlimit:4;stroke-dasharray:none">0.4</tspan>
        </text>
      </g>
    </g>
    <g
       style="fill:none;color:gray;stroke:currentColor;stroke-width:1.5;stroke-linecap:butt;stroke-linejoin:miter;stroke-miterlimit:4;stroke-dasharray:none"
       id="g81">
      <path
         stroke="gray"
         stroke-dasharray=" 2,4"
         class="gridline"
         d="M42.8,164.2 L559.1,164.2  h0.01"
         id="path83"
         style="stroke-width:1.5;stroke-miterlimit:4;stroke-dasharray:none" />
    </g>
    <g
       style="fill:none;color:black;stroke:currentColor;stroke-width:1.5;stroke-linecap:butt;stroke-linejoin:miter;stroke-miterlimit:4;stroke-dasharray:none"
       id="g85">
      <path
         stroke="black"
         d="M42.8,164.2 L51.2,164.2 M559.1,164.2 L550.7,164.2  h0.01"
         id="path87"
         style="stroke-width:1.5;stroke-miterlimit:4;stroke-dasharray:none" />
      <g
         transform="translate(37.2,167.9)"
         style="stroke:none;fill:rgb(0, 0, 0);font-size:10pt;text-anchor:end;stroke-width:1.5;stroke-miterlimit:4;stroke-dasharray:none"
         id="g89">
        <text
           id="text91"
           style="stroke-width:1.5;stroke-miterlimit:4;stroke-dasharray:none">
          <tspan
             id="tspan93"
             style="stroke-width:1.5;stroke-miterlimit:4;stroke-dasharray:none">0.6</tspan>
        </text>
      </g>
    </g>
    <g
       style="fill:none;color:gray;stroke:currentColor;stroke-width:1.5;stroke-linecap:butt;stroke-linejoin:miter;stroke-miterlimit:4;stroke-dasharray:none"
       id="g95">
      <path
         stroke="gray"
         stroke-dasharray=" 2,4"
         class="gridline"
         d="M42.8,87.8 L559.1,87.8  h0.01"
         id="path97"
         style="stroke-width:1.5;stroke-miterlimit:4;stroke-dasharray:none" />
    </g>
    <g
       style="fill:none;color:black;stroke:currentColor;stroke-width:1.5;stroke-linecap:butt;stroke-linejoin:miter;stroke-miterlimit:4;stroke-dasharray:none"
       id="g99">
      <path
         stroke="black"
         d="M42.8,87.8 L51.2,87.8 M559.1,87.8 L550.7,87.8  h0.01"
         id="path101"
         style="stroke-width:1.5;stroke-miterlimit:4;stroke-dasharray:none" />
      <g
         transform="translate(37.2,91.5)"
         style="stroke:none;fill:rgb(0, 0, 0);font-size:10pt;text-anchor:end;stroke-width:1.5;stroke-miterlimit:4;stroke-dasharray:none"
         id="g103">
        <text
           id="text105"
           style="stroke-width:1.5;stroke-miterlimit:4;stroke-dasharray:none">
          <tspan
             id="tspan107"
             style="stroke-width:1.5;stroke-miterlimit:4;stroke-dasharray:none">0.8</tspan>
        </text>
      </g>
    </g>
    <g
       style="fill:none;color:gray;stroke:currentColor;stroke-width:1.5;stroke-linecap:butt;stroke-linejoin:miter;stroke-miterlimit:4;stroke-dasharray:none"
       id="g109">
      <path
         stroke="gray"
         stroke-dasharray=" 2,4"
         class="gridline"
         d="M42.8,11.3 L559.1,11.3  h0.01"
         id="path111"
         style="stroke-width:1.5;stroke-miterlimit:4;stroke-dasharray:none" />
    </g>
    <g
       style="fill:none;color:black;stroke:currentColor;stroke-width:1.5;stroke-linecap:butt;stroke-linejoin:miter;stroke-miterlimit:4;stroke-dasharray:none"
       id="g113">
      <path
         stroke="black"
         d="M42.8,11.3 L51.2,11.3 M559.1,11.3 L550.7,11.3  h0.01"
         id="path115"
         style="stroke-width:1.5;stroke-miterlimit:4;stroke-dasharray:none" />
      <g
         transform="translate(37.2,15.0)"
         style="stroke:none;fill:rgb(0, 0, 0);font-size:10pt;text-anchor:end;stroke-width:1.5;stroke-miterlimit:4;stroke-dasharray:none"
         id="g117">
        <text
           id="text119"
           style="stroke-width:1.5;stroke-miterlimit:4;stroke-dasharray:none">
          <tspan
             id="tspan121"
             style="stroke-width:1.5;stroke-miterlimit:4;stroke-dasharray:none">1</tspan>
        </text>
      </g>
    </g>
    <g
       style="fill:none;color:gray;stroke:currentColor;stroke-width:1.5;stroke-linecap:butt;stroke-linejoin:miter;stroke-miterlimit:4;stroke-dasharray:none"
       id="g123">
      <path
         stroke="gray"
         stroke-dasharray=" 2,4"
         class="gridline"
         d="M77.2,393.6 L77.2,11.3  h0.01"
         id="path125"
         style="stroke-width:1.5;stroke-miterlimit:4;stroke-dasharray:none" />
    </g>
    <g
       style="fill:none;color:black;stroke:currentColor;stroke-width:1.5;stroke-linecap:butt;stroke-linejoin:miter;stroke-miterlimit:4;stroke-dasharray:none"
       id="g127">
      <path
         stroke="black"
         d="M77.2,393.6 L77.2,385.2 M77.2,11.3 L77.2,19.7  h0.01"
         id="path129"
         style="stroke-width:1.5;stroke-miterlimit:4;stroke-dasharray:none" />
      <g
         transform="translate(77.2,409.3)"
         style="stroke:none;fill:rgb(0, 0, 0);font-size:10pt;text-anchor:middle;stroke-width:1.5;stroke-miterlimit:4;stroke-dasharray:none"
         id="g131">
        <text
           id="text133"
           style="stroke-width:1.5;stroke-miterlimit:4;stroke-dasharray:none">
          <tspan
             id="tspan135"
             style="stroke-width:1.5;stroke-miterlimit:4;stroke-dasharray:none">200</tspan>
        </text>
      </g>
    </g>
    <g
       style="fill:none;color:gray;stroke:currentColor;stroke-width:1.5;stroke-linecap:butt;stroke-linejoin:miter;stroke-miterlimit:4;stroke-dasharray:none"
       id="g137">
      <path
         stroke="gray"
         stroke-dasharray=" 2,4"
         class="gridline"
         d="M146.1,393.6 L146.1,11.3  h0.01"
         id="path139"
         style="stroke-width:1.5;stroke-miterlimit:4;stroke-dasharray:none" />
    </g>
    <g
       style="fill:none;color:black;stroke:currentColor;stroke-width:1.5;stroke-linecap:butt;stroke-linejoin:miter;stroke-miterlimit:4;stroke-dasharray:none"
       id="g141">
      <path
         stroke="black"
         d="M146.1,393.6 L146.1,385.2 M146.1,11.3 L146.1,19.7  h0.01"
         id="path143"
         style="stroke-width:1.5;stroke-miterlimit:4;stroke-dasharray:none" />
      <g
         transform="translate(146.1,409.3)"
         style="stroke:none;fill:rgb(0, 0, 0);font-size:10pt;text-anchor:middle;stroke-width:1.5;stroke-miterlimit:4;stroke-dasharray:none"
         id="g145">
        <text
           id="text147"
           style="stroke-width:1.5;stroke-miterlimit:4;stroke-dasharray:none">
          <tspan
             id="tspan149"
             style="stroke-width:1.5;stroke-miterlimit:4;stroke-dasharray:none">300</tspan>
        </text>
      </g>
    </g>
    <g
       style="fill:none;color:gray;stroke:currentColor;stroke-width:1.5;stroke-linecap:butt;stroke-linejoin:miter;stroke-miterlimit:4;stroke-dasharray:none"
       id="g151">
      <path
         stroke="gray"
         stroke-dasharray=" 2,4"
         class="gridline"
         d="M214.9,393.6 L214.9,11.3  h0.01"
         id="path153"
         style="stroke-width:1.5;stroke-miterlimit:4;stroke-dasharray:none" />
    </g>
    <g
       style="fill:none;color:black;stroke:currentColor;stroke-width:1.5;stroke-linecap:butt;stroke-linejoin:miter;stroke-miterlimit:4;stroke-dasharray:none"
       id="g155">
      <path
         stroke="black"
         d="M214.9,393.6 L214.9,385.2 M214.9,11.3 L214.9,19.7  h0.01"
         id="path157"
         style="stroke-width:1.5;stroke-miterlimit:4;stroke-dasharray:none" />
      <g
         transform="translate(214.9,409.3)"
         style="stroke:none;fill:rgb(0, 0, 0);font-size:10pt;text-anchor:middle;stroke-width:1.5;stroke-miterlimit:4;stroke-dasharray:none"
         id="g159">
        <text
           id="text161"
           style="stroke-width:1.5;stroke-miterlimit:4;stroke-dasharray:none">
          <tspan
             id="tspan163"
             style="stroke-width:1.5;stroke-miterlimit:4;stroke-dasharray:none">400</tspan>
        </text>
      </g>
    </g>
    <g
       style="fill:none;color:gray;stroke:currentColor;stroke-width:1.5;stroke-linecap:butt;stroke-linejoin:miter;stroke-miterlimit:4;stroke-dasharray:none"
       id="g165">
      <path
         stroke="gray"
         stroke-dasharray=" 2,4"
         class="gridline"
         d="M283.7,393.6 L283.7,11.3  h0.01"
         id="path167"
         style="stroke-width:1.5;stroke-miterlimit:4;stroke-dasharray:none" />
    </g>
    <g
       style="fill:none;color:black;stroke:currentColor;stroke-width:1.5;stroke-linecap:butt;stroke-linejoin:miter;stroke-miterlimit:4;stroke-dasharray:none"
       id="g169">
      <path
         stroke="black"
         d="M283.7,393.6 L283.7,385.2 M283.7,11.3 L283.7,19.7  h0.01"
         id="path171"
         style="stroke-width:1.5;stroke-miterlimit:4;stroke-dasharray:none" />
      <g
         transform="translate(283.7,409.3)"
         style="stroke:none;fill:rgb(0, 0, 0);font-size:10pt;text-anchor:middle;stroke-width:1.5;stroke-miterlimit:4;stroke-dasharray:none"
         id="g173">
        <text
           id="text175"
           style="stroke-width:1.5;stroke-miterlimit:4;stroke-dasharray:none">
          <tspan
             id="tspan177"
             style="stroke-width:1.5;stroke-miterlimit:4;stroke-dasharray:none">500</tspan>
        </text>
      </g>
    </g>
    <g
       style="fill:none;color:gray;stroke:currentColor;stroke-width:1.5;stroke-linecap:butt;stroke-linejoin:miter;stroke-miterlimit:4;stroke-dasharray:none"
       id="g179">
      <path
         stroke="gray"
         stroke-dasharray=" 2,4"
         class="gridline"
         d="M352.6,393.6 L352.6,11.3  h0.01"
         id="path181"
         style="stroke-width:1.5;stroke-miterlimit:4;stroke-dasharray:none" />
    </g>
    <g
       style="fill:none;color:black;stroke:currentColor;stroke-width:1.5;stroke-linecap:butt;stroke-linejoin:miter;stroke-miterlimit:4;stroke-dasharray:none"
       id="g183">
      <path
         stroke="black"
         d="M352.6,393.6 L352.6,385.2 M352.6,11.3 L352.6,19.7  h0.01"
         id="path185"
         style="stroke-width:1.5;stroke-miterlimit:4;stroke-dasharray:none" />
      <g
         transform="translate(352.6,409.3)"
         style="stroke:none;fill:rgb(0, 0, 0);font-size:10pt;text-anchor:middle;stroke-width:1.5;stroke-miterlimit:4;stroke-dasharray:none"
         id="g187">
        <text
           id="text189"
           style="stroke-width:1.5;stroke-miterlimit:4;stroke-dasharray:none">
          <tspan
             id="tspan191"
             style="stroke-width:1.5;stroke-miterlimit:4;stroke-dasharray:none">600</tspan>
        </text>
      </g>
    </g>
    <g
       style="fill:none;color:gray;stroke:currentColor;stroke-width:1.5;stroke-linecap:butt;stroke-linejoin:miter;stroke-miterlimit:4;stroke-dasharray:none"
       id="g193">
      <path
         stroke="gray"
         stroke-dasharray=" 2,4"
         class="gridline"
         d="M421.4,393.6 L421.4,11.3  h0.01"
         id="path195"
         style="stroke-width:1.5;stroke-miterlimit:4;stroke-dasharray:none" />
    </g>
    <g
       style="fill:none;color:black;stroke:currentColor;stroke-width:1.5;stroke-linecap:butt;stroke-linejoin:miter;stroke-miterlimit:4;stroke-dasharray:none"
       id="g197">
      <path
         stroke="black"
         d="M421.4,393.6 L421.4,385.2 M421.4,11.3 L421.4,19.7  h0.01"
         id="path199"
         style="stroke-width:1.5;stroke-miterlimit:4;stroke-dasharray:none" />
      <g
         transform="translate(421.4,409.3)"
         style="stroke:none;fill:rgb(0, 0, 0);font-size:10pt;text-anchor:middle;stroke-width:1.5;stroke-miterlimit:4;stroke-dasharray:none"
         id="g201">
        <text
           id="text203"
           style="stroke-width:1.5;stroke-miterlimit:4;stroke-dasharray:none">
          <tspan
             id="tspan205"
             style="stroke-width:1.5;stroke-miterlimit:4;stroke-dasharray:none">700</tspan>
        </text>
      </g>
    </g>
    <g
       style="fill:none;color:gray;stroke:currentColor;stroke-width:1.5;stroke-linecap:butt;stroke-linejoin:miter;stroke-miterlimit:4;stroke-dasharray:none"
       id="g207">
      <path
         stroke="gray"
         stroke-dasharray=" 2,4"
         class="gridline"
         d="M490.3,393.6 L490.3,387.6 M490.3,363.6 L490.3,11.3  h0.01"
         id="path209"
         style="stroke-width:1.5;stroke-miterlimit:4;stroke-dasharray:none" />
    </g>
    <g
       style="fill:none;color:black;stroke:currentColor;stroke-width:1.5;stroke-linecap:butt;stroke-linejoin:miter;stroke-miterlimit:4;stroke-dasharray:none"
       id="g211">
      <path
         stroke="black"
         d="M490.3,393.6 L490.3,385.2 M490.3,11.3 L490.3,19.7  h0.01"
         id="path213"
         style="stroke-width:1.5;stroke-miterlimit:4;stroke-dasharray:none" />
      <g
         transform="translate(490.3,409.3)"
         style="stroke:none;fill:rgb(0, 0, 0);font-size:10pt;text-anchor:middle;stroke-width:1.5;stroke-miterlimit:4;stroke-dasharray:none"
         id="g215">
        <text
           id="text217"
           style="stroke-width:1.5;stroke-miterlimit:4;stroke-dasharray:none">
          <tspan
             id="tspan219"
             style="stroke-width:1.5;stroke-miterlimit:4;stroke-dasharray:none">800</tspan>
        </text>
      </g>
    </g>
    <g
       style="fill:none;color:gray;stroke:currentColor;stroke-width:1.5;stroke-linecap:butt;stroke-linejoin:miter;stroke-miterlimit:4;stroke-dasharray:none"
       id="g221">
      <path
         stroke="gray"
         stroke-dasharray=" 2,4"
         class="gridline"
         d="M559.1,393.6 L559.1,11.3  h0.01"
         id="path223"
         style="stroke-width:1.5;stroke-miterlimit:4;stroke-dasharray:none" />
    </g>
    <g
       style="fill:none;color:black;stroke:currentColor;stroke-width:1.5;stroke-linecap:butt;stroke-linejoin:miter;stroke-miterlimit:4;stroke-dasharray:none"
       id="g225">
      <path
         stroke="black"
         d="M559.1,393.6 L559.1,385.2 M559.1,11.3 L559.1,19.7  h0.01"
         id="path227"
         style="stroke-width:1.5;stroke-miterlimit:4;stroke-dasharray:none" />
      <g
         transform="translate(559.1,409.3)"
         style="stroke:none;fill:rgb(0, 0, 0);font-size:10pt;text-anchor:middle;stroke-width:1.5;stroke-miterlimit:4;stroke-dasharray:none"
         id="g229">
        <text
           id="text231"
           style="stroke-width:1.5;stroke-miterlimit:4;stroke-dasharray:none">
          <tspan
             id="tspan233"
             style="stroke-width:1.5;stroke-miterlimit:4;stroke-dasharray:none">900</tspan>
        </text>
      </g>
      <path
         stroke="black"
         d="M42.8,11.3 L42.8,393.6 L559.1,393.6 L559.1,11.3 L42.8,11.3 Z  h0.01"
         id="path235"
         style="stroke-width:1.5;stroke-miterlimit:4;stroke-dasharray:none" />
      <g
         transform="translate(12.5,202.5) rotate(-90)"
         style="stroke:none;fill:rgb(0, 0, 0);font-size:10pt;text-anchor:middle;stroke-width:1.5;stroke-miterlimit:4;stroke-dasharray:none"
         id="g237">
        <text
           id="text239"
           style="stroke-width:1.5;stroke-miterlimit:4;stroke-dasharray:none">
          <tspan
             id="tspan241"
             style="stroke-width:1.5;stroke-miterlimit:4;stroke-dasharray:none">|T|</tspan>
        </text>
      </g>
      <g
         transform="translate(300.9,427.3)"
         style="stroke:none;fill:rgb(0, 0, 0);font-size:10pt;text-anchor:middle;stroke-width:1.5;stroke-miterlimit:4;stroke-dasharray:none"
         id="g243">
        <text
           id="text245"
           style="stroke-width:1.5;stroke-miterlimit:4;stroke-dasharray:none">
          <tspan
             id="tspan247"
             style="stroke-width:1.5;stroke-miterlimit:4;stroke-dasharray:none">Frequences (Hz)</tspan>
        </text>
      </g>
    </g>
    <g
       style="fill:none;color:black;stroke:black;stroke-width:1.5;stroke-linecap:butt;stroke-linejoin:miter;stroke-miterlimit:4;stroke-dasharray:none"
       id="g249">
      <path
         stroke="black"
         d="M457.9,387.6 L457.9,363.6 L553.5,363.6 L553.5,387.6 L457.9,387.6 Z  h0.01"
         id="path251"
         style="stroke-width:1.5;stroke-miterlimit:4;stroke-dasharray:none" />
    </g>
    <g
       id="gnuplot_plot_1a"
       style="stroke-width:1.5;stroke-miterlimit:4;stroke-dasharray:none">
      <title
         id="title254">gnuplot_plot_1a</title>
      <g
         style="fill:none;color:white;stroke:black;stroke-width:1.5;stroke-linecap:butt;stroke-linejoin:miter;stroke-miterlimit:4;stroke-dasharray:none"
         id="g256" />
      <g
         style="fill:none;color:red;stroke:currentColor;stroke-width:1.5;stroke-linecap:butt;stroke-linejoin:miter;stroke-miterlimit:4;stroke-dasharray:none"
         id="g258">
        <g
           transform="translate(553.5,373.3)"
           style="stroke:none;fill:rgb(0, 0, 0);font-size:10pt;text-anchor:end;stroke-width:1.5;stroke-miterlimit:4;stroke-dasharray:none"
           id="g260">
          <text
             id="text262"
             style="stroke-width:1.5;stroke-miterlimit:4;stroke-dasharray:none">
            <tspan
               id="tspan264"
               style="stroke-width:1.5;stroke-miterlimit:4;stroke-dasharray:none">Simulation</tspan>
          </text>
        </g>
        <path
           stroke="rgb(  0,   0, 255)"
           d="M463.5,369.6 L491.9,369.6 M42.8,46.2 L43.5,45.7 L44.2,45.2 L44.9,44.7 L45.6,44.2 L46.2,43.7    L46.9,43.2 L47.6,42.7 L48.3,42.1 L49.0,41.6 L49.7,41.0 L50.4,40.4 L51.1,39.9 L51.7,39.3    L52.4,38.7 L53.1,38.1 L53.8,37.5 L54.5,36.9 L55.2,36.3 L55.9,35.7 L56.6,35.1 L57.3,34.5    L57.9,34.0 L58.6,33.4 L59.3,32.8 L60.0,32.3 L60.7,31.8 L61.4,31.3 L62.1,30.8 L62.8,30.4    L63.5,29.9 L64.1,29.5 L64.8,29.2 L65.5,28.9 L66.2,28.6 L66.9,28.4 L67.6,28.2 L68.3,28.1    L69.0,28.1 L69.6,28.1 L70.3,28.1 L71.0,28.3 L71.7,28.5 L72.4,28.8 L73.1,29.2 L73.8,29.7    L74.5,30.3 L75.2,30.9 L75.8,31.7 L76.5,32.6 L77.2,33.5 L77.9,34.6 L78.6,35.8 L79.3,37.1    L80.0,38.5 L80.7,40.0 L81.4,41.7 L82.0,43.4 L82.7,45.3 L83.4,47.3 L84.1,49.4 L84.8,51.5    L85.5,53.8 L86.2,56.2 L86.9,58.7 L87.5,61.2 L88.2,63.9 L88.9,66.6 L89.6,69.4 L90.3,72.2    L91.0,75.1 L91.7,78.1 L92.4,81.0 L93.1,84.0 L93.7,87.1 L94.4,90.1 L95.1,93.1 L95.8,96.1    L96.5,99.1 L97.2,102.1 L97.9,105.0 L98.6,107.8 L99.2,110.6 L99.9,113.4 L100.6,116.0 L101.3,118.5    L102.0,121.0 L102.7,123.3 L103.4,125.4 L104.1,127.5 L104.8,129.3 L105.4,131.0 L106.1,132.5 L106.8,133.8    L107.5,134.9 L108.2,135.7 L108.9,136.3 L109.6,136.7 L110.3,136.7 L111.0,136.4 L111.6,135.9 L112.3,135.0    L113.0,133.7 L113.7,132.2 L114.4,130.3 L115.1,128.1 L115.8,125.7 L116.5,123.2 L117.1,120.6 L117.8,118.3    L118.5,116.4 L119.2,115.4 L119.9,115.6 L120.6,117.5 L121.3,121.5 L122.0,127.9 L122.7,136.6 L123.3,147.6    L124.0,160.2 L124.7,173.8 L125.4,187.8 L126.1,201.6 L126.8,214.5 L127.5,226.4 L128.2,237.0 L128.9,246.1    L129.5,253.6 L130.2,259.7 L130.9,264.5 L131.6,268.4 L132.3,272.3 L133.0,277.8 L133.7,287.0 L134.4,300.9    L135.0,317.6 L135.7,333.9 L136.4,348.0 L137.1,360.1 L137.8,370.8 L138.5,379.8 L139.2,386.1 L139.9,389.8    L140.6,391.7 L141.2,392.7 L141.9,393.1 L142.6,393.4 L143.3,393.5 L144.0,393.6 L144.7,393.6 L145.4,393.6    L146.1,393.6 L146.7,393.6 L147.4,393.6 L148.1,393.6 L148.8,393.6 L149.5,393.6 L150.2,393.6 L150.9,393.6    L151.6,393.6 L152.3,393.6 L152.9,393.6 L153.6,393.6 L154.3,393.6 L155.0,393.6 L155.7,393.6 L156.4,393.6    L157.1,393.5 L157.8,393.5 L158.5,393.5 L159.1,393.5 L159.8,393.4 L160.5,393.4 L161.2,393.3 L161.9,393.3    L162.6,393.2 L163.3,393.1 L164.0,393.0 L164.6,393.0 L165.3,392.9 L166.0,392.8 L166.7,392.6 L167.4,392.5    L168.1,392.4 L168.8,392.2 L169.5,392.1 L170.2,391.9 L170.8,391.7 L171.5,391.5 L172.2,391.3 L172.9,391.1    L173.6,390.9 L174.3,390.7 L175.0,390.4 L175.7,390.1 L176.3,389.9 L177.0,389.6 L177.7,389.3 L178.4,388.9    L179.1,388.6 L179.8,388.2 L180.5,387.9 L181.2,387.5 L181.9,387.1 L182.5,386.7 L183.2,386.2 L183.9,385.8    L184.6,385.3 L185.3,384.9 L186.0,384.4 L186.7,383.8 L187.4,383.3 L188.1,382.7 L188.7,382.2 L189.4,381.6    L190.1,381.0 L190.8,380.3 L191.5,379.7 L192.2,379.0 L192.9,378.3 L193.6,377.6 L194.2,376.9 L194.9,376.1    L195.6,375.3 L196.3,374.5 L197.0,373.7 L197.7,372.9 L198.4,372.0 L199.1,371.1 L199.8,370.2 L200.4,369.2    L201.1,368.2 L201.8,367.2 L202.5,366.2 L203.2,365.2 L203.9,364.1 L204.6,363.0 L205.3,361.8 L206.0,360.6    L206.6,359.4 L207.3,358.2 L208.0,356.9 L208.7,355.6 L209.4,354.3 L210.1,352.9 L210.8,351.5 L211.5,350.1    L212.1,348.6 L212.8,347.1 L213.5,345.5 L214.2,344.0 L214.9,342.3 L215.6,340.7 L216.3,339.0 L217.0,337.2    L217.7,335.4 L218.3,333.6 L219.0,331.7 L219.7,329.8 L220.4,327.8 L221.1,325.8 L221.8,323.8 L222.5,321.7    L223.2,319.5 L223.8,317.3 L224.5,315.0 L225.2,312.7 L225.9,310.4 L226.6,308.0 L227.3,305.5 L228.0,303.0    L228.7,300.4 L229.4,297.8 L230.0,295.1 L230.7,292.4 L231.4,289.6 L232.1,286.7 L232.8,283.8 L233.5,280.8    L234.2,277.8 L234.9,274.7 L235.6,271.6 L236.2,268.4 L236.9,265.1 L237.6,261.8 L238.3,258.4 L239.0,255.0    L239.7,251.5 L240.4,248.0 L241.1,244.4 L241.7,240.7 L242.4,237.0 L243.1,233.2 L243.8,229.4 L244.5,225.6    L245.2,221.7 L245.9,217.7 L246.6,213.7 L247.3,209.7 L247.9,205.6 L248.6,201.5 L249.3,197.4 L250.0,193.2    L250.7,189.1 L251.4,184.9 L252.1,180.6 L252.8,176.4 L253.5,172.2 L254.1,168.0 L254.8,163.8 L255.5,159.5    L256.2,155.3 L256.9,151.2 L257.6,147.0 L258.3,142.9 L259.0,138.8 L259.6,134.7 L260.3,130.7 L261.0,126.8    L261.7,122.9 L262.4,119.0 L263.1,115.2 L263.8,111.5 L264.5,107.9 L265.2,104.3 L265.8,100.9 L266.5,97.5    L267.2,94.2 L267.9,91.0 L268.6,87.9 L269.3,84.8 L270.0,81.9 L270.7,79.1 L271.3,76.4 L272.0,73.8    L272.7,71.2 L273.4,68.8 L274.1,66.5 L274.8,64.3 L275.5,62.2 L276.2,60.2 L276.9,58.2 L277.5,56.4    L278.2,54.7 L278.9,53.1 L279.6,51.5 L280.3,50.1 L281.0,48.7 L281.7,47.4 L282.4,46.2 L283.1,45.1    L283.7,44.1 L284.4,43.1 L285.1,42.2 L285.8,41.3 L286.5,40.6 L287.2,39.8 L287.9,39.2 L288.6,38.6    L289.2,38.0 L289.9,37.5 L290.6,37.1 L291.3,36.7 L292.0,36.3 L292.7,36.0 L293.4,35.7 L294.1,35.4    L294.8,35.2 L295.4,35.0 L296.1,34.9 L296.8,34.7 L297.5,34.6 L298.2,34.5 L298.9,34.5 L299.6,34.4    L300.3,34.4 L301.0,34.4 L301.6,34.4 L302.3,34.4 L303.0,34.5 L303.7,34.5 L304.4,34.6 L305.1,34.6    L305.8,34.7 L306.5,34.8 L307.1,34.9 L307.8,35.0 L308.5,35.1 L309.2,35.2 L309.9,35.3 L310.6,35.4    L311.3,35.5 L312.0,35.6 L312.7,35.7 L313.3,35.8 L314.0,35.9 L314.7,36.1 L315.4,36.2 L316.1,36.3    L316.8,36.4 L317.5,36.5 L318.2,36.6 L318.8,36.7 L319.5,36.8 L320.2,36.9 L320.9,37.0 L321.6,37.1    L322.3,37.2 L323.0,37.3 L323.7,37.3 L324.4,37.4 L325.0,37.5 L325.7,37.6 L326.4,37.6 L327.1,37.7    L327.8,37.7 L328.5,37.8 L329.2,37.8 L329.9,37.9 L330.6,37.9 L331.2,38.0 L331.9,38.0 L332.6,38.0    L333.3,38.0 L334.0,38.0 L334.7,38.1 L335.4,38.1 L336.1,38.1 L336.7,38.1 L337.4,38.1 L338.1,38.0    L338.8,38.0 L339.5,38.0 L340.2,38.0 L340.9,38.0 L341.6,37.9 L342.3,37.9 L342.9,37.9 L343.6,37.8    L344.3,37.8 L345.0,37.7 L345.7,37.7 L346.4,37.6 L347.1,37.5 L347.8,37.5 L348.4,37.4 L349.1,37.3    L349.8,37.3 L350.5,37.2 L351.2,37.1 L351.9,37.0 L352.6,36.9 L353.3,36.9 L354.0,36.8 L354.6,36.7    L355.3,36.6 L356.0,36.5 L356.7,36.4 L357.4,36.3 L358.1,36.2 L358.8,36.1 L359.5,35.9 L360.2,35.8    L360.8,35.7 L361.5,35.6 L362.2,35.5 L362.9,35.4 L363.6,35.2 L364.3,35.1 L365.0,35.0 L365.7,34.9    L366.3,34.8 L367.0,34.6 L367.7,34.5 L368.4,34.4 L369.1,34.2 L369.8,34.1 L370.5,34.0 L371.2,33.8    L371.9,33.7 L372.5,33.6 L373.2,33.4 L373.9,33.3 L374.6,33.2 L375.3,33.0 L376.0,32.9 L376.7,32.8    L377.4,32.6 L378.1,32.5 L378.7,32.3 L379.4,32.2 L380.1,32.1 L380.8,31.9 L381.5,31.8 L382.2,31.7    L382.9,31.5 L383.6,31.4 L384.2,31.3 L384.9,31.1 L385.6,31.0 L386.3,30.9 L387.0,30.7 L387.7,30.6    L388.4,30.5 L389.1,30.3 L389.8,30.2 L390.4,30.1 L391.1,29.9 L391.8,29.8 L392.5,29.7 L393.2,29.6    L393.9,29.4 L394.6,29.3 L395.3,29.2 L395.9,29.1 L396.6,29.0 L397.3,28.8 L398.0,28.7 L398.7,28.6    L399.4,28.5 L400.1,28.4 L400.8,28.3 L401.5,28.1 L402.1,28.0 L402.8,27.9 L403.5,27.8 L404.2,27.7    L404.9,27.6 L405.6,27.5 L406.3,27.4 L407.0,27.3 L407.7,27.2 L408.3,27.1 L409.0,27.0 L409.7,26.9    L410.4,26.8 L411.1,26.7 L411.8,26.6 L412.5,26.6 L413.2,26.5 L413.8,26.4 L414.5,26.3 L415.2,26.2    L415.9,26.1 L416.6,26.1 L417.3,26.0 L418.0,25.9 L418.7,25.8 L419.4,25.8 L420.0,25.7 L420.7,25.6    L421.4,25.6 L422.1,25.5 L422.8,25.4 L423.5,25.4 L424.2,25.3 L424.9,25.2 L425.6,25.2 L426.2,25.1    L426.9,25.1 L427.6,25.0 L428.3,25.0 L429.0,24.9 L429.7,24.9 L430.4,24.8 L431.1,24.8 L431.7,24.7    L432.4,24.7 L433.1,24.7 L433.8,24.6 L434.5,24.6 L435.2,24.5 L435.9,24.5 L436.6,24.5 L437.3,24.4    L437.9,24.4 L438.6,24.4 L439.3,24.3 L440.0,24.3 L440.7,24.3 L441.4,24.3 L442.1,24.2 L442.8,24.2    L443.4,24.2 L444.1,24.2 L444.8,24.1 L445.5,24.1 L446.2,24.1 L446.9,24.1 L447.6,24.1 L448.3,24.1    L449.0,24.1 L449.6,24.0 L450.3,24.0 L451.0,24.0 L451.7,24.0 L452.4,24.0 L453.1,24.0 L453.8,24.0    L454.5,24.0 L455.2,24.0 L455.8,24.0 L456.5,24.0 L457.2,24.0 L457.9,24.0 L458.6,24.0 L459.3,24.0    L460.0,24.0 L460.7,24.0 L461.3,24.0 L462.0,24.0 L462.7,24.0 L463.4,24.0 L464.1,24.0 L464.8,24.0    L465.5,24.0 L466.2,24.0 L466.9,24.0 L467.5,24.0 L468.2,24.0 L468.9,24.0 L469.6,24.0 L470.3,24.1    L471.0,24.1 L471.7,24.1 L472.4,24.1 L473.1,24.1 L473.7,24.1 L474.4,24.1 L475.1,24.1 L475.8,24.1    L476.5,24.1 L477.2,24.2 L477.9,24.2 L478.6,24.2 L479.2,24.2 L479.9,24.2 L480.6,24.2 L481.3,24.2    L482.0,24.2 L482.7,24.3 L483.4,24.3 L484.1,24.3 L484.8,24.3 L485.4,24.3 L486.1,24.3 L486.8,24.3    L487.5,24.4 L488.2,24.4 L488.9,24.4 L489.6,24.4 L490.3,24.4 L490.9,24.4 L491.6,24.4 L492.3,24.5    L493.0,24.5 L493.7,24.5 L494.4,24.5 L495.1,24.5 L495.8,24.5 L496.5,24.5 L497.1,24.5 L497.8,24.6    L498.5,24.6 L499.2,24.6 L499.9,24.6 L500.6,24.6 L501.3,24.6 L502.0,24.6 L502.7,24.6 L503.3,24.7    L504.0,24.7 L504.7,24.7 L505.4,24.7 L506.1,24.7 L506.8,24.7 L507.5,24.7 L508.2,24.7 L508.8,24.7    L509.5,24.7 L510.2,24.8 L510.9,24.8 L511.6,24.8 L512.3,24.8 L513.0,24.8 L513.7,24.8 L514.4,24.8    L515.0,24.8 L515.7,24.8 L516.4,24.8 L517.1,24.8 L517.8,24.8 L518.5,24.8 L519.2,24.8 L519.9,24.9    L520.5,24.9 L521.2,24.9 L521.9,24.9 L522.6,24.9 L523.3,24.9 L524.0,24.9 L524.7,24.9 L525.4,24.9    L526.1,24.9 L526.7,24.9 L527.4,24.9 L528.1,24.9 L528.8,24.9 L529.5,24.9 L530.2,24.9 L530.9,24.9    L531.6,24.9 L532.3,24.9 L532.9,24.9 L533.6,24.9 L534.3,24.9 L535.0,24.9 L535.7,24.9 L536.4,24.9    L537.1,24.9 L537.8,24.9 L538.4,24.9 L539.1,24.9 L539.8,24.9 L540.5,24.9 L541.2,24.9 L541.9,24.9    L542.6,24.9 L543.3,24.9 L544.0,24.9 L544.6,24.9 L545.3,24.9 L546.0,24.9 L546.7,24.9 L547.4,24.9    L548.1,24.9 L548.8,24.9 L549.5,24.9 L550.2,24.9 L550.8,24.9 L551.5,24.9 L552.2,24.9 L552.9,24.9    L553.6,24.9 L554.3,24.9 L555.0,24.9 L555.7,24.9 L556.3,24.9 L557.0,24.9 L557.7,24.9 L558.4,24.9    L559.1,24.8  h0.01"
           id="path266"
           style="stroke-width:1.5;stroke-miterlimit:4;stroke-dasharray:3,1.5;stroke-dashoffset:0" />
      </g>
    </g>
    <g
       id="gnuplot_plot_2a"
       style="stroke-width:1.5;stroke-miterlimit:4;stroke-dasharray:none">
      <title
         id="title269">gnuplot_plot_2a</title>
      <g
         style="fill:none;color:red;stroke:currentColor;stroke-width:1.5;stroke-linecap:butt;stroke-linejoin:miter;stroke-miterlimit:4;stroke-dasharray:none"
         id="g271">
        <g
           transform="translate(553.5,385.3)"
           style="stroke:none;fill:rgb(0, 0, 0);font-size:10pt;text-anchor:end;stroke-width:1.5;stroke-miterlimit:4;stroke-dasharray:none"
           id="g273">
          <text
             id="text275"
             style="stroke-width:1.5;stroke-miterlimit:4;stroke-dasharray:none">
            <tspan
               id="tspan277"
               style="stroke-width:1.5;stroke-miterlimit:4;stroke-dasharray:none">Mesures</tspan>
          </text>
        </g>
        <path
           stroke="rgb(  0,   0,   0)"
           d="M463.5,381.6 L491.9,381.6 M42.8,68.8 L42.9,64.7 L43.1,72.9 L43.2,68.5 L43.4,70.4 L43.5,72.8    L43.6,75.3 L43.8,66.4 L43.9,76.4 L44.0,76.8 L44.2,74.1 L44.3,71.5 L44.5,70.4 L44.6,81.4    L44.7,75.5 L44.9,70.0 L45.0,69.4 L45.1,74.7 L45.3,84.7 L45.4,78.2 L45.6,72.5 L45.7,76.0    L45.8,75.9 L46.0,81.7 L46.1,81.5 L46.2,74.7 L46.4,75.9 L46.5,76.2 L46.7,79.5 L46.8,75.2    L46.9,75.7 L47.1,81.1 L47.2,76.4 L47.3,78.9 L47.5,78.1 L47.6,79.7 L47.8,75.7 L47.9,73.9    L48.0,78.6 L48.2,78.7 L48.3,77.8 L48.4,74.2 L48.6,76.0 L48.7,82.2 L48.9,77.6 L49.0,77.4    L49.1,75.2 L49.3,74.9 L49.4,78.7 L49.5,73.6 L49.7,77.7 L49.8,74.6 L50.0,75.3 L50.1,81.0    L50.2,79.2 L50.4,71.2 L50.5,76.2 L50.6,79.2 L50.8,75.2 L50.9,71.6 L51.1,72.9 L51.2,76.6    L51.3,72.2 L51.5,75.1 L51.6,77.5 L51.7,73.0 L51.9,69.8 L52.0,70.7 L52.2,75.6 L52.3,72.5    L52.4,74.2 L52.6,70.9 L52.7,71.5 L52.9,73.1 L53.0,68.5 L53.1,66.0 L53.3,71.1 L53.4,65.9    L53.5,69.3 L53.7,62.4 L53.8,64.9 L54.0,67.7 L54.1,67.9 L54.2,60.1 L54.4,61.8 L54.5,67.6    L54.6,65.0 L54.8,65.2 L54.9,66.3 L55.1,64.1 L55.2,64.4 L55.3,59.6 L55.5,61.1 L55.6,64.2    L55.7,56.1 L55.9,60.3 L56.0,60.7 L56.2,61.6 L56.3,59.5 L56.4,57.9 L56.6,59.5 L56.7,58.7    L56.8,59.4 L57.0,60.4 L57.1,55.6 L57.3,53.9 L57.4,56.4 L57.5,53.8 L57.7,52.8 L57.8,56.6    L57.9,50.6 L58.1,53.7 L58.2,55.4 L58.4,52.8 L58.5,55.0 L58.6,52.5 L58.8,48.9 L58.9,55.9    L59.0,50.3 L59.2,52.5 L59.3,51.4 L59.5,43.7 L59.6,51.8 L59.7,54.6 L59.9,52.5 L60.0,53.6    L60.1,55.0 L60.3,51.7 L60.4,50.4 L60.6,47.2 L60.7,52.7 L60.8,49.5 L61.0,45.3 L61.1,50.0    L61.2,49.6 L61.4,46.5 L61.5,49.4 L61.7,48.4 L61.8,50.6 L61.9,50.7 L62.1,54.2 L62.2,45.0    L62.4,45.7 L62.5,44.3 L62.6,49.3 L62.8,50.2 L62.9,49.1 L63.0,51.4 L63.2,53.7 L63.3,51.7    L63.5,46.1 L63.6,45.4 L63.7,48.1 L63.9,46.6 L64.0,44.1 L64.1,52.1 L64.3,55.5 L64.4,50.2    L64.6,51.1 L64.7,55.5 L64.8,49.8 L65.0,50.2 L65.1,47.5 L65.2,49.4 L65.4,50.6 L65.5,53.5    L65.7,59.3 L65.8,52.0 L65.9,54.5 L66.1,58.6 L66.2,51.1 L66.3,51.3 L66.5,48.0 L66.6,55.6    L66.8,58.1 L66.9,47.9 L67.0,53.1 L67.2,60.4 L67.3,52.8 L67.4,51.0 L67.6,49.6 L67.7,52.4    L67.9,55.1 L68.0,58.3 L68.1,57.4 L68.3,51.7 L68.4,58.8 L68.5,60.1 L68.7,52.8 L68.8,56.3    L69.0,60.4 L69.1,56.2 L69.2,57.5 L69.4,56.2 L69.5,61.1 L69.6,60.0 L69.8,57.9 L69.9,62.8    L70.1,64.3 L70.2,58.3 L70.3,57.3 L70.5,61.3 L70.6,62.5 L70.7,55.3 L70.9,61.1 L71.0,61.2    L71.2,60.2 L71.3,66.6 L71.4,62.1 L71.6,54.6 L71.7,64.8 L71.9,62.3 L72.0,59.5 L72.1,59.5    L72.3,53.8 L72.4,54.4 L72.5,56.1 L72.7,59.8 L72.8,59.7 L73.0,62.8 L73.1,66.7 L73.2,64.3    L73.4,58.9 L73.5,57.6 L73.6,59.1 L73.8,65.7 L73.9,59.8 L74.1,63.9 L74.2,58.6 L74.3,56.9    L74.5,60.3 L74.6,60.3 L74.7,64.3 L74.9,69.0 L75.0,66.1 L75.2,63.5 L75.3,63.6 L75.4,64.6    L75.6,63.1 L75.7,66.4 L75.8,63.0 L76.0,63.4 L76.1,65.3 L76.3,66.2 L76.4,61.1 L76.5,62.4    L76.7,61.7 L76.8,69.7 L76.9,61.8 L77.1,62.4 L77.2,63.3 L77.4,70.0 L77.5,65.3 L77.6,65.5    L77.8,62.6 L77.9,65.4 L78.0,66.0 L78.2,69.2 L78.3,67.1 L78.5,68.3 L78.6,61.6 L78.7,65.8    L78.9,70.3 L79.0,67.5 L79.1,68.6 L79.3,69.4 L79.4,68.4 L79.6,66.7 L79.7,71.3 L79.8,69.1    L80.0,70.4 L80.1,67.5 L80.2,70.8 L80.4,69.9 L80.5,73.6 L80.7,73.1 L80.8,73.2 L80.9,69.3    L81.1,74.1 L81.2,72.6 L81.4,71.7 L81.5,73.6 L81.6,75.2 L81.8,75.4 L81.9,75.0 L82.0,75.6    L82.2,73.2 L82.3,74.4 L82.5,76.8 L82.6,76.8 L82.7,76.6 L82.9,77.2 L83.0,77.4 L83.1,77.2    L83.3,78.7 L83.4,77.6 L83.6,79.5 L83.7,82.0 L83.8,80.4 L84.0,80.8 L84.1,84.8 L84.2,84.3    L84.4,84.0 L84.5,81.8 L84.7,82.5 L84.8,83.9 L84.9,84.9 L85.1,81.6 L85.2,83.9 L85.3,88.4    L85.5,86.0 L85.6,85.2 L85.8,88.8 L85.9,86.7 L86.0,85.4 L86.2,86.8 L86.3,87.5 L86.4,89.9    L86.6,94.0 L86.7,88.7 L86.9,89.1 L87.0,91.1 L87.1,88.9 L87.3,91.1 L87.4,91.4 L87.5,89.7    L87.7,89.8 L87.8,94.9 L88.0,94.4 L88.1,95.8 L88.2,97.0 L88.4,94.6 L88.5,97.4 L88.6,98.1    L88.8,95.2 L88.9,97.3 L89.1,97.1 L89.2,93.4 L89.3,97.1 L89.5,96.0 L89.6,96.6 L89.7,100.8    L89.9,99.7 L90.0,98.5 L90.2,99.1 L90.3,102.6 L90.4,101.4 L90.6,101.3 L90.7,101.2 L90.9,101.2    L91.0,107.0 L91.1,105.0 L91.3,101.7 L91.4,106.1 L91.5,107.2 L91.7,103.8 L91.8,108.4 L92.0,108.4    L92.1,109.0 L92.2,110.1 L92.4,107.7 L92.5,106.4 L92.6,108.4 L92.8,107.4 L92.9,109.1 L93.1,111.5    L93.2,109.4 L93.3,112.2 L93.5,111.9 L93.6,110.6 L93.7,113.0 L93.9,114.4 L94.0,114.1 L94.2,114.0    L94.3,115.4 L94.4,114.6 L94.6,117.5 L94.7,116.4 L94.8,117.8 L95.0,119.6 L95.1,117.2 L95.3,114.6    L95.4,120.7 L95.5,121.3 L95.7,119.3 L95.8,120.2 L95.9,118.5 L96.1,118.9 L96.2,121.8 L96.4,119.2    L96.5,121.3 L96.6,123.8 L96.8,123.2 L96.9,127.1 L97.0,125.0 L97.2,124.4 L97.3,126.1 L97.5,124.7    L97.6,124.7 L97.7,128.5 L97.9,125.6 L98.0,127.1 L98.1,128.0 L98.3,127.6 L98.4,128.0 L98.6,130.6    L98.7,130.4 L98.8,132.0 L99.0,130.9 L99.1,126.2 L99.2,131.7 L99.4,132.6 L99.5,131.0 L99.7,134.9    L99.8,132.6 L99.9,134.4 L100.1,138.0 L100.2,134.5 L100.4,135.9 L100.5,136.2 L100.6,134.4 L100.8,138.2    L100.9,139.9 L101.0,137.7 L101.2,141.3 L101.3,140.3 L101.5,139.8 L101.6,142.7 L101.7,141.0 L101.9,143.1    L102.0,144.9 L102.1,141.5 L102.3,144.3 L102.4,143.4 L102.6,142.2 L102.7,146.2 L102.8,144.0 L103.0,142.5    L103.1,146.9 L103.2,145.2 L103.4,146.2 L103.5,149.1 L103.7,145.6 L103.8,150.0 L103.9,149.4 L104.1,147.8    L104.2,149.3 L104.3,146.7 L104.5,148.1 L104.6,151.9 L104.8,148.5 L104.9,150.8 L105.0,151.4 L105.2,150.5    L105.3,153.2 L105.4,151.2 L105.6,150.6 L105.7,152.7 L105.9,150.9 L106.0,153.4 L106.1,152.7 L106.3,153.1    L106.4,155.2 L106.5,152.0 L106.7,152.6 L106.8,157.5 L107.0,153.3 L107.1,154.6 L107.2,156.8 L107.4,153.5    L107.5,156.7 L107.6,156.6 L107.8,154.4 L107.9,158.1 L108.1,155.9 L108.2,157.0 L108.3,157.9 L108.5,155.6    L108.6,158.4 L108.7,157.7 L108.9,157.6 L109.0,159.2 L109.2,156.1 L109.3,157.5 L109.4,159.1 L109.6,156.9    L109.7,159.7 L109.9,158.8 L110.0,160.3 L110.1,161.5 L110.3,159.1 L110.4,160.1 L110.5,159.6 L110.7,158.8    L110.8,161.3 L111.0,158.6 L111.1,160.1 L111.2,159.7 L111.4,157.7 L111.5,161.0 L111.6,159.8 L111.8,158.6    L111.9,161.1 L112.1,158.0 L112.2,159.9 L112.3,159.8 L112.5,157.9 L112.6,159.8 L112.7,158.9 L112.9,159.2    L113.0,160.2 L113.2,158.7 L113.3,160.0 L113.4,159.3 L113.6,156.7 L113.7,159.0 L113.8,157.0 L114.0,157.7    L114.1,158.3 L114.3,157.9 L114.4,157.6 L114.5,155.5 L114.7,158.6 L114.8,158.0 L114.9,156.0 L115.1,158.2    L115.2,155.5 L115.4,157.1 L115.5,157.3 L115.6,155.0 L115.8,158.3 L115.9,157.2 L116.0,156.2 L116.2,157.9    L116.3,155.1 L116.5,157.2 L116.6,156.9 L116.7,155.4 L116.9,157.4 L117.0,153.8 L117.1,155.5 L117.3,155.1    L117.4,154.3 L117.6,157.6 L117.7,154.9 L117.8,156.9 L118.0,156.1 L118.1,155.7 L118.2,158.4 L118.4,156.3    L118.5,158.0 L118.7,158.8 L118.8,158.1 L118.9,159.9 L119.1,158.8 L119.2,161.5 L119.4,160.9 L119.5,160.1    L119.6,165.3 L119.8,163.4 L119.9,166.4 L120.0,166.8 L120.2,166.0 L120.3,170.9 L120.5,168.7 L120.6,173.3    L120.7,174.3 L120.9,174.5 L121.0,178.7 L121.1,177.7 L121.3,181.2 L121.4,182.3 L121.6,182.8 L121.7,187.2    L121.8,187.3 L122.0,191.7 L122.1,192.3 L122.2,193.2 L122.4,198.4 L122.5,196.1 L122.7,202.3 L122.8,203.0    L122.9,205.0 L123.1,210.5 L123.2,209.1 L123.3,214.6 L123.5,214.8 L123.6,217.6 L123.8,223.3 L123.9,221.6    L124.0,227.3 L124.2,226.8 L124.3,230.0 L124.4,234.5 L124.6,232.8 L124.7,238.1 L124.9,238.4 L125.0,241.4    L125.1,245.5 L125.3,245.0 L125.4,251.1 L125.5,250.0 L125.7,254.4 L125.8,255.3 L126.0,256.2 L126.1,261.4    L126.2,259.9 L126.4,264.3 L126.5,266.5 L126.6,265.8 L126.8,271.5 L126.9,269.1 L127.1,274.9 L127.2,274.4    L127.3,276.2 L127.5,279.9 L127.6,277.2 L127.7,282.6 L127.9,282.5 L128.0,283.7 L128.2,287.5 L128.3,285.3    L128.4,290.0 L128.6,288.4 L128.7,291.9 L128.9,292.9 L129.0,292.8 L129.1,296.7 L129.3,294.4 L129.4,298.9    L129.5,297.5 L129.7,300.3 L129.8,302.7 L130.0,299.5 L130.1,305.2 L130.2,301.6 L130.4,306.3 L130.5,305.3    L130.6,306.5 L130.8,310.8 L130.9,308.3 L131.1,312.7 L131.2,310.6 L131.3,315.0 L131.5,315.4 L131.6,315.8    L131.7,319.4 L131.9,317.8 L132.0,322.6 L132.2,321.4 L132.3,325.1 L132.4,328.2 L132.6,327.2 L132.7,333.5    L132.8,330.7 L133.0,336.7 L133.1,336.9 L133.3,338.9 L133.4,341.5 L133.5,341.6 L133.7,347.7 L133.8,345.3    L133.9,351.2 L134.1,352.0 L134.2,353.6 L134.4,357.4 L134.5,356.6 L134.6,361.7 L134.8,361.1 L134.9,366.0    L135.0,365.3 L135.2,368.7 L135.3,370.7 L135.5,369.6 L135.6,375.2 L135.7,372.2 L135.9,378.1 L136.0,377.4    L136.1,379.4 L136.3,380.6 L136.4,380.8 L136.6,384.4 L136.7,382.1 L136.8,386.7 L137.0,384.2 L137.1,387.2    L137.2,387.7 L137.4,386.3 L137.5,390.7 L137.7,387.4 L137.8,392.0 L137.9,390.0 L138.1,391.4 L138.2,390.9    L138.3,389.4 L138.5,392.8 L138.6,389.5 L138.8,393.0 L138.9,390.1 L139.0,391.1 L139.2,392.4 L139.3,391.0    L139.5,392.0 L139.6,391.6 L139.7,392.0 L139.9,392.1 L140.0,390.6 L140.1,390.8 L140.3,390.8 L140.4,391.0    L140.6,391.3 L140.7,391.7 L140.8,392.3 L141.0,392.0 L141.1,391.9 L141.2,390.6 L141.4,390.6 L141.5,390.7    L141.7,391.4 L141.8,391.3 L141.9,391.4 L142.1,391.9 L142.2,392.0 L142.3,391.4 L142.5,391.2 L142.6,391.6    L142.8,391.8 L142.9,390.9 L143.0,391.9 L143.2,391.5 L143.3,391.8 L143.4,391.2 L143.6,390.5 L143.7,391.7    L143.9,391.2 L144.0,391.4 L144.1,391.7 L144.3,390.8 L144.4,392.1 L144.5,390.7 L144.7,392.2 L144.8,390.6    L145.0,391.7 L145.1,391.7 L145.2,391.8 L145.4,392.3 L145.5,391.1 L145.6,392.0 L145.8,392.3 L145.9,392.5    L146.1,391.7 L146.2,391.9 L146.3,392.3 L146.5,391.5 L146.6,391.9 L146.7,390.9 L146.9,392.9 L147.0,391.9    L147.2,391.8 L147.3,391.5 L147.4,391.5 L147.6,391.7 L147.7,392.1 L147.8,392.0 L148.0,390.2 L148.1,392.2    L148.3,392.1 L148.4,391.2 L148.5,391.4 L148.7,391.5 L148.8,391.6 L149.0,392.4 L149.1,392.0 L149.2,391.6    L149.4,391.6 L149.5,391.7 L149.6,392.2 L149.8,391.9 L149.9,393.3 L150.1,392.8 L150.2,392.8 L150.3,393.1    L150.5,392.1 L150.6,392.7 L150.7,392.3 L150.9,392.7 L151.0,392.4 L151.2,392.3 L151.3,392.5 L151.4,392.5    L151.6,392.3 L151.7,392.4 L151.8,392.8 L152.0,391.6 L152.1,392.0 L152.3,392.3 L152.4,392.6 L152.5,391.8    L152.7,392.6 L152.8,392.0 L152.9,392.3 L153.1,392.5 L153.2,392.2 L153.4,392.5 L153.5,391.7 L153.6,392.5    L153.8,392.2 L153.9,392.6 L154.0,391.6 L154.2,391.7 L154.3,392.2 L154.5,391.9 L154.6,392.6 L154.7,391.7    L154.9,392.7 L155.0,391.8 L155.1,392.5 L155.3,392.3 L155.4,392.5 L155.6,392.4 L155.7,392.0 L155.8,392.9    L156.0,393.0 L156.1,392.4 L156.2,391.8 L156.4,392.7 L156.5,392.3 L156.7,392.7 L156.8,392.3 L156.9,392.8    L157.1,393.2 L157.2,392.1 L157.3,392.6 L157.5,392.5 L157.6,392.7 L157.8,392.0 L157.9,392.9 L158.0,392.1    L158.2,392.7 L158.3,392.5 L158.5,392.7 L158.6,392.9 L158.7,392.5 L158.9,391.8 L159.0,392.6 L159.1,392.7    L159.3,392.2 L159.4,392.9 L159.6,392.4 L159.7,392.5 L159.8,392.2 L160.0,392.7 L160.1,392.4 L160.2,393.2    L160.4,392.2 L160.5,393.0 L160.7,392.2 L160.8,392.6 L160.9,392.6 L161.1,392.8 L161.2,392.5 L161.3,392.6    L161.5,392.6 L161.6,392.0 L161.8,392.9 L161.9,392.1 L162.0,392.7 L162.2,392.1 L162.3,393.2 L162.4,392.2    L162.6,393.2 L162.7,392.2 L162.9,392.8 L163.0,392.1 L163.1,393.0 L163.3,392.7 L163.4,392.4 L163.5,392.7    L163.7,392.2 L163.8,393.2 L164.0,392.4 L164.1,393.3 L164.2,392.3 L164.4,393.3 L164.5,392.4 L164.6,393.0    L164.8,392.4 L164.9,393.0 L165.1,392.6 L165.2,392.5 L165.3,392.6 L165.5,392.4 L165.6,392.7 L165.7,392.6    L165.9,392.7 L166.0,392.1 L166.2,392.7 L166.3,391.9 L166.4,392.8 L166.6,391.8 L166.7,392.9 L166.8,391.9    L167.0,392.8 L167.1,391.8 L167.3,392.4 L167.4,392.1 L167.5,392.0 L167.7,392.3 L167.8,391.9 L168.0,392.4    L168.1,391.6 L168.2,392.3 L168.4,391.6 L168.5,392.4 L168.6,391.5 L168.8,392.3 L168.9,391.3 L169.1,392.2    L169.2,391.5 L169.3,392.1 L169.5,391.7 L169.6,391.9 L169.7,391.7 L169.9,391.6 L170.0,391.5 L170.2,391.6    L170.3,391.8 L170.4,391.2 L170.6,391.7 L170.7,391.1 L170.8,391.9 L171.0,391.1 L171.1,391.8 L171.3,391.0    L171.4,391.6 L171.5,390.9 L171.7,391.4 L171.8,390.9 L171.9,391.2 L172.1,390.9 L172.2,391.0 L172.4,391.0    L172.5,391.1 L172.6,391.0 L172.8,390.9 L172.9,390.8 L173.0,390.6 L173.2,390.8 L173.3,390.5 L173.5,390.8    L173.6,390.6 L173.7,390.8 L173.9,390.4 L174.0,390.8 L174.1,390.4 L174.3,390.8 L174.4,390.2 L174.6,390.5    L174.7,390.2 L174.8,390.5 L175.0,390.2 L175.1,390.3 L175.2,390.0 L175.4,390.2 L175.5,390.0 L175.7,390.1    L175.8,390.0 L175.9,389.9 L176.1,389.8 L176.2,389.8 L176.3,389.8 L176.5,389.7 L176.6,389.6 L176.8,389.5    L176.9,389.5 L177.0,389.3 L177.2,389.2 L177.3,389.0 L177.5,388.9 L177.6,388.6 L177.7,388.5 L177.9,388.2    L178.0,388.1 L178.1,387.8 L178.3,387.6 L178.4,387.4 L178.6,387.3 L178.7,387.0 L178.8,387.0 L179.0,386.6    L179.1,386.6 L179.2,386.2 L179.4,386.3 L179.5,385.8 L179.7,386.0 L179.8,385.6 L179.9,385.6 L180.1,385.4    L180.2,385.4 L180.3,385.2 L180.5,385.3 L180.6,385.0 L180.8,385.2 L180.9,384.8 L181.0,385.0 L181.2,384.8    L181.3,385.0 L181.4,384.7 L181.6,384.9 L181.7,384.5 L181.9,384.7 L182.0,384.2 L182.1,384.5 L182.3,384.0    L182.4,384.3 L182.5,383.7 L182.7,384.1 L182.8,383.7 L183.0,384.0 L183.1,383.6 L183.2,383.8 L183.4,383.4    L183.5,383.8 L183.6,383.2 L183.8,383.7 L183.9,383.1 L184.1,383.5 L184.2,382.9 L184.3,383.3 L184.5,382.7    L184.6,383.2 L184.7,382.6 L184.9,382.7 L185.0,382.3 L185.2,382.4 L185.3,382.1 L185.4,382.4 L185.6,382.1    L185.7,382.3 L185.8,381.9 L186.0,382.0 L186.1,381.9 L186.3,381.9 L186.4,382.0 L186.5,382.0 L186.7,381.4    L186.8,381.5 L187.0,381.2 L187.1,381.3 L187.2,381.5 L187.4,381.1 L187.5,380.8 L187.6,380.6 L187.8,380.6    L187.9,380.4 L188.1,380.9 L188.2,380.3 L188.3,380.8 L188.5,380.0 L188.6,380.5 L188.7,380.2 L188.9,380.3    L189.0,380.0 L189.2,379.7 L189.3,379.6 L189.4,379.6 L189.6,379.5 L189.7,379.7 L189.8,379.1 L190.0,379.1    L190.1,379.0 L190.3,379.4 L190.4,378.4 L190.5,379.2 L190.7,378.2 L190.8,379.1 L190.9,377.8 L191.1,378.9    L191.2,377.7 L191.4,378.9 L191.5,377.0 L191.6,378.2 L191.8,377.7 L191.9,378.0 L192.0,377.8 L192.2,377.6    L192.3,377.0 L192.5,377.5 L192.6,377.0 L192.7,377.6 L192.9,377.0 L193.0,376.8 L193.1,376.2 L193.3,376.8    L193.4,376.0 L193.6,377.0 L193.7,375.6 L193.8,376.3 L194.0,375.0 L194.1,376.4 L194.2,375.1 L194.4,376.4    L194.5,374.8 L194.7,375.3 L194.8,374.8 L194.9,374.4 L195.1,374.8 L195.2,375.0 L195.3,374.0 L195.5,374.2    L195.6,374.3 L195.8,374.0 L195.9,374.3 L196.0,372.7 L196.2,373.6 L196.3,372.8 L196.5,373.4 L196.6,372.8    L196.7,372.7 L196.9,372.4 L197.0,371.9 L197.1,372.0 L197.3,371.4 L197.4,371.9 L197.6,371.6 L197.7,371.2    L197.8,371.3 L198.0,371.2 L198.1,371.0 L198.2,370.6 L198.4,370.6 L198.5,369.8 L198.7,370.4 L198.8,369.7    L198.9,370.5 L199.1,368.3 L199.2,369.9 L199.3,368.0 L199.5,369.9 L199.6,367.3 L199.8,368.4 L199.9,367.1    L200.0,368.0 L200.2,367.4 L200.3,367.7 L200.4,366.6 L200.6,366.9 L200.7,365.8 L200.9,367.0 L201.0,365.6    L201.1,366.2 L201.3,365.0 L201.4,366.5 L201.5,364.0 L201.7,364.9 L201.8,364.1 L202.0,364.4 L202.1,363.2    L202.2,362.7 L202.4,363.6 L202.5,362.4 L202.6,362.6 L202.8,362.1 L202.9,362.2 L203.1,361.8 L203.2,361.7    L203.3,361.1 L203.5,361.4 L203.6,360.6 L203.7,360.8 L203.9,360.1 L204.0,359.9 L204.2,359.4 L204.3,359.8    L204.4,358.5 L204.6,358.8 L204.7,357.5 L204.8,358.2 L205.0,356.8 L205.1,357.2 L205.3,357.3 L205.4,356.6    L205.5,355.2 L205.7,356.9 L205.8,355.8 L206.0,356.2 L206.1,354.6 L206.2,355.1 L206.4,355.1 L206.5,354.5    L206.6,354.8 L206.8,353.9 L206.9,353.4 L207.1,353.4 L207.2,353.8 L207.3,352.8 L207.5,353.2 L207.6,352.1    L207.7,352.4 L207.9,350.8 L208.0,352.2 L208.2,352.1 L208.3,351.5 L208.4,350.5 L208.6,352.5 L208.7,350.6    L208.8,350.6 L209.0,348.6 L209.1,350.6 L209.3,349.5 L209.4,349.0 L209.5,348.9 L209.7,349.3 L209.8,349.3    L209.9,349.5 L210.1,348.8 L210.2,348.0 L210.4,348.0 L210.5,347.8 L210.6,348.5 L210.8,345.3 L210.9,347.9    L211.0,345.9 L211.2,347.5 L211.3,346.0 L211.5,347.5 L211.6,344.7 L211.7,346.7 L211.9,346.1 L212.0,346.2    L212.1,345.2 L212.3,345.6 L212.4,346.0 L212.6,345.6 L212.7,345.6 L212.8,344.9 L213.0,344.5 L213.1,343.7    L213.2,344.5 L213.4,343.7 L213.5,343.7 L213.7,343.3 L213.8,345.3 L213.9,341.3 L214.1,345.2 L214.2,342.4    L214.3,344.1 L214.5,340.9 L214.6,343.6 L214.8,341.6 L214.9,340.9 L215.0,341.9 L215.2,342.0 L215.3,342.1    L215.5,340.3 L215.6,341.9 L215.7,339.2 L215.9,341.8 L216.0,339.0 L216.1,339.8 L216.3,339.1 L216.4,340.3    L216.6,338.5 L216.7,339.4 L216.8,337.0 L217.0,340.5 L217.1,336.4 L217.2,338.1 L217.4,338.2 L217.5,337.3    L217.7,337.5 L217.8,336.7 L217.9,338.4 L218.1,336.1 L218.2,337.0 L218.3,335.1 L218.5,337.1 L218.6,334.5    L218.8,336.8 L218.9,334.1 L219.0,335.5 L219.2,334.1 L219.3,335.2 L219.4,333.7 L219.6,334.9 L219.7,333.0    L219.9,333.0 L220.0,333.5 L220.1,332.2 L220.3,332.1 L220.4,329.7 L220.5,332.3 L220.7,330.5 L220.8,331.4    L221.0,328.6 L221.1,330.5 L221.2,329.5 L221.4,328.5 L221.5,329.5 L221.6,327.7 L221.8,328.2 L221.9,327.3    L222.1,328.1 L222.2,325.0 L222.3,326.8 L222.5,323.5 L222.6,326.7 L222.7,324.2 L222.9,325.1 L223.0,323.0    L223.2,323.9 L223.3,323.0 L223.4,321.6 L223.6,322.5 L223.7,321.2 L223.8,322.4 L224.0,319.5 L224.1,321.7    L224.3,317.7 L224.4,320.0 L224.5,317.7 L224.7,319.2 L224.8,316.0 L225.0,317.5 L225.1,316.1 L225.2,314.9    L225.4,314.6 L225.5,312.9 L225.6,314.7 L225.8,312.2 L225.9,313.1 L226.1,310.5 L226.2,312.1 L226.3,309.5    L226.5,310.9 L226.6,309.0 L226.7,308.1 L226.9,307.7 L227.0,307.2 L227.2,307.7 L227.3,304.4 L227.4,305.6    L227.6,303.9 L227.7,304.6 L227.8,301.9 L228.0,301.8 L228.1,301.8 L228.3,301.9 L228.4,300.7 L228.5,300.1    L228.7,299.1 L228.8,297.7 L228.9,299.1 L229.1,295.4 L229.2,296.7 L229.4,292.8 L229.5,295.8 L229.6,293.7    L229.8,292.9 L229.9,292.4 L230.0,291.7 L230.2,291.3 L230.3,289.1 L230.5,289.3 L230.6,288.6 L230.7,288.6    L230.9,285.9 L231.0,286.9 L231.1,284.6 L231.3,285.8 L231.4,283.4 L231.6,285.0 L231.7,283.6 L231.8,282.1    L232.0,283.4 L232.1,279.1 L232.2,280.6 L232.4,278.9 L232.5,279.6 L232.7,278.0 L232.8,278.9 L232.9,276.4    L233.1,276.1 L233.2,276.5 L233.3,274.3 L233.5,275.8 L233.6,272.6 L233.8,273.8 L233.9,271.9 L234.0,272.0    L234.2,270.8 L234.3,270.2 L234.5,271.7 L234.6,268.2 L234.7,269.4 L234.9,266.8 L235.0,269.0 L235.1,266.0    L235.3,266.6 L235.4,266.2 L235.6,264.9 L235.7,264.2 L235.8,262.2 L236.0,264.2 L236.1,260.8 L236.2,264.3    L236.4,260.0 L236.5,262.2 L236.7,258.4 L236.8,259.8 L236.9,257.9 L237.1,258.7 L237.2,258.6 L237.3,255.6    L237.5,259.3 L237.6,253.8 L237.8,257.1 L237.9,254.0 L238.0,255.1 L238.2,252.9 L238.3,252.5 L238.4,254.7    L238.6,250.2 L238.7,252.3 L238.9,249.3 L239.0,250.3 L239.1,248.8 L239.3,247.6 L239.4,248.4 L239.5,246.2    L239.7,248.0 L239.8,244.6 L240.0,246.5 L240.1,243.6 L240.2,246.8 L240.4,242.2 L240.5,243.6 L240.6,242.7    L240.8,240.3 L240.9,241.5 L241.1,238.4 L241.2,241.2 L241.3,236.9 L241.5,240.9 L241.6,236.1 L241.7,236.7    L241.9,235.7 L242.0,233.8 L242.2,236.2 L242.3,232.9 L242.4,234.4 L242.6,231.3 L242.7,231.9 L242.8,230.0    L243.0,228.9 L243.1,230.0 L243.3,227.2 L243.4,229.2 L243.5,225.3 L243.7,227.1 L243.8,223.9 L244.0,224.3    L244.1,223.0 L244.2,221.7 L244.4,222.7 L244.5,220.1 L244.6,222.5 L244.8,217.8 L244.9,219.2 L245.1,217.0    L245.2,216.4 L245.3,215.6 L245.5,213.6 L245.6,215.4 L245.7,211.5 L245.9,213.6 L246.0,209.7 L246.2,211.5    L246.3,209.3 L246.4,208.1 L246.6,210.1 L246.7,204.6 L246.8,207.1 L247.0,204.3 L247.1,204.6 L247.3,202.0    L247.4,202.3 L247.5,202.5 L247.7,198.5 L247.8,201.5 L247.9,198.2 L248.1,198.0 L248.2,195.8 L248.4,195.6    L248.5,195.1 L248.6,194.5 L248.8,194.2 L248.9,190.4 L249.0,191.9 L249.2,189.4 L249.3,190.3 L249.5,189.0    L249.6,187.8 L249.7,187.5 L249.9,184.8 L250.0,185.9 L250.1,181.3 L250.3,185.2 L250.4,181.2 L250.6,182.1    L250.7,181.2 L250.8,178.7 L251.0,179.5 L251.1,176.7 L251.2,178.0 L251.4,174.3 L251.5,176.2 L251.7,176.1    L251.8,171.1 L251.9,175.6 L252.1,170.6 L252.2,172.6 L252.3,168.3 L252.5,170.9 L252.6,169.2 L252.8,168.1    L252.9,167.3 L253.0,165.4 L253.2,167.1 L253.3,163.7 L253.5,163.8 L253.6,162.7 L253.7,163.3 L253.9,163.1    L254.0,159.0 L254.1,163.3 L254.3,159.5 L254.4,161.4 L254.6,157.1 L254.7,157.0 L254.8,159.4 L255.0,154.0    L255.1,157.1 L255.2,154.2 L255.4,155.8 L255.5,154.2 L255.7,152.2 L255.8,155.2 L255.9,150.0 L256.1,154.1    L256.2,150.5 L256.3,150.6 L256.5,150.4 L256.6,149.3 L256.8,150.8 L256.9,147.2 L257.0,150.4 L257.2,147.3    L257.3,147.2 L257.4,146.8 L257.6,147.1 L257.7,147.2 L257.9,142.3 L258.0,147.9 L258.1,143.7 L258.3,144.8    L258.4,144.0 L258.5,141.6 L258.7,146.3 L258.8,140.2 L259.0,144.4 L259.1,139.5 L259.2,142.6 L259.4,142.1    L259.5,137.8 L259.6,142.2 L259.8,137.6 L259.9,139.0 L260.1,139.3 L260.2,137.9 L260.3,137.6 L260.5,136.1    L260.6,138.1 L260.7,134.8 L260.9,136.9 L261.0,134.6 L261.2,135.4 L261.3,136.7 L261.4,132.5 L261.6,135.9    L261.7,131.7 L261.8,135.0 L262.0,132.9 L262.1,131.3 L262.3,133.2 L262.4,129.2 L262.5,133.0 L262.7,129.2    L262.8,129.1 L263.0,130.3 L263.1,128.6 L263.2,129.0 L263.4,125.8 L263.5,127.4 L263.6,126.5 L263.8,125.8    L263.9,127.6 L264.1,124.3 L264.2,126.7 L264.3,123.1 L264.5,126.8 L264.6,123.9 L264.7,122.2 L264.9,124.7    L265.0,121.7 L265.2,124.5 L265.3,119.8 L265.4,120.3 L265.6,120.7 L265.7,117.6 L265.8,120.9 L266.0,116.2    L266.1,119.6 L266.3,116.8 L266.4,116.1 L266.5,117.1 L266.7,113.9 L266.8,117.1 L266.9,113.6 L267.1,113.2    L267.2,114.3 L267.4,110.9 L267.5,113.9 L267.6,109.7 L267.8,112.2 L267.9,109.7 L268.0,108.6 L268.2,109.6    L268.3,106.3 L268.5,109.6 L268.6,106.9 L268.7,107.7 L268.9,107.0 L269.0,104.0 L269.1,106.9 L269.3,101.5    L269.4,103.7 L269.6,103.0 L269.7,100.6 L269.8,103.0 L270.0,99.1 L270.1,101.8 L270.2,99.8 L270.4,97.9    L270.5,97.7 L270.7,94.9 L270.8,98.9 L270.9,94.5 L271.1,95.8 L271.2,94.6 L271.3,92.6 L271.5,95.4    L271.6,90.8 L271.8,92.9 L271.9,91.0 L272.0,89.8 L272.2,91.8 L272.3,87.7 L272.5,89.8 L272.6,87.4    L272.7,87.5 L272.9,88.0 L273.0,84.3 L273.1,87.2 L273.3,83.1 L273.4,83.7 L273.6,84.3 L273.7,81.2    L273.8,84.3 L274.0,79.6 L274.1,81.5 L274.2,79.5 L274.4,78.1 L274.5,80.1 L274.7,76.0 L274.8,78.4    L274.9,76.7 L275.1,76.2 L275.2,78.4 L275.3,73.3 L275.5,76.8 L275.6,73.6 L275.8,73.9 L275.9,74.2    L276.0,71.8 L276.2,74.8 L276.3,70.8 L276.4,71.1 L276.6,71.6 L276.7,68.2 L276.9,71.4 L277.0,68.6    L277.1,69.3 L277.3,69.3 L277.4,66.0 L277.5,68.7 L277.7,64.8 L277.8,67.5 L278.0,66.0 L278.1,64.4    L278.2,67.3 L278.4,63.1 L278.5,65.2 L278.6,63.5 L278.8,62.9 L278.9,65.1 L279.1,60.8 L279.2,63.9    L279.3,61.8 L279.5,61.3 L279.6,63.4 L279.7,59.8 L279.9,62.3 L280.0,60.6 L280.2,60.4 L280.3,61.6    L280.4,58.2 L280.6,60.3 L280.7,57.9 L280.8,58.4 L281.0,59.4 L281.1,56.3 L281.3,59.5 L281.4,56.6    L281.5,57.4 L281.7,58.5 L281.8,55.0 L282.0,58.0 L282.1,56.1 L282.2,56.6 L282.4,56.7 L282.5,54.0    L282.6,56.4 L282.8,54.1 L282.9,56.6 L283.1,55.3 L283.2,53.1 L283.3,56.7 L283.5,53.8 L283.6,54.8    L283.7,55.0 L283.9,52.1 L284.0,55.1 L284.2,52.3 L284.3,54.1 L284.4,54.1 L284.6,51.9 L284.7,55.4    L284.8,52.0 L285.0,53.9 L285.1,53.9 L285.3,51.2 L285.4,54.5 L285.5,51.8 L285.7,53.3 L285.8,53.4    L285.9,51.7 L286.1,54.1 L286.2,51.7 L286.4,53.4 L286.5,52.8 L286.6,51.1 L286.8,53.6 L286.9,51.2    L287.0,52.2 L287.2,53.2 L287.3,51.1 L287.5,53.6 L287.6,51.1 L287.7,51.7 L287.9,52.6 L288.0,50.4    L288.1,53.1 L288.3,50.9 L288.4,52.2 L288.6,53.0 L288.7,50.3 L288.8,53.8 L289.0,52.1 L289.1,51.7    L289.2,53.1 L289.4,50.2 L289.5,53.4 L289.7,50.8 L289.8,51.3 L289.9,52.7 L290.1,49.9 L290.2,53.3    L290.3,52.4 L290.5,51.2 L290.6,52.6 L290.8,49.9 L290.9,52.4 L291.0,51.6 L291.2,51.2 L291.3,53.0    L291.5,50.3 L291.6,51.9 L291.7,51.5 L291.9,50.2 L292.0,52.6 L292.1,50.5 L292.3,51.9 L292.4,52.4    L292.6,50.0 L292.7,52.5 L292.8,51.1 L293.0,51.5 L293.1,52.0 L293.2,50.2 L293.4,52.9 L293.5,50.9    L293.7,50.9 L293.8,52.3 L293.9,50.2 L294.1,52.5 L294.2,51.5 L294.3,51.4 L294.5,53.3 L294.6,50.2    L294.8,52.7 L294.9,51.9 L295.0,51.0 L295.2,53.6 L295.3,51.1 L295.4,52.5 L295.6,52.6 L295.7,50.8    L295.9,52.5 L296.0,50.6 L296.1,51.5 L296.3,52.1 L296.4,50.0 L296.5,52.8 L296.7,51.3 L296.8,51.3    L297.0,52.8 L297.1,48.9 L297.2,51.9 L297.4,51.8 L297.5,50.8 L297.6,52.9 L297.8,50.6 L297.9,51.7    L298.1,51.7 L298.2,49.7 L298.3,52.7 L298.5,51.4 L298.6,51.4 L298.7,52.6 L298.9,50.2 L299.0,51.8    L299.2,51.1 L299.3,51.1 L299.4,52.6 L299.6,50.5 L299.7,52.0 L299.8,51.2 L300.0,50.4 L300.1,52.2    L300.3,50.3 L300.4,51.6 L300.5,52.1 L300.7,50.2 L300.8,52.2 L301.0,51.0 L301.1,51.4 L301.2,52.8    L301.4,49.9 L301.5,51.9 L301.6,51.5 L301.8,50.1 L301.9,51.9 L302.1,50.0 L302.2,50.8 L302.3,52.5    L302.5,50.4 L302.6,52.0 L302.7,51.4 L302.9,51.0 L303.0,51.8 L303.2,50.1 L303.3,51.5 L303.4,49.9    L303.6,49.8 L303.7,51.8 L303.8,49.8 L304.0,50.3 L304.1,50.6 L304.3,49.3 L304.4,51.2 L304.5,49.9    L304.7,49.6 L304.8,51.7 L304.9,48.5 L305.1,50.8 L305.2,50.8 L305.4,48.6 L305.5,50.7 L305.6,48.8    L305.8,49.3 L305.9,50.0 L306.0,48.3 L306.2,49.6 L306.3,49.0 L306.5,47.9 L306.6,50.0 L306.7,48.0    L306.9,48.7 L307.0,49.0 L307.1,47.3 L307.3,49.2 L307.4,47.4 L307.6,47.8 L307.7,48.8 L307.8,46.8    L308.0,48.4 L308.1,48.1 L308.2,46.7 L308.4,48.7 L308.5,46.7 L308.7,47.3 L308.8,48.1 L308.9,45.5    L309.1,47.2 L309.2,46.7 L309.3,45.2 L309.5,47.5 L309.6,45.4 L309.8,45.4 L309.9,45.8 L310.0,43.8    L310.2,45.4 L310.3,44.8 L310.4,43.7 L310.6,45.0 L310.7,42.8 L310.9,44.0 L311.0,44.4 L311.1,42.4    L311.3,44.6 L311.4,43.0 L311.6,42.6 L311.7,43.5 L311.8,41.5 L312.0,42.6 L312.1,43.3 L312.2,40.7    L312.4,42.7 L312.5,41.0 L312.7,40.9 L312.8,41.8 L312.9,39.7 L313.1,41.0 L313.2,41.1 L313.3,38.6    L313.5,40.6 L313.6,38.9 L313.8,38.8 L313.9,40.7 L314.0,38.5 L314.2,38.5 L314.3,38.2 L314.4,37.0    L314.6,38.4 L314.7,38.3 L314.9,37.1 L315.0,38.6 L315.1,36.9 L315.3,37.9 L315.4,37.9 L315.5,35.1    L315.7,37.4 L315.8,36.5 L316.0,35.6 L316.1,37.0 L316.2,34.8 L316.4,35.5 L316.5,36.0 L316.6,33.9    L316.8,35.7 L316.9,34.8 L317.1,34.3 L317.2,36.2 L317.3,34.5 L317.5,34.5 L317.6,35.7 L317.7,33.1    L317.9,34.3 L318.0,33.9 L318.2,32.6 L318.3,34.7 L318.4,33.0 L318.6,32.4 L318.7,34.0 L318.8,32.3    L319.0,33.7 L319.1,34.1 L319.3,31.9 L319.4,33.9 L319.5,32.9 L319.7,33.2 L319.8,34.2 L319.9,32.6    L320.1,33.6 L320.2,34.6 L320.4,32.0 L320.5,33.9 L320.6,33.9 L320.8,32.9 L320.9,34.3 L321.1,32.6    L321.2,33.3 L321.3,34.5 L321.5,32.9 L321.6,34.4 L321.7,34.2 L321.9,32.8 L322.0,34.7 L322.2,34.4    L322.3,33.4 L322.4,35.1 L322.6,34.4 L322.7,35.1 L322.8,36.4 L323.0,34.7 L323.1,35.8 L323.3,35.2    L323.4,34.6 L323.5,36.6 L323.7,35.2 L323.8,36.5 L323.9,37.8 L324.1,35.1 L324.2,37.1 L324.4,38.3    L324.5,35.8 L324.6,38.0 L324.8,38.7 L324.9,37.0 L325.0,38.7 L325.2,38.3 L325.3,37.6 L325.5,40.1    L325.6,38.8 L325.7,39.5 L325.9,40.6 L326.0,39.2 L326.1,40.5 L326.3,40.3 L326.4,40.7 L326.6,42.3    L326.7,41.2 L326.8,41.5 L327.0,42.5 L327.1,42.1 L327.2,44.0 L327.4,43.1 L327.5,41.9 L327.7,43.9    L327.8,43.3 L327.9,43.5 L328.1,45.6 L328.2,44.3 L328.3,44.0 L328.5,46.2 L328.6,44.0 L328.8,45.7    L328.9,46.6 L329.0,45.5 L329.2,46.6 L329.3,47.0 L329.4,46.0 L329.6,48.5 L329.7,47.0 L329.9,47.3    L330.0,48.2 L330.1,47.6 L330.3,48.3 L330.4,49.5 L330.6,48.6 L330.7,50.1 L330.8,49.3 L331.0,48.6    L331.1,51.0 L331.2,49.9 L331.4,49.5 L331.5,51.3 L331.7,50.2 L331.8,50.9 L331.9,51.3 L332.1,50.1    L332.2,51.4 L332.3,52.7 L332.5,50.3 L332.6,52.2 L332.8,52.3 L332.9,52.2 L333.0,52.7 L333.2,52.3    L333.3,52.7 L333.4,53.1 L333.6,53.0 L333.7,53.0 L333.9,53.6 L334.0,51.9 L334.1,53.8 L334.3,53.3    L334.4,52.6 L334.5,54.7 L334.7,53.8 L334.8,53.7 L335.0,55.2 L335.1,54.2 L335.2,53.5 L335.4,55.5    L335.5,54.1 L335.6,54.2 L335.8,55.7 L335.9,54.1 L336.1,55.2 L336.2,55.3 L336.3,54.0 L336.5,55.2    L336.6,54.9 L336.7,54.5 L336.9,55.7 L337.0,54.8 L337.2,55.6 L337.3,56.3 L337.4,54.9 L337.6,55.5    L337.7,55.7 L337.8,54.6 L338.0,55.5 L338.1,56.6 L338.3,54.6 L338.4,55.9 L338.5,56.2 L338.7,54.7    L338.8,55.9 L338.9,55.6 L339.1,54.9 L339.2,56.5 L339.4,56.2 L339.5,54.9 L339.6,56.0 L339.8,54.7    L339.9,55.5 L340.1,56.3 L340.2,54.6 L340.3,55.2 L340.5,55.3 L340.6,54.0 L340.7,54.8 L340.9,55.2    L341.0,54.8 L341.2,56.1 L341.3,54.4 L341.4,54.4 L341.6,55.8 L341.7,55.3 L341.8,54.4 L342.0,55.7    L342.1,54.9 L342.3,55.7 L342.4,55.6 L342.5,54.4 L342.7,55.1 L342.8,55.3 L342.9,54.6 L343.1,55.6    L343.2,54.8 L343.4,53.8 L343.5,55.4 L343.6,55.2 L343.8,54.6 L343.9,55.1 L344.0,53.8 L344.2,54.2    L344.3,54.7 L344.5,54.0 L344.6,54.7 L344.7,55.4 L344.9,54.3 L345.0,55.0 L345.1,54.4 L345.3,53.5    L345.4,54.4 L345.6,55.1 L345.7,54.1 L345.8,53.8 L346.0,54.2 L346.1,53.5 L346.2,54.5 L346.4,54.3    L346.5,53.8 L346.7,54.6 L346.8,53.4 L346.9,53.4 L347.1,54.8 L347.2,54.0 L347.3,53.6 L347.5,54.9    L347.6,53.2 L347.8,54.5 L347.9,54.6 L348.0,52.9 L348.2,54.5 L348.3,54.2 L348.4,52.6 L348.6,54.3    L348.7,54.7 L348.9,53.1 L349.0,54.0 L349.1,52.9 L349.3,53.3 L349.4,53.2 L349.6,53.5 L349.7,52.5    L349.8,53.5 L350.0,52.6 L350.1,52.9 L350.2,53.8 L350.4,52.6 L350.5,52.7 L350.7,53.6 L350.8,52.1    L350.9,52.8 L351.1,53.1 L351.2,51.7 L351.3,52.5 L351.5,52.7 L351.6,51.1 L351.8,52.1 L351.9,52.8    L352.0,51.8 L352.2,52.0 L352.3,51.3 L352.4,51.5 L352.6,52.9 L352.7,51.0 L352.9,51.2 L353.0,51.3    L353.1,51.0 L353.3,50.8 L353.4,51.2 L353.5,50.5 L353.7,50.5 L353.8,51.9 L354.0,51.2 L354.1,49.9    L354.2,51.1 L354.4,50.2 L354.5,49.6 L354.6,49.6 L354.8,48.9 L354.9,49.1 L355.1,50.3 L355.2,49.1    L355.3,49.1 L355.5,48.7 L355.6,48.3 L355.7,48.8 L355.9,49.4 L356.0,48.7 L356.2,47.7 L356.3,48.7    L356.4,47.7 L356.6,48.2 L356.7,47.7 L356.8,47.3 L357.0,48.2 L357.1,48.7 L357.3,46.5 L357.4,47.2    L357.5,48.1 L357.7,47.2 L357.8,48.1 L357.9,46.7 L358.1,45.5 L358.2,47.0 L358.4,46.4 L358.5,45.1    L358.6,46.0 L358.8,45.4 L358.9,44.6 L359.1,45.1 L359.2,44.9 L359.3,44.1 L359.5,45.0 L359.6,44.9    L359.7,44.3 L359.9,44.8 L360.0,44.0 L360.2,43.6 L360.3,44.7 L360.4,43.7 L360.6,42.4 L360.7,44.2    L360.8,43.1 L361.0,41.7 L361.1,43.4 L361.3,42.5 L361.4,42.1 L361.5,43.1 L361.7,42.1 L361.8,41.7    L361.9,42.7 L362.1,41.7 L362.2,40.9 L362.4,42.6 L362.5,41.4 L362.6,40.4 L362.8,42.3 L362.9,41.0    L363.0,40.0 L363.2,41.3 L363.3,40.6 L363.5,40.3 L363.6,41.2 L363.7,39.6 L363.9,40.2 L364.0,40.9    L364.1,39.7 L364.3,39.5 L364.4,39.5 L364.6,39.1 L364.7,39.4 L364.8,39.8 L365.0,38.2 L365.1,38.7    L365.2,40.2 L365.4,39.2 L365.5,38.2 L365.7,39.3 L365.8,38.3 L365.9,38.2 L366.1,38.8 L366.2,37.2    L366.3,37.3 L366.5,38.7 L366.6,37.6 L366.8,37.1 L366.9,37.9 L367.0,37.2 L367.2,37.7 L367.3,37.6    L367.4,36.2 L367.6,36.9 L367.7,37.6 L367.9,37.3 L368.0,36.0 L368.1,36.2 L368.3,36.3 L368.4,36.9    L368.6,37.7 L368.7,35.4 L368.8,35.3 L369.0,36.9 L369.1,35.8 L369.2,35.2 L369.4,36.0 L369.5,35.3    L369.7,35.1 L369.8,35.2 L369.9,34.9 L370.1,34.7 L370.2,35.4 L370.3,34.3 L370.5,34.5 L370.6,35.1    L370.8,34.4 L370.9,34.0 L371.0,34.9 L371.2,34.0 L371.3,33.3 L371.4,34.6 L371.6,33.8 L371.7,33.3    L371.9,34.2 L372.0,33.1 L372.1,33.0 L372.3,33.7 L372.4,33.3 L372.5,32.7 L372.7,33.8 L372.8,33.1    L373.0,32.9 L373.1,33.6 L373.2,32.8 L373.4,32.2 L373.5,33.4 L373.6,33.3 L373.8,31.8 L373.9,32.9    L374.1,32.6 L374.2,32.3 L374.3,33.2 L374.5,32.6 L374.6,31.8 L374.7,33.1 L374.9,32.5 L375.0,31.3    L375.2,32.4 L375.3,33.0 L375.4,31.5 L375.6,32.4 L375.7,32.4 L375.8,30.8 L376.0,32.5 L376.1,33.2    L376.3,31.4 L376.4,31.5 L376.5,32.6 L376.7,31.4 L376.8,32.0 L376.9,32.6 L377.1,31.6 L377.2,32.0    L377.4,32.9 L377.5,31.4 L377.6,31.7 L377.8,32.7 L377.9,31.7 L378.1,31.1 L378.2,32.3 L378.3,32.7    L378.5,32.4 L378.6,33.6 L378.7,32.9 L378.9,32.2 L379.0,33.4 L379.2,33.4 L379.3,32.8 L379.4,34.1    L379.6,33.5 L379.7,32.4 L379.8,34.4 L380.0,34.5 L380.1,32.9 L380.3,34.4 L380.4,34.2 L380.5,33.3    L380.7,34.4 L380.8,34.9 L380.9,34.4 L381.1,35.1 L381.2,34.9 L381.4,34.7 L381.5,35.4 L381.6,36.4    L381.8,34.7 L381.9,35.4 L382.0,36.3 L382.2,35.4 L382.3,36.0 L382.5,37.6 L382.6,36.9 L382.7,36.9    L382.9,38.0 L383.0,36.9 L383.1,37.1 L383.3,38.3 L383.4,38.1 L383.6,37.8 L383.7,39.7 L383.8,39.2    L384.0,38.5 L384.1,40.2 L384.2,40.2 L384.4,39.4 L384.5,40.4 L384.7,40.6 L384.8,40.8 L384.9,41.8    L385.1,41.8 L385.2,41.1 L385.3,42.0 L385.5,42.8 L385.6,41.8 L385.8,42.6 L385.9,43.3 L386.0,42.6    L386.2,43.8 L386.3,44.1 L386.4,43.3 L386.6,44.6 L386.7,45.6 L386.9,45.5 L387.0,45.1 L387.1,46.4    L387.3,45.6 L387.4,46.7 L387.6,47.1 L387.7,46.6 L387.8,46.6 L388.0,48.1 L388.1,49.1 L388.2,48.5    L388.4,48.5 L388.5,49.0 L388.7,48.7 L388.8,49.6 L388.9,50.4 L389.1,49.8 L389.2,49.9 L389.3,51.1    L389.5,50.3 L389.6,50.8 L389.8,51.8 L389.9,51.6 L390.0,52.1 L390.2,51.9 L390.3,52.4 L390.4,51.5    L390.6,53.4 L390.7,53.8 L390.9,52.4 L391.0,53.9 L391.1,53.6 L391.3,52.8 L391.4,54.4 L391.5,54.7    L391.7,53.1 L391.8,54.1 L392.0,55.1 L392.1,54.4 L392.2,55.0 L392.4,55.2 L392.5,55.0 L392.6,54.7    L392.8,55.1 L392.9,55.3 L393.1,55.4 L393.2,55.9 L393.3,55.9 L393.5,54.9 L393.6,55.7 L393.7,56.9    L393.9,55.6 L394.0,55.9 L394.2,56.3 L394.3,55.1 L394.4,56.1 L394.6,56.7 L394.7,56.0 L394.8,56.2    L395.0,56.9 L395.1,56.2 L395.3,55.9 L395.4,56.9 L395.5,56.7 L395.7,55.8 L395.8,56.7 L395.9,56.0    L396.1,55.1 L396.2,55.8 L396.4,55.8 L396.5,54.6 L396.6,55.2 L396.8,56.0 L396.9,55.4 L397.1,54.9    L397.2,54.9 L397.3,54.3 L397.5,53.8 L397.6,54.9 L397.7,55.0 L397.9,53.8 L398.0,53.9 L398.2,54.6    L398.3,53.8 L398.4,53.4 L398.6,54.2 L398.7,53.0 L398.8,52.8 L399.0,53.4 L399.1,52.9 L399.3,52.8    L399.4,52.7 L399.5,52.9 L399.7,52.2 L399.8,52.6 L399.9,51.8 L400.1,51.2 L400.2,51.9 L400.4,51.6    L400.5,50.8 L400.6,50.9 L400.8,51.6 L400.9,50.8 L401.0,50.7 L401.2,51.3 L401.3,50.9 L401.5,49.8    L401.6,50.7 L401.7,50.0 L401.9,48.6 L402.0,49.7 L402.1,49.7 L402.3,48.7 L402.4,48.2 L402.6,48.9    L402.7,48.5 L402.8,49.2 L403.0,48.9 L403.1,48.5 L403.2,47.8 L403.4,48.1 L403.5,47.9 L403.7,47.2    L403.8,47.6 L403.9,48.7 L404.1,47.3 L404.2,47.3 L404.3,47.6 L404.5,47.6 L404.6,48.0 L404.8,47.9    L404.9,47.2 L405.0,47.2 L405.2,47.9 L405.3,47.3 L405.4,46.9 L405.6,46.7 L405.7,47.0 L405.9,46.7    L406.0,46.2 L406.1,47.0 L406.3,46.6 L406.4,46.6 L406.6,47.3 L406.7,47.2 L406.8,46.5 L407.0,47.0    L407.1,47.4 L407.2,45.9 L407.4,46.2 L407.5,47.0 L407.7,47.1 L407.8,46.6 L407.9,46.5 L408.1,46.7    L408.2,46.8 L408.3,47.5 L408.5,47.0 L408.6,46.4 L408.8,47.1 L408.9,48.0 L409.0,47.0 L409.2,46.4    L409.3,46.7 L409.4,47.1 L409.6,47.4 L409.7,47.6 L409.9,47.1 L410.0,47.3 L410.1,47.9 L410.3,48.3    L410.4,47.3 L410.5,47.2 L410.7,47.5 L410.8,47.9 L411.0,47.9 L411.1,47.8 L411.2,47.8 L411.4,48.1    L411.5,48.6 L411.6,48.0 L411.8,47.6 L411.9,47.9 L412.1,49.1 L412.2,48.8 L412.3,47.6 L412.5,47.9    L412.6,48.3 L412.7,48.8 L412.9,48.3 L413.0,48.2 L413.2,47.7 L413.3,48.5 L413.4,49.2 L413.6,48.0    L413.7,47.2 L413.8,48.4 L414.0,49.3 L414.1,48.6 L414.3,48.6 L414.4,47.7 L414.5,48.1 L414.7,49.7    L414.8,49.0 L414.9,47.1 L415.1,47.8 L415.2,49.1 L415.4,49.3 L415.5,48.1 L415.6,47.4 L415.8,47.4    L415.9,48.3 L416.1,48.4 L416.2,47.7 L416.3,46.8 L416.5,47.6 L416.6,49.3 L416.7,48.5 L416.9,46.5    L417.0,46.9 L417.2,47.8 L417.3,47.8 L417.4,47.9 L417.6,46.5 L417.7,46.3 L417.8,47.1 L418.0,48.1    L418.1,47.1 L418.3,45.8 L418.4,46.2 L418.5,47.2 L418.7,46.6 L418.8,45.2 L418.9,45.1 L419.1,45.3    L419.2,46.7 L419.4,46.3 L419.5,45.4 L419.6,44.2 L419.8,45.6 L419.9,46.5 L420.0,45.1 L420.2,43.2    L420.3,44.0 L420.5,45.1 L420.6,45.3 L420.7,44.1 L420.9,43.7 L421.0,44.0 L421.1,44.7 L421.3,44.6    L421.4,43.3 L421.6,42.2 L421.7,43.2 L421.8,44.1 L422.0,43.3 L422.1,42.3 L422.2,42.1 L422.4,42.7    L422.5,42.8 L422.7,42.7 L422.8,41.7 L422.9,41.7 L423.1,42.3 L423.2,42.8 L423.3,42.0 L423.5,40.4    L423.6,40.7 L423.8,41.9 L423.9,41.6 L424.0,40.8 L424.2,40.6 L424.3,41.1 L424.4,41.5 L424.6,41.0    L424.7,40.1 L424.9,40.1 L425.0,41.2 L425.1,41.7 L425.3,40.4 L425.4,40.0 L425.6,40.9 L425.7,40.7    L425.8,40.4 L426.0,39.9 L426.1,39.5 L426.2,40.4 L426.4,40.8 L426.5,40.6 L426.7,39.8 L426.8,39.4    L426.9,40.6 L427.1,40.2 L427.2,39.3 L427.3,39.3 L427.5,40.3 L427.6,40.5 L427.8,40.5 L427.9,40.1    L428.0,39.6 L428.2,40.0 L428.3,40.9 L428.4,40.9 L428.6,39.8 L428.7,40.0 L428.9,41.2 L429.0,40.8    L429.1,40.5 L429.3,40.3 L429.4,40.9 L429.5,41.1 L429.7,41.0 L429.8,41.1 L430.0,39.9 L430.1,40.4    L430.2,42.0 L430.4,41.1 L430.5,41.0 L430.6,41.2 L430.8,41.4 L430.9,41.2 L431.1,41.6 L431.2,41.9    L431.3,41.3 L431.5,41.3 L431.6,41.9 L431.7,42.0 L431.9,41.4 L432.0,41.1 L432.2,42.5 L432.3,42.1    L432.4,41.7 L432.6,42.1 L432.7,42.4 L432.8,41.9 L433.0,42.3 L433.1,42.4 L433.3,42.6 L433.4,42.5    L433.5,42.8 L433.7,42.9 L433.8,42.3 L433.9,42.4 L434.1,42.7 L434.2,42.7 L434.4,42.1 L434.5,42.8    L434.6,42.7 L434.8,42.5 L434.9,42.4 L435.1,43.5 L435.2,43.3 L435.3,42.7 L435.5,43.1 L435.6,42.9    L435.7,42.6 L435.9,42.0 L436.0,42.1 L436.2,42.4 L436.3,42.5 L436.4,42.6 L436.6,41.9 L436.7,41.6    L436.8,41.4 L437.0,42.2 L437.1,41.3 L437.3,41.5 L437.4,41.7 L437.5,42.2 L437.7,41.6 L437.8,40.9    L437.9,40.9 L438.1,41.0 L438.2,40.3 L438.4,40.9 L438.5,40.9 L438.6,40.2 L438.8,39.9 L438.9,39.7    L439.0,39.8 L439.2,39.3 L439.3,39.9 L439.5,39.1 L439.6,38.8 L439.7,38.8 L439.9,39.0 L440.0,38.2    L440.1,37.5 L440.3,37.9 L440.4,38.0 L440.6,37.1 L440.7,36.8 L440.8,37.4 L441.0,37.0 L441.1,35.5    L441.2,35.9 L441.4,36.4 L441.5,35.9 L441.7,34.8 L441.8,34.6 L441.9,34.6 L442.1,34.6 L442.2,34.8    L442.3,34.3 L442.5,33.8 L442.6,33.2 L442.8,33.4 L442.9,33.1 L443.0,32.9 L443.2,33.0 L443.3,33.1    L443.4,32.1 L443.6,31.7 L443.7,32.3 L443.9,31.9 L444.0,31.6 L444.1,30.7 L444.3,31.4 L444.4,30.7    L444.6,29.7 L444.7,30.3 L444.8,29.7 L445.0,29.5 L445.1,29.5 L445.2,29.0 L445.4,29.0 L445.5,28.2    L445.7,28.5 L445.8,28.7 L445.9,28.1 L446.1,27.6 L446.2,27.3 L446.3,27.7 L446.5,27.5 L446.6,27.1    L446.8,26.9 L446.9,26.4 L447.0,26.6 L447.2,27.3 L447.3,26.6 L447.4,25.8 L447.6,26.0 L447.7,26.6    L447.9,26.4 L448.0,25.5 L448.1,25.4 L448.3,25.9 L448.4,25.5 L448.5,25.5 L448.7,25.0 L448.8,25.2    L449.0,24.9 L449.1,25.0 L449.2,25.2 L449.4,25.0 L449.5,24.7 L449.6,25.5 L449.8,25.7 L449.9,24.4    L450.1,24.4 L450.2,25.4 L450.3,25.5 L450.5,24.8 L450.6,24.4 L450.7,25.5 L450.9,24.6 L451.0,25.3    L451.2,25.5 L451.3,25.0 L451.4,25.1 L451.6,26.0 L451.7,26.6 L451.8,25.8 L452.0,25.1 L452.1,26.0    L452.3,26.3 L452.4,25.9 L452.5,26.0 L452.7,26.4 L452.8,26.8 L452.9,26.6 L453.1,25.9 L453.2,26.8    L453.4,27.9 L453.5,27.0 L453.6,27.4 L453.8,27.9 L453.9,26.8 L454.1,27.5 L454.2,28.2 L454.3,28.7    L454.5,28.1 L454.6,28.5 L454.7,29.0 L454.9,28.6 L455.0,28.7 L455.2,29.2 L455.3,29.8 L455.4,29.4    L455.6,29.8 L455.7,30.7 L455.8,29.8 L456.0,30.3 L456.1,30.7 L456.3,31.1 L456.4,31.1 L456.5,30.6    L456.7,31.7 L456.8,32.2 L456.9,31.5 L457.1,31.7 L457.2,32.3 L457.4,32.9 L457.5,32.5 L457.6,33.2    L457.8,33.4 L457.9,33.5 L458.0,33.4 L458.2,34.0 L458.3,34.5 L458.5,33.9 L458.6,35.2 L458.7,35.0    L458.9,34.5 L459.0,34.7 L459.1,35.6 L459.3,35.8 L459.4,35.3 L459.6,35.4 L459.7,36.9 L459.8,36.9    L460.0,36.2 L460.1,37.0 L460.2,37.8 L460.4,37.6 L460.5,37.5 L460.7,37.8 L460.8,38.7 L460.9,38.3    L461.1,38.0 L461.2,39.0 L461.3,39.1 L461.5,38.6 L461.6,39.4 L461.8,39.5 L461.9,39.7 L462.0,39.1    L462.2,39.3 L462.3,40.3 L462.4,40.3 L462.6,40.2 L462.7,40.9 L462.9,41.0 L463.0,40.6 L463.1,40.0    L463.3,41.2 L463.4,41.4 L463.6,41.6 L463.7,42.0 L463.8,42.4 L464.0,41.2 L464.1,42.0 L464.2,42.4    L464.4,42.8 L464.5,42.2 L464.7,42.0 L464.8,43.4 L464.9,42.9 L465.1,42.8 L465.2,43.1 L465.3,43.3    L465.5,43.5 L465.6,43.1 L465.8,43.0 L465.9,43.6 L466.0,43.7 L466.2,43.9 L466.3,44.0 L466.4,44.4    L466.6,43.7 L466.7,44.0 L466.9,44.9 L467.0,44.6 L467.1,44.3 L467.3,43.9 L467.4,44.9 L467.5,44.9    L467.7,44.5 L467.8,45.2 L468.0,45.5 L468.1,44.7 L468.2,44.5 L468.4,45.0 L468.5,45.1 L468.6,46.2    L468.8,44.7 L468.9,45.7 L469.1,45.6 L469.2,44.9 L469.3,45.1 L469.5,45.8 L469.6,45.0 L469.7,45.1    L469.9,45.9 L470.0,45.9 L470.2,45.2 L470.3,45.0 L470.4,45.4 L470.6,46.3 L470.7,45.7 L470.8,45.2    L471.0,45.4 L471.1,45.3 L471.3,46.0 L471.4,45.5 L471.5,45.4 L471.7,46.0 L471.8,45.0 L471.9,45.9    L472.1,46.3 L472.2,45.3 L472.4,45.0 L472.5,45.8 L472.6,45.4 L472.8,45.2 L472.9,44.5 L473.1,46.2    L473.2,45.7 L473.3,45.1 L473.5,44.9 L473.6,45.8 L473.7,45.5 L473.9,45.1 L474.0,44.6 L474.2,45.2    L474.3,45.3 L474.4,44.6 L474.6,45.0 L474.7,45.0 L474.8,44.1 L475.0,44.7 L475.1,44.9 L475.3,44.3    L475.4,43.9 L475.5,44.3 L475.7,44.7 L475.8,44.8 L475.9,44.0 L476.1,43.3 L476.2,44.3 L476.4,44.3    L476.5,43.2 L476.6,43.4 L476.8,44.4 L476.9,44.2 L477.0,43.3 L477.2,43.2 L477.3,43.4 L477.5,43.7    L477.6,44.0 L477.7,43.3 L477.9,43.6 L478.0,43.3 L478.1,42.9 L478.3,43.4 L478.4,43.5 L478.6,42.6    L478.7,42.7 L478.8,43.7 L479.0,43.2 L479.1,42.6 L479.2,42.5 L479.4,43.3 L479.5,43.1 L479.7,42.4    L479.8,42.1 L479.9,42.5 L480.1,43.3 L480.2,41.9 L480.3,42.8 L480.5,42.5 L480.6,42.5 L480.8,42.3    L480.9,42.4 L481.0,42.4 L481.2,42.0 L481.3,42.4 L481.4,43.0 L481.6,42.2 L481.7,42.2 L481.9,41.8    L482.0,42.5 L482.1,42.8 L482.3,42.1 L482.4,41.5 L482.5,42.6 L482.7,42.7 L482.8,41.4 L483.0,41.5    L483.1,43.2 L483.2,42.5 L483.4,42.2 L483.5,41.7 L483.7,42.6 L483.8,42.8 L483.9,42.3 L484.1,42.3    L484.2,43.4 L484.3,42.0 L484.5,42.4 L484.6,42.5 L484.8,42.8 L484.9,42.7 L485.0,42.4 L485.2,43.3    L485.3,43.4 L485.4,42.7 L485.6,42.3 L485.7,43.1 L485.9,43.8 L486.0,43.2 L486.1,42.2 L486.3,43.2    L486.4,44.2 L486.5,43.3 L486.7,43.7 L486.8,43.6 L487.0,44.1 L487.1,43.8 L487.2,44.1 L487.4,43.5    L487.5,44.2 L487.6,44.3 L487.8,43.7 L487.9,44.0 L488.1,44.9 L488.2,43.8 L488.3,44.5 L488.5,45.2    L488.6,44.4 L488.7,44.2 L488.9,44.8 L489.0,44.3 L489.2,44.8 L489.3,45.0 L489.4,44.3 L489.6,44.9    L489.7,45.6 L489.8,44.4 L490.0,43.8 L490.1,44.8 L490.3,45.0 L490.4,44.7 L490.5,44.7 L490.7,44.7    L490.8,44.8 L490.9,44.4 L491.1,44.4 L491.2,44.7 L491.4,45.0 L491.5,43.8 L491.6,44.0 L491.8,44.7    L491.9,43.8 L492.0,43.6 L492.2,44.1 L492.3,44.2 L492.5,43.7 L492.6,43.7 L492.7,42.8 L492.9,44.2    L493.0,43.9 L493.2,42.6 L493.3,43.8 L493.4,43.4 L493.6,42.6 L493.7,42.1 L493.8,42.4 L494.0,42.7    L494.1,42.5 L494.3,41.4 L494.4,41.3 L494.5,41.9 L494.7,41.7 L494.8,41.0 L494.9,40.8 L495.1,40.8    L495.2,40.3 L495.4,40.8 L495.5,40.9 L495.6,39.7 L495.8,39.5 L495.9,39.6 L496.0,39.8 L496.2,39.3    L496.3,38.7 L496.5,38.0 L496.6,38.4 L496.7,38.4 L496.9,36.8 L497.0,37.7 L497.1,37.3 L497.3,37.8    L497.4,36.6 L497.6,36.0 L497.7,36.3 L497.8,36.5 L498.0,36.3 L498.1,35.0 L498.2,35.1 L498.4,35.3    L498.5,34.5 L498.7,33.6 L498.8,34.3 L498.9,33.0 L499.1,33.9 L499.2,33.1 L499.3,32.8 L499.5,33.0    L499.6,32.2 L499.8,32.0 L499.9,32.1 L500.0,31.3 L500.2,30.9 L500.3,31.2 L500.4,30.7 L500.6,31.2    L500.7,30.1 L500.9,29.7 L501.0,30.3 L501.1,31.3 L501.3,29.6 L501.4,29.7 L501.5,30.0 L501.7,30.0    L501.8,29.4 L502.0,29.2 L502.1,28.6 L502.2,29.8 L502.4,29.6 L502.5,28.5 L502.7,28.6 L502.8,28.8    L502.9,28.2 L503.1,28.3 L503.2,28.7 L503.3,29.1 L503.5,28.0 L503.6,28.1 L503.8,28.2 L503.9,28.7    L504.0,29.2 L504.2,28.2 L504.3,29.0 L504.4,28.7 L504.6,28.1 L504.7,28.3 L504.9,28.9 L505.0,29.5    L505.1,29.2 L505.3,28.8 L505.4,28.4 L505.5,30.3 L505.7,30.3 L505.8,29.2 L506.0,30.1 L506.1,31.0    L506.2,30.4 L506.4,30.5 L506.5,30.6 L506.6,31.4 L506.8,31.8 L506.9,31.8 L507.1,32.0 L507.2,32.5    L507.3,33.2 L507.5,32.8 L507.6,33.3 L507.7,34.1 L507.9,34.4 L508.0,34.5 L508.2,34.2 L508.3,34.9    L508.4,35.6 L508.6,36.0 L508.7,36.2 L508.8,36.8 L509.0,37.1 L509.1,37.5 L509.3,38.3 L509.4,38.2    L509.5,38.6 L509.7,40.3 L509.8,39.4 L509.9,39.5 L510.1,40.3 L510.2,40.6 L510.4,41.2 L510.5,42.1    L510.6,42.4 L510.8,42.3 L510.9,43.3 L511.0,42.9 L511.2,43.8 L511.3,44.1 L511.5,44.3 L511.6,45.4    L511.7,46.3 L511.9,46.1 L512.0,46.2 L512.2,46.6 L512.3,47.3 L512.4,48.3 L512.6,48.3 L512.7,48.5    L512.8,49.4 L513.0,50.3 L513.1,50.0 L513.3,50.2 L513.4,50.4 L513.5,51.6 L513.7,52.1 L513.8,52.2    L513.9,52.0 L514.1,53.1 L514.2,53.3 L514.4,53.5 L514.5,54.0 L514.6,54.0 L514.8,54.5 L514.9,54.9    L515.0,55.0 L515.2,55.3 L515.3,54.8 L515.5,55.8 L515.6,56.0 L515.7,56.5 L515.9,56.2 L516.0,57.0    L516.1,56.4 L516.3,57.3 L516.4,57.3 L516.6,57.0 L516.7,57.3 L516.8,58.4 L517.0,58.1 L517.1,58.1    L517.2,57.7 L517.4,58.0 L517.5,59.1 L517.7,58.1 L517.8,57.5 L517.9,57.6 L518.1,59.1 L518.2,57.9    L518.3,58.1 L518.5,58.2 L518.6,58.5 L518.8,58.3 L518.9,57.8 L519.0,57.1 L519.2,57.5 L519.3,57.4    L519.4,58.1 L519.6,57.2 L519.7,56.4 L519.9,57.8 L520.0,56.9 L520.1,56.8 L520.3,56.4 L520.4,55.7    L520.5,56.0 L520.7,55.8 L520.8,55.2 L521.0,55.2 L521.1,54.6 L521.2,54.6 L521.4,54.5 L521.5,54.1    L521.7,53.5 L521.8,53.6 L521.9,53.2 L522.1,52.2 L522.2,52.2 L522.3,52.6 L522.5,51.6 L522.6,51.3    L522.8,51.2 L522.9,50.6 L523.0,50.2 L523.2,49.6 L523.3,49.2 L523.4,49.0 L523.6,48.5 L523.7,48.2    L523.9,48.5 L524.0,48.7 L524.1,46.9 L524.3,46.1 L524.4,46.3 L524.5,46.6 L524.7,45.8 L524.8,45.0    L525.0,44.7 L525.1,44.4 L525.2,45.0 L525.4,43.7 L525.5,42.6 L525.6,43.3 L525.8,43.0 L525.9,42.3    L526.1,41.6 L526.2,40.8 L526.3,41.3 L526.5,41.1 L526.6,40.4 L526.7,39.7 L526.9,39.6 L527.0,40.0    L527.2,38.8 L527.3,38.7 L527.4,38.5 L527.6,38.4 L527.7,38.1 L527.8,37.0 L528.0,37.3 L528.1,37.1    L528.3,37.2 L528.4,36.6 L528.5,36.3 L528.7,36.4 L528.8,35.9 L528.9,35.8 L529.1,34.7 L529.2,34.6    L529.4,35.1 L529.5,35.2 L529.6,34.6 L529.8,34.0 L529.9,33.9 L530.0,33.6 L530.2,34.4 L530.3,34.0    L530.5,33.9 L530.6,33.2 L530.7,32.7 L530.9,32.8 L531.0,33.1 L531.2,32.8 L531.3,32.5 L531.4,33.2    L531.6,32.8 L531.7,31.9 L531.8,31.8 L532.0,32.7 L532.1,32.2 L532.3,32.5 L532.4,32.4 L532.5,31.5    L532.7,32.3 L532.8,31.7 L532.9,32.1 L533.1,31.6 L533.2,32.1 L533.4,32.0 L533.5,31.7 L533.6,31.7    L533.8,32.0 L533.9,32.4 L534.0,32.6 L534.2,31.8 L534.3,31.7 L534.5,31.7 L534.6,32.5 L534.7,32.5    L534.9,31.8 L535.0,31.5 L535.1,31.8 L535.3,32.6 L535.4,32.1 L535.6,31.5 L535.7,32.3 L535.8,31.7    L536.0,32.7 L536.1,32.0 L536.2,32.6 L536.4,31.9 L536.5,32.8 L536.7,33.2 L536.8,32.1 L536.9,32.5    L537.1,33.2 L537.2,33.6 L537.3,32.9 L537.5,32.5 L537.6,32.9 L537.8,32.7 L537.9,33.1 L538.0,33.3    L538.2,32.5 L538.3,33.0 L538.4,33.7 L538.6,33.2 L538.7,33.0 L538.9,33.6 L539.0,32.8 L539.1,33.5    L539.3,32.8 L539.4,33.7 L539.5,33.5 L539.7,33.3 L539.8,33.4 L540.0,34.0 L540.1,33.3 L540.2,34.2    L540.4,34.0 L540.5,33.3 L540.7,34.1 L540.8,33.6 L540.9,33.2 L541.1,34.0 L541.2,33.4 L541.3,33.4    L541.5,33.7 L541.6,33.5 L541.8,33.4 L541.9,33.4 L542.0,33.0 L542.2,33.7 L542.3,34.1 L542.4,34.0    L542.6,32.7 L542.7,33.3 L542.9,33.9 L543.0,33.6 L543.1,33.8 L543.3,32.8 L543.4,33.1 L543.5,34.1    L543.7,33.4 L543.8,33.5 L544.0,33.0 L544.1,32.9 L544.2,34.0 L544.4,33.4 L544.5,33.0 L544.6,33.1    L544.8,33.5 L544.9,33.4 L545.1,33.4 L545.2,33.5 L545.3,33.1 L545.5,33.8 L545.6,33.7 L545.7,32.6    L545.9,33.3 L546.0,34.0 L546.2,34.1 L546.3,33.5 L546.4,33.2 L546.6,33.3 L546.7,34.1 L546.8,33.8    L547.0,33.1 L547.1,33.8 L547.3,33.8 L547.4,34.8 L547.5,34.6 L547.7,33.2 L547.8,34.2 L547.9,35.0    L548.1,34.5 L548.2,34.5 L548.4,34.0 L548.5,35.1 L548.6,35.3 L548.8,35.1 L548.9,35.1 L549.0,34.6    L549.2,35.4 L549.3,35.9 L549.5,35.7 L549.6,35.2 L549.7,36.5 L549.9,35.8 L550.0,36.8 L550.2,35.9    L550.3,35.7 L550.4,36.6 L550.6,37.2 L550.7,36.6 L550.8,36.8 L551.0,37.9 L551.1,37.9 L551.3,38.5    L551.4,37.2 L551.5,37.8 L551.7,38.7 L551.8,39.3 L551.9,39.2 L552.1,38.1 L552.2,39.4 L552.4,39.2    L552.5,40.1 L552.6,40.7 L552.8,39.6 L552.9,39.5 L553.0,40.9 L553.2,40.4 L553.3,40.5 L553.5,40.7    L553.6,41.2 L553.7,41.7 L553.9,42.2 L554.0,41.5 L554.1,42.3 L554.3,42.7 L554.4,42.8 L554.6,42.7    L554.7,42.7 L554.8,43.4 L555.0,43.5 L555.1,43.1 L555.2,43.1 L555.4,43.6 L555.5,44.2 L555.7,44.4    L555.8,43.9 L555.9,43.9 L556.1,44.7 L556.2,44.6 L556.3,44.3 L556.5,44.5 L556.6,45.0 L556.8,44.9    L556.9,45.5 L557.0,45.0 L557.2,44.6 L557.3,44.7 L557.4,45.9 L557.6,45.8 L557.7,44.6 L557.9,44.9    L558.0,45.5 L558.1,45.9 L558.3,45.0 L558.4,44.8 L558.5,45.7 L558.7,44.5 L558.8,45.4 L559.0,45.0    L559.1,44.6  h0.01"
           id="path279"
           style="stroke-width:1.5;stroke-miterlimit:4;stroke-dasharray:none" />
      </g>
    </g>
    <g
       style="fill:none;color:black;stroke:currentColor;stroke-width:1.5;stroke-linecap:butt;stroke-linejoin:miter;stroke-miterlimit:4;stroke-dasharray:none"
       id="g281" />
  </g>
</svg>
