<?xml version="1.0" encoding="UTF-8" standalone="no"?>
<svg
   xmlns:dc="http://purl.org/dc/elements/1.1/"
   xmlns:cc="http://creativecommons.org/ns#"
   xmlns:rdf="http://www.w3.org/1999/02/22-rdf-syntax-ns#"
   xmlns:svg="http://www.w3.org/2000/svg"
   xmlns="http://www.w3.org/2000/svg"
   xmlns:sodipodi="http://sodipodi.sourceforge.net/DTD/sodipodi-0.dtd"
   xmlns:inkscape="http://www.inkscape.org/namespaces/inkscape"
   width="576px"
   height="432px"
   viewBox="0 0 576 432"
   id="svg2"
   version="1.1"
   inkscape:version="0.48.4 r9939"
   sodipodi:docname="comparaison_decroissance_log_theo.svg"
   inkscape:export-filename="/home/alice/Documents/Etudes/Projet_M1/redaction/images_chp3/comparaison_decroissance_log_theo.png"
   inkscape:export-xdpi="90"
   inkscape:export-ydpi="90">
  <metadata
     id="metadata440">
    <rdf:RDF>
      <cc:Work
         rdf:about="">
        <dc:format>image/svg+xml</dc:format>
        <dc:type
           rdf:resource="http://purl.org/dc/dcmitype/StillImage" />
        <dc:title>glps_renderer figure</dc:title>
      </cc:Work>
    </rdf:RDF>
  </metadata>
  <sodipodi:namedview
     pagecolor="#ffffff"
     bordercolor="#666666"
     borderopacity="1"
     objecttolerance="10"
     gridtolerance="10"
     guidetolerance="10"
     inkscape:pageopacity="0"
     inkscape:pageshadow="2"
     inkscape:window-width="1366"
     inkscape:window-height="718"
     id="namedview438"
     showgrid="false"
     inkscape:zoom="1.5451593"
     inkscape:cx="279.36878"
     inkscape:cy="338.00557"
     inkscape:window-x="0"
     inkscape:window-y="24"
     inkscape:window-maximized="1"
     inkscape:current-layer="svg2" />
  <title
     id="title4">glps_renderer figure</title>
  <desc
     id="desc6">
Creator: GL2PS 1.3.8, (C) 1999-2012 C. Geuzaine
For: Octave
CreationDate: Tue May 19 18:14:54 2015
</desc>
  <defs
     id="defs8" />
  <g
     shape-rendering="crispEdges"
     id="g10">
    <polygon
       fill="#ffffff"
       points="521.28,384.48 521.28,32.4 521.28,384.48"
       id="polygon12" />
    <polygon
       fill="#ffffff"
       points="521.28,32.4 521.28,32.4 521.28,384.48"
       id="polygon14" />
    <polygon
       fill="#ffffff"
       points="74.88,32.4 521.28,32.4 74.88,32.4"
       id="polygon16" />
    <polygon
       fill="#ffffff"
       points="521.28,32.4 521.28,32.4 74.88,32.4"
       id="polygon18" />
    <polygon
       fill="#ffffff"
       points="74.88,384.48 521.28,384.48 74.88,32.4"
       id="polygon20" />
    <polygon
       fill="#ffffff"
       points="521.28,384.48 521.28,32.4 74.88,32.4"
       id="polygon22" />
    <polyline
       fill="none"
       stroke="#000000"
       stroke-width="0.5"
       stroke-dasharray="16,0"
       points="74.88,384.48 521.28,384.48"
       id="polyline24" />
    <polyline
       fill="none"
       stroke="#000000"
       stroke-width="0.5"
       stroke-dasharray="16,0"
       points="74.88,32.4 521.28,32.4"
       id="polyline26" />
    <polyline
       fill="none"
       stroke="#000000"
       stroke-width="0.5"
       stroke-dasharray="16,0"
       points="74.88,32.4 521.28,32.4"
       id="polyline28" />
    <polyline
       fill="none"
       stroke="#000000"
       stroke-width="0.5"
       stroke-dasharray="16,0"
       points="74.88,384.48 521.28,384.48"
       id="polyline30" />
    <polyline
       fill="none"
       stroke="#000000"
       stroke-width="0.5"
       stroke-dasharray="16,0"
       points="74.88,384.48 74.88,32.4"
       id="polyline32" />
    <polyline
       fill="none"
       stroke="#000000"
       stroke-width="0.5"
       stroke-dasharray="16,0"
       points="521.28,384.48 521.28,32.4"
       id="polyline34" />
    <polyline
       fill="none"
       stroke="#000000"
       stroke-width="0.5"
       stroke-dasharray="16,0"
       points="521.28,384.48 521.28,32.4"
       id="polyline36" />
    <polyline
       fill="none"
       stroke="#000000"
       stroke-width="0.5"
       stroke-dasharray="16,0"
       points="74.88,384.48 74.88,32.4 74.88,32.4"
       id="polyline38" />
    <polyline
       fill="none"
       stroke="#000000"
       stroke-width="0.5"
       stroke-dasharray="16,0"
       points="521.28,32.4 521.28,32.4"
       id="polyline40" />
    <polyline
       fill="none"
       stroke="#000000"
       stroke-width="0.5"
       stroke-dasharray="16,0"
       points="521.28,384.48 521.28,384.48"
       id="polyline42" />
    <polyline
       fill="none"
       stroke="#000000"
       stroke-width="0.5"
       stroke-dasharray="16,0"
       points="74.88,384.48 74.88,384.48 74.88,380.015"
       id="polyline44" />
    <polyline
       fill="none"
       stroke="#000000"
       stroke-width="0.5"
       stroke-dasharray="16,0"
       points="74.88,32.4 74.88,36.865"
       id="polyline46" />
    <polyline
       fill="none"
       stroke="#000000"
       stroke-width="0.5"
       stroke-dasharray="16,0"
       points="186.48,384.48 186.48,380.015"
       id="polyline48" />
    <polyline
       fill="none"
       stroke="#000000"
       stroke-width="0.5"
       stroke-dasharray="16,0"
       points="186.48,32.4 186.48,36.865"
       id="polyline50" />
    <polyline
       fill="none"
       stroke="#000000"
       stroke-width="0.5"
       stroke-dasharray="16,0"
       points="298.08,384.48 298.08,380.015"
       id="polyline52" />
    <polyline
       fill="none"
       stroke="#000000"
       stroke-width="0.5"
       stroke-dasharray="16,0"
       points="298.08,32.4 298.08,36.865"
       id="polyline54" />
    <polyline
       fill="none"
       stroke="#000000"
       stroke-width="0.5"
       stroke-dasharray="16,0"
       points="409.68,384.48 409.68,380.015"
       id="polyline56" />
    <polyline
       fill="none"
       stroke="#000000"
       stroke-width="0.5"
       stroke-dasharray="16,0"
       points="409.68,32.4 409.68,36.865"
       id="polyline58" />
    <polyline
       fill="none"
       stroke="#000000"
       stroke-width="0.5"
       stroke-dasharray="16,0"
       points="521.28,384.48 521.28,380.015"
       id="polyline60" />
    <polyline
       fill="none"
       stroke="#000000"
       stroke-width="0.5"
       stroke-dasharray="16,0"
       points="521.28,32.4 521.28,36.865"
       id="polyline62" />
    <text
       fill="#000000"
       x="74.88"
       y="389.481"
       font-size="13"
       text-anchor="middle"
       baseline-shift="-13"
       font-family="Helvetica"
       id="text64">-100</text>
    <text
       fill="#000000"
       x="186.48"
       y="389.481"
       font-size="13"
       text-anchor="middle"
       baseline-shift="-13"
       font-family="Helvetica"
       id="text66">-50</text>
    <text
       fill="#000000"
       x="298.08"
       y="389.481"
       font-size="13"
       text-anchor="middle"
       baseline-shift="-13"
       font-family="Helvetica"
       id="text68">0</text>
    <text
       fill="#000000"
       x="409.68"
       y="389.481"
       font-size="13"
       text-anchor="middle"
       baseline-shift="-13"
       font-family="Helvetica"
       id="text70">50</text>
    <text
       fill="#000000"
       x="521.28"
       y="389.481"
       font-size="13"
       text-anchor="middle"
       baseline-shift="-13"
       font-family="Helvetica"
       id="text72">100</text>
    <polyline
       fill="none"
       stroke="#000000"
       stroke-width="0.5"
       stroke-dasharray="16,0"
       points="74.88,384.48 79.348,384.48"
       id="polyline74" />
    <polyline
       fill="none"
       stroke="#000000"
       stroke-width="0.5"
       stroke-dasharray="16,0"
       points="521.28,384.48 516.812,384.48"
       id="polyline76" />
    <polyline
       fill="none"
       stroke="#000000"
       stroke-width="0.5"
       stroke-dasharray="16,0"
       points="74.88,267.12 79.348,267.12"
       id="polyline78" />
    <polyline
       fill="none"
       stroke="#000000"
       stroke-width="0.5"
       stroke-dasharray="16,0"
       points="521.28,267.12 516.812,267.12"
       id="polyline80" />
    <polyline
       fill="none"
       stroke="#000000"
       stroke-width="0.5"
       stroke-dasharray="16,0"
       points="74.88,149.76 79.348,149.76"
       id="polyline82" />
    <polyline
       fill="none"
       stroke="#000000"
       stroke-width="0.5"
       stroke-dasharray="16,0"
       points="521.28,149.76 516.812,149.76"
       id="polyline84" />
    <polyline
       fill="none"
       stroke="#000000"
       stroke-width="0.5"
       stroke-dasharray="16,0"
       points="74.88,32.4 79.348,32.4"
       id="polyline86" />
    <polyline
       fill="none"
       stroke="#000000"
       stroke-width="0.5"
       stroke-dasharray="16,0"
       points="521.28,32.4 516.812,32.4"
       id="polyline88" />
    <text
       fill="#000000"
       x="69.8755"
       y="384.48"
       font-size="13"
       text-anchor="end"
       baseline-shift="-6"
       font-family="Helvetica"
       id="text90">1e-3</text>
    <text
       fill="#000000"
       x="69.8755"
       y="267.12"
       font-size="13"
       text-anchor="end"
       baseline-shift="-6"
       font-family="Helvetica"
       id="text92">1e-2</text>
    <text
       fill="#000000"
       x="69.8755"
       y="149.76"
       font-size="13"
       text-anchor="end"
       baseline-shift="-6"
       font-family="Helvetica"
       id="text94">1e-1</text>
    <text
       fill="#000000"
       x="69.8755"
       y="32.4"
       font-size="13"
       text-anchor="end"
       baseline-shift="-6"
       font-family="Helvetica"
       id="text96">1e+0</text>
    <polyline
       fill="none"
       stroke="#000000"
       stroke-width="0.5"
       stroke-dasharray="16,0"
       points="74.88,349.151 77.114,349.151"
       id="polyline98" />
    <polyline
       fill="none"
       stroke="#000000"
       stroke-width="0.5"
       stroke-dasharray="16,0"
       points="521.28,349.151 519.046,349.151"
       id="polyline100" />
    <polyline
       fill="none"
       stroke="#000000"
       stroke-width="0.5"
       stroke-dasharray="16,0"
       points="74.88,328.485 77.114,328.485"
       id="polyline102" />
    <polyline
       fill="none"
       stroke="#000000"
       stroke-width="0.5"
       stroke-dasharray="16,0"
       points="521.28,328.485 519.046,328.485"
       id="polyline104" />
    <polyline
       fill="none"
       stroke="#000000"
       stroke-width="0.5"
       stroke-dasharray="16,0"
       points="74.88,313.822 77.114,313.822"
       id="polyline106" />
    <polyline
       fill="none"
       stroke="#000000"
       stroke-width="0.5"
       stroke-dasharray="16,0"
       points="521.28,313.822 519.046,313.822"
       id="polyline108" />
    <polyline
       fill="none"
       stroke="#000000"
       stroke-width="0.5"
       stroke-dasharray="16,0"
       points="74.88,302.449 77.114,302.449"
       id="polyline110" />
    <polyline
       fill="none"
       stroke="#000000"
       stroke-width="0.5"
       stroke-dasharray="16,0"
       points="521.28,302.449 519.046,302.449"
       id="polyline112" />
    <polyline
       fill="none"
       stroke="#000000"
       stroke-width="0.5"
       stroke-dasharray="16,0"
       points="74.88,293.156 77.114,293.156"
       id="polyline114" />
    <polyline
       fill="none"
       stroke="#000000"
       stroke-width="0.5"
       stroke-dasharray="16,0"
       points="521.28,293.156 519.046,293.156"
       id="polyline116" />
    <polyline
       fill="none"
       stroke="#000000"
       stroke-width="0.5"
       stroke-dasharray="16,0"
       points="74.88,285.299 77.114,285.299"
       id="polyline118" />
    <polyline
       fill="none"
       stroke="#000000"
       stroke-width="0.5"
       stroke-dasharray="16,0"
       points="521.28,285.299 519.046,285.299"
       id="polyline120" />
    <polyline
       fill="none"
       stroke="#000000"
       stroke-width="0.5"
       stroke-dasharray="16,0"
       points="74.88,278.493 77.114,278.493"
       id="polyline122" />
    <polyline
       fill="none"
       stroke="#000000"
       stroke-width="0.5"
       stroke-dasharray="16,0"
       points="521.28,278.493 519.046,278.493"
       id="polyline124" />
    <polyline
       fill="none"
       stroke="#000000"
       stroke-width="0.5"
       stroke-dasharray="16,0"
       points="74.88,272.49 77.114,272.49"
       id="polyline126" />
    <polyline
       fill="none"
       stroke="#000000"
       stroke-width="0.5"
       stroke-dasharray="16,0"
       points="521.28,272.49 519.046,272.49"
       id="polyline128" />
    <polyline
       fill="none"
       stroke="#000000"
       stroke-width="0.5"
       stroke-dasharray="16,0"
       points="74.88,231.791 77.114,231.791"
       id="polyline130" />
    <polyline
       fill="none"
       stroke="#000000"
       stroke-width="0.5"
       stroke-dasharray="16,0"
       points="521.28,231.791 519.046,231.791"
       id="polyline132" />
    <polyline
       fill="none"
       stroke="#000000"
       stroke-width="0.5"
       stroke-dasharray="16,0"
       points="74.88,211.125 77.114,211.125"
       id="polyline134" />
    <polyline
       fill="none"
       stroke="#000000"
       stroke-width="0.5"
       stroke-dasharray="16,0"
       points="521.28,211.125 519.046,211.125"
       id="polyline136" />
    <polyline
       fill="none"
       stroke="#000000"
       stroke-width="0.5"
       stroke-dasharray="16,0"
       points="74.88,196.462 77.114,196.462"
       id="polyline138" />
    <polyline
       fill="none"
       stroke="#000000"
       stroke-width="0.5"
       stroke-dasharray="16,0"
       points="521.28,196.462 519.046,196.462"
       id="polyline140" />
    <polyline
       fill="none"
       stroke="#000000"
       stroke-width="0.5"
       stroke-dasharray="16,0"
       points="74.88,185.089 77.114,185.089"
       id="polyline142" />
    <polyline
       fill="none"
       stroke="#000000"
       stroke-width="0.5"
       stroke-dasharray="16,0"
       points="521.28,185.089 519.046,185.089"
       id="polyline144" />
    <polyline
       fill="none"
       stroke="#000000"
       stroke-width="0.5"
       stroke-dasharray="16,0"
       points="74.88,175.796 77.114,175.796"
       id="polyline146" />
    <polyline
       fill="none"
       stroke="#000000"
       stroke-width="0.5"
       stroke-dasharray="16,0"
       points="521.28,175.796 519.046,175.796"
       id="polyline148" />
    <polyline
       fill="none"
       stroke="#000000"
       stroke-width="0.5"
       stroke-dasharray="16,0"
       points="74.88,167.939 77.114,167.939"
       id="polyline150" />
    <polyline
       fill="none"
       stroke="#000000"
       stroke-width="0.5"
       stroke-dasharray="16,0"
       points="521.28,167.939 519.046,167.939"
       id="polyline152" />
    <polyline
       fill="none"
       stroke="#000000"
       stroke-width="0.5"
       stroke-dasharray="16,0"
       points="74.88,161.133 77.114,161.133"
       id="polyline154" />
    <polyline
       fill="none"
       stroke="#000000"
       stroke-width="0.5"
       stroke-dasharray="16,0"
       points="521.28,161.133 519.046,161.133"
       id="polyline156" />
    <polyline
       fill="none"
       stroke="#000000"
       stroke-width="0.5"
       stroke-dasharray="16,0"
       points="74.88,155.13 77.114,155.13"
       id="polyline158" />
    <polyline
       fill="none"
       stroke="#000000"
       stroke-width="0.5"
       stroke-dasharray="16,0"
       points="521.28,155.13 519.046,155.13"
       id="polyline160" />
    <polyline
       fill="none"
       stroke="#000000"
       stroke-width="0.5"
       stroke-dasharray="16,0"
       points="74.88,114.431 77.114,114.431"
       id="polyline162" />
    <polyline
       fill="none"
       stroke="#000000"
       stroke-width="0.5"
       stroke-dasharray="16,0"
       points="521.28,114.431 519.046,114.431"
       id="polyline164" />
    <polyline
       fill="none"
       stroke="#000000"
       stroke-width="0.5"
       stroke-dasharray="16,0"
       points="74.88,93.7651 77.114,93.7651"
       id="polyline166" />
    <polyline
       fill="none"
       stroke="#000000"
       stroke-width="0.5"
       stroke-dasharray="16,0"
       points="521.28,93.7651 519.046,93.7651"
       id="polyline168" />
    <polyline
       fill="none"
       stroke="#000000"
       stroke-width="0.5"
       stroke-dasharray="16,0"
       points="74.88,79.1022 77.114,79.1022"
       id="polyline170" />
    <polyline
       fill="none"
       stroke="#000000"
       stroke-width="0.5"
       stroke-dasharray="16,0"
       points="521.28,79.1022 519.046,79.1022"
       id="polyline172" />
    <polyline
       fill="none"
       stroke="#000000"
       stroke-width="0.5"
       stroke-dasharray="16,0"
       points="74.88,67.7289 77.114,67.7289"
       id="polyline174" />
    <polyline
       fill="none"
       stroke="#000000"
       stroke-width="0.5"
       stroke-dasharray="16,0"
       points="521.28,67.7289 519.046,67.7289"
       id="polyline176" />
    <polyline
       fill="none"
       stroke="#000000"
       stroke-width="0.5"
       stroke-dasharray="16,0"
       points="74.88,58.4362 77.114,58.4362"
       id="polyline178" />
    <polyline
       fill="none"
       stroke="#000000"
       stroke-width="0.5"
       stroke-dasharray="16,0"
       points="521.28,58.4362 519.046,58.4362"
       id="polyline180" />
    <polyline
       fill="none"
       stroke="#000000"
       stroke-width="0.5"
       stroke-dasharray="16,0"
       points="74.88,50.5793 77.114,50.5793"
       id="polyline182" />
    <polyline
       fill="none"
       stroke="#000000"
       stroke-width="0.5"
       stroke-dasharray="16,0"
       points="521.28,50.5793 519.046,50.5793"
       id="polyline184" />
    <polyline
       fill="none"
       stroke="#000000"
       stroke-width="0.5"
       stroke-dasharray="16,0"
       points="74.88,43.7734 77.114,43.7734"
       id="polyline186" />
    <polyline
       fill="none"
       stroke="#000000"
       stroke-width="0.5"
       stroke-dasharray="16,0"
       points="521.28,43.7734 519.046,43.7734"
       id="polyline188" />
    <polyline
       fill="none"
       stroke="#000000"
       stroke-width="0.5"
       stroke-dasharray="16,0"
       points="74.88,37.7701 77.114,37.7701"
       id="polyline190" />
    <polyline
       fill="none"
       stroke="#000000"
       stroke-width="0.5"
       stroke-dasharray="16,0"
       points="521.28,37.7701 519.046,37.7701"
       id="polyline192" />
    <text
       fill="#000000"
       x="298.08"
       y="406.481"
       font-size="15"
       text-anchor="middle"
       baseline-shift="-15"
       font-family="Helvetica"
       id="text194">Distance source recepteur en cm</text>
    <text
       fill="#000000"
       x="30.8755"
       y="208.44"
       font-size="15"
       transform="rotate(-90, 30.8755, 208.44)"
       text-anchor="middle"
       baseline-shift="0"
       font-family="Helvetica"
       id="text196">Amplitude (V)</text>
    <polyline
       fill="none"
       stroke="#ff0000"
       stroke-width="3"
       points="141.84,345.78 153,288.943 158.58,265.83 164.16,242.744 169.74,231.411 175.32,222.191 180.9,218.285 186.48,236.524 192.06,263.444 197.64,208.438 203.22,176.491 208.8,155.519 214.38,143.323 219.96,133.095 225.54,128.301 231.12,140.07 236.7,172.937 242.28,126.407 247.86,95.8397 253.44,76.657 259.02,59.872 264.6,49.5932 270.18,41.3022 275.76,36.5978 281.34,33.2456 286.92,32.4 292.5,32.509 298.08,36.0099 303.66,32.509 309.24,32.4 314.82,33.2456 320.4,36.5978 325.98,41.3022 331.56,49.5932 337.14,59.872 342.72,76.657 348.3,95.8397 353.88,126.407 359.46,172.937 365.04,140.07 370.62,128.301 376.2,133.095 381.78,143.323 387.36,155.519 392.94,176.491 398.52,208.438 404.1,263.444 409.68,236.524 415.26,218.285 420.84,222.191 426.42,231.411 432,242.744 437.58,265.83 443.16,288.943 454.32,345.78"
       id="polyline198" />
    <polyline
       fill="none"
       stroke="#ff0000"
       stroke-width="3"
       points="144.84,345.78 144.267,347.543 142.767,348.633 140.913,348.633 139.413,347.543 138.84,345.78 139.413,344.017 140.913,342.927 142.767,342.927 144.267,344.017 144.84,345.78"
       id="polyline200" />
    <polyline
       fill="none"
       stroke="#ff0000"
       stroke-width="3"
       points="156,288.943 155.427,290.706 153.927,291.796 152.073,291.796 150.573,290.706 150,288.943 150.573,287.179 152.073,286.089 153.927,286.089 155.427,287.179 156,288.943"
       id="polyline202" />
    <polyline
       fill="none"
       stroke="#ff0000"
       stroke-width="3"
       points="161.58,265.83 161.007,267.593 159.507,268.683 157.653,268.683 156.153,267.593 155.58,265.83 156.153,264.066 157.653,262.976 159.507,262.976 161.007,264.066 161.58,265.83"
       id="polyline204" />
    <polyline
       fill="none"
       stroke="#ff0000"
       stroke-width="3"
       points="167.16,242.744 166.587,244.508 165.087,245.597 163.233,245.597 161.733,244.508 161.16,242.744 161.733,240.981 163.233,239.891 165.087,239.891 166.587,240.981 167.16,242.744"
       id="polyline206" />
    <polyline
       fill="none"
       stroke="#ff0000"
       stroke-width="3"
       points="172.74,231.411 172.167,233.175 170.667,234.265 168.813,234.265 167.313,233.175 166.74,231.411 167.313,229.648 168.813,228.558 170.667,228.558 172.167,229.648 172.74,231.411"
       id="polyline208" />
    <polyline
       fill="none"
       stroke="#ff0000"
       stroke-width="3"
       points="178.32,222.191 177.747,223.954 176.247,225.044 174.393,225.044 172.893,223.954 172.32,222.191 172.893,220.427 174.393,219.338 176.247,219.338 177.747,220.427 178.32,222.191"
       id="polyline210" />
    <polyline
       fill="none"
       stroke="#ff0000"
       stroke-width="3"
       points="183.9,218.285 183.327,220.048 181.827,221.138 179.973,221.138 178.473,220.048 177.9,218.285 178.473,216.521 179.973,215.432 181.827,215.432 183.327,216.521 183.9,218.285"
       id="polyline212" />
    <polyline
       fill="none"
       stroke="#ff0000"
       stroke-width="3"
       points="189.48,236.524 188.907,238.287 187.407,239.377 185.553,239.377 184.053,238.287 183.48,236.524 184.053,234.761 185.553,233.671 187.407,233.671 188.907,234.761 189.48,236.524"
       id="polyline214" />
    <polyline
       fill="none"
       stroke="#ff0000"
       stroke-width="3"
       points="195.06,263.444 194.487,265.207 192.987,266.297 191.133,266.297 189.633,265.207 189.06,263.444 189.633,261.681 191.133,260.591 192.987,260.591 194.487,261.681 195.06,263.444"
       id="polyline216" />
    <polyline
       fill="none"
       stroke="#ff0000"
       stroke-width="3"
       points="200.64,208.438 200.067,210.201 198.567,211.291 196.713,211.291 195.213,210.201 194.64,208.438 195.213,206.675 196.713,205.585 198.567,205.585 200.067,206.675 200.64,208.438"
       id="polyline218" />
    <polyline
       fill="none"
       stroke="#ff0000"
       stroke-width="3"
       points="206.22,176.491 205.647,178.254 204.147,179.344 202.293,179.344 200.793,178.254 200.22,176.491 200.793,174.727 202.293,173.637 204.147,173.637 205.647,174.727 206.22,176.491"
       id="polyline220" />
    <polyline
       fill="none"
       stroke="#ff0000"
       stroke-width="3"
       points="211.8,155.519 211.227,157.282 209.727,158.372 207.873,158.372 206.373,157.282 205.8,155.519 206.373,153.755 207.873,152.666 209.727,152.666 211.227,153.755 211.8,155.519"
       id="polyline222" />
    <polyline
       fill="none"
       stroke="#ff0000"
       stroke-width="3"
       points="217.38,143.323 216.807,145.086 215.307,146.176 213.453,146.176 211.953,145.086 211.38,143.323 211.953,141.56 213.453,140.47 215.307,140.47 216.807,141.56 217.38,143.323"
       id="polyline224" />
    <polyline
       fill="none"
       stroke="#ff0000"
       stroke-width="3"
       points="222.96,133.095 222.387,134.858 220.887,135.948 219.033,135.948 217.533,134.858 216.96,133.095 217.533,131.332 219.033,130.242 220.887,130.242 222.387,131.332 222.96,133.095"
       id="polyline226" />
    <polyline
       fill="none"
       stroke="#ff0000"
       stroke-width="3"
       points="228.54,128.301 227.967,130.065 226.467,131.155 224.613,131.155 223.113,130.065 222.54,128.301 223.113,126.538 224.613,125.448 226.467,125.448 227.967,126.538 228.54,128.301"
       id="polyline228" />
    <polyline
       fill="none"
       stroke="#ff0000"
       stroke-width="3"
       points="234.12,140.07 233.547,141.833 232.047,142.923 230.193,142.923 228.693,141.833 228.12,140.07 228.693,138.306 230.193,137.216 232.047,137.216 233.547,138.306 234.12,140.07"
       id="polyline230" />
    <polyline
       fill="none"
       stroke="#ff0000"
       stroke-width="3"
       points="239.7,172.937 239.127,174.701 237.627,175.791 235.773,175.791 234.273,174.701 233.7,172.937 234.273,171.174 235.773,170.084 237.627,170.084 239.127,171.174 239.7,172.937"
       id="polyline232" />
    <polyline
       fill="none"
       stroke="#ff0000"
       stroke-width="3"
       points="245.28,126.407 244.707,128.17 243.207,129.26 241.353,129.26 239.853,128.17 239.28,126.407 239.853,124.644 241.353,123.554 243.207,123.554 244.707,124.644 245.28,126.407"
       id="polyline234" />
    <polyline
       fill="none"
       stroke="#ff0000"
       stroke-width="3"
       points="250.86,95.8397 250.287,97.603 248.787,98.6928 246.933,98.6928 245.433,97.603 244.86,95.8397 245.433,94.0763 246.933,92.9865 248.787,92.9865 250.287,94.0763 250.86,95.8397"
       id="polyline236" />
    <polyline
       fill="none"
       stroke="#ff0000"
       stroke-width="3"
       points="256.44,76.657 255.867,78.4203 254.367,79.5101 252.513,79.5101 251.013,78.4203 250.44,76.657 251.013,74.8936 252.513,73.8038 254.367,73.8038 255.867,74.8936 256.44,76.657"
       id="polyline238" />
    <polyline
       fill="none"
       stroke="#ff0000"
       stroke-width="3"
       points="262.02,59.872 261.447,61.6354 259.947,62.7252 258.093,62.7252 256.593,61.6354 256.02,59.872 256.593,58.1086 258.093,57.0188 259.947,57.0188 261.447,58.1086 262.02,59.872"
       id="polyline240" />
    <polyline
       fill="none"
       stroke="#ff0000"
       stroke-width="3"
       points="267.6,49.5932 267.027,51.3565 265.527,52.4464 263.673,52.4464 262.173,51.3565 261.6,49.5932 262.173,47.8298 263.673,46.74 265.527,46.74 267.027,47.8298 267.6,49.5932"
       id="polyline242" />
    <polyline
       fill="none"
       stroke="#ff0000"
       stroke-width="3"
       points="273.18,41.3021 272.607,43.0655 271.107,44.1553 269.253,44.1553 267.753,43.0655 267.18,41.3021 267.753,39.5388 269.253,38.449 271.107,38.449 272.607,39.5388 273.18,41.3021"
       id="polyline244" />
    <polyline
       fill="none"
       stroke="#ff0000"
       stroke-width="3"
       points="278.76,36.5978 278.187,38.3611 276.687,39.451 274.833,39.451 273.333,38.3611 272.76,36.5978 273.333,34.8344 274.833,33.7446 276.687,33.7446 278.187,34.8344 278.76,36.5978"
       id="polyline246" />
    <polyline
       fill="none"
       stroke="#ff0000"
       stroke-width="3"
       points="284.34,33.2455 283.767,35.0089 282.267,36.0987 280.413,36.0987 278.913,35.0089 278.34,33.2455 278.913,31.4822 280.413,30.3924 282.267,30.3924 283.767,31.4822 284.34,33.2455"
       id="polyline248" />
    <polyline
       fill="none"
       stroke="#ff0000"
       stroke-width="3"
       points="289.92,32.4 289.347,34.1633 287.847,35.2532 285.993,35.2532 284.493,34.1633 283.92,32.4 284.493,30.6367 285.993,29.5468 287.847,29.5468 289.347,30.6367 289.92,32.4"
       id="polyline250" />
    <polyline
       fill="none"
       stroke="#ff0000"
       stroke-width="3"
       points="295.5,32.509 294.927,34.2724 293.427,35.3622 291.573,35.3622 290.073,34.2724 289.5,32.509 290.073,30.7457 291.573,29.6559 293.427,29.6559 294.927,30.7457 295.5,32.509"
       id="polyline252" />
    <polyline
       fill="none"
       stroke="#ff0000"
       stroke-width="3"
       points="301.08,36.0099 300.507,37.7733 299.007,38.8631 297.153,38.8631 295.653,37.7733 295.08,36.0099 295.653,34.2466 297.153,33.1567 299.007,33.1567 300.507,34.2466 301.08,36.0099"
       id="polyline254" />
    <polyline
       fill="none"
       stroke="#ff0000"
       stroke-width="3"
       points="306.66,32.509 306.087,34.2724 304.587,35.3622 302.733,35.3622 301.233,34.2724 300.66,32.509 301.233,30.7457 302.733,29.6559 304.587,29.6559 306.087,30.7457 306.66,32.509"
       id="polyline256" />
    <polyline
       fill="none"
       stroke="#ff0000"
       stroke-width="3"
       points="312.24,32.4 311.667,34.1633 310.167,35.2532 308.313,35.2532 306.813,34.1633 306.24,32.4 306.813,30.6367 308.313,29.5468 310.167,29.5468 311.667,30.6367 312.24,32.4"
       id="polyline258" />
    <polyline
       fill="none"
       stroke="#ff0000"
       stroke-width="3"
       points="317.82,33.2455 317.247,35.0089 315.747,36.0987 313.893,36.0987 312.393,35.0089 311.82,33.2455 312.393,31.4822 313.893,30.3924 315.747,30.3924 317.247,31.4822 317.82,33.2455"
       id="polyline260" />
    <polyline
       fill="none"
       stroke="#ff0000"
       stroke-width="3"
       points="323.4,36.5978 322.827,38.3611 321.327,39.451 319.473,39.451 317.973,38.3611 317.4,36.5978 317.973,34.8344 319.473,33.7446 321.327,33.7446 322.827,34.8344 323.4,36.5978"
       id="polyline262" />
    <polyline
       fill="none"
       stroke="#ff0000"
       stroke-width="3"
       points="328.98,41.3021 328.407,43.0655 326.907,44.1553 325.053,44.1553 323.553,43.0655 322.98,41.3021 323.553,39.5388 325.053,38.449 326.907,38.449 328.407,39.5388 328.98,41.3021"
       id="polyline264" />
    <polyline
       fill="none"
       stroke="#ff0000"
       stroke-width="3"
       points="334.56,49.5932 333.987,51.3565 332.487,52.4464 330.633,52.4464 329.133,51.3565 328.56,49.5932 329.133,47.8298 330.633,46.74 332.487,46.74 333.987,47.8298 334.56,49.5932"
       id="polyline266" />
    <polyline
       fill="none"
       stroke="#ff0000"
       stroke-width="3"
       points="340.14,59.872 339.567,61.6354 338.067,62.7252 336.213,62.7252 334.713,61.6354 334.14,59.872 334.713,58.1086 336.213,57.0188 338.067,57.0188 339.567,58.1086 340.14,59.872"
       id="polyline268" />
    <polyline
       fill="none"
       stroke="#ff0000"
       stroke-width="3"
       points="345.72,76.657 345.147,78.4203 343.647,79.5101 341.793,79.5101 340.293,78.4203 339.72,76.657 340.293,74.8936 341.793,73.8038 343.647,73.8038 345.147,74.8936 345.72,76.657"
       id="polyline270" />
    <polyline
       fill="none"
       stroke="#ff0000"
       stroke-width="3"
       points="351.3,95.8397 350.727,97.603 349.227,98.6928 347.373,98.6928 345.873,97.603 345.3,95.8397 345.873,94.0763 347.373,92.9865 349.227,92.9865 350.727,94.0763 351.3,95.8397"
       id="polyline272" />
    <polyline
       fill="none"
       stroke="#ff0000"
       stroke-width="3"
       points="356.88,126.407 356.307,128.17 354.807,129.26 352.953,129.26 351.453,128.17 350.88,126.407 351.453,124.644 352.953,123.554 354.807,123.554 356.307,124.644 356.88,126.407"
       id="polyline274" />
    <polyline
       fill="none"
       stroke="#ff0000"
       stroke-width="3"
       points="362.46,172.937 361.887,174.701 360.387,175.791 358.533,175.791 357.033,174.701 356.46,172.937 357.033,171.174 358.533,170.084 360.387,170.084 361.887,171.174 362.46,172.937"
       id="polyline276" />
    <polyline
       fill="none"
       stroke="#ff0000"
       stroke-width="3"
       points="368.04,140.07 367.467,141.833 365.967,142.923 364.113,142.923 362.613,141.833 362.04,140.07 362.613,138.306 364.113,137.216 365.967,137.216 367.467,138.306 368.04,140.07"
       id="polyline278" />
    <polyline
       fill="none"
       stroke="#ff0000"
       stroke-width="3"
       points="373.62,128.301 373.047,130.065 371.547,131.155 369.693,131.155 368.193,130.065 367.62,128.301 368.193,126.538 369.693,125.448 371.547,125.448 373.047,126.538 373.62,128.301"
       id="polyline280" />
    <polyline
       fill="none"
       stroke="#ff0000"
       stroke-width="3"
       points="379.2,133.095 378.627,134.858 377.127,135.948 375.273,135.948 373.773,134.858 373.2,133.095 373.773,131.332 375.273,130.242 377.127,130.242 378.627,131.332 379.2,133.095"
       id="polyline282" />
    <polyline
       fill="none"
       stroke="#ff0000"
       stroke-width="3"
       points="384.78,143.323 384.207,145.086 382.707,146.176 380.853,146.176 379.353,145.086 378.78,143.323 379.353,141.56 380.853,140.47 382.707,140.47 384.207,141.56 384.78,143.323"
       id="polyline284" />
    <polyline
       fill="none"
       stroke="#ff0000"
       stroke-width="3"
       points="390.36,155.519 389.787,157.282 388.287,158.372 386.433,158.372 384.933,157.282 384.36,155.519 384.933,153.755 386.433,152.666 388.287,152.666 389.787,153.755 390.36,155.519"
       id="polyline286" />
    <polyline
       fill="none"
       stroke="#ff0000"
       stroke-width="3"
       points="395.94,176.491 395.367,178.254 393.867,179.344 392.013,179.344 390.513,178.254 389.94,176.491 390.513,174.727 392.013,173.637 393.867,173.637 395.367,174.727 395.94,176.491"
       id="polyline288" />
    <polyline
       fill="none"
       stroke="#ff0000"
       stroke-width="3"
       points="401.52,208.438 400.947,210.201 399.447,211.291 397.593,211.291 396.093,210.201 395.52,208.438 396.093,206.675 397.593,205.585 399.447,205.585 400.947,206.675 401.52,208.438"
       id="polyline290" />
    <polyline
       fill="none"
       stroke="#ff0000"
       stroke-width="3"
       points="407.1,263.444 406.527,265.207 405.027,266.297 403.173,266.297 401.673,265.207 401.1,263.444 401.673,261.681 403.173,260.591 405.027,260.591 406.527,261.681 407.1,263.444"
       id="polyline292" />
    <polyline
       fill="none"
       stroke="#ff0000"
       stroke-width="3"
       points="412.68,236.524 412.107,238.287 410.607,239.377 408.753,239.377 407.253,238.287 406.68,236.524 407.253,234.761 408.753,233.671 410.607,233.671 412.107,234.761 412.68,236.524"
       id="polyline294" />
    <polyline
       fill="none"
       stroke="#ff0000"
       stroke-width="3"
       points="418.26,218.285 417.687,220.048 416.187,221.138 414.333,221.138 412.833,220.048 412.26,218.285 412.833,216.521 414.333,215.432 416.187,215.432 417.687,216.521 418.26,218.285"
       id="polyline296" />
    <polyline
       fill="none"
       stroke="#ff0000"
       stroke-width="3"
       points="423.84,222.191 423.267,223.954 421.767,225.044 419.913,225.044 418.413,223.954 417.84,222.191 418.413,220.427 419.913,219.338 421.767,219.338 423.267,220.427 423.84,222.191"
       id="polyline298" />
    <polyline
       fill="none"
       stroke="#ff0000"
       stroke-width="3"
       points="429.42,231.411 428.847,233.175 427.347,234.265 425.493,234.265 423.993,233.175 423.42,231.411 423.993,229.648 425.493,228.558 427.347,228.558 428.847,229.648 429.42,231.411"
       id="polyline300" />
    <polyline
       fill="none"
       stroke="#ff0000"
       stroke-width="3"
       points="435,242.744 434.427,244.508 432.927,245.597 431.073,245.597 429.573,244.508 429,242.744 429.573,240.981 431.073,239.891 432.927,239.891 434.427,240.981 435,242.744"
       id="polyline302" />
    <polyline
       fill="none"
       stroke="#ff0000"
       stroke-width="3"
       points="440.58,265.83 440.007,267.593 438.507,268.683 436.653,268.683 435.153,267.593 434.58,265.83 435.153,264.066 436.653,262.976 438.507,262.976 440.007,264.066 440.58,265.83"
       id="polyline304" />
    <polyline
       fill="none"
       stroke="#ff0000"
       stroke-width="3"
       points="446.16,288.943 445.587,290.706 444.087,291.796 442.233,291.796 440.733,290.706 440.16,288.943 440.733,287.179 442.233,286.089 444.087,286.089 445.587,287.179 446.16,288.943"
       id="polyline306" />
    <polyline
       fill="none"
       stroke="#ff0000"
       stroke-width="3"
       points="457.32,345.78 456.747,347.543 455.247,348.633 453.393,348.633 451.893,347.543 451.32,345.78 451.893,344.017 453.393,342.927 455.247,342.927 456.747,344.017 457.32,345.78"
       id="polyline308" />
    <polyline
       fill="none"
       stroke="#0000ff"
       stroke-width="3"
       points="186.48,259.086 197.64,263.521 208.8,195.234 219.96,172.197 231.12,178.783 236.7,212.384 242.28,166.366 247.86,134.602 253.44,112.48 259.02,96.227 264.6,85.8727 270.18,81.1311 275.76,93.6823 281.34,140.883 286.92,81.3905 292.5,47.9827 298.08,32.4 303.66,47.9827 309.24,81.3905 314.82,140.883 320.4,93.6823 325.98,81.1311 331.56,85.8727 337.14,96.227 342.72,112.48 348.3,134.602 353.88,166.366 359.46,212.384 365.04,178.783 376.2,172.197 387.36,195.234 398.52,263.521 409.68,259.086"
       id="polyline310" />
    <polyline
       fill="none"
       stroke="#0000ff"
       stroke-width="3"
       points="189.48,259.086 188.907,260.849 187.407,261.939 185.553,261.939 184.053,260.849 183.48,259.086 184.053,257.322 185.553,256.233 187.407,256.233 188.907,257.322 189.48,259.086"
       id="polyline312" />
    <polyline
       fill="none"
       stroke="#0000ff"
       stroke-width="3"
       points="200.64,263.521 200.067,265.284 198.567,266.374 196.713,266.374 195.213,265.284 194.64,263.521 195.213,261.757 196.713,260.668 198.567,260.668 200.067,261.757 200.64,263.521"
       id="polyline314" />
    <polyline
       fill="none"
       stroke="#0000ff"
       stroke-width="3"
       points="211.8,195.234 211.227,196.997 209.727,198.087 207.873,198.087 206.373,196.997 205.8,195.234 206.373,193.471 207.873,192.381 209.727,192.381 211.227,193.471 211.8,195.234"
       id="polyline316" />
    <polyline
       fill="none"
       stroke="#0000ff"
       stroke-width="3"
       points="222.96,172.197 222.387,173.96 220.887,175.05 219.033,175.05 217.533,173.96 216.96,172.197 217.533,170.434 219.033,169.344 220.887,169.344 222.387,170.434 222.96,172.197"
       id="polyline318" />
    <polyline
       fill="none"
       stroke="#0000ff"
       stroke-width="3"
       points="234.12,178.783 233.547,180.546 232.047,181.636 230.193,181.636 228.693,180.546 228.12,178.783 228.693,177.019 230.193,175.929 232.047,175.929 233.547,177.019 234.12,178.783"
       id="polyline320" />
    <polyline
       fill="none"
       stroke="#0000ff"
       stroke-width="3"
       points="239.7,212.384 239.127,214.147 237.627,215.237 235.773,215.237 234.273,214.147 233.7,212.384 234.273,210.62 235.773,209.53 237.627,209.53 239.127,210.62 239.7,212.384"
       id="polyline322" />
    <polyline
       fill="none"
       stroke="#0000ff"
       stroke-width="3"
       points="245.28,166.366 244.707,168.129 243.207,169.219 241.353,169.219 239.853,168.129 239.28,166.366 239.853,164.602 241.353,163.512 243.207,163.512 244.707,164.602 245.28,166.366"
       id="polyline324" />
    <polyline
       fill="none"
       stroke="#0000ff"
       stroke-width="3"
       points="250.86,134.602 250.287,136.366 248.787,137.456 246.933,137.456 245.433,136.366 244.86,134.602 245.433,132.839 246.933,131.749 248.787,131.749 250.287,132.839 250.86,134.602"
       id="polyline326" />
    <polyline
       fill="none"
       stroke="#0000ff"
       stroke-width="3"
       points="256.44,112.48 255.867,114.243 254.367,115.333 252.513,115.333 251.013,114.243 250.44,112.48 251.013,110.717 252.513,109.627 254.367,109.627 255.867,110.717 256.44,112.48"
       id="polyline328" />
    <polyline
       fill="none"
       stroke="#0000ff"
       stroke-width="3"
       points="262.02,96.227 261.447,97.9903 259.947,99.0801 258.093,99.0801 256.593,97.9903 256.02,96.227 256.593,94.4636 258.093,93.3738 259.947,93.3738 261.447,94.4636 262.02,96.227"
       id="polyline330" />
    <polyline
       fill="none"
       stroke="#0000ff"
       stroke-width="3"
       points="267.6,85.8727 267.027,87.636 265.527,88.7258 263.673,88.7258 262.173,87.636 261.6,85.8727 262.173,84.1093 263.673,83.0195 265.527,83.0195 267.027,84.1093 267.6,85.8727"
       id="polyline332" />
    <polyline
       fill="none"
       stroke="#0000ff"
       stroke-width="3"
       points="273.18,81.1311 272.607,82.8945 271.107,83.9843 269.253,83.9843 267.753,82.8945 267.18,81.1311 267.753,79.3677 269.253,78.278 271.107,78.278 272.607,79.3677 273.18,81.1311"
       id="polyline334" />
    <polyline
       fill="none"
       stroke="#0000ff"
       stroke-width="3"
       points="278.76,93.6823 278.187,95.4456 276.687,96.5354 274.833,96.5354 273.333,95.4456 272.76,93.6823 273.333,91.9189 274.833,90.8291 276.687,90.8291 278.187,91.9189 278.76,93.6823"
       id="polyline336" />
    <polyline
       fill="none"
       stroke="#0000ff"
       stroke-width="3"
       points="284.34,140.883 283.767,142.647 282.267,143.737 280.413,143.737 278.913,142.647 278.34,140.883 278.913,139.12 280.413,138.03 282.267,138.03 283.767,139.12 284.34,140.883"
       id="polyline338" />
    <polyline
       fill="none"
       stroke="#0000ff"
       stroke-width="3"
       points="289.92,81.3905 289.347,83.1539 287.847,84.2437 285.993,84.2437 284.493,83.1539 283.92,81.3905 284.493,79.6271 285.993,78.5374 287.847,78.5374 289.347,79.6271 289.92,81.3905"
       id="polyline340" />
    <polyline
       fill="none"
       stroke="#0000ff"
       stroke-width="3"
       points="295.5,47.9827 294.927,49.746 293.427,50.8359 291.573,50.8359 290.073,49.746 289.5,47.9827 290.073,46.2193 291.573,45.1295 293.427,45.1295 294.927,46.2193 295.5,47.9827"
       id="polyline342" />
    <polyline
       fill="none"
       stroke="#0000ff"
       stroke-width="3"
       points="301.08,32.4 300.507,34.1633 299.007,35.2532 297.153,35.2532 295.653,34.1633 295.08,32.4 295.653,30.6367 297.153,29.5468 299.007,29.5468 300.507,30.6367 301.08,32.4"
       id="polyline344" />
    <polyline
       fill="none"
       stroke="#0000ff"
       stroke-width="3"
       points="306.66,47.9827 306.087,49.746 304.587,50.8359 302.733,50.8359 301.233,49.746 300.66,47.9827 301.233,46.2193 302.733,45.1295 304.587,45.1295 306.087,46.2193 306.66,47.9827"
       id="polyline346" />
    <polyline
       fill="none"
       stroke="#0000ff"
       stroke-width="3"
       points="312.24,81.3905 311.667,83.1539 310.167,84.2437 308.313,84.2437 306.813,83.1539 306.24,81.3905 306.813,79.6271 308.313,78.5374 310.167,78.5374 311.667,79.6271 312.24,81.3905"
       id="polyline348" />
    <polyline
       fill="none"
       stroke="#0000ff"
       stroke-width="3"
       points="317.82,140.883 317.247,142.647 315.747,143.737 313.893,143.737 312.393,142.647 311.82,140.883 312.393,139.12 313.893,138.03 315.747,138.03 317.247,139.12 317.82,140.883"
       id="polyline350" />
    <polyline
       fill="none"
       stroke="#0000ff"
       stroke-width="3"
       points="323.4,93.6823 322.827,95.4456 321.327,96.5354 319.473,96.5354 317.973,95.4456 317.4,93.6823 317.973,91.9189 319.473,90.8291 321.327,90.8291 322.827,91.9189 323.4,93.6823"
       id="polyline352" />
    <polyline
       fill="none"
       stroke="#0000ff"
       stroke-width="3"
       points="328.98,81.1311 328.407,82.8945 326.907,83.9843 325.053,83.9843 323.553,82.8945 322.98,81.1311 323.553,79.3677 325.053,78.278 326.907,78.278 328.407,79.3677 328.98,81.1311"
       id="polyline354" />
    <polyline
       fill="none"
       stroke="#0000ff"
       stroke-width="3"
       points="334.56,85.8727 333.987,87.636 332.487,88.7258 330.633,88.7258 329.133,87.636 328.56,85.8727 329.133,84.1093 330.633,83.0195 332.487,83.0195 333.987,84.1093 334.56,85.8727"
       id="polyline356" />
    <polyline
       fill="none"
       stroke="#0000ff"
       stroke-width="3"
       points="340.14,96.227 339.567,97.9903 338.067,99.0801 336.213,99.0801 334.713,97.9903 334.14,96.227 334.713,94.4636 336.213,93.3738 338.067,93.3738 339.567,94.4636 340.14,96.227"
       id="polyline358" />
    <polyline
       fill="none"
       stroke="#0000ff"
       stroke-width="3"
       points="345.72,112.48 345.147,114.243 343.647,115.333 341.793,115.333 340.293,114.243 339.72,112.48 340.293,110.717 341.793,109.627 343.647,109.627 345.147,110.717 345.72,112.48"
       id="polyline360" />
    <polyline
       fill="none"
       stroke="#0000ff"
       stroke-width="3"
       points="351.3,134.602 350.727,136.366 349.227,137.456 347.373,137.456 345.873,136.366 345.3,134.602 345.873,132.839 347.373,131.749 349.227,131.749 350.727,132.839 351.3,134.602"
       id="polyline362" />
    <polyline
       fill="none"
       stroke="#0000ff"
       stroke-width="3"
       points="356.88,166.366 356.307,168.129 354.807,169.219 352.953,169.219 351.453,168.129 350.88,166.366 351.453,164.602 352.953,163.512 354.807,163.512 356.307,164.602 356.88,166.366"
       id="polyline364" />
    <polyline
       fill="none"
       stroke="#0000ff"
       stroke-width="3"
       points="362.46,212.384 361.887,214.147 360.387,215.237 358.533,215.237 357.033,214.147 356.46,212.384 357.033,210.62 358.533,209.53 360.387,209.53 361.887,210.62 362.46,212.384"
       id="polyline366" />
    <polyline
       fill="none"
       stroke="#0000ff"
       stroke-width="3"
       points="368.04,178.783 367.467,180.546 365.967,181.636 364.113,181.636 362.613,180.546 362.04,178.783 362.613,177.019 364.113,175.929 365.967,175.929 367.467,177.019 368.04,178.783"
       id="polyline368" />
    <polyline
       fill="none"
       stroke="#0000ff"
       stroke-width="3"
       points="379.2,172.197 378.627,173.96 377.127,175.05 375.273,175.05 373.773,173.96 373.2,172.197 373.773,170.434 375.273,169.344 377.127,169.344 378.627,170.434 379.2,172.197"
       id="polyline370" />
    <polyline
       fill="none"
       stroke="#0000ff"
       stroke-width="3"
       points="390.36,195.234 389.787,196.997 388.287,198.087 386.433,198.087 384.933,196.997 384.36,195.234 384.933,193.471 386.433,192.381 388.287,192.381 389.787,193.471 390.36,195.234"
       id="polyline372" />
    <polyline
       fill="none"
       stroke="#0000ff"
       stroke-width="3"
       points="401.52,263.521 400.947,265.284 399.447,266.374 397.593,266.374 396.093,265.284 395.52,263.521 396.093,261.757 397.593,260.668 399.447,260.668 400.947,261.757 401.52,263.521"
       id="polyline374" />
    <polyline
       fill="none"
       stroke="#0000ff"
       stroke-width="3"
       points="412.68,259.086 412.107,260.849 410.607,261.939 408.753,261.939 407.253,260.849 406.68,259.086 407.253,257.322 408.753,256.233 410.607,256.233 412.107,257.322 412.68,259.086"
       id="polyline376" />
    <polyline
       fill="none"
       stroke="#0000ff"
       stroke-width="2"
       stroke-dasharray="12,4"
       points="119.52,334.604 123.091,328.56 126.662,322.516 130.234,316.472 133.805,310.428 137.376,304.384 140.947,298.34 144.518,292.296 148.09,286.252 151.661,280.207 155.232,274.163 158.803,268.119 162.374,262.075 165.946,256.031 169.517,249.987 173.088,243.943 176.659,237.899 180.23,231.855 183.802,225.811 187.373,219.767 190.944,213.723 194.515,207.678 198.086,201.634 201.658,195.59 205.229,189.546 208.8,183.502 212.371,177.458 215.942,171.414 219.514,165.37 223.085,159.326 226.656,153.282 230.227,147.238 233.798,141.194 237.37,135.149 240.941,129.105 244.512,123.061 248.083,117.017 251.654,110.973 255.226,104.929 258.797,98.8849 262.368,92.8409 265.939,86.7968 269.51,80.7527 273.082,74.7086 276.653,68.6645 280.224,62.6204 283.795,56.5764 287.366,50.5323 290.938,44.4882 294.509,38.4441 305.222,44.4882 308.794,50.5323 312.365,56.5764 315.936,62.6204 319.507,68.6645 323.078,74.7086 326.65,80.7527 330.221,86.7968 333.792,92.8409 337.363,98.8849 340.934,104.929 344.506,110.973 348.077,117.017 351.648,123.061 355.219,129.105 358.79,135.149 362.362,141.194 365.933,147.238 369.504,153.282 373.075,159.326 376.646,165.37 380.218,171.414 383.789,177.458 387.36,183.502 390.931,189.546 394.502,195.59 398.074,201.634 401.645,207.678 405.216,213.723 408.787,219.767 412.358,225.811 415.93,231.855 419.501,237.899 423.072,243.943 426.643,249.987 430.214,256.031 433.786,262.075 437.357,268.119 440.928,274.163 444.499,280.207 448.07,286.252 451.642,292.296 455.213,298.34 458.784,304.384 462.355,310.428 465.926,316.472 469.498,322.516 473.069,328.56 476.64,334.604"
       id="polyline378" />
    <polyline
       fill="none"
       stroke="#ff0000"
       stroke-width="2"
       stroke-dasharray="12,4"
       points="119.52,298.34 123.091,292.296 126.662,286.252 130.234,280.207 133.805,274.163 137.376,268.119 140.947,262.075 144.518,256.031 148.09,249.987 151.661,243.943 155.232,237.899 158.803,231.855 162.374,225.811 165.946,219.767 169.517,213.723 173.088,207.678 176.659,201.634 180.23,195.59 183.802,189.546 187.373,183.502 190.944,177.458 194.515,171.414 198.086,165.37 201.658,159.326 205.229,153.282 208.8,147.238 212.371,141.194 215.942,135.149 219.514,129.105 223.085,123.061 226.656,117.017 230.227,110.973 233.798,104.929 237.37,98.8849 240.941,92.8409 244.512,86.7968 248.083,80.7527 251.654,74.7086 255.226,68.6645 258.797,62.6204 262.368,56.5764 265.939,50.5323 269.51,44.4882 273.082,38.4441"
       id="polyline380" />
    <polyline
       fill="none"
       stroke="#ff0000"
       stroke-width="2"
       stroke-dasharray="12,4"
       points="326.65,44.4882 330.221,50.5323 333.792,56.5764 337.363,62.6204 340.934,68.6645 344.506,74.7086 348.077,80.7527 351.648,86.7968 355.219,92.8409 358.79,98.8849 362.362,104.929 365.933,110.973 369.504,117.017 373.075,123.061 376.646,129.105 380.218,135.149 383.789,141.194 387.36,147.238 390.931,153.282 394.502,159.326 398.074,165.37 401.645,171.414 405.216,177.458 408.787,183.502 412.358,189.546 415.93,195.59 419.501,201.634 423.072,207.678 426.643,213.723 430.214,219.767 433.786,225.811 437.357,231.855 440.928,237.899 444.499,243.943 448.07,249.987 451.642,256.031 455.213,262.075 458.784,268.119 462.355,274.163 465.926,280.207 469.498,286.252 473.069,292.296 476.64,298.34"
       id="polyline382" />
    <polygon
       fill="#ffffff"
       points="518.534,99.6147 518.534,35.1458 518.534,99.6147"
       id="polygon384" />
    <polygon
       fill="#ffffff"
       points="518.534,35.1458 518.534,35.1458 518.534,99.6147"
       id="polygon386" />
    <polygon
       fill="#ffffff"
       points="384.789,35.1458 518.534,35.1458 384.789,35.1458"
       id="polygon388" />
    <polygon
       fill="#ffffff"
       points="518.534,35.1458 518.534,35.1458 384.789,35.1458"
       id="polygon390" />
    <polygon
       fill="#ffffff"
       points="384.789,99.6147 518.534,99.6147 384.789,35.1458"
       id="polygon392" />
    <polygon
       fill="#ffffff"
       points="518.534,99.6147 518.534,35.1458 384.789,35.1458"
       id="polygon394" />
    <polyline
       fill="none"
       stroke="#000000"
       stroke-width="0.5"
       stroke-dasharray="16,0"
       points="384.789,99.6147 518.534,99.6147"
       id="polyline396" />
    <polyline
       fill="none"
       stroke="#000000"
       stroke-width="0.5"
       stroke-dasharray="16,0"
       points="384.789,35.1458 518.534,35.1458"
       id="polyline398" />
    <polyline
       fill="none"
       stroke="#000000"
       stroke-width="0.5"
       stroke-dasharray="16,0"
       points="384.789,35.1458 518.534,35.1458"
       id="polyline400" />
    <polyline
       fill="none"
       stroke="#000000"
       stroke-width="0.5"
       stroke-dasharray="16,0"
       points="384.789,99.6147 518.534,99.6147"
       id="polyline402" />
    <polyline
       fill="none"
       stroke="#000000"
       stroke-width="0.5"
       stroke-dasharray="16,0"
       points="384.789,99.6147 384.789,35.1458"
       id="polyline404" />
    <polyline
       fill="none"
       stroke="#000000"
       stroke-width="0.5"
       stroke-dasharray="16,0"
       points="518.534,99.6147 518.534,35.1458"
       id="polyline406" />
    <polyline
       fill="none"
       stroke="#000000"
       stroke-width="0.5"
       stroke-dasharray="16,0"
       points="518.534,99.6147 518.534,35.1458"
       id="polyline408" />
    <polyline
       fill="none"
       stroke="#000000"
       stroke-width="0.5"
       stroke-dasharray="16,0"
       points="384.789,99.6147 384.789,35.1458 384.789,35.1458"
       id="polyline410" />
    <polyline
       fill="none"
       stroke="#000000"
       stroke-width="0.5"
       stroke-dasharray="16,0"
       points="518.534,35.1458 518.534,35.1458"
       id="polyline412" />
    <polyline
       fill="none"
       stroke="#000000"
       stroke-width="0.5"
       stroke-dasharray="16,0"
       points="518.534,99.6147 518.534,99.6147"
       id="polyline414" />
    <polyline
       fill="none"
       stroke="#000000"
       stroke-width="0.5"
       stroke-dasharray="16,0"
       points="384.789,99.6147 384.789,99.6147"
       id="polyline416" />
    <text
       fill="#000000"
       x="410.874"
       y="43.2044"
       font-size="10"
       text-anchor="start"
       baseline-shift="-5"
       font-family="Helvetica"
       id="text418">Mesures avec dfaut</text>
    <text
       fill="#000000"
       x="410.874"
       y="59.3217"
       font-size="10"
       text-anchor="start"
       baseline-shift="-5"
       font-family="Helvetica"
       id="text420">Mesures sans dfaut</text>
    <text
       fill="#000000"
       x="410.874"
       y="75.4389"
       font-size="10"
       text-anchor="start"
       baseline-shift="-5"
       font-family="Helvetica"
       id="text422">Thorie sans dfaut</text>
    <text
       fill="#000000"
       x="410.874"
       y="91.5561"
       font-size="10"
       text-anchor="start"
       baseline-shift="-5"
       font-family="Helvetica"
       id="text424">Thorie sans dfaut</text>
    <polyline
       fill="none"
       stroke="#ff0000"
       stroke-width="0.5"
       points="387.535,43.2044 408.128,43.2044"
       id="polyline426" />
    <polyline
       fill="none"
       stroke="#ff0000"
       stroke-width="0.5"
       points="400.832,43.2044 400.259,44.9678 398.759,46.0576 396.904,46.0576 395.404,44.9678 394.832,43.2044 395.404,41.4411 396.904,40.3513 398.759,40.3513 400.259,41.4411 400.832,43.2044"
       id="polyline428"
       style="stroke-width:1.5;stroke-miterlimit:4;stroke-dasharray:none" />
    <polyline
       fill="none"
       stroke="#0000ff"
       stroke-width="0.5"
       points="387.535,59.3217 408.128,59.3217"
       id="polyline430" />
    <polyline
       fill="none"
       stroke="#0000ff"
       stroke-width="0.5"
       points="400.832,59.3217 400.259,61.085 398.759,62.1748 396.904,62.1748 395.404,61.085 394.832,59.3217 395.404,57.5583 396.904,56.4685 398.759,56.4685 400.259,57.5583 400.832,59.3217"
       id="polyline432"
       style="stroke-width:1.5;stroke-miterlimit:4;stroke-dasharray:none" />
    <polyline
       fill="none"
       stroke="#0000ff"
       stroke-width="0.5"
       stroke-dasharray="12,4"
       points="387.535,75.4389 408.128,75.4389"
       id="polyline434"
       style="stroke-width:1.5;stroke-miterlimit:4;stroke-dasharray:none" />
    <polyline
       fill="none"
       stroke="#ff0000"
       stroke-width="0.5"
       stroke-dasharray="12,4"
       points="387.535,91.5561 408.128,91.5561"
       id="polyline436"
       style="stroke-width:1.5;stroke-miterlimit:4;stroke-dasharray:none" />
  </g>
</svg>
